<svg width="161" height="182" viewBox="0 0 161 182" fill="none" xmlns="http://www.w3.org/2000/svg">
<g clip-path="url(#clip0_29_2485)">
<path d="M80.6625 0C60.2908 27.1707 80.6625 36.6864 80.6625 36.6864C80.6625 36.6864 101.034 27.1707 80.6625 0Z" fill="#71BF44"/>
<path d="M86.7622 24.186C86.2062 24.8127 85.6665 25.4533 85.1175 26.0869C84.5731 26.7251 84.0357 27.3657 83.5007 28.0086C82.9656 28.6514 82.3817 29.2572 81.9118 29.9511C81.6768 30.297 81.4442 30.6451 81.2302 31.0095C81.1394 31.1603 81.051 31.3158 80.965 31.4713C80.9859 30.7658 81.0022 30.0602 81.0162 29.357C81.051 27.6929 81.0208 26.0265 80.9859 24.3624C81.1697 24.2093 81.3442 24.0468 81.5117 23.882C81.7676 23.629 82.0141 23.3691 82.2491 23.0975C82.726 22.5637 83.0889 21.9417 83.5007 21.3592C83.9124 20.7766 84.3195 20.1895 84.7243 19.6C85.1221 19.0058 85.5292 18.4186 85.9201 17.8175L85.8642 17.7734C85.3827 18.3049 84.9174 18.8457 84.4452 19.3818C83.9776 19.9226 83.5123 20.4656 83.054 21.0134C82.5934 21.5588 82.0839 22.0694 81.6908 22.6659C81.4884 22.9606 81.3 23.2646 81.1208 23.578C81.0743 23.6615 81.0255 23.7451 80.9813 23.8309C80.9696 23.2298 80.958 22.631 80.951 22.0299L80.844 14.7005L80.7021 7.37115H80.63L80.4881 14.7005L80.4299 18.6577C80.395 18.5904 80.3601 18.5207 80.3252 18.4534C80.188 18.1888 80.0321 17.9359 79.8693 17.6899C79.7064 17.4438 79.525 17.2118 79.3272 16.9936C79.1295 16.7754 78.9271 16.5596 78.734 16.3368C78.3525 15.8888 77.964 15.4456 77.5732 15.0046C77.1754 14.5683 76.7869 14.125 76.3821 13.6933L76.3263 13.7374C76.6403 14.2387 76.9707 14.7261 77.2917 15.2204C77.6174 15.7125 77.9477 16.1975 78.285 16.6826C78.4525 16.924 78.6107 17.1746 78.7712 17.423C78.9318 17.669 79.1109 17.9034 79.3063 18.1239C79.5017 18.3443 79.7087 18.5579 79.9297 18.7575C80.0856 18.9037 80.2485 19.0429 80.4229 19.1729L80.3811 22.0253C80.3555 24.0932 80.2857 26.1611 80.2973 28.229C80.2322 28.113 80.167 27.9993 80.0996 27.8856C79.8856 27.5235 79.6529 27.173 79.418 26.8272C78.948 26.1333 78.3641 25.5275 77.8291 24.8846C77.294 24.2394 76.7566 23.5989 76.2123 22.9629C75.6633 22.3293 75.1235 21.6911 74.5676 21.0621L74.5117 21.1062C74.977 21.8025 75.4585 22.4871 75.9308 23.1788C76.4077 23.8658 76.8916 24.5504 77.3778 25.2304C77.864 25.9105 78.3013 26.6299 78.8527 27.2612C79.1272 27.5769 79.4063 27.8902 79.7018 28.1896C79.8949 28.3869 80.0949 28.5795 80.302 28.7652C80.3043 28.9601 80.3066 29.1551 80.3113 29.3524C80.3369 30.5731 80.3648 31.7963 80.416 33.017C80.4625 34.2378 80.5346 35.461 80.63 36.6817H80.7021C80.7975 35.461 80.8696 34.2378 80.9161 33.017C80.9301 32.6643 80.9417 32.3092 80.9533 31.9564C81.1906 31.7498 81.4139 31.5317 81.6303 31.3089C81.9257 31.0095 82.2049 30.6962 82.4794 30.3805C83.0308 29.7492 83.4681 29.0321 83.9543 28.3497C84.4405 27.6697 84.9244 26.985 85.4013 26.2981C85.8735 25.6064 86.3551 24.9218 86.8203 24.2255L86.7645 24.1814L86.7622 24.186Z" fill="#4B6800"/>
<path d="M109.637 34.1659C75.9751 39.005 83.6357 60.1065 83.6357 60.1065C83.6357 60.1065 104.787 67.7493 109.637 34.1659Z" fill="#71BF44"/>
<path d="M96.8075 55.5715C95.97 55.6226 95.1349 55.6945 94.2974 55.7549C93.4622 55.8222 92.6271 55.8941 91.7919 55.973C90.9568 56.0496 90.1146 56.0682 89.2911 56.226C88.8794 56.3049 88.4676 56.3861 88.0582 56.4929C87.886 56.537 87.7139 56.5834 87.544 56.6322C88.0582 56.1471 88.57 55.662 89.0794 55.1723C90.2845 54.0211 91.443 52.8212 92.5992 51.619C92.8388 51.6399 93.0761 51.6492 93.311 51.6492C93.6716 51.6515 94.0299 51.6422 94.3881 51.6144C95.1046 51.5726 95.8002 51.3893 96.5051 51.2686C97.21 51.1479 97.9148 51.0202 98.6174 50.8856C99.3199 50.7464 100.025 50.6164 100.725 50.4679L100.716 50.3982C99.9992 50.4354 99.285 50.4887 98.5709 50.5352C97.8567 50.5862 97.1425 50.6442 96.4306 50.7069C95.7188 50.7696 94.9976 50.7696 94.2951 50.9135C93.9438 50.9785 93.5925 51.062 93.2459 51.1572C93.1528 51.1827 93.0598 51.2082 92.9691 51.2361C93.3855 50.8021 93.8042 50.3704 94.2253 49.941L99.3432 44.6842L104.438 39.4018L104.387 39.3508L99.092 44.4335L96.2469 47.1908C96.2701 47.1188 96.2934 47.0469 96.3166 46.9726C96.405 46.6871 96.4772 46.4016 96.5353 46.1115C96.5935 45.8237 96.6307 45.5313 96.647 45.2366C96.6609 44.9418 96.6702 44.6471 96.6935 44.3546C96.74 43.7674 96.7819 43.1802 96.8168 42.5931C96.8447 42.0036 96.8843 41.4164 96.9052 40.8269L96.8354 40.8176C96.7028 41.3932 96.5888 41.9711 96.4655 42.5466C96.3492 43.1245 96.2376 43.7024 96.1305 44.2803C96.077 44.5705 96.0119 44.8583 95.9491 45.146C95.8886 45.4338 95.8491 45.7263 95.8304 46.0187C95.8142 46.3135 95.8072 46.6082 95.8211 46.9053C95.8281 47.1188 95.8444 47.3323 95.8746 47.5482L93.8228 49.5372C92.3386 50.9808 90.8242 52.3942 89.3656 53.8633C89.4005 53.7357 89.4354 53.608 89.4679 53.4804C89.5726 53.0719 89.6564 52.6611 89.7355 52.2503C89.896 51.4287 89.9123 50.5885 89.989 49.7553C90.0681 48.9221 90.1402 48.0889 90.2077 47.2557C90.2682 46.4202 90.3403 45.587 90.3915 44.7515L90.3217 44.7422C90.1565 45.5638 90.0123 46.3877 89.8564 47.2093C89.7075 48.0332 89.5633 48.8572 89.4261 49.6811C89.2865 50.505 89.0864 51.3219 89.0306 52.1575C89.0003 52.5752 88.9747 52.993 88.9724 53.4131C88.9678 53.6893 88.9724 53.9654 88.9887 54.244C88.8514 54.3832 88.7142 54.5225 88.5793 54.664C87.7302 55.546 86.8857 56.4302 86.0575 57.3284C85.2247 58.2243 84.4105 59.1387 83.6125 60.0717L83.6637 60.1228C84.5966 59.3267 85.5132 58.5144 86.4134 57.6835C86.674 57.4445 86.9322 57.2008 87.1904 56.9594C87.5045 56.9803 87.8162 56.9849 88.128 56.9803C88.549 56.978 88.9701 56.9524 89.3865 56.9223C90.224 56.8666 91.0429 56.667 91.8687 56.5277C92.6945 56.3908 93.5204 56.2469 94.3462 56.0984C95.1698 55.9429 95.9956 55.7966 96.8191 55.6342L96.8098 55.5645L96.8075 55.5715Z" fill="#4B6800"/>
<path d="M51.6416 34.1659C85.3036 39.005 77.643 60.1065 77.643 60.1065C77.643 60.1065 56.4943 67.7493 51.6416 34.1659Z" fill="#71BF44"/>
<path d="M64.4714 55.5715C65.3089 55.6226 66.1441 55.6945 66.9815 55.7549C67.8167 55.8222 68.6519 55.8941 69.487 55.973C70.3222 56.0496 71.1643 56.0682 71.9878 56.226C72.3996 56.3049 72.8113 56.3861 73.2208 56.4929C73.3929 56.537 73.5651 56.5834 73.7349 56.6322C73.2208 56.1471 72.709 55.662 72.1995 55.1723C70.9945 54.0211 69.836 52.8212 68.6798 51.619C68.4402 51.6399 68.2029 51.6492 67.9679 51.6492C67.6073 51.6515 67.2491 51.6422 66.8908 51.6144C66.1743 51.5726 65.4787 51.3893 64.7739 51.2686C64.069 51.1479 63.3641 51.0202 62.6616 50.8856C61.959 50.7464 61.2541 50.6164 60.5539 50.4679L60.5632 50.3982C61.2797 50.4354 61.9939 50.4887 62.7081 50.5352C63.4223 50.5862 64.1364 50.6442 64.8483 50.7069C65.5602 50.7696 66.2813 50.7696 66.9839 50.9135C67.3352 50.9785 67.6864 51.062 68.0331 51.1572C68.1261 51.1827 68.2192 51.2082 68.3099 51.2361C67.8935 50.8021 67.4747 50.3704 67.0537 49.941L61.9357 44.6842L56.8411 39.4018L56.8922 39.3508L62.187 44.4335L65.0321 47.1908C65.0088 47.1188 64.9856 47.0469 64.9623 46.9726C64.8716 46.6871 64.8018 46.4016 64.7436 46.1115C64.6855 45.8237 64.6482 45.5313 64.632 45.2366C64.618 44.9418 64.6087 44.6471 64.5854 44.3546C64.5389 43.7674 64.497 43.1802 64.4621 42.5931C64.4342 42.0036 64.3947 41.4164 64.3737 40.8269L64.4435 40.8176C64.5761 41.3932 64.6901 41.9711 64.8134 42.5466C64.9297 43.1245 65.0414 43.7024 65.1484 44.2803C65.2019 44.5705 65.267 44.8583 65.3299 45.146C65.3903 45.4338 65.4299 45.7263 65.4485 46.0187C65.4648 46.3135 65.4718 46.6082 65.4578 46.9053C65.4508 47.1188 65.4345 47.3323 65.4043 47.5482L67.4561 49.5372C68.9403 50.9808 70.4548 52.3942 71.9134 53.8633C71.8785 53.7357 71.8436 53.608 71.811 53.4804C71.7063 53.0719 71.6226 52.6611 71.5435 52.2503C71.383 51.4287 71.3667 50.5885 71.2899 49.7553C71.2108 48.9221 71.1387 48.0889 71.0712 47.2557C71.0108 46.4202 70.9386 45.587 70.8875 44.7515L70.9573 44.7422C71.1224 45.5638 71.2667 46.3877 71.4225 47.2093C71.5714 48.0332 71.7156 48.8572 71.8529 49.6811C71.9925 50.505 72.1925 51.3219 72.2484 52.1575C72.2786 52.5752 72.3042 52.993 72.3065 53.4131C72.3112 53.6893 72.3065 53.9654 72.2902 54.244C72.4275 54.3832 72.5648 54.5225 72.6997 54.664C73.5488 55.546 74.3932 56.4302 75.2214 57.3284C76.0543 58.2243 76.8685 59.1387 77.6664 60.0717L77.6152 60.1228C76.6824 59.3267 75.7658 58.5144 74.8655 57.6835C74.6049 57.4445 74.3467 57.2008 74.0885 56.9594C73.7744 56.9803 73.4627 56.9849 73.151 56.9803C72.7299 56.978 72.3089 56.9524 71.8924 56.9223C71.055 56.8666 70.2361 56.667 69.4102 56.5277C68.5844 56.3908 67.7585 56.2469 66.9327 56.0984C66.1092 55.9429 65.2833 55.7966 64.4598 55.6342L64.4691 55.5645L64.4714 55.5715Z" fill="#4B6800"/>
<path d="M81.1743 60.7123L80.9766 50.0315L80.8789 44.6935L80.7625 39.3531H80.5601L80.4438 44.6935L80.3461 50.0315L80.1484 60.7123L79.8413 70.098H81.4814L81.1743 60.7123Z" fill="#3B6000"/>
<path d="M120.763 165.42C142.923 143.312 142.923 107.468 120.763 85.3595C98.603 63.2515 62.6748 63.2515 40.5149 85.3595C18.355 107.468 18.355 143.312 40.5149 165.42C62.6748 187.528 98.603 187.528 120.763 165.42Z" fill="#71BF44"/>
<path d="M123.842 135.612C121.073 135.341 118.219 135.185 115.562 136.007C114.108 136.457 112.547 137.511 112.587 139.029C112.61 139.911 113.192 140.7 113.247 141.582C113.331 142.881 112.222 144.009 110.984 144.427C109.749 144.847 108.404 144.733 107.099 144.685C102.653 144.52 98.1752 145.17 93.9622 146.592C92.1872 147.191 90.1633 148.34 90.1679 150.208C90.1703 151.257 90.8798 152.211 91.7801 152.757C92.678 153.302 93.7435 153.502 94.788 153.615C95.8628 153.732 96.9655 153.773 97.9658 154.182C98.9661 154.588 99.8641 155.468 99.9153 156.544C99.9874 158.044 98.4311 159.151 96.9469 159.392C95.4627 159.636 93.9319 159.329 92.4431 159.555C90.9566 159.777 89.3793 160.833 89.3909 162.335C89.4049 164.046 91.4009 165.034 93.1131 165.129C95.5906 165.269 98.0077 164.408 100.478 164.162C102.946 163.918 105.819 164.526 107.036 166.682C107.581 167.648 107.839 168.943 108.867 169.363C110.063 169.852 111.258 168.783 112.405 168.184C114.194 167.251 116.26 167.471 118.312 167.717C127.924 159.195 134.615 147.465 136.695 134.208C135.341 135.095 133.754 135.622 132.158 135.854C129.406 136.255 126.608 135.877 123.839 135.605L123.842 135.612Z" fill="#44AEB5"/>
<path d="M73.4299 178.057C72.3853 176.219 69.1122 176.439 68.4329 174.439C67.9258 172.942 69.3332 171.521 70.6499 170.644C71.9666 169.764 73.5206 168.671 73.4485 167.091C73.3717 165.408 71.4455 164.438 69.7636 164.31C67.7327 164.155 65.7227 164.679 63.7337 165.115C61.7447 165.552 59.6626 165.898 57.6899 165.389C55.7195 164.881 53.891 163.298 53.7189 161.274C53.5956 159.828 54.3074 158.42 54.2725 156.969C54.2167 154.627 52.1835 152.717 49.9548 151.979C47.7262 151.241 45.3161 151.404 42.9689 151.466C40.6216 151.529 38.1603 151.459 36.1039 150.329C34.0474 149.199 32.5678 146.69 33.3541 144.483C33.7822 143.278 34.7755 142.38 35.5223 141.34C36.2667 140.3 36.7645 138.862 36.0899 137.775C35.1059 136.188 32.2584 136.336 31.6838 134.559C31.393 133.665 31.8862 132.688 32.5585 132.031C33.7845 130.836 35.6479 130.188 35.9154 128.288C36.0806 127.115 35.6363 126.364 34.5475 125.971C33.3634 125.544 31.9304 125.702 30.6975 125.53C30.4067 125.491 30.1182 125.444 29.8321 125.393H23.8953C23.8953 153.996 45.1579 177.644 72.7738 181.464C73.595 180.419 74.0556 179.162 73.4299 178.061V178.057Z" fill="#44AEB5"/>
<path d="M89.2933 98.8841C88.2372 99.5502 87.2275 100.337 86.5389 101.377C85.848 102.416 85.5154 103.744 85.8829 104.935C86.3552 106.462 87.9161 107.787 87.4881 109.328C87.1787 110.444 85.9643 111.006 84.8826 111.426C82.5679 112.324 80.2509 113.225 77.9362 114.123C76.8567 114.543 75.7564 114.973 74.8584 115.706C73.9628 116.439 73.2881 117.539 73.3603 118.693C73.4719 120.482 75.3144 121.726 77.094 121.975C78.8737 122.223 80.6696 121.775 82.4655 121.68C83.538 121.622 84.6593 121.705 85.5898 122.237C86.5203 122.768 87.2043 123.845 86.9996 124.894C86.7995 125.916 85.8806 126.605 85.1431 127.338C84.4057 128.072 83.7706 129.195 84.2754 130.107C84.8384 131.124 86.3133 131.054 87.4439 130.771C90.5635 129.986 93.8622 128.647 96.8748 129.775C99.1244 130.618 100.683 132.676 102.77 133.862C105.212 135.25 108.232 135.329 110.965 134.67C113.699 134.011 116.211 132.674 118.682 131.333C120.603 130.288 122.583 129.181 123.87 127.415C125.156 125.649 125.545 123.033 124.172 121.334C123.002 119.884 120.99 119.512 119.254 118.832C117.516 118.152 115.72 116.597 116.118 114.78C116.444 113.288 118.04 112.517 119.352 111.733C120.42 111.094 121.434 110.284 122.027 109.193C122.62 108.103 122.723 106.68 122.027 105.645C121.136 104.315 119.326 104.027 117.726 103.913C116.125 103.8 114.339 103.658 113.275 102.461C112.51 101.6 112.238 100.439 111.407 99.6128C110.635 98.8469 109.544 98.3456 108.593 97.8281C107.118 97.025 105.692 96.584 104.038 96.2893C98.9546 95.3818 93.711 96.099 89.2956 98.8841H89.2933Z" fill="#44AEB5"/>
<path d="M111.198 145.142C111.277 145.239 111.168 145.102 111.147 145.079C111.063 144.993 110.93 144.917 110.812 144.896C110.803 144.896 110.793 144.896 110.784 144.896C110.756 144.859 110.714 144.829 110.661 144.808C110.568 144.773 110.484 144.701 110.4 144.65C110.33 144.608 110.233 144.576 110.172 144.522C109.967 144.346 109.644 144.355 109.5 144.608C109.283 144.986 109.446 145.413 109.77 145.669C109.914 145.785 110.067 145.845 110.237 145.917C110.342 145.961 110.419 145.989 110.493 146.079C110.716 146.344 111.117 146.223 111.282 145.977C111.419 145.778 111.417 145.49 111.298 145.281C111.27 145.232 111.233 145.188 111.198 145.142Z" fill="#4B6800"/>
<path d="M113.85 146.532C113.764 146.258 113.359 146.142 113.145 146.335C113.122 146.342 113.099 146.349 113.073 146.36C112.782 146.504 112.757 146.922 112.966 147.14C113.006 147.245 113.064 147.342 113.145 147.421C113.413 147.676 113.871 147.72 114.171 147.491C114.318 147.379 114.439 147.24 114.429 147.04C114.422 146.903 114.376 146.771 114.276 146.671C114.15 146.546 113.994 146.507 113.848 146.53L113.85 146.532Z" fill="#4B6800"/>
<path d="M115.823 149.424C115.748 149.343 115.697 149.252 115.669 149.12C115.639 148.981 115.486 148.892 115.351 148.913C115.204 148.934 115.106 149.05 115.099 149.199C115.092 149.319 115.099 149.44 115.118 149.561C115.125 149.614 115.134 149.665 115.148 149.716C115.155 149.742 115.178 149.883 115.181 149.788C115.171 150.139 115.6 150.327 115.865 150.122C116.107 149.937 116.065 149.575 115.823 149.426V149.424Z" fill="#4B6800"/>
<path d="M106.08 143.236C105.98 143.267 105.896 143.336 105.871 143.448C105.834 143.615 105.922 143.789 106.092 143.835C106.236 143.875 106.401 143.833 106.494 143.712C106.594 143.582 106.594 143.417 106.494 143.29C106.394 143.162 106.194 143.144 106.08 143.236Z" fill="#4B6800"/>
<path d="M95.6466 99.9076C95.9699 99.9772 96.3073 100.024 96.5911 100.135C96.6795 100.184 96.7888 100.242 96.9051 100.307C97.0936 100.453 97.2262 100.667 97.2657 100.996C97.3239 101.502 97.2192 101.927 97.6775 102.277C98.273 102.737 99.6246 102.667 99.7735 101.781C99.8247 101.481 99.7526 101.203 99.6037 100.947C99.6246 100.903 99.6362 100.85 99.6293 100.787C99.492 99.5966 98.2032 99.5478 97.4402 98.8748C97.1215 98.5939 97.0517 98.3549 96.9075 97.9766C96.8284 97.7677 96.8028 97.5774 96.6306 97.401C96.2956 97.0552 95.6954 96.9159 95.2325 96.902C94.4508 96.8788 93.1039 97.3105 93.0062 98.2388C92.8922 99.3273 94.8719 99.7381 95.6489 99.9053L95.6466 99.9076Z" fill="#4B6800"/>
<path d="M91.252 96.7651C91.3869 96.7581 91.5125 96.7071 91.6149 96.6212C91.6893 96.6444 91.7684 96.6514 91.8498 96.6398C92.0104 96.6189 92.1499 96.533 92.2337 96.3891C92.336 96.2127 92.3105 96.0363 92.2337 95.86C92.1104 95.5768 91.7777 95.3819 91.473 95.3842C91.1357 95.3842 90.8449 95.6163 90.7658 95.9412C90.7309 96.0781 90.7355 96.2313 90.7797 96.3659C90.8449 96.5562 91.031 96.7721 91.252 96.7628V96.7651Z" fill="#4B6800"/>
<path d="M91.8222 93.5646C91.8687 93.5646 91.9175 93.553 91.9617 93.5344C91.9827 93.5367 92.0013 93.5414 92.0222 93.5414C92.3084 93.5414 92.4898 93.2721 92.434 93.0029C92.3758 92.7383 92.1106 92.5295 91.8384 92.5434C91.6547 92.5527 91.4406 92.7082 91.4639 92.9171C91.4755 93.0192 91.4732 93.1213 91.4755 93.2234C91.4779 93.4044 91.6314 93.5762 91.8198 93.5669L91.8222 93.5646Z" fill="#4B6800"/>
<path d="M93.0293 102.63C93.1294 102.57 93.2038 102.509 93.2689 102.407C93.3666 102.254 93.3131 102.041 93.1736 101.934C93.0223 101.818 92.8316 101.843 92.692 101.962C92.6292 102.015 92.5896 102.082 92.5571 102.157C92.4966 102.293 92.4896 102.463 92.6106 102.574C92.7223 102.676 92.8944 102.709 93.0293 102.628V102.63Z" fill="#4B6800"/>
<path d="M95.672 103.674C96.1861 103.674 96.1884 102.876 95.672 102.876C95.1556 102.876 95.1556 103.674 95.672 103.674Z" fill="#4B6800"/>
<path d="M92.7642 123.251C92.1919 123.251 92.1919 124.138 92.7642 124.138C93.3364 124.138 93.3364 123.251 92.7642 123.251Z" fill="#4B6800"/>
<path d="M92.2059 125.936C92.2757 125.862 92.3199 125.769 92.3199 125.665C92.3199 125.567 92.278 125.463 92.2059 125.393C92.1012 125.289 91.9686 125.27 91.8313 125.294C91.7988 125.301 91.7662 125.305 91.7313 125.312C91.5801 125.34 91.4545 125.516 91.4615 125.665C91.4684 125.816 91.5685 125.99 91.7313 126.018C91.7639 126.025 91.7965 126.029 91.8313 126.036C91.9663 126.059 92.1082 126.043 92.2059 125.936Z" fill="#4B6800"/>
<path d="M92.1407 127.54C91.7522 127.54 91.7522 128.141 92.1407 128.141C92.5292 128.141 92.5292 127.54 92.1407 127.54Z" fill="#4B6800"/>
<path d="M137.174 120.515C136.192 109.038 131.779 98.5406 124.963 90.0438C123.981 89.7258 123 89.4102 122.018 89.0922C121.348 88.8764 120.643 88.6582 119.95 88.7046C119.047 88.071 117.993 87.6045 116.923 87.3399C115.797 87.0591 114.811 87.0614 113.915 86.2352C113.152 85.532 112.471 84.8937 111.494 84.4922C110.605 84.1278 109.663 83.9584 108.714 83.8424C107.734 83.724 106.608 83.5035 105.666 83.8888C105.233 84.0652 104.898 84.3646 104.515 84.6199C104.079 84.9076 103.658 84.9425 103.172 85.0817C102.432 85.2952 101.902 85.8082 101.569 86.4905C101.276 87.0939 101.13 87.7507 100.878 88.3681C100.45 89.4195 99.6944 89.7281 98.6219 89.9208C96.7562 90.2596 95.0952 91.0209 94.1763 92.7824C93.8808 93.3511 93.376 94.3931 93.9088 94.9641C94.1647 95.238 94.509 95.2496 94.8533 95.2217C95.5209 95.166 96.1676 95.0407 96.8423 95.036C97.1284 95.036 97.4145 95.0407 97.6984 95.0616C98.2195 95.0987 98.1404 95.2588 98.3265 95.6604C98.4707 95.9714 98.708 96.2034 99.0058 96.3659C99.6199 96.7048 100.757 96.5794 101.109 97.2525C101.33 97.6772 101.281 98.1112 101.644 98.4849C101.946 98.7982 102.363 98.9885 102.781 99.086C103.302 99.209 103.831 99.1672 104.361 99.1742C104.673 99.1765 105.003 99.1695 105.303 99.2717C105.743 99.4225 106.343 99.9842 105.959 100.516C105.766 100.611 105.582 100.734 105.41 100.887C105.396 100.901 105.385 100.913 105.371 100.926C104.501 101.207 103.728 101.755 102.974 102.249C102.163 102.783 101.36 103.331 100.618 103.958C99.7758 104.668 99.1128 105.536 98.3218 106.295C97.5239 107.063 96.6329 107.423 95.5232 107.495C94.5276 107.56 93.5319 107.469 92.5432 107.632C91.0008 107.885 89.5166 108.852 89.5562 110.567C89.5702 111.148 89.7842 111.737 90.2169 112.134C90.4565 112.355 90.7473 112.473 91.0567 112.559C91.1753 112.591 91.5336 112.603 91.6196 112.693C91.8686 112.96 91.5057 113.631 91.4173 113.905C91.2312 114.487 91.0474 115.07 90.8613 115.653C90.6821 116.219 90.3867 116.836 90.3262 117.428C90.2587 118.101 90.731 118.452 91.3335 118.586C91.8337 118.698 92.2385 118.609 92.4432 119.169C92.5781 119.538 92.5828 119.835 92.8875 120.12C93.3039 120.508 93.8785 120.568 94.4345 120.519C94.2693 121.128 94.2531 121.777 94.6555 122.209C94.6578 122.467 94.7183 122.748 94.8439 123.052C95.1534 123.79 95.9373 124.504 95.5977 125.231C95.3976 125.656 94.8975 125.825 94.4787 126.039C94.06 126.252 93.6343 126.681 93.7878 127.125C94.0018 127.744 94.9928 127.584 95.4511 128.053C95.9234 128.538 95.5698 129.35 95.1324 129.866C94.6974 130.383 94.153 130.975 94.3159 131.63C94.4554 132.198 95.0905 132.512 95.6768 132.546C96.263 132.581 96.8399 132.416 97.4262 132.393C99.4012 132.321 101.227 134.176 101.118 136.146C101.083 136.78 100.934 137.553 101.444 137.931C101.816 138.207 102.351 138.093 102.753 137.864C103.156 137.636 103.505 137.307 103.942 137.149C104.608 136.91 105.415 137.149 105.841 137.713C106.266 138.277 106.273 139.117 105.857 139.688C105.999 139.79 106.143 139.894 106.285 139.996C106.185 140.277 106.259 140.588 106.48 140.846C106.704 141.106 107.041 141.173 107.32 141.345C107.762 141.619 107.848 141.992 108.023 142.447C108.304 143.181 108.746 143.51 109.451 143.835C110.368 144.258 111.279 144.708 112.212 145.091C112.894 145.372 113.564 145.52 114.26 145.332C115.05 145.664 115.839 145.996 116.63 146.328C117.17 146.555 117.937 146.711 118.217 146.198C118.324 146.43 118.431 146.66 118.535 146.892C119.752 146.917 120.969 146.943 122.185 146.971C123.195 146.992 124.27 146.996 125.126 146.462C125.982 145.929 126.44 144.641 125.768 143.889C125.528 143.619 125.175 143.448 125.01 143.127C124.74 142.603 125.098 141.988 125.442 141.51C125.498 141.431 125.556 141.352 125.612 141.273C126.115 141.338 126.617 141.21 127.022 140.925C127.057 141.071 127.233 141.187 127.396 141.101C127.655 140.967 127.787 140.765 127.859 140.523C128.285 140.588 128.711 140.514 129.078 140.177C129.369 139.911 129.506 139.528 129.474 139.14C129.434 138.655 129.16 138.479 129.571 138.121C129.823 137.903 130.041 137.662 130.12 137.33C130.167 137.135 130.12 136.926 130.204 136.736C130.262 136.601 130.395 136.471 130.514 136.348C130.963 135.991 131.426 135.731 131.716 135.194C131.833 134.983 131.802 134.735 131.658 134.559C131.861 134.31 131.958 134.022 131.733 133.681C131.43 133.224 130.858 133.277 130.444 133.53C130.362 133.581 130.297 133.646 130.248 133.723C129.623 133.637 129.055 133.405 128.764 132.867C128.204 131.829 129.139 130.653 129.939 129.784C130.483 129.195 131.011 128.545 131.2 127.765C131.342 127.176 131.232 126.498 130.867 126.036C131.54 125.454 131.991 124.676 131.951 123.722C131.942 123.509 131.893 123.293 131.823 123.093C131.758 122.908 131.509 122.601 131.519 122.413C131.526 122.255 131.609 122.095 131.719 121.942C132.607 121.949 133.494 121.958 134.382 121.965C134.882 121.97 135.404 121.97 135.85 121.75C136.299 121.529 136.644 121.011 136.497 120.536C136.725 120.568 136.948 120.557 137.167 120.508L137.174 120.515Z" fill="#4B6800"/>
<path d="M28.513 128.503C30.074 126.937 31.4721 124.878 33.6589 124.518C34.8523 124.321 36.0736 124.692 37.2787 124.59C38.4837 124.488 39.819 123.571 39.6259 122.381C39.4933 121.555 38.7024 121.021 38.2418 120.322C37.2205 118.774 38.0138 116.565 39.4654 115.411C40.9194 114.258 42.8293 113.893 44.6555 113.566C48.9615 112.793 53.2699 112.018 57.5759 111.245C59.202 110.953 60.8816 110.639 62.2518 109.716C63.6221 108.792 64.6038 107.084 64.1594 105.496C63.7244 103.941 62.1146 102.964 61.5493 101.451C60.9072 99.7265 61.8354 97.7352 63.2708 96.5817C64.7061 95.4259 66.5439 94.92 68.3236 94.4419C73.2694 93.1143 78.2151 91.7868 83.1609 90.4592C84.6823 90.0507 86.2503 89.619 87.4902 88.6489C88.7302 87.6788 89.5723 86.0193 89.107 84.5177C88.4999 82.5519 86.1712 81.8162 84.2171 81.164C82.2606 80.5118 80.032 79.1193 80.253 77.0746C80.4507 75.2527 82.5468 74.1387 82.912 72.3423C83.1935 70.959 82.3676 69.7081 81.2231 68.7844C81.0277 68.7844 80.8346 68.7797 80.6392 68.7797C49.3011 68.7797 23.8953 94.1262 23.8953 125.391C23.8953 127.069 23.9697 128.728 24.1116 130.367C25.5958 130.576 27.3662 129.654 28.513 128.503Z" fill="#44AEB5"/>
<path d="M90.1168 146.075C89.6283 145.919 89.0537 145.546 89.1863 145.051C88.7094 145.397 88.0301 145.084 87.6114 144.668C87.195 144.253 86.846 143.717 86.2877 143.529C85.7712 143.355 85.5037 143.557 85.078 143.898C84.7825 144.067 84.3847 143.798 84.315 143.466C84.2452 143.134 84.4057 142.795 84.6057 142.519C84.8035 142.243 85.0477 141.992 85.1803 141.679C85.5595 140.779 84.7616 139.683 83.7915 139.553C83.7683 139.354 83.745 139.154 83.7217 138.954C83.089 139.186 82.3376 139.068 81.8072 138.653C81.5676 138.467 81.3768 138.228 81.1581 138.017C80.758 137.627 80.2764 137.33 79.8019 137.035C79.3761 136.773 78.9528 136.51 78.527 136.248C77.4174 135.564 76.2984 134.877 75.0724 134.436C75.2539 134.74 74.8258 135.09 74.4746 135.044C74.1233 134.997 73.8302 134.749 73.4859 134.656C72.9531 134.51 72.4065 134.754 71.9109 135.013C71.8481 134.893 71.7621 134.784 71.6481 134.698C71.2968 134.433 70.7873 134.463 70.3965 134.665C69.5776 135.088 69.3915 135.775 69.552 136.332C69.1403 136.594 68.6587 136.877 68.3889 136.819C68.133 136.763 67.7794 136.151 67.4374 136.023C67.007 135.863 66.5092 135.868 66.1021 136.088C65.1087 135.919 64.1154 135.749 63.1221 135.58C62.7452 135.088 62.9034 134.38 63.1453 133.809C63.3873 133.238 63.7036 132.644 63.5897 132.033C63.4733 131.407 62.936 130.959 62.4335 130.567C61.938 130.618 61.4448 130.666 60.9493 130.717C60.9423 130.483 60.9376 130.249 60.9307 130.014C60.7376 130.16 60.4375 130.026 60.3258 129.812C60.2141 129.599 60.2351 129.341 60.2583 129.102C60.3188 128.487 60.3793 127.872 60.4398 127.257C60.47 126.953 60.4956 126.63 60.363 126.357C60.2304 126.083 59.8698 125.892 59.607 126.048C59.5953 125.876 59.5837 125.704 59.5721 125.533C59.1836 125.282 58.6439 125.412 58.2926 125.709C57.9413 126.006 57.7319 126.435 57.5365 126.853C57.3179 127.315 57.0969 127.779 56.8782 128.241C56.399 128.225 55.9221 128.209 55.4428 128.192C55.6406 127.71 55.2009 127.092 54.6775 127.122C53.8981 126.461 53.7632 125.885 53.0979 125.108C52.7815 124.739 52.4651 124.33 52.3977 123.848C52.3046 123.202 52.6698 122.59 53.0211 122.037C53.3677 121.492 53.7539 120.914 54.3564 120.677C55.0357 120.41 55.7964 120.649 56.5246 120.694C57.255 120.738 58.1553 120.413 58.2274 119.686C58.3158 120.222 59.1045 120.28 59.5767 120.009C60.049 119.737 60.4375 119.275 60.9772 119.201C61.4471 119.136 61.91 119.392 62.2474 119.726C62.5847 120.06 62.8359 120.468 63.15 120.824C63.264 120.953 63.3896 121.074 63.5199 121.186C63.5199 121.227 63.5315 121.271 63.5594 121.316C63.8432 121.747 63.6943 122.279 63.8293 122.754C63.9456 123.161 64.2364 123.504 64.6574 123.602C65.0297 123.688 65.4344 123.551 65.6415 123.223C65.7299 123.082 65.7462 122.831 65.7741 122.59C65.9927 122.411 66.1951 122.221 66.3836 122.012C66.8791 121.796 67.3746 121.58 67.8701 121.367C68.2912 120.475 69.003 119.909 69.4218 119.016C69.552 118.742 69.68 118.465 69.8103 118.192C69.9173 117.966 70.0243 117.739 70.129 117.514C70.35 117.043 70.5733 116.572 70.7943 116.1C71.1921 115.258 71.5876 114.411 71.9109 113.538C72.5693 113 73.0764 112.313 73.2439 111.419C73.4091 110.537 73.1392 109.651 73.2718 108.773C73.4138 107.836 74.007 107.056 73.9697 106.074C73.9349 105.164 73.4207 104.422 73.2532 103.549C73.0741 102.621 73.4487 101.681 73.1625 100.755C72.902 99.9146 72.2901 99.3993 71.4271 99.2717C70.9409 99.1997 70.7222 99.2206 70.5361 98.7657C70.4058 98.4478 70.3593 98.0973 70.2662 97.7677C70.0871 97.1272 69.8079 96.482 69.2101 96.1222C68.7844 95.8669 68.2819 95.8252 67.798 95.8344C67.4444 95.8414 66.6325 96.0085 66.5394 95.5188C66.4301 94.9432 65.5298 94.8341 65.2693 95.354C64.5714 96.7442 62.9173 96.2963 61.9496 95.4793C61.468 95.0732 60.8399 95.361 60.7725 95.9667C60.705 96.5887 60.6422 97.3918 60.1188 97.8234C59.5767 98.2737 59.1347 97.8675 58.8486 97.3987C58.2879 96.4866 58.1577 95.3656 57.7296 94.3932C57.2923 93.4021 56.4757 93.0772 55.4405 93.0099C54.1145 92.9217 52.9909 92.62 51.8975 91.8355C51.5974 91.6197 51.1042 91.8379 51.0321 92.186C51.0763 91.9771 50.6692 91.5129 50.525 91.3435C50.3249 91.1091 50.0783 90.9072 49.7759 90.8213C49.0826 90.624 48.3615 91.0046 47.9125 91.5152C47.3937 92.1024 47.2937 92.9913 46.7005 93.5135C46.1375 94.0079 45.2674 94.0381 44.5626 94.1216C43.8903 94.2028 43.218 94.2887 42.5968 94.5742C41.878 94.9061 41.315 95.4631 40.7311 95.9806C40.089 96.5469 39.4842 96.786 38.6909 97.0599C38.0209 97.292 37.5301 97.6842 37.337 98.3874C37.1276 99.151 37.4626 100.003 36.9252 100.664C36.2622 101.479 35.4015 102.175 34.657 102.918C33.9615 103.612 33.2101 104.28 32.5633 105.018C32.1586 105.482 31.912 106.044 32.1516 106.647C32.3191 107.07 32.682 107.351 33.0426 107.604C33.4706 107.903 34.2313 108.156 33.9847 108.773C33.7521 109.356 33.2612 109.746 33.3822 110.438C33.4962 111.097 34.0755 111.456 34.6966 111.547C35.0967 111.605 35.4806 111.47 35.8737 111.505C36.4367 111.554 36.5646 111.93 36.9369 112.278C37.2207 112.543 37.5277 112.679 37.9093 112.74C38.4048 112.819 38.7956 112.726 39.0515 113.243C39.3935 113.937 39.3981 114.687 39.882 115.33C39.9239 115.386 39.9681 115.439 40.0146 115.488C39.975 116.72 39.982 117.994 40.5357 119.09C40.7358 119.487 41.0172 119.858 41.4081 120.072C41.7989 120.285 42.313 120.308 42.6713 120.046C42.3363 120.42 42.4712 121.039 42.8062 121.413C43.1412 121.787 43.6227 121.989 44.0624 122.235C45.7188 123.154 46.9354 124.825 47.3007 126.681C47.41 127.243 47.4519 127.835 47.731 128.336C48.0102 128.838 48.6313 129.214 49.1594 128.988C49.2199 129.1 49.2804 129.211 49.3385 129.325C49.6712 129.945 50.1388 130.527 50.7739 130.831C51.409 131.135 52.1185 131.24 52.8164 131.342C53.7446 131.476 54.6751 131.609 55.6033 131.743C56.2803 131.841 56.9666 131.941 57.5993 132.201C58.3647 132.516 59.0161 133.048 59.6558 133.575C60.0536 133.902 60.4654 134.25 60.6561 134.726C60.826 135.15 60.8074 135.654 61.0749 136.023C61.3285 136.374 61.7774 136.517 62.1985 136.622C63.7129 137.002 65.2786 137.172 66.8372 137.125C67.0303 137.55 67.2234 137.975 67.4165 138.402C68.1074 139.927 66.9884 141.651 65.7043 142.728C65.2576 143.102 64.7319 143.41 64.4411 143.912C64.1643 144.392 64.148 144.977 64.1666 145.529C64.1852 146.084 64.2271 146.655 64.0433 147.18C63.8618 147.704 63.3826 148.173 62.8266 148.145C62.9685 148.749 63.1104 149.354 63.2547 149.958C63.015 150.222 63.357 150.703 63.6362 150.923C63.9153 151.144 64.2782 151.269 64.4992 151.55C64.818 151.954 64.7365 152.527 64.7133 153.04C64.6877 153.553 64.811 154.177 65.2948 154.356C65.788 154.537 66.4557 154.156 66.8163 154.537C67.007 154.739 66.9954 155.057 67.1373 155.296C67.2839 155.539 67.6002 155.669 67.8748 155.598C68.1493 155.526 68.3633 155.256 68.3679 154.971C68.7541 155.303 69.2868 155.456 69.7917 155.384C70.0638 155.345 70.2081 155.472 70.3476 155.709C70.4872 155.946 70.5198 156.229 70.5477 156.5C70.6035 157.046 70.6617 157.593 70.7175 158.139C70.7454 158.41 70.771 158.701 70.6431 158.94C70.2825 159.617 69.0077 159.457 68.8169 160.2C68.6727 160.757 69.3171 161.189 69.5032 161.732C69.7661 162.498 69.0821 163.238 68.4587 163.755C67.8352 164.273 67.1327 164.979 67.3467 165.758C67.4537 166.146 67.8259 166.376 68.2237 166.443C68.6215 166.51 69.024 166.39 69.4078 166.269C70.2616 166.004 71.1153 165.737 71.9691 165.473C72.5856 165.28 73.3067 164.974 73.4044 164.338C73.9279 164.338 74.3187 163.858 74.5467 163.386C74.7747 162.915 74.9398 162.384 75.3469 162.057C76.2216 161.358 77.5639 162.024 78.6224 161.655C79.3645 161.397 79.8275 160.685 80.3904 160.139C80.9534 159.594 81.8723 159.193 82.4958 159.671C82.9098 159.297 83.3239 158.923 83.738 158.55C83.3774 158.041 84.0055 157.276 84.4662 156.855C84.9268 156.435 85.5177 156.117 85.7922 155.558C86.0085 155.119 85.9876 154.604 86.1248 154.135C86.3412 153.381 86.9321 152.803 87.4974 152.26C88.5768 151.227 89.6539 150.197 90.7333 149.164C90.4239 149.261 90.1494 148.867 90.2169 148.551C90.2843 148.236 90.5495 148.008 90.7845 147.788C91.0194 147.567 91.2567 147.289 91.2358 146.968C91.2056 146.458 90.603 146.226 90.1145 146.07L90.1168 146.075Z" fill="#4B6800"/>
<path d="M68.9239 128.397C69.2799 128.352 69.6172 128.055 69.6079 127.698C69.5962 127.218 69.0402 126.951 68.5633 126.89C68.0864 126.83 67.5491 126.844 67.2001 126.512C67.1024 126.187 66.7744 125.997 66.4743 125.839C65.688 125.426 64.2782 124.289 63.3547 124.319C62.915 124.333 62.2985 124.769 62.3404 125.266C62.3776 125.707 63.0337 126.069 63.3151 125.591C63.2547 126.02 63.1942 126.449 63.1337 126.879C64.4039 126.238 66.0486 126.431 67.1326 127.348C67.4048 127.577 67.6444 127.849 67.9306 128.062C68.2167 128.276 68.5703 128.434 68.9239 128.392V128.397Z" fill="#4B6800"/>
<path d="M70.2197 129.016C70.6687 129.406 71.3457 129.441 71.9203 129.478C72.6205 129.522 73.3207 129.566 74.021 129.613C74.2792 129.629 74.6188 129.587 74.6677 129.332C74.7026 129.156 74.5583 128.998 74.4164 128.886C73.437 128.123 70.9432 127.64 70.2197 129.016Z" fill="#4B6800"/>
<path d="M71.6968 126.266C71.5805 126.192 71.4596 126.115 71.3316 126.064L71.6945 126.266C71.5526 126.231 71.4223 126.171 71.3293 126.062C71.2386 126.025 71.1432 126.001 71.0455 125.997C70.8012 125.99 70.5337 126.169 70.5407 126.415C70.55 126.709 70.9036 126.849 71.1944 126.911C71.4945 126.979 71.7946 127.046 72.0946 127.111C72.297 127.157 72.546 127.187 72.6809 127.027C72.8205 126.86 72.7204 126.589 72.5413 126.468C72.3622 126.347 72.1342 126.331 71.9178 126.303C71.8457 126.294 71.7736 126.282 71.7015 126.264L71.6968 126.266Z" fill="#4B6800"/>
<path d="M66.9094 129.037C66.6745 129.102 66.5093 129.357 66.5442 129.596C66.7303 129.822 66.9281 130.054 67.1979 130.165C67.4678 130.279 67.8307 130.225 67.9772 129.972C68.1145 129.736 68.0051 129.418 67.7958 129.244C67.5887 129.067 67.3072 129.005 67.0374 128.972L67.1118 129.026C67.0444 129.016 66.9769 129.016 66.9094 129.035V129.037Z" fill="#4B6800"/>
<path d="M59.9978 144.026C59.7768 143.872 59.4977 143.84 59.2301 143.812L59.4232 143.789C59.1022 143.647 58.6835 143.817 58.5509 144.142C58.4183 144.464 58.5974 144.88 58.9254 145.005C59.1394 145.086 59.3767 145.051 59.6 145.017C59.8327 144.979 60.0932 144.924 60.2142 144.724C60.3514 144.494 60.2188 144.179 59.9978 144.028V144.026Z" fill="#4B6800"/>
<path d="M56.7106 143.828C56.5756 143.784 56.4081 143.817 56.3174 143.928C56.1709 144.104 56.2337 144.402 56.4244 144.529C56.6152 144.657 56.8897 144.617 57.0595 144.464C57.2293 144.309 57.2968 144.06 57.2596 143.835C57.0758 143.835 56.8944 143.831 56.7106 143.828Z" fill="#4B6800"/>
<path d="M57.8133 142.336C57.5272 142.25 57.1317 142.227 57.02 142.503C56.9223 142.747 57.1782 143.014 57.4411 143.03C57.704 143.046 57.9436 142.9 58.1669 142.761L57.9506 142.988C58.0367 143.109 58.2507 143.065 58.3135 142.93C58.3763 142.798 58.3158 142.631 58.2088 142.531C58.0995 142.431 57.9552 142.382 57.8133 142.338V142.336Z" fill="#4B6800"/>
<path d="M79.2063 135.092C79.1597 135.088 79.1132 135.088 79.0667 135.09L79.1365 135.116C79.0969 135.134 79.062 135.162 79.0364 135.199C78.9248 135.373 79.0132 135.617 79.1691 135.749C79.3272 135.884 79.5343 135.935 79.7343 135.993C79.9321 136.049 80.1391 136.121 80.2764 136.274C80.2973 135.768 79.9205 135.292 79.4436 135.139C79.3831 135.09 79.29 135.074 79.2063 135.09V135.092Z" fill="#4B6800"/>
<path d="M78.5829 133.756L78.562 133.769C78.8411 133.698 79.1226 133.623 79.4018 133.551C79.2692 133.259 79.0109 132.99 78.6899 132.978C78.3689 132.969 78.0665 133.352 78.2456 133.619C78.3177 133.728 78.4549 133.769 78.5829 133.756Z" fill="#4B6800"/>
<path d="M68.8401 124.112C68.9913 124.112 69.1379 123.98 69.1309 123.822C69.1239 123.664 69.0029 123.532 68.8401 123.532C68.6889 123.532 68.5423 123.664 68.5493 123.822C68.5563 123.98 68.6773 124.112 68.8401 124.112Z" fill="#4B6800"/>
<path d="M69.6614 125.273C69.6009 125.094 69.4683 124.994 69.2798 124.98C69.1193 124.969 68.9681 125.103 68.9239 125.249C68.9076 125.301 68.9053 125.366 68.9169 125.421C68.9239 125.465 68.9379 125.507 68.9635 125.547C68.9635 125.549 68.9635 125.554 68.9751 125.567C68.9774 125.572 68.9797 125.574 68.9821 125.579C68.9891 125.588 68.9984 125.595 69.0077 125.602C69.1007 125.711 69.2682 125.769 69.3985 125.728C69.5799 125.67 69.7242 125.468 69.6567 125.273H69.6614Z" fill="#4B6800"/>
<path d="M67.7585 125.456C67.8469 125.428 67.9098 125.366 67.9447 125.287C68.0889 125.173 68.0935 124.934 67.9633 124.806C67.9051 124.748 67.8167 124.711 67.733 124.711C67.6097 124.711 67.5213 124.776 67.4515 124.874C67.3514 125.01 67.3701 125.178 67.4329 125.324C67.4817 125.435 67.6492 125.493 67.7609 125.456H67.7585Z" fill="#4B6800"/>
<path d="M76.7125 130.014C76.7381 130 76.766 129.989 76.7916 129.975C76.9382 129.905 76.9498 129.689 76.8428 129.585C76.7358 129.478 76.5218 129.49 76.452 129.636C76.438 129.661 76.4264 129.689 76.4124 129.715C76.3147 129.917 76.5101 130.112 76.7125 130.014Z" fill="#4B6800"/>
<path d="M75.9563 131.314C76.2122 131.314 76.2122 130.917 75.9563 130.917C75.7004 130.917 75.7004 131.314 75.9563 131.314Z" fill="#4B6800"/>
<path d="M74.4025 130.713C74.6328 130.713 74.6328 130.355 74.4025 130.355C74.1722 130.355 74.1722 130.713 74.4025 130.713Z" fill="#4B6800"/>
<path d="M77.5082 130.875C77.8641 130.875 77.8641 130.323 77.5082 130.323C77.1522 130.323 77.1522 130.875 77.5082 130.875Z" fill="#4B6800"/>
<path d="M79.1249 130.966C79.5157 130.966 79.5157 130.36 79.1249 130.36C78.7341 130.36 78.7341 130.966 79.1249 130.966Z" fill="#4B6800"/>
<g style="mix-blend-mode:multiply" opacity="0.15">
<path d="M116.937 81.8766C125.133 91.6917 130.065 104.315 130.065 118.09C130.065 149.354 104.659 174.701 73.3207 174.701C59.5139 174.701 46.861 169.781 37.0229 161.604C47.431 174.07 63.1058 182.002 80.6394 182.002C111.977 182.002 137.383 156.656 137.383 125.391C137.383 107.898 129.432 92.2603 116.937 81.8766Z" fill="#45736B"/>
</g>
<g style="mix-blend-mode:multiply" opacity="0.05">
<path d="M83.4354 71.5694C98.3938 71.5694 112 77.3438 122.136 86.7806C111.779 75.7053 97.0189 68.7797 80.6392 68.7797C49.3011 68.7797 23.8953 94.1262 23.8953 125.391C23.8953 141.732 30.837 156.459 41.9383 166.791C32.4794 156.677 26.6915 143.104 26.6915 128.181C26.6915 96.9159 52.0974 71.5694 83.4354 71.5694Z" fill="#45736B"/>
</g>
<g style="mix-blend-mode:multiply" opacity="0.3">
<path d="M108.081 75.8306C112.582 83.9445 115.15 93.2768 115.15 103.208C115.15 134.473 89.7445 159.819 58.4065 159.819C48.4521 159.819 39.0979 157.259 30.9651 152.766C40.638 170.196 59.2556 182 80.6393 182C111.977 182 137.383 156.654 137.383 125.389C137.383 104.055 125.551 85.4809 108.081 75.8306Z" fill="#4ABCC4"/>
</g>
<path d="M81.8536 113.392L86.4085 114.708C88.0276 115.177 90.675 115.943 92.2965 116.411L96.8514 117.73C98.4706 118.196 100.099 117.242 100.471 115.608L101.52 111.011C101.89 109.377 102.5 106.703 102.872 105.067L103.921 100.469C104.296 98.8353 103.235 98.2969 101.567 99.2716L98.7078 100.945C97.661 99.1695 96.6118 97.4056 96.2094 96.7604C95.2881 95.2936 93.5201 94.1703 90.0446 94.1912C87.4647 94.2051 80.6113 94.2446 76.2773 94.2701L82.0257 104.306C82.1537 104.433 82.2746 104.596 82.3816 104.809C82.6561 105.362 83.6983 107.258 84.7359 109.133L81.9396 110.772C80.2717 111.746 80.2344 112.928 81.8536 113.397V113.392Z" fill="url(#paint0_linear_29_2485)"/>
<path d="M65.9183 97.6099C64.441 99.8379 60.698 105.77 60.698 105.77C59.8582 107.1 60.2862 108.841 61.6494 109.634L70.8315 114.989C72.1947 115.782 73.9813 115.337 74.8002 113.993C74.8002 113.993 79.9786 105.533 80.4579 104.751C80.951 103.937 81.5466 103.816 82.0258 104.299L76.2774 94.2631C74.7769 94.2724 73.5766 94.2794 72.9601 94.2817C70.5686 94.2956 67.8352 94.7087 65.9159 97.6052L65.9183 97.6099Z" fill="url(#paint1_linear_29_2485)"/>
<path d="M49.6781 135.111C50.7133 137.107 53.5747 142.241 55.673 146.003L62.1798 135.429C62.9475 134.127 64.3688 131.715 65.5553 129.717L68.8866 131.558C70.5778 132.493 71.6224 131.927 71.2106 130.302L70.0451 125.73C69.6333 124.105 68.9564 121.448 68.5423 119.823L67.3791 115.251C66.965 113.626 65.3133 112.714 63.7058 113.22L59.1858 114.652C57.5783 115.161 54.9495 115.994 53.3444 116.502L48.8243 117.932C47.2168 118.44 47.2866 119.621 48.9755 120.554L51.4321 121.912C50.1782 124.323 48.701 127.171 48.3288 127.988C47.6565 129.464 48.0706 132.01 49.6827 135.111H49.6781Z" fill="url(#paint2_linear_29_2485)"/>
<path d="M62.182 135.429L55.6753 146.003C56.8454 148.096 57.776 149.77 58.0249 150.234C58.7112 151.531 59.6952 154.073 65.9065 154.038C72.1132 154.003 74.935 153.987 74.935 153.987C76.5146 153.977 77.8011 152.685 77.7894 151.116L77.7289 140.526C77.7196 138.954 76.4215 137.678 74.8396 137.687C74.8396 137.687 64.2711 137.747 62.5077 137.757C61.3958 137.764 61.2538 137.03 61.6447 136.348C61.6982 136.255 61.8959 135.919 62.1844 135.431L62.182 135.429Z" fill="url(#paint3_linear_29_2485)"/>
<path d="M100.041 136.557L105.419 147.235C107.301 143.786 110.498 137.799 111.805 135.211C113.552 131.748 114.048 128.745 113.243 127.166C112.436 125.586 108.453 117.908 108.453 117.908C107.727 116.511 106.036 116.045 104.689 116.866L95.5673 122.443C94.2204 123.265 93.7504 125.061 94.5181 126.433C94.5181 126.433 97.2888 131.386 98.8335 134.159C99.3127 135.02 99.6756 135.673 99.7966 135.898C99.9222 136.132 100.004 136.353 100.041 136.555V136.557Z" fill="url(#paint4_linear_29_2485)"/>
<path d="M104.091 149.63C104.303 149.273 104.789 148.398 105.422 147.235L100.043 136.557C100.157 137.177 99.8408 137.599 99.0684 137.604C98.538 137.606 95.9186 137.622 93.5062 137.636L93.4759 134.326C93.4573 132.402 92.4477 131.778 91.231 132.939L87.8066 136.202C86.5876 137.36 84.5963 139.258 83.3796 140.416L79.9553 143.68C78.7363 144.84 78.7549 146.72 79.9902 147.857L83.475 151.06C84.7126 152.197 86.7388 154.059 87.9765 155.196L91.459 158.399C92.6966 159.536 93.6969 158.895 93.6783 156.971L93.6481 153.824C95.0113 153.815 96.5164 153.808 97.9076 153.799C101.781 153.778 103.244 151.053 104.091 149.633V149.63Z" fill="url(#paint5_linear_29_2485)"/>
</g>
<defs>
<linearGradient id="paint0_linear_29_2485" x1="78.4362" y1="92.114" x2="101.494" y2="115.226" gradientUnits="userSpaceOnUse">
<stop stop-color="white"/>
<stop offset="1" stop-color="white"/>
</linearGradient>
<linearGradient id="paint1_linear_29_2485" x1="60.2676" y1="104.826" x2="82.0281" y2="104.826" gradientUnits="userSpaceOnUse">
<stop stop-color="#F8F8F8"/>
<stop offset="1" stop-color="#F9F9F9"/>
</linearGradient>
<linearGradient id="paint2_linear_29_2485" x1="47.6588" y1="129.543" x2="71.3013" y2="129.543" gradientUnits="userSpaceOnUse">
<stop stop-color="white"/>
<stop offset="1" stop-color="white"/>
</linearGradient>
<linearGradient id="paint3_linear_29_2485" x1="55.6753" y1="144.733" x2="77.7871" y2="144.733" gradientUnits="userSpaceOnUse">
<stop stop-color="#F8F8F8"/>
<stop offset="1" stop-color="#F9F9F9"/>
</linearGradient>
<linearGradient id="paint4_linear_29_2485" x1="96.7188" y1="138.553" x2="112.986" y2="122.248" gradientUnits="userSpaceOnUse">
<stop stop-color="white"/>
<stop offset="1" stop-color="white"/>
</linearGradient>
<linearGradient id="paint5_linear_29_2485" x1="79.048" y1="145.657" x2="105.422" y2="145.657" gradientUnits="userSpaceOnUse">
<stop stop-color="#F8F8F8"/>
<stop offset="1" stop-color="#F9F9F9"/>
</linearGradient>
<clipPath id="clip0_29_2485">
<rect width="160" height="182" fill="white" transform="translate(0.5)"/>
</clipPath>
</defs>
</svg>
