<svg width="144" height="166" viewBox="0 0 144 166" fill="none" xmlns="http://www.w3.org/2000/svg">
<path d="M20.8653 139.818C20.6644 140.348 20.4678 140.882 20.2544 141.408C19.405 143.548 18.9908 145.777 18.8235 148.064C18.7356 149.28 18.3172 149.667 17.1038 149.65C14.0704 149.612 11.0329 149.599 7.99945 149.469C6.79446 149.418 5.65641 148.939 4.5853 148.325C2.22971 146.979 1.40546 144.768 1.1084 142.24C1.1084 142.173 1.1084 142.106 1.1084 142.034C1.11677 139.927 1.68161 137.905 2.0247 135.844C2.10419 135.356 2.13766 134.86 2.19205 134.368C2.42217 134.326 2.6523 134.284 2.39707 133.981C2.39707 133.775 2.39707 133.565 2.39289 133.359C2.71505 133.317 2.76108 133.102 2.71505 132.829C3.02049 131.181 3.3301 129.536 3.62717 127.888C3.71085 127.43 3.74432 126.963 3.79871 126.496C4.12088 126.454 4.1669 126.24 4.12088 125.97C4.40958 124.423 4.68572 122.871 4.99115 121.328C5.84469 117.005 6.70241 112.678 7.58105 108.359C8.04547 106.059 8.56847 103.775 9.03708 101.475C9.63539 98.5274 10.1919 95.5711 10.7902 92.6233C11.3257 89.995 11.9073 87.3794 12.4429 84.7512C13.0454 81.7991 13.6018 78.8345 14.2001 75.8824C14.6813 73.5191 15.2127 71.1642 15.7022 68.8009C16.4553 65.1634 17.1917 61.5217 17.9281 57.8801C18.0076 57.489 18.0076 57.0811 18.0411 56.6816C18.3632 56.6353 18.4134 56.4251 18.359 56.1517C18.5013 55.3065 18.6435 54.457 18.79 53.6118C19.0703 52.0096 19.359 50.4117 19.6435 48.8137C19.8736 48.7716 20.1079 48.7296 19.8485 48.4268C19.8485 48.2208 19.8485 48.0147 19.8485 47.8086C20.1707 47.7666 20.2209 47.5563 20.1707 47.283C20.5515 45.2729 20.8862 43.2544 21.3339 41.2612C21.6602 39.7978 21.9615 38.2923 22.5723 36.9425C24.1581 33.4437 26.886 31.2907 30.7018 30.6641C31.7144 30.5001 32.752 30.4496 33.7771 30.4328C35.8147 30.4034 37.8523 30.4412 39.8899 30.4328C40.8606 30.4328 41.0698 30.2352 41.1577 29.2848C41.279 27.9476 41.3208 26.6019 41.5049 25.2731C41.6472 24.2512 41.9275 23.2462 42.1869 22.2453C43.2664 18.0612 45.2036 14.327 47.9776 11.0301C48.4044 10.5213 48.76 9.94097 49.237 9.48261C53.0193 5.87036 57.3372 3.15381 62.3496 1.62312C64.3914 1.00075 66.4541 0.441464 68.6131 0.378387C68.8683 0.369976 69.1193 0.243821 69.3704 0.172333C69.6967 0.168128 70.0273 0.159717 70.3536 0.151307C71.4205 0.159717 72.4875 0.176538 73.5502 0.168128C73.6966 0.168128 73.8389 0.0503824 73.9811 -0.0126953C74.182 -0.0126953 74.3828 -0.0126953 74.5836 -0.0126953C74.8514 0.0503824 75.1192 0.109255 75.387 0.172333C75.6004 0.243821 75.8137 0.365771 76.0313 0.382592C82.3952 0.883009 88.1482 3.01504 93.0937 7.09406C98.5203 11.5726 102.073 17.258 103.403 24.247C103.667 25.6263 103.721 27.0477 103.863 28.448C103.893 28.7129 103.863 28.9862 103.897 29.2554C104.006 30.1343 104.399 30.4623 105.282 30.4581C107.687 30.4496 110.097 30.3992 112.503 30.4454C117.93 30.5464 122.143 34.0072 123.331 39.3352C123.675 40.8659 123.896 42.426 124.172 43.9735C124.277 44.1501 124.382 44.3268 124.49 44.5034C124.796 46.1434 125.085 47.7834 125.415 49.4192C125.896 51.812 126.407 54.2005 126.892 56.5933C126.963 56.9507 126.955 57.325 126.984 57.695C127.089 57.8716 127.193 58.0483 127.302 58.2249C127.557 59.6252 127.817 61.0255 128.064 62.4301C128.248 63.4729 128.415 64.52 128.591 65.5629C128.695 65.7395 128.8 65.9162 128.909 66.0928C129.223 67.7538 129.545 69.4107 129.846 71.0717C129.988 71.8539 130.08 72.6444 130.197 73.4308C130.302 73.6074 130.407 73.7841 130.515 73.9607C130.825 75.6049 131.118 77.2533 131.448 78.8892C131.997 81.6141 132.57 84.3349 133.122 87.0598C133.193 87.4173 133.181 87.7915 133.21 88.1574C133.314 88.334 133.419 88.5106 133.528 88.6914C133.904 90.6763 134.289 92.6611 134.658 94.646C134.741 95.1001 134.766 95.5669 134.817 96.0253C134.921 96.2019 135.026 96.3785 135.135 96.5593C135.511 98.5442 135.896 100.529 136.264 102.518C136.348 102.972 136.373 103.435 136.423 103.897C136.528 104.074 136.632 104.251 136.741 104.431C137.055 106.092 137.377 107.749 137.674 109.415C137.816 110.197 137.913 110.983 138.03 111.769C138.134 111.946 138.239 112.123 138.348 112.304C138.657 113.948 138.975 115.592 139.272 117.24C139.356 117.699 139.381 118.17 139.436 118.632C139.54 118.809 139.645 118.986 139.754 119.166C140.067 120.827 140.394 122.484 140.695 124.15C140.837 124.932 140.929 125.718 141.042 126.504C141.147 126.681 141.252 126.858 141.356 127.038C141.674 128.754 141.984 130.47 142.314 132.181C142.77 134.553 143.281 136.921 143.695 139.301C143.967 140.861 144.026 142.442 143.624 144.006C142.825 147.106 140.164 149.355 136.971 149.519C135.139 149.612 133.298 149.57 131.465 149.591C130.264 149.604 129.059 149.616 127.859 149.646C126.884 149.671 126.691 149.566 126.331 148.725C126.34 148.699 126.361 148.674 126.356 148.653C126.348 148.607 126.323 148.561 126.306 148.519C126.135 146.096 125.712 143.725 124.804 141.462C122.721 136.265 119.281 132.324 114.202 129.906C108.336 127.114 102.34 126.689 96.3823 129.372C90.8845 131.853 86.7716 135.861 84.5709 141.635C83.7675 143.746 83.3742 145.949 83.2445 148.203C83.1776 149.364 82.9307 149.587 81.7592 149.587C76.3451 149.582 70.931 149.574 65.5169 149.57C64.7178 149.57 63.9144 149.62 63.1153 149.582C62.2032 149.536 62.0275 149.364 61.881 148.451C61.6927 147.265 61.6049 146.059 61.3622 144.885C59.5631 136.231 52.7766 129.566 44.0237 127.985C42.1283 127.644 40.1912 127.501 38.2581 127.724C30.9152 128.578 25.4509 132.341 21.6267 138.628C21.4175 138.973 21.2209 139.322 21.0201 139.667C20.974 139.717 20.9238 139.772 20.8778 139.826L20.8653 139.818ZM41.7434 65.3695C41.8355 65.5503 41.9275 65.7311 42.0237 65.9077C42.0572 66.1727 42.074 66.4418 42.1325 66.7025C43.212 71.5511 45.7224 75.6428 48.919 79.3223C49.9273 80.4829 51.1198 81.5258 52.3708 82.4762C54.103 83.7924 55.9188 84.9572 57.8769 85.895C62.086 87.9093 66.5713 88.826 71.1821 89.1456C72.7762 89.2549 74.3828 89.154 75.9853 89.1456C76.1192 89.0867 76.2531 89.0321 76.3869 88.9732C76.9016 88.9143 77.4204 88.8765 77.9308 88.7966C78.822 88.6578 79.7132 88.4938 80.6002 88.3382C80.7258 88.2667 80.8555 88.191 80.981 88.1195C81.1149 88.1321 81.2655 88.1868 81.3743 88.1448C83.1943 87.4425 85.0353 86.7949 86.8135 86.0001C90.9013 84.1751 94.3489 81.4922 97.2107 78.0271C100.11 74.52 102.018 70.5377 103.047 66.118C103.332 64.9027 103.842 63.9187 104.78 63.0566C106.725 61.2652 107.462 58.9944 106.855 56.3872C106.265 53.8641 104.696 52.1736 102.223 51.4125C99.7881 50.6598 97.5831 51.1938 95.7087 52.8927C92.8719 55.4663 92.6836 59.5201 95.2442 62.5815C95.7965 63.2417 95.9806 63.8682 95.7547 64.6967C93.056 74.6293 85.5374 79.7302 76.6464 81.2483C73.7468 81.7445 70.7595 81.6267 67.793 81.16C62.8684 80.382 58.7012 78.1574 55.0569 74.8438C54.3749 74.2214 53.8477 73.4224 53.2745 72.6865C51.4545 70.3568 50.1574 67.7622 49.3834 64.9027C49.1449 64.0154 49.2077 63.2248 49.8771 62.4721C51.2955 60.8741 51.8394 58.986 51.5131 56.8414C50.9566 53.1618 47.2998 50.5126 43.6681 51.1938C40.0196 51.8793 37.5636 55.2392 38.0824 58.9482C38.3376 60.7648 39.1368 62.3628 40.6137 63.4814C41.2874 63.9902 41.6848 64.5411 41.7392 65.3653L41.7434 65.3695ZM72.5586 30.4496C80.0814 30.4454 87.6043 30.4454 95.1271 30.4454C96.1731 30.4454 96.5204 30.0964 96.42 29.0367C96.3321 28.1032 96.2024 27.1696 96.0392 26.2445C95.1104 21.0889 92.6544 16.8122 88.6963 13.406C84.5165 9.81061 79.5542 8.28834 74.1862 7.87623C71.9143 7.69961 69.6465 7.82577 67.3997 8.27993C62.0986 9.34804 57.492 11.6819 53.9105 15.8324C50.7139 19.5372 49.0989 23.9106 48.714 28.7592C48.5926 30.2941 48.7809 30.4496 50.2997 30.4496C57.7221 30.4496 65.1445 30.4496 72.567 30.4496H72.5586Z" fill="#71BF44"/>
<path d="M73.9769 0C73.8346 0.0630777 73.6882 0.180823 73.5459 0.180823C72.479 0.189233 71.4121 0.172412 70.3494 0.164002C70.3577 0.109335 70.3619 0.0546674 70.3703 0C71.5669 0 72.7719 0 73.9769 0Z" fill="#71BF44"/>
<path d="M70.3662 -0.000189349C70.362 0.054478 70.3537 0.109145 70.3453 0.163813C70.0189 0.168018 69.6884 0.176428 69.3621 0.180634C69.3621 0.117556 69.3621 0.0586832 69.3621 -0.00439453H70.3662V-0.000189349Z" fill="black"/>
<path d="M75.3827 0.185028C75.1149 0.12195 74.8471 0.0630777 74.5793 0C74.8471 0 75.1149 0 75.3827 0C75.3827 0.0630777 75.3827 0.12195 75.3827 0.185028Z" fill="black"/>
<path d="M119.712 144.078C120.269 145.609 120.503 147.215 120.637 148.822C120.721 149.839 120.599 150.886 120.499 151.912C120.432 152.594 120.248 153.266 120.118 153.939C120.072 154.007 120.026 154.078 119.98 154.145C119.532 156.075 118.604 157.774 117.511 159.398C117.457 159.465 117.399 159.528 117.344 159.595C116.394 160.546 115.449 161.5 114.499 162.451C114.432 162.509 114.365 162.564 114.302 162.623C112.332 164.065 110.102 164.965 107.771 165.583C106.884 165.819 105.922 165.777 104.989 165.81C103.215 165.865 101.478 165.625 99.7839 165.07C98.1479 164.536 96.6668 163.695 95.2693 162.728C93.5999 161.576 92.2736 160.054 91.2652 158.287C90.6293 157.173 89.9473 156.054 89.5247 154.856C88.8762 153.018 88.7674 151.067 88.8218 149.112C88.872 147.333 89.1607 145.617 89.8008 143.943C90.4577 142.228 91.4284 140.718 92.4953 139.238C93.6794 137.594 95.2903 136.471 96.9471 135.449C98.2986 134.612 99.809 134.078 101.395 133.75C105.549 132.896 109.407 133.704 113.035 135.777C114.641 136.694 115.984 137.96 117.139 139.415C117.198 139.482 117.256 139.549 117.315 139.616C117.93 140.693 118.541 141.769 119.156 142.846C119.21 142.917 119.265 142.985 119.319 143.056C119.403 143.321 119.482 143.59 119.566 143.855C119.616 143.927 119.666 143.998 119.721 144.07L119.712 144.078ZM104.487 155.171C107.482 155.272 110.152 153.056 110.189 149.717C110.223 146.643 108.244 144.356 104.888 144.15C101.888 143.965 99.4826 146.24 99.3487 149.402C99.219 152.451 101.512 155.049 104.487 155.171Z" fill="black"/>
<path d="M24.4216 150.924C24.4216 149.818 24.3839 148.708 24.4467 147.602C24.4844 146.963 24.681 146.332 24.8233 145.701C25.1287 144.343 25.681 143.081 26.3337 141.858C27.342 139.965 28.6349 138.334 30.3127 136.992C32.3461 135.365 34.572 134.187 37.1452 133.737C39.007 133.409 40.8564 133.279 42.7601 133.679C44.3918 134.019 45.9567 134.469 47.4545 135.184C49.4001 136.118 51.0277 137.451 52.4251 139.095C54.2284 141.218 55.3205 143.691 55.8853 146.399C56.3455 148.594 56.4125 150.781 55.8435 153.001C55.6092 153.918 55.3665 154.835 55.0443 155.718C53.8686 158.91 51.785 161.37 48.965 163.216C47.1114 164.431 45.0655 165.205 42.9107 165.613C41.7852 165.827 40.6053 165.756 39.4505 165.789C37.6263 165.844 35.9151 165.318 34.2498 164.646C32.6055 163.981 31.1411 163.018 29.7939 161.845C28.024 160.302 26.7479 158.38 25.727 156.315C25.1873 155.226 24.9781 153.964 24.6685 152.77C24.5304 152.236 24.5053 151.668 24.43 151.117C24.4467 151.054 24.4425 150.987 24.43 150.924H24.4216ZM40.1869 155.18C43.3166 155.159 45.6554 153.014 45.6596 149.7C45.668 146.42 43.6722 144.292 40.3668 144.145C37.1619 144.006 34.8314 146.845 34.8272 149.557C34.8272 152.509 37.3334 155.302 40.1869 155.18Z" fill="black"/>
<path d="M2.71499 132.842C2.76101 133.115 2.71499 133.325 2.39282 133.372C2.50161 133.195 2.60621 133.018 2.71499 132.842Z" fill="#71BF44"/>
<path d="M141.335 127.038C141.23 126.862 141.126 126.685 141.021 126.504C141.343 126.551 141.398 126.761 141.335 127.038Z" fill="black"/>
<path d="M4.12075 125.983C4.16678 126.252 4.12075 126.467 3.79858 126.509L4.12075 125.983Z" fill="#71BF44"/>
<path d="M139.733 119.171C139.628 118.994 139.523 118.818 139.415 118.637C139.737 118.683 139.791 118.893 139.733 119.171Z" fill="black"/>
<path d="M138.327 112.308C138.222 112.131 138.118 111.954 138.009 111.773C138.331 111.82 138.385 112.03 138.327 112.308Z" fill="black"/>
<path d="M136.724 104.44C136.62 104.263 136.515 104.087 136.406 103.906C136.728 103.952 136.783 104.162 136.724 104.44Z" fill="black"/>
<path d="M135.118 96.5721C135.013 96.3955 134.909 96.2189 134.8 96.0381C135.122 96.0843 135.176 96.2946 135.118 96.5721Z" fill="black"/>
<path d="M124.486 44.5162C124.382 44.3396 124.277 44.1629 124.168 43.9863C124.49 44.0326 124.545 44.2428 124.486 44.5162Z" fill="black"/>
<path d="M2.39691 133.99C2.65214 134.293 2.42201 134.335 2.19189 134.377C2.25884 134.246 2.32997 134.12 2.39691 133.99Z" fill="#71BF44"/>
<path d="M133.511 88.704C133.407 88.5274 133.302 88.3507 133.193 88.1699C133.515 88.2162 133.57 88.4264 133.511 88.704Z" fill="black"/>
<path d="M130.503 73.9732C130.398 73.7966 130.294 73.62 130.185 73.4434C130.507 73.4896 130.561 73.6999 130.503 73.9732Z" fill="black"/>
<path d="M128.9 66.1011C128.796 65.9245 128.691 65.7479 128.582 65.5713C128.904 65.6175 128.959 65.8278 128.9 66.1011Z" fill="black"/>
<path d="M127.294 58.2335C127.189 58.0568 127.084 57.8802 126.976 57.7036C127.298 57.7499 127.352 57.9601 127.294 58.2335Z" fill="black"/>
<path d="M18.359 56.1685C18.4134 56.4418 18.359 56.6521 18.041 56.6983C18.1456 56.5217 18.2544 56.3451 18.359 56.1685Z" fill="#71BF44"/>
<path d="M19.8486 48.4395C20.108 48.7422 19.8737 48.7843 19.6436 48.8263C19.7105 48.696 19.7816 48.5656 19.8486 48.4395Z" fill="#71BF44"/>
<path d="M20.1664 47.2915C20.2208 47.5648 20.1664 47.7751 19.8442 47.8172C19.953 47.6405 20.0576 47.4639 20.1664 47.2915Z" fill="#71BF44"/>
<path d="M126.285 148.514C126.302 148.56 126.327 148.602 126.335 148.649C126.34 148.67 126.319 148.695 126.31 148.72C126.239 148.666 126.172 148.611 126.101 148.556C126.164 148.544 126.227 148.527 126.285 148.514Z" fill="#71BF44"/>
<path d="M1.10833 142.042C1.10833 142.11 1.10833 142.177 1.10833 142.249C1.02883 142.215 0.949335 142.181 0.874023 142.148C0.953519 142.114 1.03301 142.08 1.10833 142.047V142.042Z" fill="black"/>
<path d="M114.302 162.623C114.369 162.564 114.436 162.509 114.499 162.45C114.432 162.509 114.365 162.564 114.302 162.623Z" fill="black"/>
<path d="M24.4216 150.924C24.4384 150.987 24.4384 151.05 24.4216 151.117C24.3714 151.096 24.3212 151.079 24.271 151.058C24.3212 151.012 24.3714 150.97 24.4216 150.924Z" fill="black"/>
<path d="M119.712 144.078C119.662 144.006 119.612 143.935 119.557 143.863C119.608 143.935 119.658 144.006 119.712 144.078Z" fill="black"/>
<path d="M75.981 89.1458C74.3785 89.15 72.7718 89.2551 71.1777 89.1458C66.567 88.8262 62.0817 87.9094 57.8726 85.8951C55.9145 84.9574 54.0986 83.7926 52.3665 82.4763C51.1154 81.526 49.9272 80.4873 48.9147 79.3225C45.7181 75.6429 43.2077 71.5513 42.1282 66.7027C42.0696 66.442 42.0529 66.1728 42.0194 65.9079C42.0822 65.6472 42.0529 65.4327 41.7391 65.3696C41.6889 64.5454 41.2872 63.9946 40.6136 63.4857C39.1366 62.3672 38.3375 60.7692 38.0823 58.9525C37.5635 55.2478 40.0195 51.8836 43.6679 51.1982C47.2996 50.5169 50.9565 53.1662 51.5129 56.8457C51.8351 58.9904 51.2954 60.8785 49.877 62.4765C49.2075 63.2334 49.1406 64.0198 49.3833 64.9071C50.1573 67.7624 51.4544 70.3612 53.2744 72.6909C53.8476 73.4268 54.3748 74.2258 55.0568 74.8481C58.701 78.1618 62.8683 80.3906 67.7929 81.1643C70.7551 81.6311 73.7467 81.7488 76.6462 81.2526C85.5372 79.7346 93.0517 74.6337 95.7546 64.701C95.9805 63.8684 95.8006 63.246 95.2441 62.5858C92.6793 59.5244 92.8676 55.4707 95.7085 52.8971C97.583 51.1982 99.7879 50.6641 102.223 51.4169C104.696 52.178 106.265 53.8643 106.855 56.3916C107.461 58.9988 106.725 61.2696 104.779 63.061C103.842 63.9231 103.332 64.9071 103.047 66.1224C102.018 70.542 100.11 74.5243 97.2106 78.0315C94.3445 81.4965 90.8969 84.1794 86.8133 86.0045C85.0351 86.7993 83.19 87.4469 81.3741 88.1491C81.2612 88.1912 81.1105 88.1365 80.9808 88.1239C80.6754 87.88 80.6419 88.1239 80.6001 88.3426C79.7089 88.4982 78.8219 88.6622 77.9307 88.8009C77.4203 88.8808 76.9014 88.9187 76.3868 88.9775C76.0981 88.6748 76.0354 88.8934 75.9852 89.15L75.981 89.1458Z" fill="white"/>
<path d="M75.981 89.1456C76.0312 88.8891 76.0939 88.6704 76.3826 88.9732C76.2487 89.0321 76.1148 89.0867 75.981 89.1456Z" fill="black"/>
<path d="M80.5959 88.3382C80.6378 88.1153 80.6713 87.8756 80.9767 88.1195C80.8512 88.191 80.7215 88.2667 80.5959 88.3382Z" fill="black"/>
<path d="M41.7434 65.3696C42.0572 65.4327 42.0865 65.6472 42.0237 65.9079C41.9317 65.7271 41.8396 65.5505 41.7434 65.3696Z" fill="black"/>
</svg>
