<svg width="356" height="103" viewBox="0 0 356 103" fill="none" xmlns="http://www.w3.org/2000/svg">
<g clip-path="url(#clip0_728_5893)">
<path d="M12.6845 87.4117C12.5578 87.746 12.4337 88.083 12.2991 88.4146C11.7632 89.7652 11.5018 91.1714 11.3962 92.6148C11.3408 93.3816 11.0768 93.6257 10.3112 93.6151C8.39728 93.5912 6.48068 93.5833 4.56673 93.501C3.80643 93.4692 3.08836 93.1667 2.41254 92.7793C0.926254 91.9303 0.406186 90.5346 0.21875 88.94C0.21875 88.8975 0.21875 88.8551 0.21875 88.81C0.22403 87.4807 0.580422 86.2044 0.796897 84.9043C0.847056 84.5965 0.868175 84.2835 0.902494 83.973C1.04769 83.9465 1.19289 83.9199 1.03185 83.7289C1.03185 83.5989 1.03185 83.4662 1.02921 83.3362C1.23249 83.3097 1.26153 83.1744 1.23249 83.0019C1.4252 81.9618 1.62056 80.9244 1.80799 79.8843C1.86079 79.5951 1.88191 79.3006 1.91623 79.006C2.11951 78.9795 2.14854 78.8442 2.11951 78.6744C2.30166 77.698 2.4759 76.7189 2.66861 75.7451C3.20716 73.0175 3.74835 70.2873 4.30273 67.5623C4.59577 66.111 4.92576 64.6702 5.22143 63.2189C5.59894 61.3589 5.95005 59.4936 6.32757 57.6337C6.66548 55.9754 7.03243 54.325 7.37034 52.6667C7.75049 50.8041 8.1016 48.9335 8.47911 47.0709C8.78271 45.5797 9.11798 44.0939 9.42685 42.6027C9.90204 40.3076 10.3667 38.0099 10.8313 35.7121C10.8815 35.4653 10.8815 35.208 10.9026 34.9559C11.1059 34.9267 11.1375 34.7941 11.1032 34.6216C11.193 34.0883 11.2827 33.5523 11.3751 33.019C11.552 32.0081 11.7342 30.9998 11.9137 29.9916C12.0589 29.965 12.2067 29.9385 12.043 29.7475C12.043 29.6175 12.043 29.4875 12.043 29.3574C12.2463 29.3309 12.278 29.1982 12.2463 29.0258C12.4865 27.7575 12.6977 26.4839 12.9802 25.2262C13.1861 24.3029 13.3762 23.353 13.7616 22.5013C14.7622 20.2938 16.4834 18.9353 18.891 18.5399C19.5299 18.4364 20.1846 18.4046 20.8314 18.394C22.117 18.3754 23.4027 18.3993 24.6883 18.394C25.3008 18.394 25.4328 18.2693 25.4882 17.6696C25.5648 16.8259 25.5912 15.9768 25.7073 15.1384C25.7971 14.4936 25.974 13.8595 26.1377 13.228C26.8188 10.588 28.0411 8.23184 29.7913 6.15165C30.0606 5.83061 30.285 5.46445 30.5859 5.17524C32.9725 2.89605 35.6969 1.18202 38.8595 0.216217C40.1478 -0.176472 41.4493 -0.529361 42.8115 -0.569161C42.9725 -0.574467 43.1309 -0.654067 43.2893 -0.699173C43.4952 -0.701826 43.7038 -0.707133 43.9097 -0.712439C44.5829 -0.707133 45.2561 -0.696519 45.9266 -0.701826C46.019 -0.701826 46.1088 -0.776118 46.1985 -0.815918C46.3253 -0.815918 46.452 -0.815918 46.5787 -0.815918C46.7476 -0.776118 46.9166 -0.738972 47.0856 -0.699173C47.2202 -0.654067 47.3548 -0.577121 47.4921 -0.566508C51.5075 -0.250764 55.1374 1.09446 58.2578 3.66816C61.6818 6.49393 63.9231 10.0812 64.7626 14.491C64.9289 15.3613 64.9632 16.2581 65.053 17.1416C65.0715 17.3088 65.053 17.4813 65.0741 17.6511C65.1427 18.2056 65.3909 18.4126 65.9479 18.4099C67.4659 18.4046 68.9865 18.3728 70.5044 18.402C73.9284 18.4656 76.5869 20.6493 77.3366 24.011C77.5531 24.9768 77.693 25.9612 77.8672 26.9376C77.9332 27.0491 77.9992 27.1605 78.0679 27.2719C78.2606 28.3067 78.4427 29.3415 78.6513 30.3737C78.9549 31.8834 79.277 33.3905 79.5832 34.9002C79.6281 35.1257 79.6228 35.3619 79.6413 35.5954C79.7073 35.7068 79.7733 35.8182 79.8419 35.9297C80.0029 36.8132 80.1666 37.6968 80.3224 38.583C80.4385 39.241 80.5441 39.9017 80.655 40.5597C80.721 40.6711 80.787 40.7826 80.8556 40.894C81.0536 41.9421 81.2569 42.9875 81.447 44.0355C81.5367 44.529 81.5948 45.0278 81.6687 45.524C81.7347 45.6354 81.8007 45.7469 81.8694 45.8583C82.0647 46.8958 82.2495 47.9359 82.4581 48.968C82.8039 50.6873 83.1656 52.404 83.5141 54.1234C83.5589 54.3489 83.551 54.585 83.5695 54.8159C83.6355 54.9273 83.7015 55.0388 83.7701 55.1528C84.0077 56.4052 84.2506 57.6576 84.4829 58.9099C84.5357 59.1965 84.5516 59.491 84.5832 59.7802C84.6492 59.8916 84.7152 60.0031 84.7839 60.1172C85.0215 61.3695 85.2643 62.6219 85.4967 63.8769C85.5495 64.1635 85.5653 64.4553 85.597 64.7472C85.663 64.8586 85.729 64.9701 85.7976 65.0842C85.9956 66.1322 86.1989 67.1776 86.3863 68.2283C86.4761 68.7218 86.5368 69.218 86.6107 69.7142C86.6767 69.8256 86.7427 69.937 86.8113 70.0511C87.0067 71.0886 87.2073 72.126 87.3948 73.1661C87.4476 73.4553 87.4634 73.7525 87.4977 74.0444C87.5637 74.1558 87.6297 74.2672 87.6984 74.3813C87.8963 75.4294 88.1023 76.4748 88.2923 77.5255C88.3821 78.019 88.4402 78.5152 88.5115 79.0113C88.5775 79.1228 88.6435 79.2342 88.7095 79.3483C88.9101 80.4309 89.1054 81.5134 89.314 82.5933C89.6017 84.0898 89.9238 85.5836 90.1852 87.0853C90.3568 88.0697 90.3937 89.0674 90.1403 90.0544C89.6361 92.0099 87.9571 93.4294 85.9428 93.5329C84.7865 93.5912 83.6249 93.5647 82.4686 93.578C81.711 93.5859 80.9507 93.5939 80.193 93.6125C79.5779 93.6284 79.4565 93.5621 79.2294 93.0314C79.2347 93.0155 79.2479 92.9995 79.2453 92.9863C79.24 92.9571 79.2242 92.9279 79.2136 92.9014C79.1054 91.3731 78.8387 89.8766 78.2659 88.4491C76.9512 85.1697 74.7811 82.6835 71.5763 81.1579C67.8751 79.3961 64.092 79.1281 60.3328 80.8209C56.8639 82.3863 54.2688 84.9149 52.8802 88.5579C52.3734 89.8899 52.1252 91.2802 52.0434 92.7024C52.0011 93.4347 51.8454 93.5753 51.1062 93.5753C47.6901 93.5727 44.274 93.5674 40.8579 93.5647C40.3537 93.5647 39.8469 93.5965 39.3426 93.5727C38.7671 93.5435 38.6562 93.4347 38.5638 92.8589C38.445 92.1107 38.3896 91.3492 38.2365 90.6089C37.1013 85.1484 32.8193 80.9429 27.2966 79.9453C26.1007 79.7304 24.8784 79.6402 23.6588 79.7808C19.0257 80.3194 15.5779 82.6941 13.165 86.6608C13.033 86.8784 12.9089 87.0986 12.7822 87.3162C12.7532 87.348 12.7215 87.3825 12.6925 87.417L12.6845 87.4117ZM25.8578 40.4376C25.9159 40.5517 25.974 40.6658 26.0347 40.7773C26.0558 40.9444 26.0664 41.1142 26.1033 41.2787C26.7844 44.338 28.3684 46.9197 30.3853 49.2413C31.0215 49.9736 31.7739 50.6316 32.5633 51.2313C33.6562 52.0617 34.8019 52.7967 36.0374 53.3884C38.6932 54.6593 41.5232 55.2378 44.4324 55.4394C45.4382 55.5084 46.452 55.4447 47.4631 55.4394C47.5476 55.4023 47.632 55.3678 47.7165 55.3306C48.0412 55.2935 48.3686 55.2696 48.6906 55.2192C49.2529 55.1316 49.8153 55.0281 50.3749 54.93C50.4541 54.8849 50.536 54.8371 50.6152 54.792C50.6996 54.8 50.7947 54.8344 50.8633 54.8079C52.0117 54.3648 53.1733 53.9562 54.2952 53.4547C56.8744 52.3032 59.0498 50.6104 60.8555 48.4241C62.6849 46.2112 63.8888 43.6985 64.5382 40.9099C64.7177 40.1431 65.0398 39.5222 65.6311 38.9783C66.8587 37.848 67.3233 36.4152 66.9405 34.7702C66.5683 33.1782 65.5783 32.1116 64.0181 31.6313C62.4817 31.1564 61.0904 31.4933 59.9077 32.5653C58.1179 34.1891 57.9991 36.7469 59.6147 38.6785C59.9632 39.0951 60.0793 39.4904 59.9368 40.0131C58.234 46.2802 53.49 49.4987 47.8802 50.4565C46.0507 50.7696 44.1658 50.6953 42.2941 50.4008C39.1869 49.9099 36.5575 48.5063 34.2581 46.4155C33.8278 46.0228 33.4952 45.5187 33.1335 45.0544C31.9851 43.5844 31.1667 41.9474 30.6783 40.1431C30.5279 39.5833 30.5675 39.0844 30.9899 38.6095C31.8848 37.6012 32.228 36.4099 32.0221 35.0567C31.671 32.7351 29.3637 31.0635 27.0722 31.4933C24.7702 31.9258 23.2205 34.0458 23.5479 36.386C23.7089 37.5323 24.2131 38.5405 25.145 39.2463C25.5701 39.5673 25.8209 39.9149 25.8552 40.435L25.8578 40.4376ZM45.301 18.4046C50.0476 18.402 54.7942 18.402 59.5408 18.402C60.2008 18.402 60.4199 18.1817 60.3565 17.5131C60.3011 16.9241 60.2192 16.335 60.1163 15.7513C59.5302 12.4984 57.9806 9.79995 55.4832 7.65077C52.8459 5.3822 49.7149 4.4217 46.3279 4.16168C44.8944 4.05024 43.4636 4.12984 42.0459 4.4164C38.7011 5.09033 35.7945 6.56292 33.5348 9.18173C31.5178 11.5193 30.4988 14.2787 30.256 17.338C30.1794 18.3064 30.2982 18.4046 31.2565 18.4046C35.9397 18.4046 40.623 18.4046 45.3062 18.4046H45.301Z" fill="#71BF44"/>
<path d="M75.0531 90.0992C75.4042 91.065 75.552 92.0785 75.6365 93.0921C75.6893 93.7342 75.6127 94.3949 75.5494 95.0423C75.5071 95.4721 75.391 95.8966 75.3091 96.3212C75.2801 96.3636 75.2511 96.4087 75.222 96.4512C74.9395 97.669 74.3535 98.741 73.6645 99.7651C73.6301 99.8076 73.5932 99.8474 73.5589 99.8898C72.9596 100.489 72.363 101.092 71.7637 101.691C71.7215 101.729 71.6792 101.763 71.6396 101.8C70.3962 102.71 68.9891 103.278 67.5187 103.668C66.959 103.817 66.3518 103.79 65.7631 103.811C64.6438 103.846 63.5482 103.695 62.479 103.344C61.4468 103.007 60.5123 102.477 59.6305 101.867C58.5772 101.14 57.7403 100.179 57.1041 99.0647C56.7029 98.3615 56.2725 97.6558 56.0059 96.8996C55.5967 95.7401 55.5281 94.509 55.5624 93.2752C55.5941 92.1528 55.7762 91.0703 56.1801 90.0143C56.5946 88.9317 57.2071 87.9792 57.8803 87.0452C58.6274 86.0078 59.6437 85.2993 60.6892 84.6546C61.5419 84.1266 62.4949 83.7896 63.4954 83.5827C66.1169 83.044 68.5509 83.5535 70.8397 84.8615C71.8535 85.44 72.7009 86.2386 73.4295 87.1567C73.4665 87.1991 73.5034 87.2416 73.5404 87.284C73.9284 87.9633 74.3139 88.6425 74.7019 89.3217C74.7363 89.3669 74.7706 89.4093 74.8049 89.4544C74.8577 89.6216 74.9079 89.7914 74.9607 89.9585C74.9923 90.0036 75.024 90.0488 75.0583 90.0939L75.0531 90.0992ZM65.4463 97.0986C67.3365 97.1623 69.0208 95.764 69.0446 93.6572C69.0657 91.7177 67.817 90.2743 65.6998 90.1443C63.8069 90.0275 62.289 91.463 62.2045 93.4582C62.1226 95.3819 63.5693 97.0216 65.4463 97.0986Z" fill="black"/>
<path d="M14.9289 94.419C14.9289 93.7211 14.9052 93.0207 14.9448 92.3228C14.9685 91.9195 15.0926 91.5216 15.1824 91.1236C15.3751 90.2665 15.7236 89.4705 16.1354 88.6984C16.7716 87.5044 17.5874 86.475 18.646 85.6286C19.929 84.6017 21.3334 83.8588 22.957 83.5749C24.1318 83.368 25.2986 83.2857 26.4998 83.5378C27.5294 83.7527 28.5167 84.0366 29.4618 84.4876C30.6894 85.0767 31.7163 85.9178 32.598 86.9552C33.7359 88.2951 34.4249 89.8553 34.7813 91.564C35.0717 92.949 35.1139 94.3287 34.7549 95.7297C34.607 96.3081 34.4539 96.8865 34.2506 97.4437C33.5088 99.4576 32.1941 101.01 30.4148 102.175C29.2453 102.941 27.9544 103.43 26.5948 103.687C25.8847 103.822 25.1402 103.777 24.4116 103.798C23.2606 103.833 22.1809 103.501 21.1302 103.077C20.0927 102.657 19.1687 102.05 18.3186 101.31C17.2019 100.336 16.3968 99.1233 15.7526 97.8205C15.4121 97.1333 15.2801 96.3373 15.0847 95.5838C14.9976 95.2468 14.9817 94.8886 14.9342 94.541C14.9448 94.5012 14.9421 94.4588 14.9342 94.419H14.9289ZM24.8762 97.1041C26.8509 97.0908 28.3266 95.7376 28.3293 93.6468C28.3345 91.5773 27.0753 90.2347 24.9897 90.1418C22.9676 90.0543 21.4971 91.8453 21.4945 93.5566C21.4945 95.4192 23.0758 97.181 24.8762 97.1041Z" fill="black"/>
<path d="M1.23257 83.0099C1.26161 83.1824 1.23257 83.315 1.0293 83.3442C1.09794 83.2328 1.16393 83.1213 1.23257 83.0099Z" fill="#71BF44"/>
<path d="M88.697 79.3484C88.631 79.237 88.565 79.1256 88.499 79.0115C88.7023 79.0407 88.7366 79.1733 88.697 79.3484Z" fill="black"/>
<path d="M2.12027 78.6825C2.14931 78.8523 2.12027 78.9876 1.91699 79.0142L2.12027 78.6825Z" fill="#71BF44"/>
<path d="M87.686 74.3838C87.62 74.2724 87.554 74.161 87.4854 74.0469C87.6886 74.0761 87.7229 74.2087 87.686 74.3838Z" fill="black"/>
<path d="M86.7983 70.0538C86.7323 69.9423 86.6663 69.8309 86.5977 69.7168C86.8009 69.746 86.8353 69.8787 86.7983 70.0538Z" fill="black"/>
<path d="M85.7875 65.0892C85.7215 64.9777 85.6556 64.8663 85.5869 64.7522C85.7902 64.7814 85.8245 64.914 85.7875 65.0892Z" fill="black"/>
<path d="M84.7739 60.1252C84.7079 60.0137 84.6419 59.9023 84.5732 59.7882C84.7765 59.8174 84.8108 59.9501 84.7739 60.1252Z" fill="black"/>
<path d="M78.0659 27.2798C77.9999 27.1683 77.9339 27.0569 77.8652 26.9454C78.0685 26.9746 78.1028 27.1073 78.0659 27.2798Z" fill="black"/>
<path d="M1.03268 83.7344C1.19371 83.9254 1.04852 83.9519 0.90332 83.9785C0.945559 83.8962 0.990439 83.8166 1.03268 83.7344Z" fill="#71BF44"/>
<path d="M83.7602 55.1606C83.6942 55.0491 83.6282 54.9377 83.5596 54.8236C83.7628 54.8528 83.7972 54.9855 83.7602 55.1606Z" fill="black"/>
<path d="M81.8618 45.8663C81.7958 45.7549 81.7298 45.6434 81.6611 45.532C81.8644 45.5612 81.8987 45.6938 81.8618 45.8663Z" fill="black"/>
<path d="M80.851 40.8995C80.785 40.7881 80.719 40.6766 80.6504 40.5652C80.8537 40.5944 80.888 40.727 80.851 40.8995Z" fill="black"/>
<path d="M79.8374 35.935C79.7714 35.8236 79.7054 35.7121 79.6367 35.6007C79.84 35.6299 79.8743 35.7626 79.8374 35.935Z" fill="black"/>
<path d="M11.104 34.6322C11.1383 34.8047 11.104 34.9373 10.9033 34.9665C10.9693 34.8551 11.038 34.7436 11.104 34.6322Z" fill="#71BF44"/>
<path d="M12.0434 29.7556C12.2071 29.9467 12.0593 29.9732 11.9141 29.9997C11.9563 29.9175 12.0012 29.8352 12.0434 29.7556Z" fill="#71BF44"/>
<path d="M12.2443 29.0311C12.2786 29.2036 12.2443 29.3363 12.041 29.3628C12.1097 29.2514 12.1757 29.1399 12.2443 29.0311Z" fill="#71BF44"/>
<path d="M79.2018 92.8987C79.2125 92.928 79.2284 92.9547 79.2337 92.9841C79.2364 92.9975 79.2231 93.0135 79.2178 93.0295C79.1726 92.9948 79.1301 92.9601 79.085 92.9254C79.1248 92.9174 79.1647 92.9067 79.2018 92.8987Z" fill="#71BF44"/>
<path d="M0.22004 88.8153C0.22004 88.858 0.22004 88.9007 0.22004 88.9461C0.169571 88.9248 0.119102 88.9034 0.0712891 88.8821C0.121758 88.8607 0.172227 88.8393 0.22004 88.818V88.8153Z" fill="black"/>
<path d="M71.6396 101.801C71.6821 101.763 71.7246 101.729 71.7645 101.691C71.722 101.729 71.6795 101.763 71.6396 101.801Z" fill="black"/>
<path d="M14.9296 94.4189C14.9402 94.459 14.9402 94.499 14.9296 94.5418C14.8977 94.5284 14.8659 94.5177 14.834 94.5044C14.8659 94.475 14.8977 94.4483 14.9296 94.4189Z" fill="black"/>
<path d="M75.0543 90.1006C75.0225 90.0553 74.9906 90.0099 74.9561 89.9645C74.9879 90.0099 75.0198 90.0553 75.0543 90.1006Z" fill="black"/>
<path d="M47.461 55.4392C46.4499 55.4419 45.4362 55.5082 44.4304 55.4392C41.5212 55.2376 38.6912 54.6592 36.0354 53.3882C34.7999 52.7965 33.6542 52.0616 32.5612 51.2311C31.7719 50.6314 31.0221 49.9761 30.3833 49.2411C28.3664 46.9195 26.7824 44.3378 26.1013 41.2786C26.0643 41.114 26.0538 40.9442 26.0327 40.7771C26.0723 40.6126 26.0538 40.4773 25.8558 40.4375C25.8241 39.9174 25.5707 39.5698 25.1456 39.2488C24.2137 38.543 23.7095 37.5347 23.5485 36.3885C23.2211 34.051 24.7708 31.9283 27.0728 31.4958C29.3643 31.066 31.6716 32.7376 32.0227 35.0592C32.226 36.4124 31.8854 37.6037 30.9905 38.612C30.5681 39.0896 30.5258 39.5857 30.679 40.1456C31.1673 41.9472 31.9857 43.5869 33.1341 45.0569C33.4958 45.5212 33.8284 46.0253 34.2587 46.418C36.5581 48.5088 39.1875 49.9151 42.2947 50.4033C44.1638 50.6978 46.0513 50.7721 47.8808 50.459C53.4907 49.5011 58.232 46.2827 59.9374 40.0156C60.0799 39.4902 59.9664 39.0975 59.6153 38.681C57.997 36.7494 58.1158 34.1916 59.9083 32.5678C61.091 31.4958 62.4823 31.1589 64.0187 31.6338C65.5789 32.114 66.5689 33.178 66.9411 34.7727C67.3239 36.4177 66.8593 37.8505 65.6317 38.9808C65.0404 39.5247 64.7183 40.1456 64.5388 40.9124C63.8894 43.701 62.6856 46.2137 60.8561 48.4265C59.0477 50.6129 56.8724 52.3057 54.2958 53.4572C53.1739 53.9587 52.0096 54.3673 50.8639 54.8104C50.7926 54.8369 50.6976 54.8024 50.6158 54.7945C50.423 54.6406 50.4019 54.7945 50.3755 54.9324C49.8132 55.0306 49.2536 55.1341 48.6912 55.2217C48.3692 55.2721 48.0418 55.2959 47.7171 55.3331C47.535 55.1421 47.4954 55.28 47.4637 55.4419L47.461 55.4392Z" fill="white"/>
<path d="M47.4609 55.4392C47.4926 55.2774 47.5322 55.1394 47.7144 55.3304C47.6299 55.3676 47.5454 55.4021 47.4609 55.4392Z" fill="black"/>
<path d="M50.373 54.9302C50.3994 54.7895 50.4206 54.6383 50.6133 54.7922C50.5341 54.8373 50.4522 54.8851 50.373 54.9302Z" fill="black"/>
<path d="M25.8584 40.4379C26.0564 40.4777 26.0749 40.613 26.0353 40.7775C25.9772 40.6634 25.9191 40.552 25.8584 40.4379Z" fill="black"/>
<path d="M280.486 22.5583C281.931 24.5776 282.399 26.8381 282.111 29.2793C281.967 29.5445 281.829 29.8158 281.685 30.081C281.385 31.7206 280.444 32.902 279.1 33.8122C278.794 34.0232 278.488 34.2342 278.189 34.4512C277.943 34.5536 277.691 34.6501 277.247 34.8309C277.721 34.9394 277.943 34.9937 278.165 35.0419C278.842 35.4096 279.514 35.7833 280.192 36.151C280.288 36.2354 280.39 36.3198 280.486 36.4102C280.785 36.7116 281.079 37.007 281.379 37.3084C281.463 37.4048 281.553 37.5012 281.637 37.5977C282.897 39.9365 283.394 42.3175 282.561 44.9697C281.691 47.7365 279.844 49.382 277.241 50.3405C275.952 50.8167 274.626 50.9674 273.247 50.9613C268.953 50.9432 264.652 50.9854 260.358 50.9975C260.25 50.8649 260.142 50.7383 260.028 50.6057C260.052 50.0813 260.088 49.5508 260.088 49.0264C260.088 39.605 260.088 30.1775 260.088 20.756C260.088 20.2376 260.088 19.7132 260.088 19.0381H272.731C272.989 19.6228 273.475 19.2852 273.87 19.3214C275.298 19.3515 278.069 20.4245 279.154 21.3708C279.508 21.6783 279.868 21.9676 280.228 22.2629C280.312 22.3594 280.396 22.4498 280.486 22.5463V22.5583ZM275.874 29.1889C276.299 27.5674 276.065 26.0424 274.68 25.0478C273.882 24.4752 272.803 24.1135 271.819 24.0291C270.02 23.8724 268.203 23.9929 266.392 23.999C266.314 24.1014 266.236 24.1979 266.152 24.3003V32.1064C266.23 32.1968 266.314 32.2932 266.392 32.3836C267.951 32.3957 269.522 32.5162 271.076 32.3836C273.043 32.2209 274.728 31.4252 275.646 29.5023C275.718 29.3999 275.796 29.2974 275.868 29.1889H275.874ZM266.152 45.693C266.23 45.7835 266.314 45.8799 266.392 45.9703C268.353 45.9824 270.32 46.0969 272.269 45.9703C273.259 45.904 274.35 45.6026 275.172 45.0541C276.911 43.8907 277.319 41.5941 276.383 39.6773C275.988 38.8635 275.406 38.2607 274.572 37.9473C271.825 36.9226 268.994 37.3626 266.158 37.2903V45.687L266.152 45.693Z" fill="black"/>
<path d="M349.216 19.3216C349.78 19.4422 350.35 19.5567 350.913 19.6773C351.015 19.7556 351.117 19.834 351.219 19.9124C351.651 20.0811 352.083 20.2499 352.569 20.4428V26.3018C352.485 26.2596 352.413 26.2717 352.347 26.338C351.777 26.121 351.213 25.91 350.643 25.693C350.548 25.6147 350.446 25.5363 350.35 25.4579C348.023 24.7346 345.708 23.963 343.213 23.9992C340.634 24.0354 338.265 24.7888 336.25 26.332C334.516 27.6521 333.587 29.6412 333.137 31.7449C332.711 33.71 332.699 35.7293 333.053 37.7486C333.329 39.3159 333.893 40.7083 334.864 41.95L335.116 42.2514C337.353 45.1447 340.46 45.9585 343.89 45.8138C345.294 45.7536 346.685 45.4281 348.161 45.2111V37.5979H342.439C342.367 35.8197 342.385 34.1741 342.439 32.4381H354.038V48.2852C350.434 50.8229 346.349 51.5945 342.013 51.3594C341.108 51.3112 340.19 51.3172 339.296 51.1906C338.439 51.0701 337.557 50.9073 336.765 50.5758C334.726 49.7078 332.837 48.5565 331.086 47.2002C330.582 46.8084 330.24 46.1936 329.844 45.6631C329.209 44.8012 328.429 43.9995 327.997 43.041C327.146 41.1664 326.39 39.2375 326.486 37.0976C326.54 35.8981 326.456 34.6925 326.498 33.487C326.6 30.2802 327.619 27.4109 329.55 24.825C331.83 21.7749 334.846 20.0389 338.463 19.0624C340.52 18.5079 342.559 18.3994 344.634 18.5079C345.888 18.5742 347.123 18.8876 348.37 19.0926C348.658 19.177 348.946 19.2614 349.228 19.3397L349.216 19.3216Z" fill="black"/>
<path d="M183.039 33.2637C182.35 35.3855 180.784 36.7237 178.985 37.8569C178.703 38.0317 178.397 38.1704 177.929 38.4115C180.604 42.5767 183.249 46.6877 185.966 50.9071H178.841C176.442 47.0614 174.061 43.2397 171.656 39.3759H168.537V50.8468H162.456V19.1044C162.666 19.0803 163.026 19.002 163.386 19.002C166.402 18.9899 169.419 18.9959 172.442 19.002C175.327 19.002 177.983 19.7434 180.382 21.4131C181.468 22.1726 182.074 23.2455 182.733 24.3486C183.831 26.1992 184.041 28.1763 183.849 30.2317C183.765 31.148 183.477 32.0401 183.279 32.9443C183.201 33.0467 183.123 33.1552 183.045 33.2577L183.039 33.2637ZM177.828 29.5084C177.828 29.2191 177.828 28.9237 177.828 28.6344C178.247 28.2305 178.211 27.9351 177.624 27.7664C177.528 26.3438 176.784 25.3914 175.536 24.7525C173.299 23.6012 170.924 24.0954 168.555 23.9869V34.4452C170.397 34.3668 172.19 34.4753 173.905 34.1679C175.506 33.8786 177.09 33.2215 177.312 31.16C177.342 30.8948 177.492 30.6416 177.588 30.3824C178.193 30.2438 178.265 29.9545 177.834 29.5144L177.828 29.5084Z" fill="black"/>
<path d="M216.349 35.5967C218.004 40.648 219.66 45.7053 221.375 50.9495C219.354 50.9495 217.429 50.9555 215.497 50.9495C214.886 50.9495 214.79 50.419 214.646 49.979C213.998 47.9476 213.362 45.9102 212.673 43.7282C211.989 43.7282 211.233 43.7282 210.478 43.7282C207.701 43.7282 204.924 43.7282 202.147 43.7282C200.612 43.7282 200.66 43.7462 200.252 45.1989C199.724 47.0917 199.112 48.9663 198.525 50.8892H192.323C192.587 49.8705 192.773 48.9181 193.079 48.0019C194.494 43.7824 195.946 39.581 197.379 35.3676C199.112 30.262 200.846 25.1565 202.555 20.0449C202.795 19.3276 203.149 18.9599 203.976 18.984C205.889 19.0443 207.809 19.0202 209.722 18.99C210.466 18.978 210.711 19.2372 210.939 20.0027C211.581 22.1787 212.457 24.2885 213.188 26.4404C214.19 29.382 215.15 32.3356 216.127 35.2832C216.199 35.3857 216.271 35.4881 216.337 35.5906L216.349 35.5967ZM209.152 31.8474C209.086 31.7389 209.02 31.6304 208.96 31.5218C208.936 31.329 208.906 31.1361 208.882 30.9432L208.69 30.6538C208.672 30.4549 208.654 30.262 208.63 30.0631C209.02 29.6231 208.654 29.5688 208.342 29.4905C208.33 29.3036 208.312 29.1168 208.3 28.9299C208.234 28.8335 208.174 28.731 208.109 28.6345C207.983 28.2487 207.857 27.863 207.731 27.4712C207.443 26.579 207.155 25.6869 206.867 24.7948C206.759 24.6682 206.651 24.5417 206.543 24.409C206.459 24.6562 206.375 24.9033 206.291 25.1565C206.291 25.3012 206.315 25.4579 206.279 25.5905C205.122 29.4664 203.952 33.3362 202.795 37.2121C202.651 37.6883 202.585 38.1886 202.465 38.7432H211.131C210.466 36.4164 209.812 34.1259 209.158 31.8413L209.152 31.8474Z" fill="black"/>
<path d="M310.958 26.3442C311.444 27.9778 311.888 29.6234 312.421 31.2448C313.855 35.5909 315.324 39.9188 316.781 44.2589L316.997 44.5663C317.663 46.6459 318.329 48.7315 319.019 50.8895H312.517C311.822 48.5808 311.102 46.1817 310.364 43.7224C306.592 43.7224 302.873 43.7344 299.149 43.7103C298.507 43.7103 298.213 44.0298 298.051 44.5844C297.434 46.676 296.81 48.7677 296.18 50.8774H289.877C290.345 49.4608 290.771 48.1528 291.196 46.8508C291.766 46.7845 291.706 46.3565 291.7 45.9587C292.18 44.4096 292.642 42.8544 293.146 41.3173C294.693 36.5975 296.258 31.8898 297.812 27.1761C297.884 27.0736 297.956 26.9711 298.027 26.8686C298.795 24.5419 299.605 22.2212 300.307 19.8764C300.492 19.2374 300.75 18.9963 301.362 18.9963C303.653 19.0024 305.938 18.9963 308.343 18.9963C308.949 20.9192 309.537 22.7999 310.136 24.6806C310.22 24.9458 310.358 25.1869 310.472 25.4401C310.64 25.7354 310.808 26.0368 310.97 26.3322L310.958 26.3442ZM307.018 32.9688C306.694 31.8356 306.322 30.7084 306.052 29.557C305.782 28.3876 305.14 27.3026 305.2 26.0549C305.242 25.6269 305.254 25.2231 304.685 25.1568C304.577 24.9518 304.463 24.7529 304.265 24.3852C302.807 29.2858 301.416 33.9634 299.995 38.7434H308.787C308.247 36.8808 307.725 35.0906 307.21 33.2943C307.144 33.1858 307.078 33.0773 307.012 32.9688H307.018Z" fill="black"/>
<path d="M235.96 40.4975C235.942 43.3487 235.93 46.1998 235.912 49.051C235.912 49.5754 235.882 50.0938 235.864 50.6182C235.787 50.7086 235.703 50.8051 235.625 50.8955C233.801 50.9316 231.984 50.9738 230.161 51.01C230.053 50.8774 229.945 50.7508 229.831 50.6182C229.855 50.0938 229.891 49.5633 229.891 49.0389C229.891 39.6175 229.891 30.19 229.891 20.7685C229.891 20.2501 229.891 19.7257 229.891 19.0446H241.1C241.352 19.6353 241.844 19.2917 242.234 19.3339C245.904 19.575 248.717 21.3653 250.468 24.5118C251.614 26.5673 252.034 28.894 251.536 31.3714C251.23 32.8904 250.762 34.2708 249.988 35.5788L249.743 35.8742C248.423 37.4655 246.774 38.5807 244.867 39.3462C243.397 39.9369 241.91 40.2624 240.315 40.1841C238.941 40.1178 237.562 40.2082 236.188 40.2323C236.11 40.3227 236.026 40.4192 235.948 40.5096L235.96 40.4975ZM235.96 24.3008V35.2654C236.92 35.2654 237.73 35.2955 238.533 35.2594C239.379 35.2172 240.219 35.0665 241.064 35.0243C242.648 34.9399 243.817 33.9694 244.669 32.8723C245.628 31.6427 245.916 30.0212 245.61 28.3997C245.203 26.2418 243.757 24.6263 241.838 24.2707C239.979 23.9271 238.096 23.7764 236.206 24.0054C236.128 24.1079 236.05 24.2044 235.966 24.3068L235.96 24.3008Z" fill="black"/>
<path d="M104.484 45.3617C106.481 46.0127 108.527 46.2478 110.614 46.0248C112.665 45.8078 114.128 44.3069 114.284 42.384C114.428 40.6601 113.295 39.786 112.059 39.0928C110.272 38.0862 108.407 37.2061 106.559 36.308C104.796 35.446 103.237 34.3309 101.911 32.8721C101.953 32.4381 101.839 32.1307 101.336 32.1066C100.142 29.6774 100.178 27.1578 100.79 24.596C100.958 24.379 101.12 24.1559 101.288 23.9389C102.193 21.7509 103.951 20.5393 106.05 19.6712C108.053 18.8454 110.116 18.6465 112.245 18.8153C112.629 18.8937 113.019 18.9781 113.403 19.0564C113.78 19.1468 114.158 19.2433 114.536 19.3337C114.83 19.3337 115.124 19.3337 115.412 19.3397C115.61 19.3216 115.807 19.3096 116.005 19.2915C116.113 19.834 116.515 19.6471 116.851 19.6351C117.595 19.8641 118.338 20.0872 119.064 20.3102V25.898C117.535 25.4338 116.041 24.9817 114.542 24.5297C114.458 24.0414 114.146 23.9872 113.744 24.1017C112.383 24.168 111.028 24.2222 109.666 24.3006C108.353 24.3729 107.585 25.1927 107.057 26.3139C106.979 26.4103 106.901 26.5128 106.823 26.6093C106.901 27.3567 107.015 28.0981 107.057 28.8456C107.099 29.5749 107.627 29.9788 108.125 30.2802C109.258 30.9613 110.47 31.5099 111.651 32.1126C111.753 32.191 111.855 32.2694 111.951 32.3477C113.9 33.2579 115.855 34.1018 117.565 35.5063C120.228 37.6883 120.959 40.5154 120.444 43.674C119.772 47.7548 117.031 50.0393 113.157 50.9073C111.549 51.269 109.84 51.1665 108.191 51.3655C106.673 51.5463 105.216 51.1726 103.795 50.829C102.703 50.5637 101.719 49.8404 100.706 49.2859C100.586 49.2195 100.592 48.9362 100.532 48.7494V48.7132V43.4027C101.863 44.0296 103.015 44.5781 104.166 45.1206C104.268 45.199 104.364 45.2774 104.466 45.3557L104.484 45.3617Z" fill="black"/>
<path d="M142.449 45.651C143.678 45.6992 144.902 45.7957 146.131 45.7836C148.314 45.7595 150.335 45.1145 152.195 43.9753C152.267 43.9331 152.381 43.9572 152.477 43.9511C152.662 43.9572 152.854 43.9692 153.04 43.9753V49.4425C150.246 51.1484 147.187 51.5221 144.056 51.3352C143.139 51.281 142.245 51.498 141.279 51.2568C140.278 51.0097 139.378 50.5215 138.401 50.3045C136.301 49.8343 134.838 48.3273 133.231 47.1218C132.259 46.3924 131.725 45.0964 130.904 44.138C129.65 42.6793 129.38 40.8107 128.715 39.1048C128.613 38.8516 128.643 38.5382 128.643 38.2488C128.643 36.4706 128.619 34.6864 128.667 32.9082C128.733 30.4067 129.638 28.1402 130.844 26.0003C131.396 25.0178 132.001 23.981 132.829 23.2577C134.118 22.1245 135.528 21.0455 137.051 20.286C140.386 18.6283 143.996 18.3028 147.673 18.6585C148.038 18.7851 148.41 18.9177 148.776 19.0443C150.347 18.9779 151.667 19.7133 153.022 20.3885C153.022 22.1908 153.022 23.963 153.022 25.7412C152.944 25.8255 152.866 25.9039 152.794 25.9883C152.531 25.9401 152.249 25.934 152.003 25.8436C150.887 25.4217 149.79 24.9455 148.668 24.5416C148.2 24.3728 147.685 24.3306 147.187 24.2643C145.088 23.9871 143.013 23.969 141.057 24.9756C140.488 25.271 139.876 25.5 139.336 25.8376C136.421 27.652 135.294 30.479 135.03 33.74C134.898 35.3495 134.94 36.9589 135.402 38.5502C135.966 40.4671 136.829 42.1488 138.425 43.3966C138.521 43.481 138.616 43.5714 138.712 43.6558C139.57 44.1501 140.422 44.6443 141.279 45.1386C141.381 45.217 141.483 45.2954 141.591 45.3737C141.777 45.3918 141.963 45.4099 142.143 45.428C142.245 45.5063 142.347 45.5847 142.449 45.657V45.651Z" fill="black"/>
<path d="M120.582 68.4966C120.012 68.6231 119.436 68.7497 118.867 68.8763C118.765 68.9547 118.657 69.033 118.555 69.1114C117.715 70.4315 118.153 71.4864 119.772 72.0047C120.696 72.3001 121.625 72.5593 122.543 72.8667C125.05 73.7046 125.74 75.32 124.648 77.7492C124.552 77.9662 124.438 78.1772 124.336 78.3882C124.252 78.4786 124.168 78.575 124.084 78.6655C123.976 78.774 123.862 78.8825 123.754 78.991C123.659 79.0753 123.563 79.1598 123.467 79.2441C120.012 81.3539 115.202 80.4919 113.379 78.6836C113.793 78.0748 114.207 77.4599 114.584 76.9114C115.298 77.2369 115.928 77.5202 116.552 77.8035C116.654 77.8819 116.755 77.9602 116.857 78.0386C117.379 78.1049 117.901 78.2495 118.417 78.2194C119.352 78.1652 120.3 78.0808 121.212 77.8758C121.961 77.707 122.339 77.2188 122.363 76.3206C122.387 75.3803 121.763 75.2236 121.194 74.9342C119.952 74.3013 118.489 74.3134 117.271 73.5358C115.838 72.6196 114.74 70.3049 115.538 69.0632C116.198 68.0324 117.001 66.9474 118.297 66.5315C120.624 65.7901 122.945 65.7358 125.23 66.7244C125.524 66.851 125.788 67.0439 126.171 67.2669C125.884 67.9058 125.614 68.4966 125.356 69.0692C124.312 68.8703 123.323 68.6774 122.333 68.4905C121.721 67.7551 121.2 67.7551 120.588 68.4905L120.582 68.4966Z" fill="black"/>
<path d="M264.67 79.8288C264.91 78.6413 265.15 77.4539 265.384 76.2604C265.743 74.4219 266.085 72.5774 266.439 70.7389C266.745 69.1415 267.045 67.5441 267.375 65.9528C267.417 65.7418 267.609 65.561 267.729 65.3741H270.164C269.858 66.4833 269.558 67.4899 269.312 68.5086C269.264 68.7135 269.402 68.9607 269.456 69.1897C269.396 69.4911 269.336 69.7986 269.282 70.0999C269.378 70.0758 269.474 70.0577 269.576 70.0336C270.505 69.684 271.417 69.3043 272.455 69.3525C275.993 69.5213 276.833 71.3417 276.443 74.012C276.137 76.0976 275.609 78.1471 275.171 80.2869H272.718C272.826 79.4069 272.886 78.5449 273.048 77.701C273.294 76.4171 273.654 75.1512 273.888 73.8673C274.134 72.5472 273.246 71.5828 271.843 71.5466C270.338 71.5104 268.778 72.6437 268.418 74.1988C267.957 76.2001 267.549 78.2194 267.093 80.3171H264.988C264.886 80.1543 264.784 79.9916 264.676 79.8288H264.67Z" fill="black"/>
<path d="M250.624 70.2806C250.276 72.1854 249.941 74.0902 249.581 75.9889C249.317 77.3814 249.029 78.7617 248.729 80.2506C247.865 80.2265 246.9 80.8233 246.078 79.8528C246 79.7563 245.538 79.9131 245.305 80.0396C244.033 80.7087 242.66 80.5339 241.358 80.341C240.015 80.1421 238.623 78.1529 238.491 76.7183C238.317 74.7653 238.545 72.975 239.853 71.3596C241.49 69.3403 245.293 68.6169 247.218 70.2203C247.314 70.2987 247.494 70.2866 247.632 70.3108C247.811 70.3228 247.991 70.3349 248.171 70.3469C248.255 70.0817 248.339 69.8165 248.447 69.4789C249.155 69.4789 249.851 69.4608 250.546 69.503C250.624 69.503 250.684 69.8345 250.75 70.0154C250.708 70.0998 250.672 70.1902 250.63 70.2746L250.624 70.2806ZM240.986 75.3138C240.92 77.5622 242.018 78.5206 244.303 78.2313C246.15 77.9962 247.278 76.5917 247.416 74.271C247.512 72.6315 246.456 71.5826 244.813 71.4922C242.726 71.3716 240.974 73.0112 240.986 75.3199V75.3138Z" fill="black"/>
<path d="M291.136 70.0333C291.952 69.8103 292.756 69.4727 293.583 69.3884C295.646 69.1714 297.206 69.961 298.003 71.9863C297.931 72.0647 297.866 72.1431 297.794 72.2154C297.866 72.2516 297.943 72.2817 298.015 72.3179L298.027 73.4631C297.943 73.6621 297.865 73.861 297.782 74.0539C297.68 74.9219 297.584 75.7839 297.482 76.6519C297.392 76.8387 297.308 77.0316 297.218 77.2185C297.212 77.5078 297.2 77.8031 297.194 78.0925C297.104 78.2793 297.02 78.4722 296.93 78.6651C296.894 79.1775 296.858 79.6959 296.816 80.2806H294.459C293.955 79.4005 294.501 78.5446 294.615 77.7067C294.789 76.4168 295.197 75.157 295.437 73.867C295.682 72.5469 294.795 71.5825 293.391 71.5463C291.886 71.5101 290.327 72.6373 289.967 74.1925C289.505 76.1937 289.091 78.213 288.641 80.3167H286.542L286.23 79.8285C286.47 78.641 286.71 77.4535 286.944 76.26C287.304 74.4216 287.652 72.5771 288 70.7386C288.306 69.1412 288.605 67.5438 288.929 65.9525C288.971 65.7415 289.163 65.5607 289.283 65.3678H291.718C291.412 66.4709 291.112 67.4836 290.866 68.5023C290.819 68.7072 290.956 68.9544 291.01 69.1834C290.95 69.4908 290.89 69.7922 290.837 70.0936C290.932 70.0695 291.028 70.0454 291.13 70.0273L291.136 70.0333Z" fill="black"/>
<path d="M132.955 69.3403C133.98 69.4669 135.036 69.4669 136.019 69.7382C138.305 70.3711 139.666 73.4151 138.562 75.7358H130.484C130.346 77.2006 130.688 77.7552 131.899 78.1108C133.399 78.5569 134.802 78.3218 136.109 77.4719C136.301 77.4899 136.487 77.514 136.679 77.5321C136.907 78.0385 137.129 78.5448 137.345 79.033C135.42 80.6003 133.285 80.6967 131.174 80.323C129.74 80.0698 128.589 78.9969 128.127 77.5864C127.161 74.6508 128.295 70.9618 131.791 69.6658C132.175 69.5573 132.559 69.4488 132.943 69.3403H132.955ZM136.361 73.7527C136.535 73.1439 136.373 72.6858 135.912 72.2156C134.322 70.5941 131.437 71.426 130.706 73.7527C130.784 73.8311 130.862 73.9154 130.94 73.9938C132.661 73.9938 134.388 73.9938 136.109 73.9938C136.193 73.9154 136.271 73.8311 136.355 73.7527H136.361Z" fill="black"/>
<path d="M332.819 77.5319C333.047 78.0382 333.269 78.5445 333.479 79.0087C331.602 80.7387 329.425 80.6482 327.338 80.3167C325.898 80.0877 324.747 79.0027 324.279 77.5922C323.307 74.6687 324.429 70.9676 327.943 69.6596C328.231 69.5631 328.519 69.4667 328.807 69.3702C329.929 69.4848 331.086 69.4486 332.16 69.7379C334.451 70.3528 335.806 73.4089 334.708 75.7296H326.63C326.492 77.1943 326.834 77.7489 328.045 78.1045C329.545 78.5506 330.948 78.3155 332.262 77.4656C332.453 77.4837 332.639 77.5078 332.831 77.5258L332.819 77.5319ZM332.495 73.7524C332.669 73.1436 332.507 72.6855 332.046 72.2154C330.456 70.5939 327.572 71.4257 326.84 73.7524C326.918 73.8308 326.996 73.9152 327.074 73.9936C328.795 73.9936 330.522 73.9936 332.244 73.9936C332.327 73.9152 332.405 73.8308 332.489 73.7524H332.495Z" fill="black"/>
<path d="M301.213 73.4694C301.512 72.9992 301.878 72.5532 302.094 72.0469C303.084 69.7503 306.574 68.9124 308.583 69.5031C311.54 70.3772 312.506 72.0469 312.02 75.7057C310.641 75.7118 309.225 75.7238 307.81 75.7238C306.424 75.7238 305.039 75.7238 303.66 75.7238C303.528 77.1946 304.331 78.0566 305.981 78.2856C307 78.4303 307.528 78.2856 309.735 77.285C310.047 77.7853 310.371 78.2977 310.719 78.8522C309.717 80.0819 308.308 80.2748 306.922 80.4195C306.077 80.5099 305.165 80.54 304.355 80.323C303.276 80.0337 302.4 79.2923 301.764 78.3459C301.279 77.6226 301.093 76.7907 301.135 75.9046C301.159 75.3742 301.147 74.8498 301.153 74.3193C301.171 74.03 301.195 73.7467 301.213 73.4574V73.4694ZM304.067 73.9878C305.885 73.9878 307.708 73.9878 309.525 73.9878C309.609 73.9095 309.693 73.825 309.777 73.7467C309.801 72.74 309.411 72.0468 308.404 71.7153C306.388 71.0583 304.961 71.3657 303.822 73.7407C303.899 73.819 303.983 73.9034 304.061 73.9818L304.067 73.9878Z" fill="black"/>
<path d="M178.835 80.4497C176.784 80.5823 175.38 79.5093 174.589 77.5865C174.043 76.2604 174.085 74.7775 174.529 73.5237C175.704 70.2024 178.721 68.7316 181.923 69.6237C182.463 69.7744 183.051 69.7985 183.549 70.0276C185.444 70.8956 186.014 73.4454 185.78 74.9222C185.192 78.7016 182.313 80.739 178.835 80.4497ZM180.424 71.4984C177.257 71.5285 176.172 75.0729 177.257 77.2549C177.389 77.5202 177.701 77.7311 177.977 77.8818C179.225 78.575 180.448 78.4424 181.576 77.6106C182.859 76.6642 183.423 75.32 183.213 73.7648C183.003 72.2277 181.959 71.4622 180.43 71.4923L180.424 71.4984Z" fill="black"/>
<path d="M166.942 76.6642C168.268 74.5304 169.605 72.4086 170.913 70.2627C171.236 69.7262 171.602 69.3887 172.274 69.449C172.736 69.4912 173.204 69.455 173.935 69.455C173.443 70.3169 173.084 71.0041 172.676 71.6551C170.445 75.1934 168.226 78.7438 165.959 82.258C164.789 84.0724 162.438 84.9464 160.459 84.3376C160.045 84.2111 159.721 83.771 159.355 83.4696C159.523 83.108 159.613 82.7644 159.811 82.5112C160.165 82.0651 160.495 81.7336 161.239 81.9747C162.708 82.4509 163.41 82.0893 164.273 80.9078C164.591 80.4738 164.615 80.1001 164.495 79.5937C164.009 77.5503 163.596 75.4888 163.128 73.4394C162.984 72.8064 162.72 72.2037 162.582 71.5707C162.444 70.9197 162.396 70.2507 162.3 69.5213H164.765C164.825 69.9553 164.891 70.4074 164.957 70.8655C165.017 70.974 165.083 71.0764 165.143 71.1849C165.557 73.0053 165.977 74.8197 166.39 76.6401C166.45 76.7305 166.51 76.827 166.564 76.9174C166.684 76.833 166.81 76.7486 166.93 76.6642H166.942Z" fill="black"/>
<path d="M195.94 79.5756C194.728 80.317 193.427 80.5701 192.018 80.4375C190.404 80.2868 189.049 79.0692 189.031 77.4236C189.019 76.1638 189.187 74.892 189.385 73.6382C189.601 72.2638 189.942 70.9136 190.242 69.5152H192.737C192.509 70.6424 192.287 71.7213 192.084 72.8003C191.844 74.0782 191.622 75.3621 191.394 76.64C191.472 76.7425 191.55 76.845 191.622 76.9414C191.742 77.713 192.24 78.0324 192.965 78.147C195.208 78.5026 196.672 77.3573 197.115 74.8739C197.391 73.3549 197.661 71.8298 197.961 70.3168C198.015 70.0456 198.165 69.7924 198.291 69.4971H200.378C200.948 70.4012 200.336 71.3175 200.198 72.1975C199.844 74.4278 199.316 76.628 198.849 78.8342C198.747 79.3284 198.597 79.8106 198.459 80.3471C197.853 80.3471 197.277 80.3893 196.714 80.323C196.522 80.2989 196.366 79.9915 196.198 79.8167C196.114 79.7323 196.03 79.6479 195.94 79.5695V79.5756Z" fill="black"/>
<path d="M256.904 73.7045C257.084 73.7226 257.27 73.7467 257.449 73.7648C257.557 73.8431 257.659 73.9155 257.767 73.9938C258.883 73.9818 259.926 74.2892 260.82 74.9341C261.24 75.2416 261.648 75.7539 261.78 76.2482C262.097 77.4477 261.372 79.4068 259.896 79.8408C259.453 79.9734 259.027 80.1844 258.577 80.2567C256.61 80.5762 254.649 80.6787 252.759 79.8529C252.628 79.7986 252.484 79.7564 252.376 79.672C252.268 79.5876 252.19 79.461 252.094 79.3525C252.49 78.7317 252.885 78.1168 253.323 77.4357C254.577 78.2917 255.956 78.4785 257.383 78.3881C257.707 78.37 258.079 78.3399 258.325 78.165C258.727 77.8878 259.285 77.6889 259.201 76.9897C259.117 76.2784 258.553 76.411 258.127 76.3025C257.401 76.1156 256.682 75.8986 255.944 75.7961C253.923 75.5128 252.933 73.6683 253.833 71.8298C254.409 70.6544 255.266 69.8949 256.574 69.5935C258.583 69.1354 260.49 69.3223 262.451 70.2506C262.229 70.8352 262.02 71.3958 261.744 72.1192C261.072 71.9564 260.442 71.8479 259.83 71.655C258.691 71.2873 257.575 71.2331 256.55 71.9323C255.824 72.4266 255.86 72.74 256.61 73.4634C256.706 73.5417 256.796 73.6261 256.892 73.7045H256.904Z" fill="black"/>
<path d="M225.831 79.5756C225.531 80.1965 225.022 80.4014 224.35 80.4074C223.132 80.4195 221.855 80.7329 220.901 79.6118C220.709 79.3887 220.482 79.1416 220.41 78.8703C220.002 77.3574 220.206 75.8504 220.547 74.3495C220.733 73.5297 220.853 72.6918 221.015 71.7937C220.541 71.7274 220.128 71.6611 219.588 71.5827C219.69 70.992 219.786 70.4073 219.894 69.7442C220.488 69.684 221.039 69.6297 221.663 69.5694C221.741 68.7858 221.813 68.0263 221.897 67.2065H224.632C224.482 67.9902 224.338 68.7376 224.17 69.6418H227.037C226.863 70.3952 226.731 70.9799 226.575 71.649H223.858C223.552 72.9088 223.258 74.1264 222.97 75.3441C222.886 75.7057 222.845 76.0795 222.755 76.4472C222.431 77.7853 223.036 78.5087 224.386 78.3399C224.71 78.2977 225.028 78.1831 225.423 78.0867C225.489 78.5087 225.543 78.8764 225.597 79.2441C225.675 79.3526 225.747 79.4611 225.825 79.5696L225.831 79.5756Z" fill="black"/>
<path d="M147.966 80.1061C148.242 78.7318 148.506 77.3574 148.787 75.9891C149.093 74.5003 149.411 73.0114 149.717 71.5165C150.131 69.5032 150.545 67.4899 150.977 65.3862H153.471C152.53 70.3592 151.594 75.2839 150.635 80.3292C149.807 80.3292 149.009 80.3292 148.212 80.3292C148.128 80.2568 148.044 80.1785 147.966 80.1061Z" fill="black"/>
<path d="M141.062 80.1061C141.338 78.7318 141.602 77.3574 141.884 75.9891C142.19 74.5003 142.508 73.0114 142.814 71.5165C143.228 69.5032 143.641 67.4899 144.073 65.3862H146.568C145.627 70.3592 144.691 75.2839 143.731 80.3292C142.904 80.3292 142.106 80.3292 141.308 80.3292C141.224 80.2568 141.14 80.1785 141.062 80.1061Z" fill="black"/>
<path d="M319.337 70.2084C320.35 69.5092 321.478 69.3404 322.821 69.3947C322.671 70.1964 322.539 70.9137 322.395 71.6732C321.976 71.6973 321.604 71.7154 321.232 71.7455C319.607 71.86 318.611 72.8607 318.209 74.3073C317.669 76.2423 317.364 78.2435 316.944 80.2929H314.593C314.713 77.2067 315.444 74.2953 316.086 71.3658C316.128 71.1849 316.122 70.992 316.146 70.8052C316.296 69.684 316.536 69.4489 317.699 69.473C318.149 69.479 318.593 69.6237 319.043 69.7081C319.043 69.907 319.031 70.112 319.031 70.3109C319.139 70.2747 319.241 70.2446 319.349 70.2084H319.337Z" fill="black"/>
<path d="M228.775 80.1059C229.501 76.6219 230.233 73.1318 230.982 69.5392H233.231C233.297 69.7683 233.363 69.9973 233.447 70.2987C234.575 69.8526 235.654 69.2137 237.112 69.5151C237.016 70.2203 236.92 70.9316 236.824 71.667C236.308 71.7032 235.93 71.7032 235.559 71.7574C233.963 71.9985 232.794 73.2162 232.5 74.8376C232.17 76.6339 231.792 78.4242 231.408 80.335C230.623 80.335 229.825 80.335 229.021 80.335C228.937 80.2627 228.853 80.1843 228.775 80.112V80.1059Z" fill="black"/>
<path d="M202.891 80.1059C203.616 76.6219 204.348 73.1318 205.098 69.5392H207.347C207.413 69.7683 207.479 69.9973 207.563 70.2987C208.69 69.8526 209.77 69.2137 211.227 69.5151C211.131 70.2203 211.035 70.9316 210.939 71.667C210.423 71.7032 210.046 71.7032 209.674 71.7574C208.078 71.9985 206.909 73.2162 206.615 74.8376C206.285 76.6339 205.907 78.4242 205.524 80.335C204.738 80.335 203.94 80.335 203.137 80.335C203.053 80.2627 202.969 80.1843 202.891 80.112V80.1059Z" fill="black"/>
<path d="M260.029 50.618C260.137 50.7507 260.245 50.8772 260.359 51.0098C260.215 51.251 260.065 51.4981 259.921 51.7392C259.699 51.5403 259.333 51.3715 259.291 51.1425C259.189 50.5758 259.681 50.6542 260.035 50.6241L260.029 50.618Z" fill="black"/>
<path d="M229.831 50.618C229.939 50.7507 230.047 50.8772 230.161 51.0098C230.017 51.251 229.867 51.4981 229.723 51.7392C229.502 51.5403 229.136 51.3715 229.094 51.1425C228.992 50.5758 229.484 50.6542 229.837 50.6241L229.831 50.618Z" fill="black"/>
<path d="M120.582 68.4967C121.194 67.7613 121.716 67.7613 122.327 68.4967C121.746 68.4967 121.164 68.4967 120.582 68.4967Z" fill="black"/>
<path d="M132.954 69.34C132.57 69.4485 132.187 69.557 131.803 69.6655C131.833 69.4424 131.797 69.1652 131.917 69.0084C132.061 68.8156 132.337 68.7251 132.552 68.5925C132.684 68.8397 132.822 69.0928 132.954 69.34Z" fill="black"/>
<path d="M273.87 19.3278C273.474 19.2917 272.988 19.6292 272.73 19.0445C273.216 18.713 273.648 18.5744 273.87 19.3278Z" fill="black"/>
<path d="M242.24 19.3277C241.85 19.2855 241.358 19.6291 241.106 19.0383C241.586 18.7189 242.03 18.5802 242.24 19.3277Z" fill="black"/>
<path d="M113.408 19.0506C113.025 18.9722 112.635 18.8878 112.251 18.8095C112.737 18.4056 113.163 18.3031 113.408 19.0506Z" fill="black"/>
<path d="M328.801 69.3763C328.513 69.4728 328.225 69.5692 327.938 69.6657C328.057 69.4065 328.177 69.1473 328.297 68.8881C328.465 69.0508 328.633 69.2136 328.801 69.3763Z" fill="black"/>
<path d="M349.216 19.3214C348.928 19.237 348.64 19.1587 348.358 19.0743C348.796 18.6342 349.084 18.7126 349.216 19.3214Z" fill="black"/>
<path d="M115.423 19.3337C115.13 19.3337 114.836 19.3337 114.548 19.3276C114.674 19.1649 114.794 19.0022 114.92 18.8334C115.088 19.0022 115.262 19.1649 115.429 19.3337H115.423Z" fill="black"/>
<path d="M148.775 19.0441C148.41 18.9175 148.038 18.7849 147.672 18.6584C148.14 18.5016 148.601 18.3509 148.775 19.0441Z" fill="black"/>
<path d="M301.213 73.4694C301.195 73.7587 301.171 74.042 301.153 74.3313C300.991 74.1987 300.823 74.0721 300.661 73.9395C300.847 73.7828 301.027 73.6261 301.213 73.4694Z" fill="black"/>
<path d="M116.857 19.629C116.527 19.641 116.12 19.8279 116.012 19.2854C116.486 18.9177 116.743 19.1045 116.857 19.629Z" fill="black"/>
<path d="M291.694 45.9645C291.706 46.3623 291.76 46.7903 291.19 46.8566C291.358 46.5612 291.526 46.2598 291.694 45.9645Z" fill="black"/>
<path d="M278.165 35.0484C277.943 34.9941 277.721 34.9459 277.247 34.8374C277.691 34.6566 277.943 34.5601 278.189 34.4576C278.183 34.6566 278.171 34.8555 278.165 35.0484Z" fill="black"/>
<path d="M101.342 32.1008C101.84 32.1249 101.96 32.4324 101.918 32.8664C101.726 32.6132 101.534 32.354 101.342 32.1008Z" fill="black"/>
<path d="M310.959 26.3439C310.791 26.0485 310.623 25.7471 310.461 25.4518C311.025 25.5241 310.977 25.9461 310.959 26.3439Z" fill="black"/>
<path d="M332.819 77.532C332.627 77.5139 332.441 77.4898 332.249 77.4718C332.333 77.3331 332.417 77.1884 332.501 77.0498C332.609 77.2126 332.711 77.3693 332.819 77.532Z" fill="black"/>
<path d="M286.243 79.8287L286.555 80.317C286.369 80.2748 286.177 80.2326 285.991 80.1904C286.075 80.0699 286.165 79.9493 286.249 79.8287H286.243Z" fill="black"/>
<path d="M297.788 74.0601C297.872 73.8612 297.95 73.6623 298.034 73.4694C298.448 73.8793 298.142 73.9817 297.788 74.0601Z" fill="black"/>
<path d="M264.67 79.8287C264.772 79.9915 264.874 80.1542 264.982 80.317C264.796 80.2748 264.604 80.2326 264.418 80.1904C264.502 80.0699 264.592 79.9493 264.676 79.8287H264.67Z" fill="black"/>
<path d="M281.685 30.0815C281.829 29.8163 281.966 29.545 282.11 29.2798C282.236 29.6897 282.17 29.9971 281.685 30.0815Z" fill="black"/>
<path d="M297.225 77.2249C297.315 77.0381 297.399 76.8452 297.488 76.6583C297.896 77.0803 297.578 77.1647 297.225 77.2249Z" fill="black"/>
<path d="M101.294 23.9331C101.126 24.1501 100.964 24.3731 100.796 24.5901C100.658 24.138 100.958 24.0235 101.294 23.9331Z" fill="black"/>
<path d="M296.937 78.6713C297.026 78.4784 297.11 78.2915 297.2 78.0986C297.608 78.5206 297.29 78.605 296.937 78.6713Z" fill="black"/>
<path d="M113.757 24.1015C114.159 23.9869 114.471 24.0412 114.554 24.5294C114.291 24.3848 114.021 24.2461 113.757 24.1015Z" fill="black"/>
<path d="M136.685 77.532C136.493 77.5139 136.307 77.4898 136.115 77.4718C136.199 77.3331 136.283 77.1884 136.367 77.0498C136.475 77.2126 136.577 77.3693 136.685 77.532Z" fill="black"/>
<path d="M291.137 70.0335C291.041 70.0576 290.945 70.0817 290.843 70.0998C290.903 69.7984 290.963 69.491 291.017 69.1896C291.053 69.4729 291.095 69.7502 291.131 70.0335H291.137Z" fill="black"/>
<path d="M269.57 70.0335C269.474 70.0576 269.378 70.0757 269.276 70.0998C269.336 69.7984 269.396 69.491 269.45 69.1896C269.486 69.4729 269.528 69.7502 269.564 70.0335H269.57Z" fill="black"/>
<path d="M166.942 76.6642C166.822 76.7486 166.696 76.833 166.576 76.9174C166.516 76.827 166.456 76.7306 166.402 76.6401C166.582 76.6462 166.762 76.6582 166.948 76.6642H166.942Z" fill="black"/>
<path d="M153.04 43.9691C152.854 43.9631 152.662 43.9511 152.477 43.945C152.621 43.8426 152.77 43.7341 152.914 43.6316C152.956 43.7461 152.998 43.8607 153.04 43.9752V43.9691Z" fill="black"/>
<path d="M319.336 70.2086C319.228 70.2447 319.127 70.2749 319.019 70.311C319.019 70.1121 319.031 69.9072 319.031 69.7083C319.133 69.877 319.234 70.0398 319.336 70.2086Z" fill="black"/>
<path d="M228.775 80.106C228.859 80.1783 228.943 80.2566 229.021 80.329C228.937 80.2566 228.853 80.1783 228.775 80.106Z" fill="black"/>
<path d="M100.55 48.7192V48.7554C100.472 48.7614 100.4 48.7735 100.322 48.7795C100.4 48.7614 100.472 48.7373 100.55 48.7192Z" fill="black"/>
<path d="M142.448 45.6513C142.346 45.5729 142.245 45.4946 142.143 45.4222C142.245 45.5006 142.346 45.579 142.448 45.6513Z" fill="black"/>
<path d="M141.584 45.3619C141.482 45.2835 141.38 45.2052 141.272 45.1268C141.374 45.2052 141.476 45.2835 141.584 45.3619Z" fill="black"/>
<path d="M335.122 42.2393L334.87 41.9379C334.954 42.0403 335.038 42.1368 335.122 42.2393Z" fill="black"/>
<path d="M280.485 36.4165C280.389 36.3322 280.287 36.2478 280.191 36.1573C280.287 36.2417 280.389 36.3261 280.485 36.4165Z" fill="black"/>
<path d="M216.349 35.5969C216.277 35.4944 216.205 35.3919 216.139 35.2894C216.211 35.3919 216.283 35.4944 216.349 35.5969Z" fill="black"/>
<path d="M111.963 32.3476C111.861 32.2693 111.759 32.1909 111.663 32.1125C111.765 32.1909 111.867 32.2693 111.963 32.3476Z" fill="black"/>
<path d="M352.353 26.3382C352.419 26.2719 352.49 26.2599 352.574 26.3021C352.55 26.3804 352.532 26.4588 352.508 26.5311L352.353 26.3382Z" fill="black"/>
<path d="M152.794 25.9826C152.872 25.8982 152.95 25.8199 153.022 25.7355C152.944 25.8199 152.866 25.8982 152.794 25.9826Z" fill="black"/>
<path d="M298.022 72.3182C297.95 72.282 297.872 72.2519 297.8 72.2158C297.872 72.1374 297.938 72.059 298.01 71.9867C298.01 72.0952 298.022 72.2097 298.022 72.3182Z" fill="black"/>
<path d="M191.616 76.9537C191.538 76.8513 191.46 76.7488 191.388 76.6523C191.466 76.7548 191.544 76.8573 191.616 76.9537Z" fill="black"/>
<path d="M280.485 22.5585C280.401 22.462 280.318 22.3716 280.228 22.2751C280.312 22.3716 280.395 22.462 280.485 22.5585Z" fill="black"/>
<path d="M195.939 79.5756C196.023 79.66 196.107 79.7443 196.197 79.8227C196.113 79.7383 196.029 79.6539 195.939 79.5756Z" fill="black"/>
<path d="M141.062 80.106C141.146 80.1783 141.23 80.2566 141.308 80.329C141.224 80.2566 141.14 80.1783 141.062 80.106Z" fill="black"/>
<path d="M147.966 80.106C148.05 80.1783 148.134 80.2566 148.212 80.329C148.128 80.2566 148.044 80.1783 147.966 80.106Z" fill="black"/>
<path d="M202.891 80.106C202.975 80.1783 203.059 80.2566 203.137 80.329C203.053 80.2566 202.969 80.1783 202.891 80.106Z" fill="black"/>
<path d="M275.651 29.5025C275.723 29.4001 275.801 29.2976 275.873 29.1891C275.801 29.2916 275.723 29.394 275.651 29.5025Z" fill="black"/>
<path d="M266.391 23.9991C266.313 24.1016 266.235 24.1981 266.151 24.3005C266.229 24.1981 266.307 24.1016 266.391 23.9991Z" fill="black"/>
<path d="M177.827 28.6345C177.761 28.3452 177.689 28.0558 177.623 27.7665C178.211 27.9353 178.247 28.2306 177.827 28.6345Z" fill="black"/>
<path d="M177.581 30.3704C177.665 30.0811 177.743 29.7918 177.827 29.5024C178.259 29.9425 178.187 30.2318 177.581 30.3704Z" fill="black"/>
<path d="M206.867 24.8011C206.675 24.9216 206.483 25.0422 206.291 25.1627C206.375 24.9156 206.459 24.6685 206.543 24.4153C206.651 24.5419 206.759 24.6685 206.867 24.8011Z" fill="black"/>
<path d="M208.63 30.0692C208.534 29.8763 208.438 29.6895 208.342 29.4966C208.654 29.5749 209.026 29.6292 208.63 30.0692Z" fill="black"/>
<path d="M209.152 31.8475C209.086 31.739 209.02 31.6305 208.96 31.522C209.026 31.6305 209.092 31.739 209.152 31.8475Z" fill="black"/>
<path d="M305.207 26.0548L304.691 25.1566C305.261 25.2229 305.255 25.6328 305.207 26.0548Z" fill="black"/>
<path d="M236.194 23.9991C236.116 24.1016 236.038 24.1981 235.954 24.3005C236.032 24.1981 236.11 24.1016 236.194 23.9991Z" fill="black"/>
<path d="M303.827 73.7528L304.067 73.9939C303.989 73.9156 303.905 73.8312 303.827 73.7528Z" fill="black"/>
</g>
<defs>
<clipPath id="clip0_728_5893">
<rect width="355" height="103" fill="white" transform="translate(0.0712891 0.00012207)"/>
</clipPath>
</defs>
</svg>
