<svg width="106" height="105" viewBox="0 0 106 105" fill="none" xmlns="http://www.w3.org/2000/svg">
<path d="M27.468 37.5205C28.7748 35.3016 30.3544 33.2694 32.1709 31.467L16.7411 14.5415C12.8567 18.254 9.54676 22.5554 6.94043 27.2948L27.468 37.5205Z" fill="#64AD35"/>
<path d="M65.2993 25.564C67.64 26.6339 69.8084 28.0055 71.7685 29.6212L87.2413 12.7245C83.1631 9.21298 78.5464 6.31189 73.5276 4.16479L65.2993 25.564Z" fill="#E7B717"/>
<path d="M100.733 30.655L80.2266 40.8807C81.203 43.1642 81.8995 45.5986 82.28 48.1262L105.091 45.972C104.416 40.5719 102.922 35.4232 100.733 30.655Z" fill="#C31A23"/>
<path d="M78.7546 37.9151L99.2606 27.6895C96.7189 22.9716 93.4807 18.6774 89.6753 14.9648L74.2025 31.8616C75.9687 33.6712 77.4981 35.7034 78.7546 37.9151Z" fill="#489835"/>
<path d="M23.397 52.4926C23.397 52.033 23.4113 51.5663 23.4329 51.1139L0.614882 49.0745C0.543083 50.2019 0.5 51.3508 0.5 52.4998C0.5 56.873 1.04568 61.1313 2.05088 65.1957L24.0934 58.8693C23.6411 56.8083 23.397 54.6828 23.397 52.4926Z" fill="#417F3D"/>
<path d="M75.8826 71.2498C74.2599 73.2245 72.386 74.9838 70.3181 76.4847L82.3661 95.9953C86.8393 92.9649 90.817 89.2595 94.1628 85.0372L75.8826 71.2498Z" fill="#F8C300"/>
<path d="M82.603 52.4921C82.603 54.6535 82.3661 56.7575 81.9209 58.7897L103.956 65.1233C104.961 61.0804 105.5 56.8437 105.5 52.4921C105.5 51.4149 105.464 50.3378 105.399 49.2678L82.5815 51.4221C82.5958 51.7811 82.603 52.133 82.603 52.4921Z" fill="#E23623"/>
<path d="M30.4837 71.6802L12.2465 85.5466C15.6355 89.7259 19.6563 93.3666 24.1581 96.3395L36.2061 76.8505C34.0737 75.3855 32.1566 73.6478 30.4837 71.6802Z" fill="#F39D19"/>
<path d="M23.7632 47.8177C24.1725 45.2398 24.9192 42.7767 25.9531 40.4645L5.4471 30.2532C3.1854 35.0716 1.63452 40.2921 0.923706 45.7712L23.7632 47.8177Z" fill="#2693D1"/>
<path d="M79.566 97.7609L67.5324 78.2791C65.3425 79.5142 62.9946 80.4836 60.5104 81.1299L64.7609 103.671C70.0382 102.45 75.0211 100.439 79.566 97.7609Z" fill="#A4183D"/>
<path d="M81.045 61.979C80.248 64.3272 79.1638 66.5389 77.8427 68.5783L96.1445 82.38C99.117 78.1074 101.465 73.3751 103.066 68.3126L81.045 61.979Z" fill="#3CB9E1"/>
<path d="M57.2648 81.7842C55.8719 81.9852 54.4431 82.093 52.9999 82.093C51.8368 82.093 50.6808 82.0211 49.5536 81.8919L45.3102 104.433C47.8232 104.806 50.3864 105 52.9999 105C55.8935 105 58.7367 104.763 61.5082 104.311L57.2648 81.7842Z" fill="#E86120"/>
<path d="M54.8883 22.9425C57.43 23.1077 59.8856 23.5888 62.2119 24.3572L70.4402 2.96518C65.5434 1.23458 60.3164 0.214881 54.8812 0.0209961V22.9425H54.8883Z" fill="#DE1931"/>
<path d="M46.294 81.3311C43.7307 80.7351 41.2895 79.8016 39.0279 78.5808L26.9727 98.077C31.6109 100.734 36.68 102.702 42.0578 103.843L46.294 81.3311Z" fill="#D80460"/>
<path d="M44.104 24.25C46.4806 23.496 48.9864 23.0436 51.5855 22.9215V0C46.0713 0.143619 40.7868 1.14895 35.8183 2.87237L44.104 24.25Z" fill="#1B4469"/>
<path d="M28.4732 69.0519C27.0228 66.9048 25.8381 64.5495 24.9837 62.0505L2.96271 68.3698C4.62846 73.6262 7.09838 78.5164 10.236 82.9112L28.4732 69.0519Z" fill="#CA9A12"/>
<path d="M34.6552 29.2695C36.5938 27.74 38.7191 26.4474 41.0023 25.4277L32.7166 4.06445C27.7839 6.13256 23.239 8.94032 19.2111 12.3369L34.6552 29.2695Z" fill="#05659B"/>
</svg>
