<svg width="200" height="300" viewBox="0 0 239 347" fill="none" xmlns="http://www.w3.org/2000/svg">
<path d="M114.449 167.311C114.345 150.375 114.593 130.875 113.49 114.029C125.062 118.657 137.245 116.828 137.196 101.623C137.183 97.2674 133.194 54.194 130.809 52.8301C130.3 52.5415 129.33 52.4163 128.084 52.4245C128.994 49.4135 126.177 34.2771 121.065 30.1691C121.032 30.1446 117.163 27.297 114.228 25.8786L113.988 25.767L114.762 19.5055C114.791 19.2478 114.717 18.9892 114.556 18.7855C114.396 18.5818 114.161 18.4493 113.904 18.4166C113.646 18.388 113.388 18.4616 113.184 18.6215C112.98 18.7813 112.847 19.0147 112.814 19.2714L112.092 25.1436C111.738 25.0765 111.373 25.1256 111.049 25.2836C110.726 25.4417 110.463 25.7001 110.299 26.0202C109.879 26.728 110.825 27.6128 111.708 28.2525L111.67 28.5629C110.61 28.1191 109.956 28.3859 109.667 28.9794C108.653 28.0129 107.68 27.4957 106.803 28.1382C104.211 29.1808 109.318 35.3606 108.871 40.5468C108.811 41.2627 109.176 42.5668 109.765 44.045L108.89 51.1395C108.861 51.3974 108.935 51.6563 109.095 51.8602C109.256 52.0641 109.491 52.1964 109.748 52.2285C110.006 52.257 110.265 52.183 110.469 52.0226C110.673 51.8622 110.806 51.6281 110.838 51.3709L111.321 47.4099C112.566 49.7484 113.991 51.7929 114.863 52.0515V51.9589C114.975 54.9998 115.002 55.1169 116.653 54.5397H116.672C114.626 55.2748 113.13 56.1269 112.939 56.9899C112.923 57.0607 112.983 63.6298 112.958 68.0318C112.958 68.2306 112.958 68.5763 112.958 69.0663C112.958 70.4466 112.92 71.4838 112.877 71.8105L108.718 77.767C106.996 76.9095 104.607 75.9213 102.686 75.1291C101.667 74.5914 100.611 74.1292 99.5246 73.7461C95.5163 72.2379 89.309 70.3676 84.8946 68.8458C84.851 68.8322 84.1453 68.8186 83.0144 68.8104C82.2487 65.0209 81.5648 61.5009 81.5648 60.8856C81.5648 60.6297 92.3391 60.5263 92.211 53.8456C91.9875 42.1393 88.3198 33.2971 83.7502 28.4567C89.3662 26.7117 90.6169 18.8957 84.8401 15.3702C82.6956 14.0608 79.5838 14.4229 76.7635 15.392L79.1151 13.0072C76.7117 12.8412 74.0386 15.1525 72.3737 17.4474C69.5316 18.8385 64.3461 19.9466 60.5449 22.7969C57.0951 25.3614 56.5502 30.5175 57.7382 34.5113C57.8554 34.906 58.0298 35.5703 58.2505 36.4006C56.0706 37.6692 56.0978 38.8997 57.2477 41.8235C58.7519 45.6349 60.6811 51.752 61.3351 52.713C61.3756 52.8027 61.4258 52.8876 61.485 52.9662C60.4931 52.1795 59.2287 51.3464 58.7846 51.801C56.978 53.6495 58.4249 56.2167 60.2833 59.3447C61.7057 61.735 63.5096 64.1143 63.3433 68.9765C53.2339 72.4394 42.6341 77.9603 41.1136 82.0276C39.2961 88.9233 45.3781 173.742 45.3781 173.742H46.2119C47.4326 188.788 49.0866 218.606 50.7706 247.183C52.8961 283.287 55.0651 317.404 56.4575 317.224C56.9453 317.162 58.0489 317.143 59.4931 317.137C59.6157 318.79 59.7656 320.948 59.929 322.87C58.7546 322.846 57.8118 322.83 57.2423 322.83C56.918 324.692 57.1169 329.001 56.8962 332.426C56.0788 345.172 56.1796 344.527 56.7818 344.328C57.6183 344.056 61.9427 344.154 63.0927 344.089C66.2454 343.914 65.6677 337.16 69.1093 344.208C69.6215 345.254 98.7835 346.386 101.536 345.24C102.448 344.862 102.942 344.44 103.121 344.002C112.675 344.064 130.12 343.242 132.278 342.281C132.278 342.281 131.384 336.959 125.324 336.716C113.577 336.245 104.887 332.235 100.857 319.865L101.078 320.54C100.533 320.812 99.4647 321.036 98.0804 321.188C98.2684 319.37 98.511 317.183 98.6881 315.256L101.14 315.125L110.133 201.474M80.7037 222.932C80.7201 222.731 80.7364 222.554 80.7528 222.388V222.347C80.7528 222.271 80.7691 222.2 80.7746 222.135C80.7746 222.072 80.7882 222.017 80.7964 221.966V221.933C80.7964 221.884 80.7964 221.838 80.8154 221.8C80.8154 221.762 80.8154 221.732 80.8318 221.707C80.8481 221.683 80.8318 221.691 80.8318 221.685L80.8454 221.625C80.8469 221.611 80.8469 221.596 80.8454 221.582C80.8467 221.574 80.8467 221.565 80.8454 221.557C80.8454 221.541 80.8454 221.525 80.859 221.503V221.459C80.859 221.438 80.859 221.416 80.859 221.391C80.859 221.367 80.859 221.356 80.859 221.337L80.8754 221.25L80.8917 221.179L80.9081 221.078L80.9244 220.994C80.9244 220.956 80.9408 220.915 80.9462 220.874C80.9517 220.833 80.9462 220.814 80.9653 220.781C80.9844 220.749 80.9653 220.694 80.9871 220.648C81.0089 220.602 81.0007 220.575 81.0089 220.534C81.0171 220.493 81.028 220.436 81.0361 220.384C81.0443 220.332 81.0361 220.316 81.0552 220.281C81.0743 220.245 81.0743 220.161 81.0852 220.101C81.0961 220.041 81.1015 220.019 81.107 219.976C81.1124 219.932 81.1343 219.831 81.1479 219.755V219.676C81.186 219.456 81.2269 219.222 81.2678 218.974L81.2923 218.835L81.3332 218.593L81.3604 218.44C81.3604 218.356 81.3877 218.274 81.404 218.19L81.4258 218.056C81.4422 217.953 81.4612 217.849 81.4803 217.743L81.4967 217.637C81.513 217.539 81.5321 217.438 81.5484 217.335L81.5811 217.147C81.5948 217.06 81.6111 216.97 81.6247 216.875C81.6384 216.78 81.6465 216.755 81.6547 216.695L81.7038 216.401L81.7365 216.216L81.7855 215.925L81.8918 215.748L81.949 215.399C81.949 215.356 81.9653 215.312 81.9708 215.271L82.0198 214.977C82.1016 214.49 82.1861 213.989 82.2705 213.48C82.2896 213.371 82.306 213.265 82.325 213.159L82.3523 212.99L82.4068 212.661L82.4531 212.388L82.4994 212.103C82.5212 211.983 82.5403 211.866 82.5594 211.746C82.5594 211.708 82.5594 211.672 82.5785 211.634C82.5975 211.512 82.6193 211.389 82.6384 211.267C82.6384 211.191 82.6656 211.114 82.6765 211.035L82.7256 210.747L82.7746 210.456C82.791 210.341 82.8101 210.23 82.8291 210.115V210.072L82.9027 209.628C82.9191 209.524 82.9354 209.421 82.9545 209.315L82.9845 209.124L83.0308 208.852C83.0308 208.779 83.058 208.702 83.0689 208.626L80.6628 223.305C80.6628 223.194 80.6819 223.087 80.6901 222.984L80.7037 222.932ZM82.6111 332.372C79.859 330.194 77.7908 327.038 76.5591 321.556L76.7117 322.242C76.0141 322.596 74.1421 322.786 71.8069 322.881C71.8641 321.087 71.9486 318.89 71.9922 316.93C74.243 316.767 75.8289 316.481 75.8806 315.975C76.0932 313.857 77.6845 279.443 79.0252 252.783C79.0579 252.108 79.0933 251.422 79.126 250.771L79.1423 250.464L79.1832 249.63C79.1832 249.505 79.1832 249.38 79.2023 249.255C79.2159 249.018 79.2268 248.784 79.2377 248.55C79.2377 248.463 79.2377 248.375 79.2513 248.277C79.2677 247.956 79.284 247.638 79.3004 247.322V247.276C79.3167 246.941 79.3331 246.609 79.3522 246.279V246.206L79.393 245.389C79.393 245.275 79.393 245.16 79.4121 245.046C79.4121 244.774 79.4394 244.521 79.453 244.262C79.453 244.191 79.453 244.123 79.453 244.055C79.4666 243.783 79.4802 243.494 79.4966 243.217V243.108L79.5456 242.163V242.09C79.562 241.793 79.5756 241.496 79.5919 241.202V241.126C79.6246 240.505 79.6546 239.895 79.6873 239.296V239.171C79.7364 238.245 79.7836 237.348 79.829 236.479L81.7664 316.13L86.1099 315.901C86.1099 317.586 86.1099 319.748 86.1317 321.618C84.4968 321.64 83.1507 321.662 82.3332 321.711C83.4722 324.85 82.6248 328.944 82.622 332.361L82.6111 332.372ZM128.084 52.4245C127.594 52.4245 127.06 52.4517 126.498 52.4952C127.021 52.3988 127.555 52.375 128.084 52.4245ZM108.678 77.8024L106.876 80.3805C105.762 78.2489 104.481 76.5311 103.01 75.3142C102.958 75.2788 102.895 75.2407 102.833 75.2026L108.678 77.8024Z" fill="white"/>
<path d="M102.165 13.7206C103.555 15.0382 105.034 15.8522 106.34 16.658L100.296 12.3022C101.124 12.9311 102.086 13.6444 102.165 13.7206Z" fill="white"/>
<path d="M106.34 16.658L108.247 18.0191C107.654 17.5086 107.015 17.053 106.34 16.658Z" fill="white"/>
<path d="M100.296 12.3075C99.6718 11.8447 99.1213 11.4472 99.075 11.4309L100.296 12.3075Z" fill="white"/>
<path d="M99.0314 19.8321L96.5136 19.2114C97.3395 19.469 98.1804 19.6763 99.0314 19.8321Z" fill="white"/>
<path d="M99.0314 19.8323L104.893 21.2779C103.661 20.6708 101.154 20.2597 99.0314 19.8323Z" fill="white"/>
<path d="M99.5737 25.2825L102.23 25.0103C101.34 25.0383 100.452 25.1293 99.5737 25.2825Z" fill="white"/>
<path d="M99.5737 25.2825L97.203 25.5139C97.9976 25.4913 98.7897 25.414 99.5737 25.2825Z" fill="white"/>
<path d="M170.061 293.091C164.93 300.471 150.382 317.676 153.938 330.932C154.143 331.697 154.29 332.418 154.401 333.109C147.281 332.549 141.946 324.88 146.317 307.682C147.573 302.736 155.287 294.071 154.625 293.817C147.197 291.008 138.109 305.556 137.126 310.035C135.948 315.403 131.033 334.051 148.946 341.886C153.331 343.792 159.08 343.604 161.854 342.744C164.558 343.048 167.278 343.197 169.999 343.188C182.904 343.313 210.671 342.619 219.756 343.052C221.826 343.15 226.075 339.24 221.712 334.495C220.05 332.687 218.246 331.669 218.246 331.609C218.246 328.939 217.973 326.845 217.851 321.959C217.663 313.87 218.396 260.038 218.183 259.143C218.878 258.751 219.273 258.369 219.355 258.054C219.75 256.535 219.156 252.454 218.647 252.767C218.418 252.905 218.183 253.032 217.941 253.145C218.551 251.983 218.123 248.653 220.502 247.815C225.331 246.113 229.919 237.554 226.388 234.837C218.6 228.848 218.382 233.452 216.851 223.893C215.9 217.939 217.216 218.073 214.306 211.961C212.371 207.894 207.414 222.118 207.011 224.057C206.761 225.257 200.379 225.254 198.926 225.254C198.057 221.868 195.997 215.399 195.509 211.915C194.815 206.957 187.019 216.919 186.653 228.753C186.487 234.168 187.471 250.766 187.07 251.811L187.16 251.879L186.997 251.811C185.416 251.142 186.686 256.51 185.814 258.149C186.121 258.231 186.422 258.332 186.716 258.451C187.024 266.384 182.441 275.278 170.061 293.091ZM206.709 261.541C207.815 261.477 208.849 261.387 209.81 261.269C208.778 261.412 207.744 261.503 206.709 261.541Z" fill="white"/>
<path d="M59.8799 322.119H59.9508H60.4413C60.3241 320.625 60.2042 319.029 60.1034 317.676H58.9835C59.0679 318.814 59.1688 320.126 59.2559 321.43C59.2723 321.654 59.2886 321.874 59.3077 322.092L59.8799 322.119Z" fill="black"/>
<path d="M72.3982 322.1C72.3982 321.779 72.42 321.452 72.4309 321.123C72.4799 319.691 72.5181 318.471 72.5453 317.431L71.9867 317.475L71.4254 317.51C71.3927 318.771 71.3491 320.045 71.3137 321.085C71.3137 321.449 71.2891 321.803 71.2782 322.144L71.8396 322.125L72.3982 322.1Z" fill="black"/>
<path d="M85.5949 315.387H85.6194C85.644 314.774 85.6767 313.819 85.7121 312.566C85.941 304.519 86.3443 284.24 86.2571 264.095C86.129 235.668 85.1099 217.406 83.2951 210.774L81.2242 223.42C81.0552 225.597 80.7909 229.981 80.4394 236.503L82.3604 315.558L85.5949 315.387Z" fill="black"/>
<path d="M44.8658 174.3H46.2636H46.8222C47.8114 186.659 49.0703 208.294 50.3837 230.843C50.6971 236.253 51.0159 241.733 51.3374 247.159C52.6018 268.646 55.2095 312.923 56.6973 316.65C57.1878 316.614 57.9507 316.598 58.899 316.59H60.553L60.3487 315.836C60.2676 315.858 60.1926 315.898 60.1298 315.954C60.0669 316.01 60.0178 316.079 59.9862 316.157C59.9748 316.182 59.9665 316.209 59.9617 316.236C59.9709 316.162 59.9754 316.087 59.9754 316.013C59.9754 315.8 59.9754 315.468 59.9754 315.008C59.9754 314.834 59.9754 314.641 59.959 314.431C59.9427 314.221 59.959 314.061 59.9399 313.857C59.6674 305.828 58.1088 279.157 56.6019 253.238C54.6073 219.015 52.5527 183.656 52.3538 174.164C52.3538 173.968 52.3538 173.78 52.3538 173.619H52.9151H53.4601C53.4601 173.791 53.4601 173.976 53.4601 174.164C53.5364 177.861 53.9097 185.693 54.4465 195.806C57.2123 190.675 62.9537 177.822 63.4387 173.878C63.4617 173.697 63.4717 173.515 63.4687 173.333L64.0137 173.314L64.5777 173.292C64.5823 173.48 64.5741 173.667 64.5532 173.853C64.0654 178.642 56.6673 194.47 54.5855 197.81L54.5473 197.873C55.3893 213.545 56.5828 234.099 57.6919 253.194C58.6565 269.743 59.5639 285.375 60.2015 297.057C60.5421 303.318 60.7765 307.903 60.9182 311.08C60.9618 312.038 60.9945 312.863 61.019 313.565C61.019 313.767 61.019 313.96 61.0381 314.14C61.0571 314.32 61.0517 314.537 61.0571 314.714C61.0571 314.81 61.0571 314.905 61.0571 314.986C61.0762 315.869 61.0871 316.348 60.9945 316.606H61.6757C64.1881 316.606 68.3381 316.606 71.4254 316.432L71.9867 316.397L72.5317 316.353C73.9269 316.239 74.9651 316.081 75.3029 315.836C75.4501 314.08 76.0768 301.083 76.8044 286.089C77.3167 275.501 77.8943 263.493 78.4393 252.78C78.7799 246.015 79.0551 240.696 79.2813 236.52L79.1042 229.237L80.0933 223.207C80.1138 222.624 80.1831 222.044 80.3004 221.473C80.4149 221.059 81.3904 215.318 82.4286 208.95L84.0635 198.907L85.1671 199.087C84.8456 201.061 84.2461 204.73 83.6166 208.555C88.6114 218.827 87.298 294.449 86.7857 312.441C86.7857 312.645 86.7857 312.839 86.7693 313.026C86.753 313.214 86.7693 313.427 86.753 313.612C86.7285 314.341 86.7094 314.932 86.693 315.37L98.1376 314.763L98.7044 314.733L99.2494 314.703L100.582 314.633L109.56 201.646L110.07 202.302L110.577 202.953C122.7 218.386 139.011 234.63 149.469 240.339C153.129 242.335 156.257 244.131 159.279 245.871C167.704 250.711 174.359 254.533 185.615 258.65L186.07 258.818V258.794L186.147 258.821C186.288 266.253 182.136 274.706 169.576 292.772C168.928 293.7 168.143 294.773 167.233 296.014C160.862 304.704 150.197 319.244 153.371 331.078C153.557 331.767 153.693 332.421 153.799 333.041C146.987 332.116 142.039 324.406 146.289 307.677C147.546 302.73 155.26 294.065 154.598 293.812C147.17 291.002 138.082 305.551 137.098 310.029C135.921 315.398 131.005 334.046 148.919 341.881C152.638 343.514 157.333 343.609 160.364 343.079C162.603 343.492 165.688 343.697 169.961 343.74C171.083 343.74 172.31 343.757 173.626 343.757C178.615 343.757 184.866 343.686 191.403 343.612C202.714 343.484 214.412 343.34 219.696 343.612C220.925 343.667 222.797 342.586 223.666 340.729C224.235 339.518 224.783 337.046 222.091 334.119C221.102 333.065 219.991 332.131 218.783 331.337C218.783 330.128 218.712 329.037 218.633 327.681C218.546 326.162 218.448 324.439 218.388 321.964C218.29 317.733 218.445 300.754 218.581 285.775C218.644 278.763 218.706 272.136 218.736 267.236C218.753 264.612 218.761 262.69 218.758 261.361C218.758 260.436 218.758 259.845 218.736 259.456C219.382 259.039 219.769 258.614 219.875 258.209C220.227 256.847 219.9 252.941 219.088 252.342C218.993 252.271 218.881 252.226 218.764 252.211C218.791 252.056 218.818 251.898 218.845 251.732C219.069 250.371 219.32 248.83 220.666 248.356C223.998 247.18 227.462 242.751 228.08 238.877C228.399 236.89 227.922 235.338 226.718 234.41C224.928 232.994 222.962 231.815 220.87 230.903C218.69 229.92 218.347 229.771 217.399 223.825C217.167 222.391 217.023 220.945 216.968 219.494C216.856 217.259 216.791 215.911 214.804 211.74C214.352 210.788 213.739 210.652 213.303 210.703C210.439 211.046 206.733 222.818 206.466 223.92C206.341 224.048 205.403 224.685 199.354 224.715C199.101 223.762 198.774 222.611 198.428 221.399C197.52 218.217 196.392 214.256 196.057 211.852C195.823 210.178 194.847 210.047 194.438 210.072C191.509 210.23 186.381 219.328 186.089 228.75C186.01 231.35 186.187 236.389 186.362 241.273C186.504 245.296 186.664 249.791 186.588 251.239C186.458 251.261 186.335 251.31 186.226 251.384C185.542 251.844 185.561 253.074 185.585 254.778C185.631 255.673 185.592 256.57 185.471 257.457C174.626 253.447 168.086 249.69 159.857 244.953C156.827 243.214 153.693 241.414 150.02 239.411C139.425 233.631 122.79 216.965 110.71 201.387L110.204 200.726L109.686 200.012L111.866 172.261L112.43 172.242L112.991 172.223L114.487 172.171L115.032 172.152V171.607C114.98 166.764 114.972 161.744 114.961 156.427C114.937 142.565 114.912 127.949 114.097 114.87C117.534 116.158 120.893 116.83 123.934 116.83C125.234 116.837 126.531 116.702 127.801 116.427C134.24 114.987 137.771 109.73 137.747 101.62C137.747 99.4943 136.769 87.818 135.439 76.0465C132.88 53.3746 131.572 52.6341 131.079 52.3455C130.586 52.0569 129.776 51.9208 128.752 51.88C128.986 49.811 128.447 45.643 127.373 41.5676C126.496 38.2327 124.556 32.2571 121.411 29.7335C121.381 29.709 117.596 26.9131 114.599 25.4349L115.321 19.579C115.37 19.1731 115.257 18.7641 115.005 18.4416C114.753 18.1192 114.384 17.9095 113.978 17.8585C113.571 17.8092 113.162 17.9228 112.839 18.1743C112.516 18.4258 112.306 18.7949 112.255 19.2006L111.593 24.5664C111.221 24.5911 110.862 24.7113 110.55 24.9154C110.239 25.1195 109.985 25.4007 109.814 25.7316C109.386 26.453 109.735 27.1799 110.326 27.8115C110.054 27.865 109.8 27.9867 109.588 28.1654C108.566 27.3187 107.539 26.9376 106.519 27.6427C104.735 28.4213 105.618 30.6999 106.639 33.3352C107.514 35.5948 108.509 38.1592 108.307 40.495C108.242 41.2573 108.596 42.5994 109.184 44.1185L108.323 51.066C108.299 51.2685 108.315 51.4737 108.37 51.67C108.426 51.8662 108.52 52.0496 108.646 52.2095C108.773 52.3694 108.93 52.5027 109.108 52.6017C109.287 52.7008 109.483 52.7636 109.686 52.7865C109.748 52.7906 109.811 52.7906 109.874 52.7865C110.251 52.7859 110.616 52.647 110.898 52.3962C111.18 52.1454 111.361 51.8 111.405 51.4254L111.678 49.1549C112.599 50.6713 113.555 51.9018 114.326 52.3836C114.375 53.6169 114.427 54.3274 114.64 54.763C113.304 55.4245 112.569 56.1051 112.4 56.8293C112.378 56.9191 112.378 56.9191 112.4 59.3447C112.4 61.5607 112.427 65.2087 112.413 67.9883C112.413 68.1979 112.4 68.56 112.413 69.0391C112.4 70.3867 112.378 71.394 112.337 71.7043L112.465 71.7207C112.487 72.6816 112.514 73.776 112.547 74.9548C112.58 76.1336 112.615 77.5629 112.648 79.0057C111.832 78.7341 111.047 78.3792 110.304 77.9467C108.669 76.9585 105.4 75.6028 102.947 74.5928C100.912 73.4385 95.8133 71.7887 90.8731 70.1907C88.7885 69.5155 86.8184 68.8785 85.0881 68.285C84.5544 68.2383 84.0188 68.2183 83.4831 68.2251C82.8891 65.2659 82.3359 62.4292 82.1806 61.294L82.4204 61.264C85.0118 60.9237 92.8976 59.8892 92.775 53.802C92.6143 45.3626 90.5951 37.5794 87.1018 31.9141C86.3986 30.762 85.6021 29.6694 84.7202 28.6473C85.9032 28.1278 86.93 27.3088 87.6989 26.2712C88.4679 25.2337 88.9524 24.0136 89.1046 22.7315C89.4942 19.5818 88.0146 16.6498 85.1235 14.8911C82.4722 13.2577 78.3385 13.9764 74.7907 15.5608C74.3797 15.936 73.9911 16.3351 73.6271 16.7559C73.3056 17.1235 73.0086 17.5046 72.7388 17.8803C72.3744 18.3884 72.051 18.9246 71.7715 19.4838C70.6049 21.9243 68.9944 24.1269 67.022 25.9793L66.9048 26.1454L65.981 25.5165C66.0478 25.4041 66.1263 25.2992 66.2154 25.2035C68.1114 23.4394 69.6555 21.3323 70.766 18.9937C70.8205 18.8848 70.8777 18.7705 70.9404 18.6589C71.0739 18.403 71.2265 18.1416 71.3954 17.8776C71.5644 17.6135 71.7769 17.2977 71.9894 17.0037C71.093 17.4311 69.9594 17.8367 68.6869 18.2941C66.0655 19.2306 62.8011 20.3985 60.2015 22.3477C56.4439 25.1681 56.0133 30.7217 57.2041 34.6855C57.3022 35.0067 57.4385 35.5185 57.6074 36.1637C55.5419 37.5086 55.5201 38.9651 56.7327 42.0413C57.3676 43.6285 58.0488 45.5995 58.7301 47.5051C59.3105 49.1549 59.7737 50.4644 60.1416 51.4145C59.4222 51.0796 58.7791 51.0116 58.384 51.4281C56.2286 53.6332 58.0461 56.6904 59.8037 59.6442C59.9481 59.8892 60.098 60.1342 60.2478 60.382C61.5258 62.4755 62.8447 64.637 62.7956 68.5926C53.1685 71.933 42.2444 77.4431 40.5904 81.8479L40.574 81.9023C38.7647 88.8008 44.5933 170.325 44.844 173.791L44.8658 174.3ZM197.155 335.777C194.874 333.716 192.038 331.149 194.139 326.067C197.21 318.629 193.561 307.062 188.228 300.923C185.378 297.656 182.351 296.208 179.708 296.883L179.435 295.794C182.509 295.007 185.934 296.567 189.076 300.182C191.893 303.427 194.215 308.017 195.441 312.784C196.776 317.957 196.681 322.832 195.169 326.486C193.368 330.842 195.673 332.927 197.894 334.925C199.368 336.256 200.76 337.514 200.619 339.303L199.504 339.216C199.608 337.996 198.48 336.967 197.155 335.777ZM218.516 253.461C218.788 254.373 219.091 256.812 218.807 257.896C218.766 258.056 218.535 258.282 218.11 258.535L217.96 258.598C215.658 259.535 213.256 260.204 210.802 260.591C209.393 260.787 207.804 260.939 205.998 261.015L205.564 261.032C200.06 261.103 194.043 260.022 187.422 257.784C187.375 257.664 187.289 257.562 187.178 257.496C187.067 257.429 186.937 257.402 186.809 257.416C186.737 257.42 186.667 257.433 186.599 257.455C186.714 256.545 186.75 255.626 186.705 254.71C186.705 253.894 186.675 252.715 186.828 252.326L186.88 252.345C190.422 255.037 197.834 256.504 204.818 256.504C210.058 256.504 215.047 255.688 217.946 253.929C218.102 253.833 218.234 253.704 218.333 253.551L218.516 253.461ZM191.539 227.209C191.539 226.708 191.812 223.596 192.234 220.547C193.109 214.259 193.779 214.139 194.267 214.052L194.463 215.141C194.513 215.132 194.561 215.112 194.602 215.081C193.741 215.933 192.656 225.777 192.656 227.198L191.539 227.209ZM211.058 225.14C211.058 222.562 211.921 219.932 212.758 217.389C213.003 216.641 213.238 215.933 213.447 215.231L214.518 215.549C214.303 216.268 214.058 217.014 213.821 217.727C213.003 220.177 212.186 222.731 212.186 225.129L211.058 225.14ZM221.764 235.784C223.246 235.806 224.418 235.825 225.066 236.677C225.611 237.393 225.633 238.499 225.14 240.38C224.769 241.785 223.93 242.803 222.829 243.176C222.516 243.28 222.187 243.332 221.856 243.331C221.072 243.331 220.061 243.059 218.859 242.111L218.799 242.057C217.633 240.848 216.815 238.73 217.467 237.282C217.799 236.541 218.636 235.678 220.737 235.76C221.094 235.774 221.434 235.779 221.758 235.784H221.764ZM46.7405 173.17H46.1819H45.9094C45.8304 172.051 45.6369 169.217 45.3644 165.202C45.3644 165.109 45.3508 165.016 45.3453 164.929C45.3453 164.747 45.3208 164.562 45.3072 164.371C43.7921 142.189 40.2579 87.72 41.6449 82.1963C42.8548 79.0683 50.7979 74.2525 60.6838 70.5255C60.7083 70.6671 60.7683 70.9747 60.9263 71.7397C60.9727 71.9629 61.0272 72.2325 61.0926 72.5564C61.1116 72.6544 61.1334 72.7524 61.1552 72.8613C61.1879 73.0274 61.2261 73.2043 61.2615 73.3867C61.7111 75.5646 62.376 78.7988 62.8665 81.3143C62.8992 81.6274 62.9373 81.9867 62.9782 82.3896C62.9973 82.5829 63.0191 82.7844 63.0381 82.994C63.0572 83.2036 63.079 83.3833 63.1008 83.5875C63.6458 89.0322 64.6595 99.2956 65.1391 105.195C62.3324 112.156 64.7112 121.66 69.2264 131.779C61.3623 128.063 52.7271 117.454 45.9857 96.1158L44.9203 96.4507C52.065 119.085 61.455 129.892 69.9022 133.26C74.1094 142.331 79.8971 151.813 85.1017 160.342C85.6685 161.268 86.2244 162.175 86.7693 163.064L87.1018 163.609L87.4342 164.153C89.0882 166.876 90.6169 169.443 91.9467 171.795C74.9705 172.383 53.501 173.069 46.7405 173.17ZM59.1524 52.2339C59.4549 52.2339 60.2206 52.6967 61.0762 53.3637C61.5122 53.704 61.9727 54.096 62.406 54.5098L62.4523 54.5534L62.7847 54.8719L62.8828 54.782L63.1717 54.5098L63.3134 54.371L63.7112 53.9463L64.2807 53.3201C64.3134 53.2847 64.3434 53.2493 64.3788 53.214L64.8638 52.6695C65.0464 52.468 65.2399 52.2557 65.4442 52.0352C67.7195 49.5551 71.2319 45.8581 74.025 43.9279C74.1558 43.8381 74.2974 43.7483 74.4119 43.6557L74.5618 43.5631C74.7525 43.4406 74.9323 43.3345 75.1067 43.2392C76.2948 42.5695 76.8834 42.5395 77.1722 42.6539C77.2649 42.692 77.551 42.8063 77.7336 43.5713C77.8643 44.1158 77.5946 45.33 77.4611 45.9125C77.3275 46.1167 77.1477 46.4107 76.9161 46.7755C76.6054 47.2819 75.9542 48.3518 75.3247 49.2529C75.1204 49.5415 74.9215 49.8137 74.7362 50.0424C74.5641 50.2702 74.3646 50.4759 74.1421 50.6549C74.0966 50.6866 74.0471 50.7122 73.995 50.7312L74.0849 51.2266L74.1939 51.8283C74.3323 51.7997 74.4649 51.7481 74.5863 51.6758C74.8142 51.5375 75.0222 51.369 75.2048 51.1749C75.9106 50.4589 76.7608 49.1767 77.8698 47.3636L78.0497 47.0696C78.127 47.0516 78.2027 47.027 78.2758 46.9961C78.4938 46.8735 78.7514 46.8421 78.9925 46.9089C79.1996 47.0069 79.3821 47.2928 79.5211 47.7257C79.6764 48.232 79.4339 49.1086 79.2486 49.7484C79.0878 50.3201 78.9761 50.7448 79.0361 51.0851C78.8644 51.3137 78.6682 51.6295 78.4066 52.0433C77.8289 52.9744 77.0441 54.2512 76.1122 54.929L76.7717 55.8302C77.8616 55.0134 78.7309 53.6523 79.3576 52.6314C79.5429 52.3319 79.7609 51.9807 79.9189 51.7684C80.1016 51.8674 80.2449 52.0259 80.3249 52.2176C80.7446 53.1023 80.5756 54.9862 79.2186 57.0334C76.4556 61.196 76.8561 65.4265 77.4992 68.1952C77.5428 68.3885 77.5891 68.5763 77.6355 68.7533C77.6818 68.9302 77.7363 69.1344 77.7881 69.2977C77.8753 69.6054 77.957 69.883 78.0306 70.1144C78.066 70.2233 78.0987 70.335 78.1314 70.4439V70.4793C77.1722 70.3595 75.3411 70.1662 72.8042 69.8967C71.1693 69.7252 69.2618 69.5237 67.5942 69.3386C66.1963 69.1834 64.9783 69.0418 64.2371 68.9357L63.9074 68.9302V68.7696C63.9074 68.6308 63.9074 68.4974 63.9074 68.3558C63.9074 68.2142 63.9074 68.0836 63.9074 67.9665C63.8907 67.1388 63.8059 66.3139 63.654 65.5C63.1826 63.0363 62.1498 61.3402 61.2016 59.783L60.7629 59.0589C58.8309 55.792 57.7654 53.7122 59.1497 52.2285L59.1524 52.2339ZM61.8446 52.5061L61.7956 52.4136C61.4632 51.9099 60.6075 49.4789 59.7792 47.1267C59.1088 45.2211 58.4167 43.2419 57.7764 41.6221C56.8853 39.3571 56.6401 38.2926 57.9181 37.2962C58.0739 37.1752 58.2368 37.0634 58.4058 36.9614C58.5584 36.8688 58.7273 36.7735 58.9099 36.6892C59.4985 36.3815 60.2424 36.0576 61.1689 35.6873C61.801 35.4341 62.5013 35.0829 63.2425 34.7127C64.141 34.2476 65.0623 33.8278 66.0028 33.455C66.2263 33.3706 66.4443 33.2944 66.6568 33.229C66.8694 33.1637 67.0955 33.1038 67.3026 33.0602C67.6067 32.9911 67.9173 32.9546 68.2291 32.9513C68.5906 32.9342 68.9507 33.008 69.2763 33.1659C69.602 33.3238 69.8827 33.5608 70.0929 33.8552C70.2101 34.0158 70.33 34.2009 70.4553 34.3996C70.5534 34.5603 70.6515 34.7345 70.7523 34.9196C70.8532 35.1047 70.9349 35.2626 71.0248 35.4478C72.1472 37.7986 73.0945 40.229 73.8587 42.7192L73.8042 42.7546C71.1829 44.4479 67.8912 47.7855 65.4933 50.3582C65.2944 50.5705 65.1009 50.7774 64.9156 50.9816L64.3352 51.6132L63.5477 52.4762L62.7684 53.331C62.4768 53.0588 62.1716 52.8002 61.8664 52.5551C61.855 52.5388 61.845 52.5215 61.8365 52.5034L61.8446 52.5061ZM82.2651 60.1751C81.4258 60.284 81.0062 60.3384 81.0062 60.872C81.0062 61.4791 81.5511 64.3321 82.3305 68.2224C81.2787 68.2224 80.0061 68.2224 78.6573 68.2224C78.0278 65.6498 77.5673 61.6016 80.156 57.6841C81.5702 55.5552 82.0362 53.2357 81.3441 51.7711C81.2368 51.5177 81.0772 51.2897 80.8758 51.1021C80.6743 50.9145 80.4356 50.7714 80.1751 50.6822C80.2132 50.5025 80.2786 50.2602 80.3331 50.0669C80.5593 49.2502 80.8399 48.2347 80.5892 47.418C80.3522 46.6585 79.9789 46.1494 79.472 45.9098C79.2113 45.7873 78.9223 45.7375 78.6355 45.7655C78.799 45.0114 78.9707 43.996 78.8126 43.3317C78.6028 42.4497 78.1886 41.8807 77.5782 41.6357C76.8997 41.3635 76.0169 41.5186 74.8533 42.123C74.1421 39.8743 72.9132 36.5476 71.7524 34.4024C72.0653 33.7741 72.2953 33.1079 72.4363 32.4205C73.2375 31.6228 80.3604 29.7335 83.5676 29.042C87.9847 33.9123 91.4398 42.7056 91.6524 53.8319C91.7423 58.9391 84.6003 59.8647 82.2569 60.1723L82.2651 60.1751ZM84.7747 69.3821C86.4996 69.9729 88.4506 70.6045 90.5161 71.2715C93.5489 72.2542 96.8242 73.3132 99.2766 74.2334C99.6445 74.4594 100.587 74.8514 102.375 75.5946L102.448 75.6245C102.533 75.6735 102.612 75.7225 102.683 75.7688C107.588 79.8524 110.751 90.0368 112.373 106.943C112.566 108.974 112.735 111.059 112.882 113.18C112.909 113.593 112.939 114.01 112.967 114.427C113.814 127.573 113.839 142.208 113.863 156.438C113.863 161.556 113.879 166.402 113.928 171.082L113.111 171.109L112.55 171.128L111.988 171.15C108.446 171.27 101.424 171.512 93.2219 171.784C91.9058 169.432 90.3826 166.884 88.734 164.145L88.3988 163.601C88.2898 163.418 88.1781 163.236 88.0664 163.056C87.4179 161.987 86.753 160.898 86.0718 159.789L85.5867 158.992C85.4941 157.949 86.4723 154.192 87.4942 150.22C90.0093 140.561 93.4372 127.39 90.8158 122.267C92.06 118.179 92.2475 113.842 91.3608 109.662C91.2055 108.892 90.9085 107.199 90.497 104.855C89.5787 99.5923 88.1863 91.6403 86.7366 84.7826C86.3306 82.8769 85.9655 81.2435 85.6276 79.8524C85.0826 77.5547 84.6085 75.9022 84.2134 74.7125C83.7665 73.3514 83.3959 72.5973 83.1234 72.1617C83.0457 72.01 82.9388 71.8752 82.8088 71.7649C82.6788 71.6547 82.5283 71.5711 82.3659 71.5192C81.9136 71.3695 80.8236 71.0945 79.3685 70.7733C79.3222 70.5364 79.235 70.2451 79.1178 69.864C79.0715 69.7088 79.0197 69.54 78.9679 69.3576H82.5648H83.1343H83.7065C84.2379 69.3603 84.6167 69.3685 84.7665 69.3794L84.7747 69.3821ZM65.3816 109.608L66.4879 109.779C66.6841 108.519 65.0982 92.4052 64.3461 84.9296L64.6186 84.9106C64.6186 84.7336 64.5532 84.3851 64.4714 83.9006C64.4415 83.7236 64.406 83.5303 64.3679 83.318L64.2616 82.7299C63.8093 80.3152 63.0027 76.3677 62.2343 72.6299C62.1852 72.4012 62.1416 72.1807 62.098 71.9684C62.0381 71.6961 61.9836 71.4239 61.9373 71.1925C61.8664 70.844 61.8119 70.5745 61.7847 70.433V70.3948C61.7847 70.3703 61.8201 70.3377 61.8882 70.2914C62.1743 70.1243 62.4914 70.0169 62.8202 69.9756C62.9401 69.9566 63.0654 69.9375 63.1989 69.9239C63.3006 69.9569 63.4044 69.9833 63.5095 70.0028C63.6785 70.0355 63.872 70.0627 64.0872 70.0954C64.605 70.1689 65.338 70.2587 66.3298 70.3676C68.1501 70.58 70.5616 70.8332 72.687 71.0564C75.4119 71.3422 78.2131 71.639 78.5919 71.7207C78.6091 71.722 78.6264 71.722 78.6437 71.7207C80.1669 72.0419 81.3686 72.3359 81.9762 72.5374C82.1997 72.668 82.9517 73.61 84.4722 79.8578C84.5431 80.1301 84.6112 80.435 84.6848 80.7426C84.7393 80.9713 84.7938 81.2054 84.8483 81.445C85.1208 82.5693 85.3933 83.8325 85.6875 85.2563C87.1127 92.0323 88.4806 99.8428 89.3825 105.01C89.794 107.365 90.0937 109.063 90.2545 109.85C92.4344 120.617 87.5596 130.758 79.1233 132.939C76.5646 133.6 73.7089 133.483 70.7169 132.394C66.5914 123.432 64.0845 114.955 65.3489 108.367C65.3878 108.779 65.3987 109.194 65.3816 109.608ZM75.897 134.474C77.081 134.476 78.2604 134.327 79.4066 134.03C84.3687 132.748 88.1863 128.92 90.2327 123.846C91.7668 129.312 88.5759 141.571 86.4015 149.915C85.4968 153.395 84.8755 155.815 84.603 157.391C80.0007 149.836 75.1095 141.653 71.3627 133.783C72.8321 134.234 74.3598 134.467 75.897 134.474ZM109.342 190.487L108.285 190.852C107.811 189.491 103.702 175.685 103.012 172.563C102.958 172.321 102.925 172.141 102.914 172.04L103.473 171.988L104.018 171.939C104.018 171.939 104.018 171.961 104.018 171.969C104.018 172.078 104.07 172.266 104.13 172.514C104.879 175.669 108.849 189.069 109.342 190.487ZM113.68 42.3326C113.375 41.5159 113.067 40.6638 112.814 39.9342C112.648 39.4578 112.506 39.0358 112.403 38.6928C112.403 38.652 112.375 38.6057 112.364 38.5649C112.225 38.0984 112.114 37.6238 112.032 37.1438C111.828 35.8888 112.116 35.671 112.133 35.6601C112.159 35.6455 112.188 35.6362 112.217 35.6329C112.251 35.6296 112.285 35.6296 112.318 35.6329C112.472 35.6393 112.625 35.6687 112.77 35.72C112.958 35.7792 113.14 35.8529 113.315 35.9405C113.484 36.0249 113.678 36.1311 113.898 36.2645L113.999 36.3434L113.983 36.3734L114.166 36.4714C114.555 36.7735 114.899 37.0158 115.152 37.2118C115.429 37.424 115.716 37.6221 116.013 37.8053C116.897 38.564 117.71 39.4024 118.441 40.3099L119.324 39.6266C118.19 38.2096 116.863 36.9587 115.381 35.9106C115.07 35.6846 114.77 35.4831 114.493 35.3144C114.171 35.0612 113.833 34.7862 113.492 34.4976C113.321 34.3561 113.152 34.2118 112.983 34.0648C112.814 33.9178 112.642 33.7626 112.476 33.6129C112.204 33.3651 111.947 33.1174 111.708 32.8751C111.528 32.6954 111.362 32.5158 111.209 32.3442C111.036 32.1494 110.873 31.9458 110.721 31.7344C110.659 31.6473 110.601 31.5629 110.552 31.4785C110.317 31.0933 110.157 30.6662 110.084 30.2208C110.035 30.0269 110.026 29.8252 110.058 29.6278C110.089 29.4303 110.16 29.2413 110.266 29.0719C110.313 29.0198 110.372 28.9796 110.438 28.9549C110.641 28.8864 110.861 28.8864 111.065 28.9549C111.197 28.9881 111.328 29.0309 111.454 29.0828L111.604 29.1482L111.877 29.2625L112.149 29.3714L112.299 29.434C112.506 29.5293 112.727 29.6382 112.964 29.7607C113.133 29.8506 113.31 29.9458 113.49 30.0493C113.67 30.1527 113.836 30.248 114.016 30.3542C115.629 31.3261 117.49 32.709 118.667 34.073L119.515 33.3434C118.201 31.8243 116.032 30.2126 114.166 29.1427C113.986 29.042 113.811 28.944 113.637 28.8514L113.403 28.7262C113.316 28.6428 113.22 28.5697 113.116 28.5084L113.046 28.4621C112.773 28.2934 112.533 28.1382 112.321 27.9912C112.108 27.8442 111.953 27.7325 111.803 27.6182C111.596 27.4549 111.427 27.3133 111.293 27.1853C110.675 26.5919 110.776 26.3496 110.798 26.3115C110.864 26.1726 110.958 26.0489 111.074 25.9481C111.19 25.8474 111.326 25.7718 111.473 25.7262C111.659 25.6835 111.851 25.6752 112.04 25.7017C112.225 25.7259 112.407 25.765 112.585 25.8187C112.864 25.9026 113.137 26.0035 113.403 26.1209C113.572 26.1917 113.746 26.2706 113.948 26.3605L114.016 26.3931C114.168 26.4666 114.324 26.5429 114.479 26.6245C117.288 28.0728 120.722 30.5992 120.746 30.6155C125.553 34.4704 128.136 48.3545 127.667 51.85C127.395 51.85 127.03 51.8854 126.624 51.9317C123.591 52.2802 117.689 53.6196 116.542 54.0034H116.495C116.222 54.111 115.939 54.1922 115.651 54.2457C115.525 53.9735 115.487 52.9635 115.444 51.7956C115.4 50.6277 115.34 48.9643 115.171 46.7674C115.097 46.2311 114.558 44.7338 113.68 42.3326ZM109.413 40.5903C109.634 37.9959 108.547 35.1891 107.672 32.9323C106.724 30.4821 106.203 28.9685 106.994 28.65L107.059 28.6255L107.116 28.5819C107.623 28.2117 108.25 28.4812 109.002 29.1455C108.792 29.9812 109.002 31.0783 109.577 32.0557C109.849 32.4872 110.163 32.8912 110.514 33.2617L109.503 41.4642C109.433 41.1785 109.403 40.8844 109.413 40.5903ZM111.896 47.301L112.501 42.4007C112.539 42.5096 112.58 42.6185 112.621 42.7274C113.225 44.3853 113.983 46.4489 114.016 46.8763C114.144 48.5097 114.212 49.8382 114.255 50.8999C113.341 49.791 112.554 48.5839 111.907 47.301H111.896ZM109.697 78.9186C109.931 79.0602 111.849 80.1028 112.645 80.1491C112.738 84.4124 112.792 88.7192 112.615 89.2963L113.678 89.642C113.969 88.7382 113.844 82.9777 113.634 74.9412C113.571 72.521 113.514 70.3459 113.501 69.0663C113.525 66.5835 113.501 62.8811 113.501 59.3556C113.501 58.2667 113.501 57.303 113.501 57.0579C113.574 56.851 113.937 56.2848 115.719 55.5089C116.057 55.3619 116.419 55.2203 116.809 55.0842L116.858 55.0652C118.174 54.6051 123.572 53.459 126.359 53.0724C126.964 53.0234 127.531 52.9934 128.046 52.988L128.485 53.1105L128.523 52.988C129.455 53.0043 130.158 53.1051 130.534 53.3065C130.787 53.5624 132.076 55.8819 134.398 76.5338C135.698 88.1257 136.651 99.5678 136.657 101.623C136.681 109.262 133.542 114.005 127.583 115.336C123.741 116.193 118.978 115.575 114.046 113.645C112.956 97.1993 110.541 83.3479 105.222 76.7707C106.759 77.3963 108.257 78.1136 109.708 78.9186H109.697Z" fill="black"/>
<path d="M125.319 336.711C113.571 336.24 104.882 332.23 100.852 319.86L101.072 320.535C100.609 320.78 99.7535 320.968 98.6526 321.115C98.699 320.668 98.748 320.203 98.797 319.734C98.9633 318.174 99.0941 316.873 99.1976 315.781L98.6526 315.811L98.0858 315.841C97.9578 317.167 97.8134 318.523 97.6989 319.617C97.639 320.189 97.5817 320.734 97.5272 321.251C94.4427 321.545 90.121 321.599 86.7503 321.643C86.7503 319.963 86.7339 318.052 86.7284 316.454L86.1698 316.484L85.6249 316.514C85.6249 317.586 85.6249 318.801 85.6249 319.99C85.6249 320.559 85.6249 321.12 85.6249 321.659C84.2624 321.678 83.107 321.7 82.3849 321.743C83.3741 324.572 82.7719 328.201 82.6574 331.4C85.1099 333.52 88.1863 334.713 91.7586 336.099C93.3663 336.722 95.0285 337.367 96.7997 338.151L97.1131 338.287C100.508 339.763 103.977 341.554 103.958 343.615C103.958 343.748 103.942 343.88 103.912 344.01C113.604 344.026 130.188 343.22 132.286 342.287C132.273 342.276 131.379 336.953 125.319 336.711Z" fill="black"/>
<path d="M57.7763 327.689C57.76 329.29 57.7464 330.956 57.6483 332.47C57.2777 338.233 57.0352 342.129 57.0597 343.512C58.4605 343.391 59.8666 343.343 61.2724 343.367C62.0463 343.367 62.7139 343.367 63.0599 343.34C63.8256 343.299 64.2998 342.651 64.8856 341.739C65.3707 340.985 65.8748 340.209 66.7658 340.258C67.6568 340.307 68.4825 341.241 69.6869 343.672C70.8286 344.029 76.7362 344.538 85.2025 344.816C95.0122 345.137 100.391 344.903 101.247 344.543C101.597 344.416 101.923 344.232 102.214 343.999C102.278 343.952 102.332 343.893 102.374 343.825C102.415 343.758 102.442 343.682 102.454 343.604C102.454 343.196 101.884 341.992 96.5054 339.654L96.1811 339.512C95.4454 339.186 94.726 338.886 94.0176 338.598L93.7451 338.486C92.8813 338.138 92.0366 337.808 91.2055 337.487C87.9928 336.24 85.0772 335.11 82.6193 333.297C79.8072 331.223 77.5918 328.253 76.2076 323.186C74.9358 323.43 73.6463 323.57 72.3518 323.606L71.8069 323.63L71.2455 323.649C68.2236 323.747 64.4333 323.704 60.5694 323.633H60.008H59.9345H59.4467L57.918 323.606C57.8063 324.607 57.7927 326.113 57.7763 327.689Z" fill="black"/>
<path d="M59.6811 39.5369C59.6103 39.5153 59.537 39.5034 59.4631 39.5015C59.2688 39.5049 59.0834 39.5834 58.9457 39.7204C58.808 39.8575 58.7288 40.0424 58.7246 40.2365C58.7253 40.432 58.8034 40.6192 58.9417 40.7574C59.08 40.8956 59.2674 40.9735 59.4631 40.9743H59.5148C59.7007 40.9606 59.8746 40.8778 60.0023 40.7422C60.1299 40.6066 60.202 40.4281 60.2042 40.242C60.2037 40.084 60.1526 39.9305 60.0585 39.8036C59.9644 39.6768 59.8321 39.5833 59.6811 39.5369Z" fill="black"/>
<path d="M105.432 16.7588C106.295 17.2417 107.109 17.805 107.866 18.4412L108.62 17.6245C107.811 16.9395 106.938 16.3332 106.013 15.8141C104.77 15.1141 103.608 14.2787 102.549 13.3232C102.53 13.3041 99.5301 11.0064 99.2576 10.9111L99.0396 11.5454L98.8052 11.9266C99.0205 12.06 101.56 13.9439 101.781 14.1344C102.898 15.1403 104.122 16.0204 105.432 16.7588Z" fill="black"/>
<path d="M104.645 21.7789L105.141 20.7797C104.051 20.2353 102.124 19.8678 100.258 19.5057C99.0552 19.3046 97.866 19.0319 96.6962 18.689L96.3337 19.7371C97.5529 20.0997 98.7933 20.387 100.048 20.5974C101.838 20.9485 103.691 21.3079 104.645 21.7789Z" fill="black"/>
<path d="M97.203 24.9556V26.0718C98.0415 26.0479 98.8773 25.966 99.7045 25.8268C100.54 25.6851 101.384 25.6023 102.23 25.5791V24.4629C101.33 24.4852 100.432 24.5716 99.5437 24.7215C98.7698 24.8534 97.9877 24.9317 97.203 24.9556Z" fill="black"/>
<path d="M218.478 237.739C218.053 238.686 218.709 240.342 219.568 241.254C220.658 242.092 221.655 242.389 222.461 242.117C223.2 241.869 223.778 241.131 224.05 240.097C224.426 238.665 224.464 237.742 224.17 237.353C223.876 236.963 222.919 236.92 221.739 236.901C221.407 236.901 221.055 236.901 220.687 236.876C219.499 236.83 218.756 237.121 218.478 237.739Z" fill="black"/>
</svg>
