<svg width="130" height="110" viewBox="0 0 170 170" fill="none" xmlns="http://www.w3.org/2000/svg">
<path d="M94.9151 33.3036C94.9151 33.3036 108.62 21.6438 107.905 8.17446C107.905 8.17446 98.6443 7.9935 91.9097 14.1853C91.9097 14.1853 91.8467 2.52551 80.3993 0C68.9441 2.52551 68.889 14.1853 68.889 14.1853C62.1543 7.9935 52.8941 8.17446 52.8941 8.17446C52.1703 21.6438 65.8836 33.3036 65.8836 33.3036H94.923H94.9151Z" fill="#71BF44"/>
<path d="M66.2926 32.2179L64.6011 20.4401L76.4576 27.2298L80.6668 12.3207L84.5534 27.2298L97.2124 20.4401L94.5059 32.2179H66.2926Z" fill="#49971C"/>
<path d="M116.74 159.083H44.043C43.4923 159.083 42.9337 159.068 42.3908 159.028C25.9711 158.037 14.209 142.365 18.1585 126.126L18.6227 124.206L33.7836 62.0362C36.6868 50.1089 47.3789 41.7062 59.6681 41.7062H101.115C108.841 41.7062 115.929 45.0264 120.855 50.4629C123.758 53.6729 125.913 57.6067 126.999 62.0362L142.152 124.206L142.616 126.126C146.708 142.9 134.001 159.075 116.732 159.075L116.74 159.083Z" fill="#71BF44"/>
<path d="M116.74 159.083H44.043C43.4923 159.083 42.9337 159.068 42.3908 159.028C25.9711 158.037 14.209 142.365 18.1585 126.126L18.6227 124.206C18.6227 124.206 20.3772 152.608 50.0775 152.608H110.705C140.406 152.608 142.16 124.206 142.16 124.206L142.624 126.126C146.715 142.9 134.009 159.075 116.74 159.075V159.083Z" fill="#49971C"/>
<path d="M100.777 37.1509H60.0144V41.722H100.777V37.1509Z" fill="#FFA143"/>
<path d="M97.8889 33.3036H62.9016V37.1509H97.8889V33.3036Z" fill="#FFB361"/>
<path d="M99.1871 105.206C98.6049 105.772 98.3374 106.606 98.4712 107.409L101.618 125.732C101.957 127.762 99.8323 129.312 98.0148 128.352L81.5479 119.698C80.8241 119.312 79.9665 119.312 79.2427 119.698L62.7758 128.352C60.9583 129.312 58.8262 127.762 59.1803 125.732L62.3194 107.409C62.4611 106.606 62.1857 105.78 61.6035 105.206L48.2836 92.2243C46.8045 90.7845 47.6149 88.2826 49.6526 87.9915L68.0628 85.3086C68.8732 85.1985 69.5734 84.6871 69.9274 83.9554L78.1648 67.276C79.0775 65.435 81.7053 65.435 82.6179 67.276L90.8553 83.9554C91.2172 84.6871 91.9174 85.1985 92.7199 85.3086L111.13 87.9915C113.168 88.2826 113.978 90.7845 112.507 92.2243L99.1792 105.206H99.1871Z" fill="#FFB92C"/>
<path d="M136.024 123.585C130.697 101.61 125.363 79.6361 120.037 57.6618C118.99 53.3346 112.311 55.1678 113.365 59.5028C118.691 81.4771 124.025 103.451 129.352 125.426C130.398 129.753 137.078 127.92 136.024 123.585Z" fill="#AAD98F"/>
<path d="M49.2279 139.871C41.2894 138.281 36.443 131.83 37.0803 123.781C37.4343 119.344 30.5108 119.36 30.1568 123.781C29.2913 134.717 36.6397 144.402 47.3868 146.55C51.7376 147.416 53.5944 140.752 49.2279 139.878V139.871Z" fill="#AAD98F"/>
<path d="M133.435 141.106C135.99 141.106 138.061 139.035 138.061 136.48C138.061 133.925 135.99 131.853 133.435 131.853C130.88 131.853 128.809 133.925 128.809 136.48C128.809 139.035 130.88 141.106 133.435 141.106Z" fill="#AAD98F"/>
<g style="mix-blend-mode:soft-light">
<path d="M81.1547 72.028C79.1721 71.4852 77.6143 72.7125 76.8983 74.4434C75.7654 77.2049 74.6324 79.9665 73.4995 82.728C72.7914 84.4589 74.2705 86.5281 75.9149 86.9844C77.8975 87.5273 79.4553 86.2999 80.1713 84.569C81.3042 81.8075 82.4371 79.046 83.5701 76.2844C84.2781 74.5535 82.799 72.4844 81.1547 72.028Z" fill="#FFF2D4"/>
</g>
<g style="mix-blend-mode:soft-light">
<path d="M64.3336 108.219C63.6728 111.996 63.0119 115.764 62.351 119.541C61.58 123.931 68.3933 125.158 69.1644 120.768C69.8252 116.992 70.4861 113.223 71.147 109.446C71.918 105.056 65.1047 103.829 64.3336 108.219Z" fill="#FFF2D4"/>
</g>
<path d="M152.836 71.8943C144.434 76.6463 143.694 84.3802 143.694 84.3802C143.694 84.3802 142.962 76.6385 134.552 71.8943C142.955 67.1423 143.694 59.4084 143.694 59.4084C143.694 59.4084 144.426 67.1501 152.836 71.8943Z" fill="#FFB92C"/>
<path d="M137.833 45.349C131.728 48.8028 131.193 54.4203 131.193 54.4203C131.193 54.4203 130.658 48.8028 124.552 45.349C130.658 41.8951 131.193 36.2776 131.193 36.2776C131.193 36.2776 131.728 41.8951 137.833 45.349Z" fill="#FFB92C"/>
<path d="M150.437 55.034C152.957 55.034 155 52.991 155 50.4708C155 47.9506 152.957 45.9076 150.437 45.9076C147.917 45.9076 145.874 47.9506 145.874 50.4708C145.874 52.991 147.917 55.034 150.437 55.034Z" fill="#FFB92C"/>
<path d="M21.9665 93.6798C13.5639 98.4318 12.8243 106.166 12.8243 106.166C12.8243 106.166 12.0926 98.4239 3.68213 93.6798C12.0847 88.9277 12.8243 81.1938 12.8243 81.1938C12.8243 81.1938 13.556 88.9356 21.9665 93.6798Z" fill="#FFB92C"/>
<path d="M13.2805 68.4719C7.17527 71.9258 6.64027 77.5432 6.64027 77.5432C6.64027 77.5432 6.10527 71.9258 0 68.4719C6.10527 65.018 6.64027 59.4005 6.64027 59.4005C6.64027 59.4005 7.17527 65.018 13.2805 68.4719Z" fill="#FFB92C"/>
<path d="M24.2795 69.4317C26.7997 69.4317 28.8427 67.3887 28.8427 64.8685C28.8427 62.3483 26.7997 60.3053 24.2795 60.3053C21.7593 60.3053 19.7163 62.3483 19.7163 64.8685C19.7163 67.3887 21.7593 69.4317 24.2795 69.4317Z" fill="#FFB92C"/>
</svg>
