<svg width="282" height="270" viewBox="0 0 282 280" fill="none" xmlns="http://www.w3.org/2000/svg">
<path d="M136.552 0.770264H124.83V273.445H136.552V0.770264Z" fill="#232323"/>
<path d="M124.83 12.2741H8.1272V273.445H124.83V12.2741Z" fill="#EBEBEB"/>
<path d="M11.3975 0.770325H0.598145V273.445H11.3975V0.770325Z" fill="#232323"/>
<path d="M136.552 0.770325H0.598145V12.2742H136.552V0.770325Z" fill="#232323"/>
<path d="M177.314 217.882H100.027V273.446H177.314V217.882Z" fill="#71BF44"/>
<path d="M120.757 217.882C120.867 217.882 120.757 229.614 120.757 229.614H115.036V217.882H120.757Z" fill="#232323"/>
<g opacity="0.4">
<path d="M138.671 273.445H177.315V217.882H138.671V273.445Z" fill="#232323"/>
</g>
<path d="M112.729 262.567H102.383V269.889H112.729V262.567Z" fill="#FAFAFA"/>
<path d="M112.745 269.906H102.367V262.552H112.745V269.906ZM102.399 269.874H112.713V262.584H102.399V269.874Z" fill="#232323"/>
<path d="M119.812 262.568H114.639V269.89H119.812V262.568Z" fill="#FAFAFA"/>
<path d="M119.828 269.906H114.623V262.552H119.828V269.906ZM114.655 269.874H119.796V262.584H114.655V269.874Z" fill="#232323"/>
<path d="M270.851 248.92L274.9 264.991L281.769 276.778C282.264 277.628 281.936 278.719 281.055 279.155C280.561 279.399 279.985 279.392 279.5 279.131C276.416 277.466 265.102 271.29 264.871 270.097C264.604 268.716 259.474 253.429 259.474 253.429L270.851 248.92Z" fill="#71BF44"/>
<g opacity="0.6">
<path d="M281.055 279.155L264.573 269.019L264.76 269.695C264.922 270.281 265.284 270.79 265.786 271.131C267.13 272.043 270.895 274.479 279.452 279.144C279.949 279.416 280.553 279.42 281.055 279.155Z" fill="white"/>
</g>
<g opacity="0.6">
<path d="M266.426 262.96C266.903 263.126 267.201 263.695 267.055 264.178C266.909 264.662 266.332 264.97 265.853 264.812C265.373 264.655 264.994 263.982 265.194 263.518C265.393 263.055 266.09 262.73 266.517 262.998" fill="white"/>
</g>
<path d="M275.474 273.186C275.577 273.204 275.705 272.268 276.531 271.555C277.335 270.818 278.28 270.799 278.273 270.695C278.276 270.653 278.039 270.584 277.651 270.635C277.265 270.683 276.74 270.884 276.289 271.284C275.841 271.685 275.579 272.183 275.487 272.56C275.391 272.94 275.431 273.183 275.474 273.186Z" fill="#232323"/>
<path d="M277.203 275.01C277.298 275.058 277.667 274.397 278.428 273.932C279.178 273.45 279.934 273.406 279.932 273.299C279.955 273.204 279.093 273.078 278.234 273.623C277.37 274.158 277.108 274.99 277.203 275.01Z" fill="#232323"/>
<path d="M272.598 271.029C272.694 271.085 273.256 270.065 274.376 269.238C275.483 268.394 276.619 268.138 276.593 268.031C276.595 267.938 275.347 268.044 274.157 268.947C272.959 269.836 272.508 271.005 272.598 271.029Z" fill="#232323"/>
<path d="M270.958 266.247C271.028 266.331 271.808 265.718 272.945 265.359C274.077 264.985 275.069 265.024 275.076 264.916C275.098 264.826 274.051 264.614 272.833 265.013C271.612 265.401 270.887 266.186 270.958 266.247Z" fill="#232323"/>
<path d="M269.65 261.559C269.725 261.638 270.465 260.86 271.694 260.58C272.916 260.273 273.928 260.631 273.959 260.527C273.976 260.486 273.746 260.334 273.319 260.223C272.895 260.111 272.269 260.07 271.609 260.227C270.95 260.386 270.41 260.706 270.083 260.999C269.753 261.291 269.617 261.531 269.65 261.559Z" fill="#232323"/>
<path d="M271.418 259.696C271.439 259.691 271.415 259.466 271.273 259.085C271.131 258.708 270.861 258.169 270.355 257.635C270.101 257.386 269.815 257.054 269.312 256.967C269.061 256.922 268.742 257.055 268.611 257.319C268.48 257.577 268.493 257.855 268.558 258.11C268.855 259.119 269.996 259.859 271.177 259.69C272.357 259.499 273.214 258.558 273.425 257.558C273.461 257.303 273.453 257.006 273.255 256.771C273.057 256.532 272.703 256.514 272.485 256.616C272.03 256.817 271.806 257.173 271.584 257.454C271.155 258.049 270.943 258.608 270.836 258.996C270.729 259.387 270.723 259.612 270.744 259.616C270.811 259.643 270.93 258.72 271.788 257.609C272.01 257.347 272.259 257.024 272.592 256.898C272.754 256.836 272.915 256.862 273.011 256.98C273.108 257.092 273.13 257.302 273.093 257.503C272.908 258.326 272.123 259.184 271.123 259.33C270.129 259.483 269.127 258.83 268.88 258.02C268.824 257.824 268.821 257.612 268.894 257.466C268.966 257.323 269.115 257.248 269.278 257.267C269.623 257.306 269.925 257.584 270.172 257.816C271.17 258.804 271.352 259.732 271.418 259.696Z" fill="#232323"/>
<path d="M216.715 251.458L217.609 264.959C217.609 264.959 204.172 269.418 204.094 271.93L230.35 272.12L229.82 251.026L216.715 251.458Z" fill="#71BF44"/>
<g opacity="0.6">
<path d="M225.689 263.576C226.201 263.7 226.569 264.26 226.467 264.777C226.365 265.293 225.798 265.673 225.284 265.558C224.77 265.443 224.307 264.784 224.467 264.283C224.626 263.781 225.316 263.372 225.787 263.606" fill="white"/>
</g>
<g opacity="0.6">
<path d="M230.349 272.119L230.296 269.993L204.937 270.693C204.937 270.693 204.094 271.057 203.96 272.119L230.349 272.119Z" fill="white"/>
</g>
<path d="M217.18 264.838C217.188 264.966 217.83 265.005 218.474 265.397C219.127 265.774 219.469 266.319 219.585 266.264C219.702 266.236 219.488 265.476 218.702 265.014C217.919 264.545 217.149 264.721 217.18 264.838Z" fill="#232323"/>
<path d="M214.463 266.06C214.437 266.184 214.998 266.386 215.45 266.915C215.917 267.43 216.045 268.013 216.172 268.004C216.293 268.02 216.359 267.267 215.785 266.62C215.217 265.968 214.461 265.937 214.463 266.06Z" fill="#232323"/>
<path d="M212.999 269.401C213.116 269.425 213.275 268.779 212.924 268.087C212.579 267.393 211.967 267.135 211.916 267.243C211.846 267.351 212.247 267.716 212.526 268.288C212.819 268.854 212.872 269.392 212.999 269.401Z" fill="#232323"/>
<path d="M217.317 261.738C217.375 261.854 217.957 261.659 218.683 261.686C219.409 261.699 219.98 261.925 220.043 261.813C220.115 261.718 219.55 261.26 218.695 261.24C217.841 261.214 217.252 261.64 217.317 261.738Z" fill="#232323"/>
<g opacity="0.3">
<path d="M216.896 254.131L217.052 256.538L229.945 256.03L229.896 253.859L216.896 254.131Z" fill="#232323"/>
</g>
<path d="M217.188 259.011C217.188 259.064 217.697 259.128 218.502 258.965C218.902 258.883 219.372 258.737 219.864 258.501C220.109 258.382 220.359 258.243 220.606 258.077C220.725 257.996 220.866 257.914 220.994 257.756C221.132 257.618 221.202 257.276 221.031 257.072C220.891 256.875 220.651 256.795 220.461 256.796C220.268 256.796 220.112 256.84 219.97 256.88C219.68 256.96 219.41 257.065 219.162 257.185C218.667 257.428 218.269 257.728 217.974 258.016C217.382 258.599 217.189 259.084 217.234 259.107C217.293 259.147 217.577 258.737 218.183 258.253C218.485 258.013 218.872 257.761 219.335 257.558C219.566 257.457 219.817 257.369 220.082 257.302C220.358 257.221 220.594 257.211 220.669 257.333C220.696 257.379 220.701 257.398 220.645 257.481C220.587 257.558 220.476 257.634 220.36 257.715C220.132 257.873 219.902 258.012 219.677 258.133C219.227 258.374 218.793 258.542 218.422 258.658C217.677 258.892 217.183 258.942 217.188 259.011Z" fill="#232323"/>
<path d="M217.36 259.19C217.406 259.209 217.646 258.742 217.668 257.911C217.678 257.498 217.62 257.001 217.445 256.477C217.357 256.216 217.239 255.95 217.086 255.689C216.925 255.435 216.726 255.093 216.228 255.051C215.968 255.049 215.759 255.258 215.691 255.434C215.609 255.614 215.597 255.767 215.57 255.92C215.531 256.228 215.546 256.529 215.596 256.805C215.696 257.361 215.938 257.819 216.198 258.146C216.732 258.81 217.272 258.947 217.281 258.904C217.322 258.838 216.868 258.604 216.456 257.963C216.252 257.647 216.067 257.227 216.002 256.74C215.969 256.498 215.965 256.24 216.004 255.981C216.037 255.7 216.134 255.472 216.239 255.498C216.37 255.492 216.598 255.695 216.712 255.914C216.854 256.146 216.968 256.383 217.059 256.617C217.238 257.086 217.323 257.538 217.353 257.921C217.412 258.689 217.29 259.173 217.36 259.19Z" fill="#232323"/>
<path d="M216.648 133.741L256.652 133.439L275.983 260.405L259.381 262.512L238.103 158.116L231.734 262.884L231.718 263.195L213.762 262.882L216.648 133.741Z" fill="#232323"/>
<path d="M236.764 155.383C236.812 155.375 236.75 154.785 236.661 153.833C236.571 152.882 236.466 151.566 236.421 150.111C236.378 148.655 236.403 147.335 236.435 146.38C236.467 145.425 236.493 144.832 236.445 144.827C236.402 144.822 236.294 145.408 236.202 146.365C236.11 147.322 236.048 148.653 236.091 150.121C236.136 151.59 236.279 152.913 236.429 153.863C236.577 154.813 236.722 155.39 236.764 155.383Z" fill="#455A64"/>
<path d="M233.468 145.191C233.474 145.174 233.398 145.118 233.232 145.101C233.069 145.083 232.818 145.127 232.57 145.299C232.332 145.47 232.077 145.781 232.07 146.215C232.054 146.655 232.409 147.081 232.855 147.224C233.297 147.381 233.838 147.26 234.093 146.9C234.351 146.551 234.337 146.149 234.252 145.869C234.16 145.581 233.987 145.394 233.846 145.309C233.705 145.222 233.61 145.221 233.605 145.237C233.573 145.282 233.926 145.425 234.026 145.927C234.071 146.164 234.046 146.481 233.855 146.71C233.673 146.944 233.303 147.025 232.962 146.91C232.62 146.794 232.376 146.506 232.375 146.209C232.362 145.91 232.535 145.643 232.714 145.483C233.099 145.145 233.466 145.246 233.468 145.191Z" fill="#455A64"/>
<path d="M243.713 142.636C243.699 142.655 243.829 142.771 244.079 142.969C244.323 143.173 244.714 143.422 245.22 143.685C245.724 143.953 246.364 144.197 247.094 144.394C247.828 144.573 248.656 144.695 249.531 144.701C250.405 144.696 251.234 144.575 251.969 144.395C252.699 144.199 253.339 143.956 253.843 143.687C254.349 143.425 254.74 143.176 254.985 142.973C255.234 142.776 255.365 142.658 255.351 142.641C255.314 142.59 254.757 143.018 253.742 143.477C253.238 143.711 252.609 143.925 251.896 144.1C251.18 144.257 250.378 144.365 249.531 144.37C248.684 144.364 247.882 144.255 247.166 144.098C246.454 143.923 245.825 143.709 245.32 143.474C244.306 143.013 243.75 142.585 243.713 142.636Z" fill="#455A64"/>
<path d="M218.95 145.323C218.942 145.36 219.354 145.495 220.047 145.554C220.738 145.615 221.714 145.568 222.74 145.277C223.766 144.982 224.621 144.507 225.175 144.09C225.733 143.674 226.011 143.342 225.984 143.314C225.922 143.228 224.647 144.404 222.65 144.959C220.662 145.542 218.958 145.216 218.95 145.323Z" fill="#455A64"/>
<path d="M269.65 261.559C269.654 261.553 269.592 261.478 269.535 261.29C269.475 261.103 269.398 260.822 269.309 260.45C269.129 259.706 268.893 258.602 268.606 257.176C268.033 254.323 267.255 250.184 266.324 245.065C264.46 234.825 261.974 220.664 259.235 205.021C256.483 189.382 253.992 175.226 252.186 164.963C251.262 159.853 250.514 155.712 249.993 152.833C249.727 151.415 249.519 150.308 249.375 149.54C249.302 149.175 249.246 148.891 249.205 148.685C249.165 148.493 249.137 148.396 249.137 148.396C249.137 148.396 249.143 148.496 249.173 148.691C249.206 148.899 249.251 149.185 249.309 149.552C249.439 150.323 249.626 151.433 249.866 152.857C250.362 155.74 251.076 159.886 251.956 165.004C253.738 175.271 256.195 189.434 258.91 205.079C261.648 220.721 264.17 234.878 266.094 245.107C267.055 250.223 267.867 254.356 268.48 257.202C269.083 260.045 269.529 261.612 269.65 261.559Z" fill="#455A64"/>
<path d="M218.665 260.129C218.665 260.129 218.677 260.029 218.683 259.836C218.686 259.628 218.692 259.342 218.699 258.976C218.706 258.205 218.716 257.095 218.73 255.672C218.736 254.237 218.748 252.482 218.784 250.444C218.817 248.406 218.832 246.085 218.902 243.521C219.002 238.392 219.198 232.287 219.493 225.51C219.808 218.736 220.233 211.29 220.812 203.485C221.405 195.678 222.095 188.251 222.795 181.504C223.515 174.759 224.231 168.692 224.898 163.605C225.212 161.059 225.542 158.762 225.814 156.743C226.082 154.722 226.333 152.985 226.541 151.566C226.74 150.157 226.895 149.058 227.003 148.294C227.051 147.931 227.088 147.648 227.115 147.442C227.139 147.25 227.142 147.15 227.142 147.15C227.142 147.15 227.116 147.246 227.082 147.437C227.047 147.642 226.999 147.923 226.937 148.284C226.815 149.046 226.639 150.142 226.414 151.547C226.186 152.964 225.917 154.699 225.631 156.717C225.342 158.734 224.995 161.03 224.666 163.574C223.97 168.659 223.228 174.725 222.492 181.472C221.775 188.22 221.075 195.65 220.481 203.461C219.903 211.269 219.487 218.719 219.188 225.497C218.91 232.277 218.737 238.385 218.667 243.517C218.613 246.082 218.613 248.403 218.599 250.442C218.58 252.48 218.587 254.236 218.601 255.671C218.614 257.094 218.625 258.204 218.632 258.976C218.639 259.342 218.645 259.628 218.648 259.836C218.654 260.03 218.665 260.129 218.665 260.129Z" fill="#455A64"/>
<path d="M177.306 84.8002L202.303 92.0968L216.305 83.8292L226.93 96.4326L207.111 105.014C204.281 106.24 201.05 106.132 198.307 104.722L173.751 92.0962L177.306 84.8002Z" fill="#FFBE9D"/>
<path d="M171.604 82.3925L168.508 80.7857L159.899 76.3063C159.198 76.0278 158.544 76.7814 158.906 77.4443L164.396 81.9565L162.099 82.8323C161.643 83.0062 161.27 83.344 161.05 83.7794L159.831 86.2065C159.831 86.2065 158.437 86.3559 158.297 87.2613C158.148 88.2216 159.202 88.4793 159.202 88.4793L158.94 89.5373C158.817 90.0325 158.909 90.5562 159.193 90.9796C160.527 91.5278 161.586 88.7352 161.586 88.7352L163.006 88.8839L164.559 92.0149C166.53 92.4925 165.596 89.3848 165.596 89.3848C165.596 89.3848 165.596 89.3848 166.466 89.6009C167.335 89.817 167.792 90.4333 169.145 91.127C170.498 91.8208 173.156 92.0646 173.156 92.0646L175.121 93.5151L181.083 85.3572L171.604 82.3925Z" fill="#FAFAFA"/>
<path d="M171.604 82.3925C171.606 82.3875 171.663 82.4001 171.774 82.4297C171.9 82.465 172.06 82.5103 172.261 82.5664C172.709 82.6994 173.336 82.8853 174.138 83.1234C175.789 83.6281 178.157 84.3509 181.115 85.2545L181.26 85.2986L181.17 85.4227C179.504 87.7194 177.489 90.4957 175.236 93.6008L175.152 93.7168L175.035 93.6311C174.422 93.1806 173.751 92.6878 173.068 92.185L173.142 92.2133C171.878 92.0665 170.558 91.8914 169.261 91.3539C168.626 91.064 168.042 90.6677 167.471 90.2732C167.185 90.0779 166.895 89.9034 166.581 89.8007C166.262 89.7099 165.899 89.6286 165.557 89.5411L165.749 89.3394C165.9 89.9034 166.014 90.4906 165.962 91.127C165.926 91.4352 165.838 91.7987 165.534 92.0363C165.222 92.2719 164.837 92.2341 164.52 92.1743L164.449 92.1604L164.413 92.088C163.919 91.0924 163.392 90.0313 162.859 88.9576L162.989 89.0477C162.596 89.0067 162.173 88.962 161.747 88.9173L161.57 88.8984L161.74 88.7931C161.535 89.2978 161.294 89.7723 160.982 90.2153C160.671 90.6393 160.284 91.1037 159.665 91.2027L159.436 91.2064C159.362 91.1957 159.289 91.1718 159.216 91.1535L159.161 91.1384L159.134 91.1308L159.132 91.1302C159.148 91.1434 158.993 91.0161 159.058 91.0697L159.056 91.0672L159.052 91.0615L159.045 91.0502L158.99 90.9607C158.955 90.9002 158.923 90.8378 158.894 90.7736C158.78 90.5184 158.722 90.2392 158.723 89.9613C158.72 89.6772 158.805 89.4119 158.861 89.175L159.044 88.4403L159.163 88.6362C158.826 88.5367 158.523 88.3634 158.311 88.0647C158.102 87.7579 158.077 87.3748 158.189 87.0377C158.319 86.6917 158.608 86.4617 158.896 86.3193C159.192 86.1769 159.491 86.0919 159.812 86.049L159.688 86.1353C159.947 85.6205 160.204 85.1108 160.459 84.6067C160.586 84.3547 160.712 84.1039 160.838 83.8544C160.953 83.6048 161.124 83.3295 161.341 83.1316C161.555 82.9262 161.819 82.7687 162.089 82.6723C162.344 82.5752 162.597 82.4795 162.849 82.3837C163.353 82.1928 163.851 82.0037 164.341 81.8179L164.301 82.0712C162.335 80.4467 160.502 78.9326 158.823 77.5445L158.805 77.5294L158.792 77.5067C158.592 77.1582 158.66 76.6951 158.924 76.4241C159.175 76.1374 159.611 76.0505 159.944 76.1929L159.952 76.1967L159.955 76.1986C163.537 78.0882 166.449 79.6238 168.487 80.6988C169.477 81.2287 170.254 81.6439 170.803 81.9382C171.053 82.0762 171.252 82.1858 171.403 82.2696C171.539 82.3446 171.607 82.3868 171.604 82.3925C171.602 82.3982 171.529 82.3673 171.39 82.3018C171.235 82.2262 171.031 82.1272 170.775 82.0025C170.217 81.7221 169.429 81.3251 168.425 80.8198C166.375 79.7681 163.446 78.2647 159.843 76.4159L159.854 76.421C159.601 76.3183 159.299 76.3826 159.112 76.5943C158.919 76.7991 158.873 77.1248 159.02 77.3825L158.989 77.3447C160.676 78.7234 162.515 80.2281 164.49 81.8424L164.687 82.0037L164.449 82.0951C163.958 82.2829 163.461 82.4738 162.958 82.6666C162.707 82.763 162.454 82.86 162.199 82.9577C161.955 83.0459 161.74 83.1776 161.555 83.3547C161.365 83.5336 161.236 83.7378 161.117 83.9936C160.992 84.2431 160.866 84.4945 160.74 84.7466C160.486 85.2513 160.231 85.7617 159.973 86.2771L159.936 86.3508L159.848 86.3641C159.315 86.4428 158.674 86.6653 158.492 87.1467C158.415 87.3855 158.432 87.6759 158.579 87.882C158.722 88.0925 158.987 88.2475 159.242 88.3212L159.398 88.3665L159.361 88.5178L159.179 89.2531C159.118 89.507 159.047 89.7332 159.052 89.9632C159.05 90.1951 159.1 90.4283 159.195 90.6412C159.219 90.6948 159.245 90.7465 159.275 90.7969L159.321 90.8712L159.326 90.8807L159.33 90.8851L159.331 90.8876C159.396 90.9418 159.242 90.8151 159.258 90.8284L159.26 90.829L159.279 90.8334L159.318 90.8429C159.369 90.8542 159.42 90.8731 159.472 90.8819L159.63 90.8788C160.06 90.8195 160.43 90.4301 160.716 90.0262C161.006 89.616 161.243 89.1485 161.435 88.6772L161.483 88.5594L161.606 88.572L161.783 88.5909C162.209 88.6356 162.632 88.6803 163.025 88.7213L163.115 88.7307L163.155 88.8114C163.687 89.8857 164.214 90.9475 164.707 91.943L164.599 91.8573C164.873 91.909 165.156 91.9235 165.34 91.7779C165.527 91.6381 165.612 91.3658 165.643 91.093C165.692 90.5366 165.585 89.9538 165.445 89.4321L165.372 89.1617L165.637 89.2304C165.988 89.3212 166.32 89.3943 166.682 89.4982C167.042 89.6167 167.36 89.8133 167.65 90.0111C168.225 90.4112 168.789 90.7937 169.392 91.071C170.61 91.5832 171.938 91.7716 173.172 91.9178L173.215 91.9229L173.247 91.9462C173.929 92.4522 174.596 92.9474 175.208 93.4011L175.008 93.432C177.282 90.3419 179.315 87.5795 180.998 85.2942L181.053 85.4624C178.105 84.5179 175.745 83.7617 174.098 83.2343C173.305 82.9735 172.684 82.7693 172.241 82.6231C172.045 82.5551 171.888 82.5009 171.764 82.458C171.656 82.4196 171.602 82.3975 171.604 82.3925Z" fill="#232323"/>
<path d="M165.803 89.4371C165.795 89.4736 165.115 89.3508 163.951 89.1781C162.786 89.0048 161.134 88.7944 159.19 88.6318L159.22 88.6312C158.459 88.698 157.926 87.8133 158.219 87.1259C158.484 86.4378 159.207 86.0717 159.879 85.9602C160.618 85.8411 161.302 85.8052 161.972 85.6842C162.639 85.5758 163.278 85.4416 163.879 85.2897C164.482 85.1372 165.048 84.9684 165.571 84.7913C165.828 84.7075 166.066 84.6042 166.232 84.4517C166.401 84.303 166.446 84.0969 166.367 83.9142C166.287 83.7277 166.126 83.5771 165.973 83.429C165.825 83.2797 165.683 83.1367 165.547 83.0006C165.286 82.7309 165.058 82.5053 164.861 82.3326C164.467 81.9873 164.212 81.8412 164.227 81.8172C164.234 81.8021 164.514 81.9111 164.942 82.2337C165.156 82.3944 165.402 82.6118 165.676 82.8695C165.816 82.9987 165.963 83.1348 166.116 83.2765C166.271 83.4177 166.462 83.5721 166.58 83.821C166.712 84.0698 166.634 84.4404 166.408 84.6338C166.196 84.8379 165.927 84.9533 165.661 85.0478C165.135 85.2381 164.564 85.4195 163.956 85.5821C163.347 85.744 162.7 85.8871 162.024 86.0011C161.354 86.1265 160.626 86.1713 159.941 86.2822C159.315 86.3836 158.726 86.7119 158.52 87.2393C158.287 87.7339 158.725 88.3836 159.186 88.3262L159.202 88.3243L159.217 88.3262C161.167 88.5134 162.822 88.766 163.982 88.9929C164.562 89.1057 165.02 89.2084 165.331 89.2878C165.641 89.3672 165.806 89.4207 165.803 89.4371Z" fill="#232323"/>
<path d="M165.571 85.0239C165.586 85.1108 164.851 85.2961 163.926 85.2451C163.6 85.2287 163.3 85.1846 163.051 85.1329L163.202 85.0428C163.018 85.47 162.864 85.7416 162.81 85.722C162.754 85.7019 162.81 85.3956 162.941 84.9489L162.97 84.85L163.092 84.8588C163.423 84.8821 163.68 84.9004 163.943 84.9187C164.83 84.9672 165.558 84.9313 165.571 85.0239Z" fill="#232323"/>
<path d="M222.005 74.6775L205.899 87.0326L217.192 101.904L230.963 94.086L222.005 74.6775Z" fill="#71BF44"/>
<path d="M222.005 74.6775C224.336 73.2428 232.399 71.4747 232.399 71.4747L247.986 69.7803L261.505 75.9881L255.949 99.2599L260.814 143.132L214.405 145.66L222.005 74.6775Z" fill="#71BF44"/>
<path d="M248.498 94.1428H240.505V96.299H248.498V94.1428Z" fill="#FAFAFA"/>
<path d="M248.514 96.3147H240.489V94.127H248.514V96.3147ZM240.521 96.2839H248.483V94.1592H240.521V96.2839Z" fill="#232323"/>
<path d="M220.064 88.1441C219.974 88.146 219.871 86.5462 219.835 84.5714C219.8 82.5961 219.844 80.9943 219.934 80.9924C220.025 80.9905 220.127 82.5904 220.163 84.5651C220.199 86.5399 220.155 88.1423 220.064 88.1441Z" fill="#232323"/>
<path d="M249.303 48.4273L247.597 72.5893C247.318 76.5344 244.037 79.5923 240.082 79.5923C235.728 79.5923 232.279 75.9106 232.565 71.5661C232.716 69.2662 232.853 67.3828 232.853 67.3828C232.853 67.3828 227.004 66.4735 226.931 60.6249C226.89 57.2469 227.473 49.5817 227.972 43.7097C228.309 39.74 231.633 36.6922 235.617 36.6922H239.15C245.235 37.0482 249.826 42.355 249.303 48.4273Z" fill="#FFBE9D"/>
<path d="M232.843 67.299C232.843 67.299 236.54 67.5996 240.468 65.1321C240.468 65.1321 238.666 69.3412 232.83 68.8144L232.843 67.299Z" fill="#EB996E"/>
<path d="M229.162 51.1008C229.146 51.5419 229.507 51.9187 229.967 51.9433C230.427 51.9678 230.812 51.6314 230.828 51.1903C230.844 50.7492 230.483 50.3718 230.023 50.3472C229.563 50.3226 229.178 50.6597 229.162 51.1008Z" fill="#232323"/>
<path d="M228.98 49.5748C229.083 49.6838 229.716 49.2156 230.615 49.2181C231.513 49.2074 232.172 49.6699 232.27 49.5597C232.318 49.5111 232.213 49.3146 231.925 49.1054C231.642 48.8974 231.16 48.6945 230.601 48.697C230.041 48.7002 229.57 48.9062 229.3 49.1173C229.022 49.329 228.929 49.5263 228.98 49.5748Z" fill="#232323"/>
<path d="M237.802 51.1008C237.786 51.5419 238.147 51.9187 238.607 51.9433C239.066 51.9678 239.452 51.6314 239.468 51.1903C239.484 50.7492 239.122 50.3718 238.663 50.3472C238.203 50.3226 237.817 50.6597 237.802 51.1008Z" fill="#232323"/>
<path d="M237.814 49.7423C237.918 49.8513 238.552 49.3832 239.449 49.3857C240.347 49.375 241.006 49.8375 241.104 49.7272C241.152 49.6787 241.047 49.4821 240.759 49.2729C240.476 49.0643 239.994 48.8621 239.434 48.8646C238.874 48.8677 238.403 49.0738 238.132 49.2849C237.858 49.4966 237.763 49.6938 237.814 49.7423Z" fill="#232323"/>
<path d="M234.636 56.1852C234.64 56.1341 234.082 56.0377 233.176 55.9218C232.947 55.8978 232.729 55.8525 232.691 55.6956C232.637 55.5299 232.733 55.2822 232.844 55.0157C233.06 54.4606 233.286 53.8784 233.523 53.2684C234.465 50.7801 235.147 48.7342 235.047 48.697C234.946 48.6598 234.1 50.6465 233.158 53.1348C232.932 53.7486 232.715 54.3333 232.508 54.8928C232.421 55.1537 232.272 55.4492 232.389 55.7932C232.451 55.9646 232.619 56.0894 232.767 56.1291C232.913 56.1738 233.043 56.1763 233.156 56.1833C234.068 56.2324 234.633 56.2368 234.636 56.1852Z" fill="#232323"/>
<path d="M237.582 46.6252C237.671 46.8697 238.568 46.7538 239.622 46.881C240.679 46.9869 241.529 47.2956 241.669 47.0764C241.732 46.9718 241.584 46.7418 241.24 46.5049C240.899 46.2686 240.355 46.0443 239.722 45.9737C239.089 45.9044 238.51 46.0052 238.126 46.1615C237.739 46.3171 237.544 46.5093 237.582 46.6252Z" fill="#232323"/>
<path d="M228.99 47.811C229.148 48.0152 229.767 47.8035 230.511 47.7934C231.256 47.7575 231.886 47.9308 232.031 47.7172C232.095 47.6138 231.996 47.409 231.72 47.2156C231.448 47.0228 230.995 46.8659 230.483 46.881C229.971 46.8974 229.528 47.082 229.27 47.2912C229.007 47.501 228.92 47.7115 228.99 47.811Z" fill="#232323"/>
<path d="M247.331 52.8173C247.43 52.7738 251.349 51.6289 251.222 55.6269C251.094 59.6249 247.107 58.6722 247.103 58.5575C247.1 58.4429 247.331 52.8173 247.331 52.8173Z" fill="#FFBE9D"/>
<path d="M248.373 57.0819C248.391 57.0699 248.441 57.1329 248.557 57.1909C248.669 57.2469 248.866 57.2898 249.077 57.218C249.504 57.0762 249.882 56.4171 249.924 55.6975C249.946 55.3339 249.88 54.9849 249.761 54.6938C249.648 54.397 249.465 54.1871 249.254 54.1424C249.044 54.0863 248.889 54.2092 248.837 54.3201C248.78 54.4304 248.803 54.511 248.782 54.5173C248.77 54.5268 248.698 54.4474 248.736 54.2836C248.754 54.2048 248.804 54.1122 248.901 54.0378C248.999 53.9628 249.141 53.9275 249.289 53.9483C249.597 53.9792 249.865 54.2722 249.997 54.5917C250.146 54.913 250.227 55.3056 250.203 55.7139C250.151 56.5185 249.715 57.2595 249.132 57.4082C248.848 57.4725 248.616 57.3805 248.498 57.2822C248.377 57.1789 248.359 57.0888 248.373 57.0819Z" fill="#EB996E"/>
<path d="M249.555 52.6818C248.945 52.5343 247.891 53.097 247.63 53.6679C247.37 54.2388 247.313 54.8859 247.054 55.4574C246.795 56.0289 246.209 56.5456 245.598 56.4007C245.177 56.3011 244.876 55.9067 244.765 55.4883C244.654 55.0699 244.699 54.6282 244.753 54.1984C244.989 52.3308 245.381 50.4796 245.456 48.5987C245.531 46.7185 245.264 44.7645 244.276 43.1621C243.289 41.5598 241.475 40.3821 239.599 40.5327C238.356 40.6329 237.217 41.2806 235.982 41.4539C234.518 41.6587 232.971 41.1426 231.924 40.0992C231.789 39.9656 231.165 39.5541 231.165 39.5541C231.165 39.4571 231.256 38.6222 231.586 38.3179C234.035 36.0526 238.448 35.4206 241.683 36.2347C244.918 37.0488 247.951 39.333 249.343 42.3644C250.736 45.3971 250.322 49.6138 249.555 52.6818Z" fill="#232323"/>
<path d="M227.907 42.8074C227.907 42.8074 243.25 37.8711 249.887 51.1456C249.887 51.1456 250.879 47.8237 250.879 46.043C250.879 44.854 250.168 37.7709 242.88 35.5429C242.88 35.5429 231.9 31.352 227.907 42.8074Z" fill="#71BF44"/>
<path d="M241.09 43.1388C240.548 44.0146 239.581 44.6133 238.555 44.7065C237.529 44.7998 236.469 44.3858 235.778 43.6221C235.475 44.3782 234.662 44.8974 233.848 44.8552C233.035 44.8124 232.281 44.2112 232.058 43.4274C231.613 43.8596 231.149 44.3039 230.566 44.5175C229.983 44.7311 229.244 44.6504 228.861 44.1615C228.471 43.6637 228.585 42.905 228.967 42.4016C229.349 41.8981 229.939 41.5982 230.522 41.3543C232.344 40.5932 234.354 40.2113 236.312 40.4766C238.269 40.7419 240.165 41.6908 241.388 43.2409" fill="#232323"/>
<g opacity="0.4">
<path d="M227.907 42.8074C227.907 42.8074 229.653 40.7306 232.786 40.5919C237.312 40.3922 245.783 42.9366 249.887 51.1456C249.887 51.1456 250.879 47.8237 250.879 46.043C250.879 44.854 250.168 37.7709 242.88 35.5429C242.88 35.5429 231.9 31.352 227.907 42.8074Z" fill="#232323"/>
</g>
<path d="M249.246 49.5911C246.971 46.1104 243.834 43.2327 240.308 41.0292C236.781 38.8257 230.949 36.6468 226.93 35.5801C225.723 35.26 224.465 34.9796 223.235 35.1925C222.005 35.4049 220.801 36.224 220.495 37.4345C220.113 38.9499 222.802 41.2882 224.066 42.2075C225.33 43.1268 227.908 44.4759 227.908 44.4759C227.908 44.4759 227.873 41.6656 232.371 41.0859C238.489 40.2977 249.246 49.5911 249.246 49.5911Z" fill="#71BF44"/>
<path d="M236.663 38.1263C236.663 38.1263 234.452 36.9033 232.232 36.6185C232.688 36.2845 232.932 36.1239 233.436 35.8958C234.572 36.1213 235.724 36.4099 236.889 37.057L236.663 38.1263Z" fill="#E0E0E0"/>
<path d="M248.369 52.9571C248.38 52.9981 248.054 53.1928 247.541 53.579C246.899 54.0485 246.244 54.528 245.526 55.0529C243.947 56.2009 242.644 57.102 242.589 57.0295C242.534 56.9577 243.751 55.9388 245.333 54.7876C246.903 53.6269 248.302 52.8242 248.369 52.9571Z" fill="#EBEBEB"/>
<path d="M248.779 58.7888C248.847 58.8335 247.947 60.1813 246.431 61.4598C244.922 62.7471 243.447 63.4163 243.413 63.3413C243.365 63.2543 244.743 62.4699 246.219 61.2097C247.702 59.9589 248.701 58.727 248.779 58.7888Z" fill="#EBEBEB"/>
<path d="M226.789 56.8544C226.789 56.8544 228.372 57.3062 228.788 57.2835C231.683 57.1272 232.702 56.1493 237.431 57.1587C238.194 57.3213 238.982 57.3427 239.754 57.2306C240.446 57.1297 241.428 57.0296 242.588 57.0296L243.498 63.3489C243.498 63.3489 237.886 68.258 232.829 67.708C226.294 66.9959 225.52 59.3698 226.789 56.8544Z" fill="#FAFAFA"/>
<path d="M226.789 56.8543C226.789 56.8543 226.731 57.0207 226.617 57.3162C226.52 57.6199 226.411 58.0843 226.346 58.6917C226.253 59.8946 226.326 61.7332 227.259 63.7175C227.739 64.691 228.465 65.6821 229.511 66.4194C230.55 67.1654 231.898 67.5939 233.33 67.6682C234.766 67.7237 236.276 67.391 237.725 66.7943C239.181 66.2051 240.605 65.3986 241.969 64.4408C242.483 64.0741 242.986 63.6973 243.455 63.2991L243.434 63.3577C243.115 61.1422 242.81 59.0175 242.526 57.0383L242.587 57.0913C241.422 57.0793 240.316 57.2135 239.243 57.3427C238.703 57.3792 238.172 57.3483 237.665 57.2595C237.158 57.1669 236.679 57.0522 236.201 56.9823C235.25 56.8247 234.346 56.7441 233.506 56.7579C232.665 56.7655 231.896 56.8915 231.201 57.0075C230.507 57.1284 229.88 57.2261 229.329 57.2734C229.053 57.2847 228.797 57.3326 228.558 57.2935C228.324 57.2595 228.115 57.2116 227.928 57.1681C227.182 56.9873 226.789 56.8543 226.789 56.8543C226.786 56.7485 228.393 57.6647 231.189 56.9318C231.883 56.8109 232.656 56.6792 233.504 56.6666C234.351 56.6477 235.262 56.7245 236.218 56.8789C236.696 56.9463 237.185 57.061 237.684 57.1505C238.183 57.2362 238.705 57.2645 239.236 57.2274C240.291 57.0969 241.42 56.9577 242.588 56.9678L242.642 56.9684L242.649 57.0207C242.935 58.9999 243.243 61.1239 243.563 63.3388L243.568 63.3747L243.541 63.3974C243.066 63.8019 242.562 64.1787 242.044 64.5479C240.674 65.5101 239.241 66.3211 237.773 66.9134C236.312 67.5126 234.784 67.8484 233.324 67.7886C231.871 67.7098 230.502 67.2706 229.448 66.5076C228.386 65.7533 227.654 64.7439 227.175 63.7572C226.242 61.7459 226.186 59.8952 226.295 58.6861C226.368 58.0749 226.485 57.6117 226.592 57.3049C226.721 57.0024 226.789 56.8543 226.789 56.8543Z" fill="#232323"/>
<path d="M227.315 60.5405C231.669 62.7093 237.079 62.6097 241.35 60.2815C240.476 61.3123 239.57 62.3703 238.366 62.9828C236.984 63.6859 235.369 63.7225 233.817 63.72C232.582 63.7181 231.298 63.6897 230.191 63.1403C229.055 62.5763 228.245 61.5335 227.475 60.5253" fill="#E0E0E0"/>
<path d="M240.682 58.9469C240.691 58.986 240.006 59.1984 238.87 59.4246C237.736 59.6514 236.145 59.8713 234.377 59.9356C232.608 59.9967 231.006 59.8896 229.858 59.7434C228.709 59.5978 228.011 59.4346 228.017 59.3949C228.025 59.3452 228.734 59.4271 229.881 59.5128C231.027 59.5991 232.614 59.6684 234.365 59.6079C236.116 59.5449 237.694 59.3634 238.831 59.1965C239.969 59.0295 240.671 58.8978 240.682 58.9469Z" fill="#E0E0E0"/>
<path d="M241.768 61.5758C241.795 61.5991 241.383 62.1435 240.529 62.8328C239.683 63.5215 238.356 64.3217 236.733 64.7704C235.11 65.2203 233.561 65.2165 232.481 65.0609C231.394 64.9084 230.762 64.6532 230.773 64.6192C230.787 64.5662 231.437 64.7395 232.507 64.8296C233.572 64.9235 235.073 64.8901 236.646 64.4534C238.219 64.0187 239.523 63.2758 240.389 62.6476C241.26 62.0206 241.728 61.5373 241.768 61.5758Z" fill="#E0E0E0"/>
<path d="M241.865 60.1233C241.876 60.1435 241.696 60.2569 241.36 60.4466C241.028 60.6419 240.522 60.8807 239.879 61.1328C239.238 61.3899 238.447 61.6274 237.553 61.8221C236.657 62.0017 235.655 62.1296 234.599 62.1516C233.541 62.163 232.536 62.0666 231.635 61.916C230.735 61.7496 229.937 61.5379 229.288 61.301C228.638 61.0691 228.124 60.8467 227.786 60.6621C227.445 60.4831 227.262 60.3747 227.272 60.3546C227.298 60.2998 228.06 60.6785 229.361 61.0805C230.01 61.2859 230.799 61.4705 231.685 61.6179C232.572 61.7496 233.558 61.8347 234.594 61.824C235.63 61.8019 236.611 61.6854 237.495 61.5259C238.375 61.3508 239.159 61.141 239.8 60.9154C241.088 60.4724 241.837 60.0698 241.865 60.1233Z" fill="#232323"/>
<path d="M237.169 60.1309C237.182 60.2135 235.507 60.5027 233.422 60.4132C231.336 60.3326 229.69 59.9085 229.71 59.8272C229.728 59.7314 231.38 60.0062 233.435 60.0856C235.49 60.1738 237.159 60.0345 237.169 60.1309Z" fill="#232323"/>
<path d="M167.589 138.689V87.5928H238.662V138.689L200.995 139.006L167.589 138.689Z" fill="#71BF44"/>
<g opacity="0.4">
<path d="M238.662 87.5928H167.589V138.689H238.662V87.5928Z" fill="#232323"/>
</g>
<path d="M200.995 139.006L167.589 138.689V87.5928H200.885L200.995 139.006Z" fill="#71BF44"/>
<path d="M185.599 87.5928H181.167V96.4572H185.599V87.5928Z" fill="#232323"/>
<path d="M178.783 127.413H169.96V136.235H178.783V127.413Z" fill="#FAFAFA"/>
<path d="M178.798 136.25H169.944V127.397H178.798V136.25ZM169.976 136.219H178.766V127.428H169.976V136.219Z" fill="#232323"/>
<path d="M255.296 99.3229L256.765 111.216L234.714 124.305L238.141 131.849L263.206 121.723C266.246 120.184 268.845 117.902 268.63 114.484L267.422 97.8478L255.296 99.3229Z" fill="#FFBE9D"/>
<path d="M261.505 75.9875C261.505 75.9875 264.642 78.3113 265.53 83.1505C266.375 87.7585 269.242 100.634 269.242 100.634L254.13 102.423C254.13 102.423 254.14 98.8874 254.139 98.8849C254.114 98.8345 252.732 92.2455 252.732 92.2455L255.549 83.1505L261.505 75.9875Z" fill="#71BF44"/>
<path d="M268.642 100.691C268.645 100.713 268.277 100.779 267.609 100.879C266.885 100.979 265.931 101.11 264.78 101.269C262.388 101.585 259.082 101.998 255.428 102.434C254.99 102.487 254.557 102.538 254.15 102.586L253.98 102.606L253.968 102.436C253.716 99.0645 253.438 96.0671 253.232 93.914C253.133 92.8794 253.052 92.0256 252.989 91.3734C252.934 90.7761 252.913 90.4465 252.934 90.4434C252.955 90.4409 253.016 90.7654 253.109 91.3589C253.2 91.9525 253.319 92.8157 253.452 93.8901C253.716 96.0393 254.033 99.0342 254.293 102.412L254.111 102.262C254.518 102.212 254.951 102.161 255.389 102.109C259.043 101.672 262.354 101.296 264.752 101.039C265.909 100.923 266.867 100.826 267.594 100.753C268.267 100.691 268.64 100.668 268.642 100.691Z" fill="#232323"/>
<path d="M260.269 76.8167C260.29 76.869 259.72 77.1053 258.881 77.6207C258.043 78.1324 256.956 78.9673 255.987 80.1103C255.021 81.2577 254.38 82.4681 254.015 83.3805C253.647 84.2935 253.51 84.8947 253.454 84.8827C253.421 84.8777 253.478 84.2545 253.798 83.2992C254.113 82.3472 254.742 81.0794 255.736 79.8986C256.734 78.7221 257.879 77.8904 258.765 77.4204C259.653 76.9446 260.258 76.7846 260.269 76.8167Z" fill="#232323"/>
<path d="M234.371 123.64L231.132 125.124L229.743 124.587L222.675 124.145L218.25 125.124L218.123 125.376C218.123 127.776 222.67 126.829 224.059 127.208C225.448 127.586 224.185 130.554 224.185 130.554C224.185 130.554 217.933 138.7 216.844 140.658C216.3 141.636 216.477 142.173 216.791 142.466C217.112 142.765 217.614 142.763 217.972 142.509L220.28 140.875C220.28 140.875 226.63 141.244 227.066 141.029C227.694 140.718 228.605 139.395 228.605 139.395C231.855 136.356 235.196 133.829 238.661 131.977L234.371 123.64Z" fill="#FAFAFA"/>
<path d="M234.371 123.64C234.373 123.635 234.399 123.68 234.45 123.77C234.509 123.877 234.583 124.014 234.676 124.183C234.883 124.572 235.172 125.115 235.542 125.807C236.306 127.262 237.399 129.342 238.758 131.93L238.807 132.023L238.713 132.073C235.687 133.699 232.211 136.202 228.708 139.504L228.728 139.48C228.307 140.052 227.895 140.641 227.25 141.101C227.172 141.158 227.055 141.197 226.934 141.216L226.647 141.239L226.085 141.251C225.71 141.254 225.334 141.246 224.955 141.237C223.437 141.2 221.873 141.125 220.272 141.037L220.374 141.008C219.88 141.359 219.38 141.713 218.877 142.07L218.118 142.607C217.851 142.819 217.452 142.924 217.096 142.819C216.732 142.721 216.447 142.407 216.364 142.045C216.283 141.68 216.369 141.327 216.492 141.019C216.753 140.394 217.139 139.886 217.492 139.343C219.688 136.178 221.946 133.235 224.06 130.46L224.041 130.494C224.214 130.068 224.359 129.621 224.453 129.178C224.541 128.739 224.608 128.276 224.5 127.881C224.454 127.678 224.333 127.53 224.186 127.429C224.028 127.347 223.812 127.305 223.597 127.289C223.164 127.247 222.72 127.251 222.282 127.249C221.406 127.245 220.536 127.242 219.693 127.068C219.28 126.962 218.85 126.845 218.51 126.546C218.161 126.255 217.998 125.803 217.987 125.378L217.986 125.347L218.001 125.317C218.046 125.228 218.087 125.146 218.128 125.065L218.157 125.007L218.219 124.993C219.805 124.648 221.279 124.327 222.648 124.03L222.665 124.026L222.682 124.027C225.504 124.22 227.874 124.381 229.746 124.508L229.759 124.509L229.771 124.513C230.314 124.729 230.752 124.901 231.156 125.061L231.103 125.063C232.154 124.599 232.97 124.239 233.545 123.986C233.804 123.874 234.009 123.787 234.165 123.72C234.304 123.661 234.373 123.634 234.371 123.64C234.369 123.646 234.296 123.684 234.156 123.753C234 123.83 233.796 123.929 233.536 124.055C232.977 124.321 232.183 124.699 231.161 125.186L231.136 125.198L231.108 125.187C230.702 125.034 230.262 124.868 229.715 124.662L229.739 124.667C227.865 124.56 225.493 124.425 222.67 124.264L222.703 124.262C221.335 124.569 219.865 124.899 218.281 125.255L218.372 125.184C218.331 125.266 218.291 125.349 218.247 125.437L218.261 125.376C218.279 125.743 218.407 126.093 218.693 126.333C218.972 126.581 219.369 126.692 219.756 126.789C220.555 126.95 221.411 126.952 222.286 126.951C222.725 126.952 223.17 126.945 223.629 126.988C223.858 127.008 224.096 127.038 224.343 127.165C224.571 127.31 224.742 127.548 224.797 127.796C224.929 128.291 224.848 128.775 224.759 129.242C224.66 129.71 224.515 130.163 224.333 130.616L224.326 130.633L224.313 130.651C222.208 133.427 219.952 136.378 217.767 139.527C217.418 140.059 217.027 140.586 216.799 141.139C216.686 141.415 216.626 141.711 216.685 141.969C216.743 142.222 216.942 142.439 217.187 142.505C217.439 142.574 217.712 142.514 217.933 142.341L218.692 141.804C219.196 141.448 219.696 141.094 220.191 140.745L220.237 140.712L220.293 140.715C221.89 140.805 223.454 140.883 224.964 140.926C225.342 140.935 225.716 140.944 226.086 140.942L226.634 140.933L226.897 140.913C226.958 140.902 227.018 140.895 227.091 140.842C227.643 140.456 228.086 139.858 228.486 139.313L228.498 139.297L228.508 139.288C232.04 135.986 235.553 133.49 238.614 131.884L238.569 132.028C237.266 129.441 236.218 127.363 235.485 125.908C235.131 125.197 234.854 124.639 234.656 124.239C234.568 124.058 234.498 123.914 234.442 123.799C234.393 123.699 234.369 123.645 234.371 123.64Z" fill="#232323"/>
<path d="M226.266 135.378C226.322 135.445 224.992 136.683 223.347 138.206C222.522 138.966 221.769 139.648 221.216 140.132C220.663 140.617 220.309 140.904 220.282 140.876C220.209 140.803 221.473 139.488 223.125 137.965C224.773 136.439 226.206 135.306 226.266 135.378Z" fill="#232323"/>
<path d="M228.188 136.954C228.264 137.013 227.48 138.052 226.353 139.172C225.234 140.3 224.242 141.125 224.181 141.059C224.118 140.992 225.006 140.064 226.119 138.941C227.242 137.826 228.121 136.901 228.188 136.954Z" fill="#232323"/>
</svg>
