<svg width="246" height="83" viewBox="0 0 246 83" fill="none" xmlns="http://www.w3.org/2000/svg">
<g clip-path="url(#clip0_53_2827)">
<path d="M226.41 0.500266H19.601C18.8471 0.500266 18.1023 0.500267 17.3505 0.504367C16.7211 0.508466 16.0967 0.520377 15.4613 0.530401C14.0809 0.5466 12.7038 0.667703 11.3418 0.892657C9.98177 1.12251 8.66433 1.55584 7.43406 2.17801C6.2053 2.80543 5.08254 3.62071 4.10651 4.59426C3.12537 5.56507 2.30751 6.6872 1.68438 7.91749C1.05954 9.14534 0.626266 10.4611 0.399536 11.8193C0.17065 13.1758 0.0474846 14.5479 0.0311447 15.9234C0.0120673 16.5519 0.0100526 17.1826 0 17.8112V65.1954C0.0100526 65.8319 0.0120673 66.4486 0.0311447 67.0853C0.0474896 68.4607 0.170655 69.8328 0.399536 71.1892C0.62564 72.5482 1.05894 73.8647 1.68438 75.093C2.30723 76.3193 3.1252 77.4369 4.10651 78.4023C5.07883 79.3802 6.20232 80.196 7.43406 80.8186C8.66432 81.4425 9.98162 81.8784 11.3418 82.1118C12.704 82.3349 14.081 82.4561 15.4613 82.4742C16.0967 82.4882 16.7211 82.4962 17.3505 82.4962C18.1023 82.5003 18.8472 82.5003 19.601 82.5003H226.41C227.149 82.5003 227.9 82.5003 228.639 82.4962C229.265 82.4962 229.907 82.4882 230.534 82.4742C231.911 82.4571 233.286 82.3359 234.645 82.1118C236.01 81.8768 237.332 81.4409 238.568 80.8186C239.799 80.1957 240.921 79.3799 241.893 78.4023C242.871 77.4331 243.691 76.3164 244.322 75.093C244.942 73.8638 245.372 72.5474 245.594 71.1892C245.824 69.8326 245.951 68.4608 245.976 67.0853C245.984 66.4486 245.984 65.8319 245.984 65.1954C246 64.4506 246 63.71 246 62.9531V20.0493C246 19.2986 246 18.5539 245.984 17.8112C245.984 17.1826 245.984 16.5519 245.976 15.9233C245.951 14.5477 245.824 13.1759 245.594 11.8192C245.371 10.4618 244.942 9.14615 244.322 7.91741C243.053 5.45142 241.04 3.44412 238.568 2.17782C237.332 1.55718 236.01 1.12396 234.645 0.892472C233.286 0.666527 231.912 0.545382 230.534 0.530114C229.907 0.52011 229.265 0.508097 228.639 0.5041C227.9 0.5 227.149 0.500266 226.41 0.500266Z" fill="#A6A6A6"/>
<path d="M17.3605 80.7062C16.7341 80.7062 16.1229 80.6982 15.5015 80.6843C14.2141 80.6675 12.9298 80.5558 11.659 80.3499C10.474 80.1464 9.32613 79.7678 8.25314 79.2267C7.18999 78.6901 6.22031 77.9864 5.38125 77.1427C4.53005 76.3089 3.82138 75.3419 3.28333 74.2799C2.73936 73.211 2.36289 72.0652 2.16706 70.8826C1.95557 69.6118 1.84115 68.3269 1.82477 67.0388C1.81174 66.6065 1.79468 65.167 1.79468 65.167V17.8108C1.79468 17.8108 1.81285 16.3935 1.82488 15.977C1.84055 14.691 1.95431 13.4081 2.16517 12.1393C2.36136 10.9534 2.73812 9.80439 3.28239 8.73199C3.81846 7.67074 4.52319 6.70296 5.36927 5.8662C6.21439 5.02148 7.18717 4.31419 8.25213 3.77013C9.32266 3.23074 10.4684 2.85485 11.651 2.65505C12.9259 2.44712 14.2147 2.33469 15.5065 2.31873L17.3615 2.2937H228.628L230.506 2.31974C231.786 2.3349 233.063 2.44632 234.326 2.65305C235.521 2.85535 236.678 3.23386 237.761 3.77614C239.894 4.87257 241.63 6.60724 242.726 8.73699C243.261 9.80199 243.632 10.9416 243.826 12.1173C244.039 13.3965 244.159 14.6895 244.183 15.9861C244.189 16.5666 244.189 17.1902 244.189 17.8108C244.205 18.5796 244.205 19.3113 244.205 20.049V62.9528C244.205 63.6976 244.205 64.4243 244.189 65.157C244.189 65.8236 244.189 66.4343 244.181 67.0628C244.157 68.3362 244.04 69.6062 243.83 70.8625C243.638 72.0537 243.264 73.2084 242.72 74.286C242.178 75.3365 241.473 76.2951 240.632 77.1267C239.792 77.975 238.821 78.6827 237.755 79.2228C236.675 79.7681 235.519 80.1481 234.326 80.3499C233.055 80.5569 231.771 80.6686 230.483 80.6843C229.881 80.6982 229.251 80.7062 228.639 80.7062L226.41 80.7103L17.3605 80.7062Z" fill="black"/>
<path d="M50.9187 42.1163C50.9408 40.4052 51.3965 38.7275 52.2436 37.2393C53.0906 35.7511 54.3013 34.5007 55.7632 33.6045C54.8345 32.282 53.6094 31.1935 52.1851 30.4257C50.7608 29.6579 49.1766 29.2318 47.5583 29.1813C44.1062 28.82 40.7596 31.2412 39.0004 31.2412C37.2073 31.2412 34.4988 29.2172 31.5822 29.277C29.6957 29.3378 27.8572 29.8848 26.2457 30.8649C24.6342 31.8449 23.3048 33.2244 22.387 34.8691C18.4112 41.7334 21.3768 51.8216 25.1853 57.3701C27.0908 60.0871 29.3177 63.122 32.2317 63.0144C35.0831 62.8964 36.1481 61.2012 39.59 61.2012C43 61.2012 43.9992 63.0144 46.9723 62.9459C50.032 62.8964 51.9598 60.2169 53.7984 57.4742C55.1675 55.5383 56.221 53.3986 56.9199 51.1346C55.1423 50.3848 53.6253 49.1299 52.5581 47.5261C51.4909 45.9224 50.9207 44.0409 50.9187 42.1163Z" fill="white"/>
<path d="M45.303 25.5322C46.9713 23.5351 47.7932 20.9681 47.5942 18.3765C45.0454 18.6434 42.6911 19.8582 41.0002 21.7787C40.1735 22.7169 39.5403 23.8084 39.1369 24.9908C38.7335 26.1731 38.5677 27.4232 38.649 28.6695C39.9239 28.6826 41.1851 28.4071 42.3377 27.8636C43.4903 27.3202 44.5042 26.5231 45.303 25.5322Z" fill="white"/>
<path d="M86.963 56.1361H77.2323L74.8955 63.0168H70.7739L79.9907 37.5599H84.2728L93.4896 63.0168H89.2978L86.963 56.1361ZM78.2401 52.961H85.9533L82.1509 41.7941H82.0445L78.2401 52.961Z" fill="white"/>
<path d="M113.395 53.7378C113.395 59.5055 110.299 63.2111 105.627 63.2111C104.444 63.2728 103.267 63.001 102.231 62.4267C101.196 61.8524 100.343 60.9989 99.7714 59.9639H99.683V69.1569H95.8625V44.4568H99.5606V47.5438H99.6308C100.229 46.5137 101.096 45.6646 102.139 45.0869C103.183 44.5091 104.364 44.2242 105.557 44.2626C110.281 44.2626 113.395 47.9862 113.395 53.7378ZM109.468 53.7378C109.468 49.9802 107.521 47.5098 104.549 47.5098C101.63 47.5098 99.6669 50.0322 99.6669 53.7378C99.6669 57.4775 101.63 59.9819 104.549 59.9819C107.521 59.9819 109.468 57.5295 109.468 53.7378Z" fill="white"/>
<path d="M133.88 53.7378C133.88 59.5055 130.784 63.2111 126.113 63.2111C124.929 63.2728 123.752 63.0009 122.717 62.4267C121.681 61.8524 120.828 60.9989 120.256 59.9639H120.168V69.1568H116.348V44.4568H120.046V47.5438H120.116C120.714 46.5137 121.581 45.6646 122.625 45.0868C123.668 44.5091 124.849 44.2242 126.042 44.2626C130.766 44.2626 133.88 47.9862 133.88 53.7378ZM129.953 53.7378C129.953 49.9802 128.006 47.5097 125.034 47.5097C122.115 47.5097 120.152 50.0322 120.152 53.7378C120.152 57.4775 122.115 59.9819 125.034 59.9819C128.006 59.9819 129.953 57.5295 129.953 53.7378Z" fill="white"/>
<path d="M147.419 55.9239C147.702 58.4484 150.161 60.1059 153.522 60.1059C156.742 60.1059 159.059 58.4483 159.059 56.1721C159.059 54.1962 157.662 53.013 154.353 52.2022L151.045 51.4074C146.357 50.2783 144.181 48.0922 144.181 44.5447C144.181 40.1524 148.019 37.1355 153.47 37.1355C158.864 37.1355 162.562 40.1524 162.687 44.5447H158.83C158.599 42.0042 156.493 40.4708 153.416 40.4708C150.338 40.4708 148.232 42.0223 148.232 44.2805C148.232 46.0802 149.577 47.1393 152.868 47.95L155.68 48.6387C160.918 49.8739 163.094 51.972 163.094 55.6955C163.094 60.4582 159.29 63.4411 153.239 63.4411C147.578 63.4411 143.755 60.5282 143.508 55.9237L147.419 55.9239Z" fill="white"/>
<path d="M171.339 40.0645V44.4567H174.879V47.4737H171.339V57.7057C171.339 59.2952 172.048 60.0359 173.604 60.0359C174.024 60.0286 174.444 59.9992 174.861 59.9478V62.9467C174.161 63.0771 173.45 63.1361 172.739 63.1229C168.97 63.1229 167.501 61.7115 167.501 58.112V47.4737H164.795V44.4567H167.501V40.0645H171.339Z" fill="white"/>
<path d="M176.928 53.7378C176.928 47.8981 180.377 44.2285 185.756 44.2285C191.152 44.2285 194.585 47.898 194.585 53.7378C194.585 59.5935 191.17 63.2471 185.756 63.2471C180.343 63.2471 176.928 59.5935 176.928 53.7378ZM190.692 53.7378C190.692 49.7319 188.851 47.3676 185.756 47.3676C182.66 47.3676 180.821 49.7499 180.821 53.7378C180.821 57.7597 182.66 60.106 185.756 60.106C188.851 60.106 190.692 57.7597 190.692 53.7378Z" fill="white"/>
<path d="M197.735 44.4567H201.379V47.6158H201.467C201.714 46.6291 202.293 45.7572 203.108 45.1465C203.924 44.5359 204.925 44.2237 205.944 44.2625C206.384 44.261 206.823 44.3087 207.253 44.4047V47.9681C206.697 47.7988 206.117 47.721 205.536 47.7379C204.981 47.7155 204.428 47.813 203.914 48.024C203.401 48.2349 202.939 48.5541 202.561 48.9598C202.183 49.3655 201.897 49.848 201.723 50.3741C201.55 50.9003 201.492 51.4577 201.555 52.0081V63.0168H197.735L197.735 44.4567Z" fill="white"/>
<path d="M224.867 57.5655C224.353 60.9348 221.063 63.2471 216.853 63.2471C211.439 63.2471 208.078 59.6295 208.078 53.8259C208.078 48.0042 211.457 44.2285 216.692 44.2285C221.842 44.2285 225.08 47.7559 225.08 53.3834V54.6887H211.934V54.9189C211.874 55.602 211.96 56.2901 212.186 56.9376C212.413 57.5851 212.775 58.1771 213.248 58.6743C213.722 59.1715 214.296 59.5626 214.933 59.8215C215.569 60.0804 216.254 60.2013 216.941 60.1761C217.844 60.2604 218.75 60.0519 219.525 59.5816C220.299 59.1112 220.9 58.4041 221.24 57.5655L224.867 57.5655ZM211.952 52.0261H221.258C221.292 51.4119 221.199 50.7973 220.983 50.2209C220.768 49.6444 220.436 49.1185 220.007 48.6762C219.578 48.2338 219.063 47.8846 218.492 47.6505C217.922 47.4164 217.309 47.3023 216.692 47.3155C216.07 47.3118 215.454 47.431 214.878 47.6662C214.302 47.9015 213.779 48.2481 213.338 48.686C212.898 49.124 212.548 49.6446 212.31 50.2179C212.073 50.7912 211.951 51.4057 211.952 52.0261Z" fill="white"/>
<path d="M77.7613 18.3986C78.5622 18.3413 79.3659 18.462 80.1145 18.7519C80.863 19.0419 81.5377 19.4939 82.0898 20.0753C82.642 20.6567 83.0578 21.3531 83.3074 22.1142C83.557 22.8753 83.634 23.6822 83.533 24.4766C83.533 28.3844 81.4151 30.6307 77.7613 30.6307H73.3306V18.3986H77.7613ZM75.2357 28.9008H77.5485C78.1208 28.9349 78.6936 28.8413 79.225 28.6269C79.7565 28.4124 80.2334 28.0825 80.6209 27.6611C81.0084 27.2397 81.2968 26.7374 81.4651 26.1908C81.6333 25.6442 81.6773 25.0671 81.5937 24.5015C81.6712 23.9381 81.6228 23.3646 81.452 22.822C81.2811 22.2794 80.992 21.7813 80.6054 21.3632C80.2188 20.9452 79.7442 20.6176 79.2157 20.4039C78.6872 20.1902 78.1179 20.0957 77.5485 20.1272H75.2357V28.9008Z" fill="white"/>
<path d="M85.6852 26.011C85.627 25.4044 85.6966 24.7923 85.8895 24.2141C86.0824 23.6358 86.3944 23.1042 86.8054 22.6532C87.2165 22.2023 87.7175 21.8419 88.2763 21.5954C88.8352 21.3488 89.4396 21.2214 90.0507 21.2214C90.6618 21.2214 91.2662 21.3488 91.825 21.5954C92.3839 21.8419 92.8849 22.2023 93.2959 22.6532C93.7069 23.1042 94.0189 23.6358 94.2118 24.2141C94.4047 24.7923 94.4743 25.4044 94.4161 26.011C94.4754 26.6183 94.4067 27.2312 94.2143 27.8104C94.0219 28.3895 93.7101 28.9222 93.2989 29.374C92.8878 29.8259 92.3864 30.1869 91.827 30.434C91.2676 30.6811 90.6625 30.8088 90.0507 30.8088C89.4388 30.8088 88.8338 30.6811 88.2743 30.434C87.7149 30.1869 87.2135 29.8259 86.8024 29.374C86.3913 28.9222 86.0795 28.3895 85.8871 27.8104C85.6947 27.2312 85.6259 26.6183 85.6852 26.011ZM92.537 26.011C92.537 24.0101 91.6356 22.8399 90.0537 22.8399C88.4657 22.8399 87.5724 24.0101 87.5724 26.011C87.5724 28.028 88.4658 29.1891 90.0537 29.1891C91.6357 29.1891 92.537 28.02 92.537 26.011Z" fill="white"/>
<path d="M106.022 30.6304H104.127L102.214 23.8318H102.069L100.164 30.6304H98.2867L95.7351 21.3994H97.5881L99.2464 28.4432H99.3829L101.286 21.3994H103.039L104.942 28.4432H105.086L106.737 21.3994H108.563L106.022 30.6304Z" fill="white"/>
<path d="M110.709 21.3994H112.468V22.8659H112.605C112.836 22.3392 113.227 21.8977 113.722 21.6029C114.217 21.3081 114.792 21.1747 115.367 21.2212C115.817 21.1875 116.27 21.2552 116.69 21.4194C117.111 21.5836 117.489 21.8401 117.797 22.1698C118.105 22.4995 118.334 22.8941 118.468 23.3242C118.602 23.7543 118.637 24.209 118.571 24.6546V30.6303H116.744V25.1121C116.744 23.6286 116.098 22.8909 114.747 22.8909C114.441 22.8767 114.136 22.9286 113.852 23.043C113.568 23.1575 113.312 23.3318 113.102 23.554C112.892 23.7762 112.733 24.041 112.635 24.3303C112.538 24.6196 112.504 24.9266 112.536 25.2302V30.6304H110.709L110.709 21.3994Z" fill="white"/>
<path d="M121.482 17.7959H123.309V30.6304H121.482V17.7959Z" fill="white"/>
<path d="M125.849 26.0109C125.791 25.4043 125.86 24.7922 126.053 24.2139C126.246 23.6356 126.558 23.104 126.969 22.653C127.38 22.202 127.881 21.8417 128.44 21.5951C128.999 21.3486 129.604 21.2212 130.215 21.2212C130.826 21.2212 131.43 21.3486 131.989 21.5951C132.548 21.8417 133.049 22.202 133.46 22.653C133.871 23.104 134.183 23.6356 134.376 24.2139C134.569 24.7922 134.639 25.4043 134.581 26.0109C134.64 26.6182 134.571 27.2311 134.379 27.8103C134.186 28.3895 133.874 28.9221 133.463 29.3739C133.052 29.8258 132.551 30.1868 131.991 30.4339C131.432 30.681 130.827 30.8086 130.215 30.8086C129.603 30.8086 128.998 30.681 128.438 30.4339C127.879 30.1868 127.377 29.8258 126.966 29.3739C126.555 28.9221 126.243 28.3895 126.051 27.8103C125.858 27.2311 125.789 26.6182 125.849 26.0109ZM132.701 26.0109C132.701 24.01 131.799 22.8399 130.217 22.8399C128.629 22.8399 127.736 24.01 127.736 26.011C127.736 28.0279 128.629 29.1891 130.217 29.1891C131.799 29.189 132.701 28.0199 132.701 26.0109Z" fill="white"/>
<path d="M136.504 28.0198C136.504 26.3582 137.745 25.4003 139.947 25.2641L142.454 25.12V24.3232C142.454 23.3483 141.808 22.7977 140.559 22.7977C139.539 22.7977 138.833 23.1711 138.63 23.8237H136.861C137.048 22.2382 138.544 21.2212 140.644 21.2212C142.964 21.2212 144.273 22.3733 144.273 24.3232V30.6304H142.515V29.3331H142.37C142.077 29.7984 141.665 30.1778 141.176 30.4324C140.688 30.6871 140.14 30.8078 139.59 30.7825C139.201 30.8228 138.808 30.7814 138.437 30.6611C138.065 30.5408 137.723 30.3441 137.432 30.0838C137.141 29.8235 136.909 29.5054 136.749 29.1499C136.589 28.7944 136.505 28.4094 136.504 28.0198ZM142.454 27.231V26.4593L140.194 26.6034C138.919 26.6885 138.341 27.1209 138.341 27.9347C138.341 28.7655 139.064 29.249 140.057 29.249C140.349 29.2784 140.643 29.2491 140.922 29.1628C141.202 29.0765 141.461 28.935 141.685 28.7467C141.908 28.5585 142.092 28.3272 142.224 28.0669C142.356 27.8065 142.435 27.5222 142.454 27.231Z" fill="white"/>
<path d="M146.674 26.0109C146.674 23.0941 148.178 21.2463 150.517 21.2463C151.095 21.2197 151.669 21.3579 152.172 21.6447C152.675 21.9315 153.085 22.355 153.356 22.8658H153.492V17.7959H155.319V30.6304H153.568V29.172H153.424C153.133 29.6793 152.708 30.0976 152.196 30.3815C151.683 30.6654 151.103 30.8041 150.517 30.7825C148.162 30.7826 146.674 28.9348 146.674 26.0109ZM148.561 26.0109C148.561 27.9689 149.487 29.147 151.035 29.147C152.575 29.147 153.526 27.9519 153.526 26.019C153.526 24.0951 152.565 22.8829 151.035 22.8829C149.497 22.8829 148.561 24.069 148.561 26.0109Z" fill="white"/>
<path d="M162.877 26.011C162.819 25.4044 162.889 24.7923 163.082 24.2141C163.275 23.6358 163.587 23.1042 163.998 22.6532C164.409 22.2023 164.91 21.8419 165.468 21.5954C166.027 21.3488 166.632 21.2214 167.243 21.2214C167.854 21.2214 168.458 21.3488 169.017 21.5954C169.576 21.8419 170.077 22.2023 170.488 22.6532C170.899 23.1042 171.211 23.6358 171.404 24.2141C171.597 24.7923 171.666 25.4044 171.608 26.011C171.668 26.6183 171.599 27.2312 171.406 27.8104C171.214 28.3895 170.902 28.9222 170.491 29.374C170.08 29.8259 169.579 30.1869 169.019 30.434C168.46 30.6811 167.855 30.8088 167.243 30.8088C166.631 30.8088 166.026 30.6811 165.466 30.434C164.907 30.1869 164.406 29.8259 163.995 29.374C163.583 28.9222 163.272 28.3895 163.079 27.8104C162.887 27.2312 162.818 26.6183 162.877 26.011ZM169.729 26.011C169.729 24.0101 168.828 22.8399 167.246 22.8399C165.658 22.8399 164.765 24.0101 164.765 26.011C164.765 28.028 165.658 29.1891 167.246 29.1891C168.828 29.1891 169.729 28.02 169.729 26.011Z" fill="white"/>
<path d="M174.06 21.3994H175.818V22.8659H175.955C176.186 22.3392 176.577 21.8977 177.072 21.6029C177.567 21.3081 178.142 21.1747 178.717 21.2212C179.168 21.1875 179.62 21.2552 180.04 21.4194C180.461 21.5836 180.839 21.8401 181.147 22.1698C181.455 22.4995 181.684 22.8941 181.818 23.3242C181.952 23.7543 181.987 24.209 181.921 24.6546V30.6303H180.094V25.1121C180.094 23.6286 179.448 22.8909 178.097 22.8909C177.791 22.8767 177.486 22.9286 177.202 23.043C176.918 23.1575 176.662 23.3318 176.453 23.554C176.243 23.7762 176.083 24.041 175.986 24.3303C175.888 24.6196 175.854 24.9266 175.886 25.2302V30.6304H174.06V21.3994Z" fill="white"/>
<path d="M192.244 19.1011V21.4414H194.25V22.9759H192.244V27.7225C192.244 28.6894 192.644 29.1128 193.553 29.1128C193.786 29.1121 194.019 29.0981 194.25 29.0708V30.5883C193.922 30.6468 193.589 30.6779 193.256 30.6814C191.224 30.6814 190.415 29.9687 190.415 28.1889V22.9758H188.946V21.4413H190.415V19.1011H192.244Z" fill="white"/>
<path d="M196.745 17.7959H198.556V22.8829H198.7C198.943 22.3513 199.345 21.9073 199.85 21.6113C200.355 21.3154 200.939 21.182 201.523 21.2293C201.971 21.2049 202.419 21.2795 202.835 21.4477C203.251 21.6159 203.624 21.8735 203.929 22.2022C204.233 22.5309 204.461 22.9226 204.596 23.3493C204.732 23.7759 204.771 24.2271 204.711 24.6706V30.6304H202.882V25.12C202.882 23.6456 202.194 22.8989 200.903 22.8989C200.589 22.8732 200.273 22.9162 199.977 23.025C199.682 23.1337 199.414 23.3056 199.192 23.5285C198.97 23.7514 198.799 24.02 198.692 24.3155C198.585 24.611 198.544 24.9262 198.572 25.2391V30.6304H196.745L196.745 17.7959Z" fill="white"/>
<path d="M215.363 28.1381C215.115 28.9817 214.577 29.7115 213.844 30.1997C213.111 30.6879 212.229 30.9035 211.352 30.8087C210.742 30.8247 210.136 30.7083 209.576 30.4673C209.016 30.2264 208.515 29.8668 208.108 29.4134C207.701 28.9601 207.398 28.4239 207.22 27.8421C207.042 27.2603 206.993 26.6467 207.076 26.0441C206.995 25.4395 207.045 24.8247 207.223 24.2411C207.4 23.6575 207.702 23.1188 208.107 22.6615C208.511 22.2042 209.01 21.839 209.568 21.5905C210.127 21.342 210.733 21.2161 211.344 21.2213C213.92 21.2213 215.474 22.9761 215.474 25.8748V26.5105H208.937V26.6126C208.908 26.9514 208.951 27.2924 209.062 27.6137C209.174 27.935 209.351 28.2296 209.583 28.4786C209.815 28.7276 210.097 28.9255 210.41 29.0595C210.724 29.1936 211.062 29.2609 211.402 29.2571C211.839 29.3094 212.282 29.231 212.674 29.0317C213.066 28.8324 213.39 28.5213 213.605 28.138L215.363 28.1381ZM208.937 25.1632H213.613C213.636 24.8534 213.593 24.5422 213.489 24.2496C213.384 23.957 213.219 23.6896 213.004 23.4644C212.79 23.2391 212.53 23.0612 212.243 22.9419C211.955 22.8227 211.646 22.7647 211.334 22.7719C211.018 22.7679 210.705 22.8271 210.412 22.9458C210.119 23.0646 209.853 23.2406 209.63 23.4635C209.407 23.6864 209.23 23.9516 209.111 24.2435C208.992 24.5354 208.933 24.8481 208.937 25.1632Z" fill="white"/>
</g>
<defs>
<clipPath id="clip0_53_2827">
<rect width="246" height="82" fill="white" transform="translate(0 0.5)"/>
</clipPath>
</defs>
</svg>
