<svg width="53" height="103" viewBox="0 0 53 103" fill="none" xmlns="http://www.w3.org/2000/svg">
<g clip-path="url(#clip0_115_20251)">
<path d="M35.1602 10.9592C41.289 17.0027 46.0035 23.8261 51.6609 30.2596C52.3681 31.2344 52.1323 32.4041 52.1323 33.3789C52.1323 53.6541 52.1323 73.9294 52.1323 94.2046C52.1323 100.248 49.0679 102.783 41.7605 102.783C31.3886 102.783 20.781 102.783 10.4091 102.783C3.10165 102.783 0.0372276 100.248 0.0372276 94.2046C0.0372276 73.9294 0.0372276 53.6541 0.0372276 33.3789C0.0372276 32.4041 -0.198497 31.2344 0.508677 30.2596C6.16606 23.8261 10.8806 17.0027 17.0094 10.9592C23.1382 10.9592 29.0313 10.9592 35.1602 10.9592ZM25.7312 44.6862C32.3315 44.6862 39.1675 44.6862 45.7678 44.6862C46.7107 44.6862 48.8322 45.0761 48.5965 43.9064C48.3608 39.4225 50.4823 34.7436 47.4179 30.6495C43.6463 25.5807 39.4032 20.7069 35.3959 15.833C34.453 14.4683 33.0387 14.0784 31.1529 13.8835C21.9596 12.7138 15.1236 14.6633 11.5877 22.2665C11.1163 23.2413 10.1734 24.216 9.46621 24.8009C3.57309 29.6748 2.6302 35.7183 3.33737 42.3468C3.5731 44.1014 4.04454 44.8812 6.40179 44.6862C12.7664 44.6862 19.1309 44.6862 25.7312 44.6862ZM26.4384 69.8353C19.8381 69.8353 13.0021 69.8353 6.40179 69.8353C4.04454 69.8353 3.10165 70.2252 3.10165 72.3697C3.33737 79.583 3.10165 86.9913 3.10165 94.2046C3.10165 98.2986 5.22317 99.8583 9.93766 99.8583C20.5453 99.8583 31.1529 99.8583 41.7605 99.8583C46.475 99.8583 48.5965 98.1037 48.5965 94.2046C48.5965 86.9913 48.5965 79.583 48.5965 72.3697C48.5965 70.2252 47.6536 69.8353 45.2963 69.8353C39.4032 69.8353 32.8029 69.8353 26.4384 69.8353Z" fill="white"/>
<path d="M17.0094 9.39955C15.8308 0.041748 15.8308 0.041748 26.6741 0.041748C35.6316 0.041748 35.6316 0.041748 35.3959 7.45001C35.3959 8.22982 35.1602 8.81468 35.1602 9.5945C29.0313 9.39955 23.1382 9.39955 17.0094 9.39955Z" fill="white"/>
<path d="M17.0094 9.39954C23.1382 9.39954 29.2671 9.39954 35.3959 9.39954C36.3388 9.98418 36.1031 10.3739 35.1602 10.9586C29.2671 10.9586 23.1382 10.9586 17.2451 10.9586C16.0665 10.5688 16.0665 9.98418 17.0094 9.39954Z" fill="#486B32"/>
<path d="M25.7312 44.6862C19.1309 44.6862 12.7663 44.6862 6.16605 44.6862C3.80881 44.6862 3.33736 44.1014 3.10164 42.3468C2.39446 35.9133 3.33736 29.6748 9.23047 24.8009C10.1734 24.0211 10.8805 23.0463 11.352 22.2665C14.8879 14.8582 21.9596 12.7138 30.9171 13.8835C32.8029 14.0784 33.9815 14.4683 35.1602 15.833C39.1675 20.7069 43.4105 25.5807 47.1821 30.6495C50.2465 34.7436 48.125 39.4225 48.3607 43.9064C48.3607 45.0761 46.4749 44.6862 45.532 44.6862C39.1675 44.6862 32.3315 44.6862 25.7312 44.6862ZM26.2026 41.372C31.6243 41.372 36.8102 41.372 42.2319 41.372C44.3534 41.372 45.532 40.9821 45.0606 39.0326C44.8249 38.0578 45.0606 37.083 45.0606 36.1082C45.0606 29.8697 41.289 26.7504 33.9815 26.7504C28.7956 26.7504 23.3739 27.1404 18.4237 26.5555C13.0021 25.9706 10.1734 28.1151 8.05185 31.6243C6.40178 33.9638 7.5804 36.4982 7.10895 39.0326C6.87323 40.9821 7.81613 41.372 9.93765 41.372C15.3593 41.1771 20.781 41.372 26.2026 41.372Z" fill="white"/>
<path d="M26.4384 69.8353C32.8029 69.8353 39.1675 69.8353 45.5321 69.8353C47.8893 69.8353 48.8322 70.2252 48.8322 72.3697C48.5965 79.583 48.8322 86.9913 48.8322 94.2046C48.8322 98.2986 46.7107 99.8583 41.9962 99.8583C31.3886 99.8583 20.781 99.8583 10.1734 99.8583C5.45889 99.8583 3.33737 98.1037 3.33737 94.2046C3.33737 86.9913 3.33737 79.583 3.33737 72.3697C3.33737 70.2252 4.28027 69.8353 6.63751 69.8353C13.2378 69.8353 19.8381 69.8353 26.4384 69.8353ZM25.7312 96.934C30.9171 96.934 36.1031 96.934 41.289 96.934C43.882 96.934 44.8249 96.1541 44.8249 94.0096C44.5892 87.9661 44.5892 81.7275 44.8249 75.684C44.8249 73.9294 44.3534 73.1495 41.9962 73.1495C31.1529 73.3445 20.5453 73.1495 9.70193 73.1495C7.34469 73.1495 6.63752 73.5395 6.87324 75.489C7.10896 81.7275 7.10896 87.9661 7.10896 94.0096C7.10896 96.1541 8.05186 97.1289 10.6448 96.934C15.595 96.934 20.781 96.934 25.7312 96.934Z" fill="white"/>
<path d="M26.2027 41.372C20.781 41.372 15.5951 41.372 10.1734 41.372C7.81615 41.372 6.63752 40.9821 7.10897 39.0326C7.58042 36.6931 6.4018 34.1587 8.05187 31.6243C10.4091 28.1152 13.0021 25.9707 18.4237 26.5555C23.6097 27.1404 28.7956 26.7505 33.9816 26.7505C41.289 26.7505 45.0606 29.8697 45.0606 36.1083C45.0606 37.083 44.8249 38.0578 45.0606 39.0326C45.2963 40.9821 44.3534 41.372 42.2319 41.372C36.8103 41.1771 31.3886 41.372 26.2027 41.372Z" fill="#486B32"/>
<path d="M25.7312 96.9339C20.5452 96.9339 15.595 96.9339 10.4091 96.9339C7.81613 96.9339 6.87323 96.1541 6.87323 94.0096C6.87323 87.966 7.10895 81.7275 6.87323 75.6839C6.87323 73.7344 7.5804 73.3445 9.70192 73.3445C20.5452 73.3445 31.1529 73.3445 41.9962 73.3445C44.3534 73.3445 44.8249 73.9294 44.8249 75.8789C44.5891 81.9225 44.5891 88.161 44.8249 94.2046C44.8249 96.3491 43.882 97.1289 41.289 97.1289C36.3388 96.9339 31.1529 96.9339 25.7312 96.9339Z" fill="#3C6F39"/>
</g>
<defs>
<clipPath id="clip0_115_20251">
<rect width="52.0951" height="102.741" fill="white" transform="translate(0.0372314 0.041748)"/>
</clipPath>
</defs>
</svg>
