<svg width="226" height="136" viewBox="0 0 226 136" fill="none" xmlns="http://www.w3.org/2000/svg">
<path d="M115.679 108.095C117.953 103.097 117.953 103.097 113.594 100.021C103.738 92.716 97.8628 82.9117 95.2094 70.9927C91.7978 55.229 92.935 39.8497 100.706 25.4316C107.339 13.3204 117.763 6.01523 130.841 3.13162C147.52 -0.520965 162.682 2.74714 175.759 14.4738C177.655 16.204 179.171 18.1264 180.877 20.0488C181.445 20.8178 181.445 21.3945 180.877 22.1635C171.211 33.5057 165.335 46.9626 161.545 61.1884C156.427 80.797 144.487 93.8694 127.05 102.905C123.449 104.827 119.848 106.942 115.679 108.095C115.868 108.288 115.868 108.288 115.679 108.095ZM117.384 86.372C117.953 85.7953 117.763 85.0264 117.763 84.4496C118.711 76.1833 120.796 68.1091 124.776 60.6117C132.736 45.8092 145.435 37.9273 161.355 34.6592C164.577 33.8902 167.989 33.3135 171.211 32.16C172.348 31.7756 172.537 31.3911 171.779 30.4299C170.642 28.8919 169.694 27.1618 168.557 25.6238C160.028 15.6273 149.225 11.9747 136.716 14.2816C124.776 16.3963 115.679 22.548 111.13 34.4669C105.823 48.5005 106.202 62.7264 111.509 76.76C112.836 80.2203 114.731 83.4884 117.384 86.372Z" fill="#71BF44"/>
<path d="M0.0655518 57.1515C0.0655518 44.4636 1.96085 35.236 5.94097 26.3929C12.9536 11.3981 25.0834 3.32398 40.8144 1.01709C51.428 -0.520839 61.8522 0.632607 71.1391 6.2076C80.047 11.5904 85.3538 19.6645 88.5758 29.4688C88.9549 30.6222 88.5758 31.0067 87.6282 31.1989C84.0271 31.9679 80.4261 32.9291 77.0145 33.6981C75.6878 34.0826 75.4983 33.3136 75.1192 32.5446C74.1716 29.661 72.8449 26.9696 71.3286 24.4705C66.9695 17.3576 60.715 13.705 52.7547 12.7438C43.2783 11.5904 34.5599 13.1283 26.9787 19.4722C21.1033 24.4705 17.8813 31.1989 15.986 38.5041C12.764 52.1532 13.1431 65.4179 19.0185 78.4903C24.7044 90.9859 34.939 96.7532 48.0165 96.7532C60.5255 96.7532 70.9496 88.4868 75.4983 75.7989C76.0669 74.4532 76.4459 72.9153 76.825 71.3773C77.0145 70.4161 77.3936 70.0317 78.5308 70.2239C82.1318 71.1851 85.7329 72.1463 89.3339 72.9153C90.4711 73.1075 90.8502 73.492 90.4711 74.6454C86.3015 92.1394 69.6229 106.75 51.9966 108.672C38.54 110.018 26.5997 106.365 16.5546 97.3299C8.97344 90.6015 4.80379 81.7584 2.33991 71.9541C0.82367 66.1868 0.0655518 60.2274 0.0655518 57.1515Z" fill="#71BF44"/>
<path d="M111.13 116.362C115.868 114.055 120.417 112.132 124.776 109.825C131.599 106.365 138.043 102.52 144.108 97.9065C154.153 90.2168 160.787 80.028 164.577 68.1091C167.041 60.2272 169.315 52.1531 172.727 44.6557C175.759 37.9272 179.74 31.5833 184.478 25.816C186.373 23.7014 187.51 21.01 189.216 18.7031C190.543 16.7807 190.543 16.7807 191.68 18.8954C196.987 28.3152 199.451 38.504 198.882 49.2695C197.555 70.6082 188.647 87.9099 171.211 100.213C161.924 106.75 151.689 109.825 140.317 109.249C134.252 108.864 128.756 110.402 123.449 113.094C120.796 114.439 117.953 115.785 115.3 117.131C113.594 117.707 113.215 117.707 111.13 116.362Z" fill="#3C6F39"/>
<path d="M205.895 135.394C200.209 135.394 194.523 135.394 188.837 135.394C187.131 135.394 186.942 134.817 187.131 133.279C187.889 129.242 189.785 125.782 192.438 122.706C196.418 117.9 201.535 114.055 206.274 110.21C208.927 108.095 211.58 105.789 213.665 102.905C216.508 98.8678 216.887 95.023 214.613 91.5627C212.149 87.7178 206.653 85.6032 202.294 86.7566C197.745 87.9101 194.523 91.1782 194.144 95.5997C193.954 97.5221 193.386 98.0989 191.49 97.9066C185.804 97.1377 185.994 98.4833 187.889 91.9471C190.732 82.7196 200.588 78.1058 210.443 81.1816C215.75 82.9118 220.109 85.9877 222.384 91.3704C224.279 95.9842 223.331 100.214 220.867 104.058C217.266 109.826 211.96 114.055 206.653 118.476C203.62 120.976 200.398 123.667 198.124 126.935C197.934 127.32 197.366 127.704 197.555 128.088C197.745 128.665 198.503 128.473 199.072 128.473C207.032 128.473 214.803 128.473 222.763 128.473C224.469 128.473 225.227 128.665 225.037 130.78C224.848 135.394 225.037 135.394 220.299 135.394C215.561 135.394 210.633 135.394 205.895 135.394Z" fill="#3C6F39"/>
<path d="M115.868 108.288C115.679 108.288 115.679 108.48 115.489 108.48C115.489 108.48 115.679 108.288 115.868 108.288Z" fill="#A6CB3D"/>
<path d="M117.384 86.372C114.731 83.4884 112.836 80.2203 111.319 76.76C106.013 62.7264 105.634 48.6928 110.94 34.4669C115.489 22.7402 124.586 16.3963 136.527 14.2816C149.036 11.9747 159.839 15.8195 168.368 25.6238C169.695 27.1618 170.642 28.8919 171.59 30.4299C172.158 31.3911 171.969 31.7756 171.021 32.16C167.799 33.3135 164.577 33.8902 161.166 34.6592C145.435 38.1195 132.547 46.0014 124.586 60.6117C120.606 68.1091 118.522 75.991 117.574 84.4496C117.763 85.0264 117.953 85.7953 117.384 86.372Z" fill="#FEFEFC"/>
</svg>
