<svg width="162" height="179" viewBox="0 0 162 179" fill="none" xmlns="http://www.w3.org/2000/svg">
<path d="M81.8485 175.875C81.8355 175.934 82.4884 176.149 83.5884 176.243C84.6854 176.34 86.2345 176.264 87.8635 175.802C89.4915 175.334 90.8474 174.581 91.7274 173.92C92.6124 173.259 93.0534 172.733 93.0114 172.689C92.9124 172.552 90.8894 174.419 87.7194 175.299C84.5654 176.225 81.8605 175.706 81.8485 175.875Z" fill="#455A64"/>
<path d="M13.9598 84.8349L54.8206 91.0284L75.0963 75.065L94.4719 92.6433L65.1127 110.33C60.9198 112.856 55.8158 113.37 51.2025 111.732L9.9101 97.0622L13.9598 84.8349Z" fill="#FFBE9D"/>
<path d="M86.6965 63.7595L61.1355 83.3675L79.0575 106.968L100.914 94.5615L86.6965 63.7595Z" fill="#71BF44"/>
<path d="M86.6965 63.7595C90.3955 61.4825 103.193 58.6765 103.193 58.6765L127.93 55.9875L149.385 65.8395L140.567 102.772L148.287 172.399L74.6355 176.411L86.6965 63.7595Z" fill="#71BF44"/>
<path d="M128.742 94.6515H116.057V98.0735H128.742V94.6515Z" fill="#FAFAFA"/>
<path d="M128.768 98.0985H116.031V94.6265H128.768V98.0985ZM116.083 98.0495H128.718V94.6775H116.083V98.0495Z" fill="#263238"/>
<path d="M83.6165 85.1315C83.4725 85.1345 83.3095 82.5955 83.2535 79.4615C83.1965 76.3265 83.2665 73.7845 83.4105 73.7815C83.5545 73.7785 83.7165 76.3175 83.7735 79.4515C83.8305 82.5855 83.7605 85.1285 83.6165 85.1315Z" fill="#263238"/>
<path d="M130.019 22.0995L127.312 60.4455C126.87 66.7065 121.662 71.5595 115.386 71.5595C108.476 71.5595 103.002 65.7165 103.456 58.8215C103.696 55.1715 103.913 52.1825 103.913 52.1825C103.913 52.1825 94.6296 50.7395 94.5146 41.4575C94.4486 36.0965 95.3736 23.9315 96.1656 14.6125C96.7016 8.3125 101.976 3.47549 108.299 3.47549H113.906C123.563 4.04049 130.85 12.4625 130.019 22.0995Z" fill="#FFBE9D"/>
<path d="M103.898 52.0495C103.898 52.0495 109.763 52.5265 115.997 48.6105C115.997 48.6105 113.137 55.2905 103.875 54.4545L103.898 52.0495Z" fill="#EB996E"/>
<path d="M98.0555 26.3425C98.0305 27.0425 98.6035 27.6405 99.3335 27.6795C100.062 27.7185 100.675 27.1845 100.7 26.4845C100.725 25.7845 100.152 25.1855 99.4225 25.1465C98.6925 25.1075 98.0805 25.6425 98.0555 26.3425Z" fill="#263238"/>
<path d="M97.7665 23.9205C97.9305 24.0935 98.9345 23.3505 100.362 23.3545C101.787 23.3375 102.833 24.0715 102.988 23.8965C103.064 23.8195 102.897 23.5075 102.441 23.1755C101.992 22.8455 101.227 22.5235 100.339 22.5275C99.4505 22.5325 98.7025 22.8595 98.2735 23.1945C97.8335 23.5305 97.6855 23.8435 97.7665 23.9205Z" fill="#263238"/>
<path d="M111.767 26.3425C111.742 27.0425 112.315 27.6405 113.045 27.6795C113.774 27.7185 114.386 27.1845 114.411 26.4845C114.436 25.7845 113.863 25.1855 113.134 25.1465C112.404 25.1075 111.791 25.6425 111.767 26.3425Z" fill="#263238"/>
<path d="M111.787 24.1865C111.952 24.3595 112.957 23.6165 114.382 23.6205C115.806 23.6035 116.853 24.3375 117.008 24.1625C117.084 24.0855 116.918 23.7735 116.46 23.4415C116.011 23.1105 115.246 22.7895 114.358 22.7935C113.469 22.7985 112.722 23.1255 112.292 23.4605C111.856 23.7965 111.706 24.1095 111.787 24.1865Z" fill="#263238"/>
<path d="M106.743 34.4115C106.75 34.3305 105.863 34.1775 104.426 33.9935C104.062 33.9555 103.717 33.8835 103.656 33.6345C103.57 33.3715 103.723 32.9785 103.899 32.5555C104.242 31.6745 104.6 30.7505 104.976 29.7825C106.472 25.8335 107.554 22.5865 107.395 22.5275C107.235 22.4685 105.893 25.6215 104.398 29.5705C104.038 30.5445 103.694 31.4725 103.366 32.3605C103.228 32.7745 102.991 33.2435 103.177 33.7895C103.275 34.0615 103.542 34.2595 103.776 34.3225C104.009 34.3935 104.214 34.3975 104.394 34.4085C105.841 34.4865 106.738 34.4935 106.743 34.4115Z" fill="#263238"/>
<path d="M111.418 19.2395C111.559 19.6275 112.983 19.4435 114.656 19.6455C116.334 19.8135 117.683 20.3035 117.905 19.9555C118.004 19.7895 117.768 19.4245 117.222 19.0485C116.681 18.6735 115.819 18.3175 114.815 18.2055C113.81 18.0955 112.891 18.2555 112.281 18.5035C111.667 18.7505 111.358 19.0555 111.418 19.2395Z" fill="#263238"/>
<path d="M97.7815 21.1215C98.0325 21.4455 99.0145 21.1095 100.197 21.0935C101.378 21.0365 102.379 21.3115 102.609 20.9725C102.71 20.8085 102.553 20.4835 102.115 20.1765C101.684 19.8705 100.964 19.6215 100.152 19.6455C99.3395 19.6715 98.6356 19.9645 98.2256 20.2965C97.8086 20.6295 97.6705 20.9635 97.7815 21.1215Z" fill="#263238"/>
<path d="M126.89 29.0665C127.048 28.9975 133.267 27.1805 133.065 33.5255C132.862 39.8705 126.534 38.3585 126.528 38.1765C126.523 37.9945 126.89 29.0665 126.89 29.0665Z" fill="#FFBE9D"/>
<path d="M128.543 35.8345C128.572 35.8155 128.651 35.9155 128.835 36.0075C129.014 36.0965 129.326 36.1645 129.661 36.0505C130.339 35.8255 130.938 34.7795 131.005 33.6375C131.04 33.0605 130.936 32.5065 130.746 32.0445C130.567 31.5735 130.277 31.2405 129.942 31.1695C129.609 31.0805 129.363 31.2755 129.28 31.4515C129.189 31.6265 129.226 31.7545 129.192 31.7645C129.174 31.7795 129.059 31.6535 129.119 31.3935C129.149 31.2685 129.228 31.1215 129.381 31.0035C129.537 30.8845 129.763 30.8285 129.998 30.8615C130.486 30.9105 130.912 31.3755 131.121 31.8825C131.357 32.3925 131.486 33.0155 131.448 33.6635C131.366 34.9405 130.674 36.1165 129.748 36.3525C129.298 36.4545 128.93 36.3085 128.742 36.1525C128.55 35.9885 128.521 35.8455 128.543 35.8345Z" fill="#EB996E"/>
<path d="M130.42 28.8515C129.452 28.6175 127.778 29.5105 127.365 30.4165C126.952 31.3225 126.861 32.3495 126.45 33.2565C126.039 34.1635 125.109 34.9835 124.14 34.7535C123.472 34.5955 122.994 33.9695 122.818 33.3055C122.642 32.6415 122.713 31.9405 122.799 31.2585C123.173 28.2945 123.796 25.3565 123.915 22.3715C124.034 19.3875 123.609 16.2865 122.042 13.7435C120.475 11.2005 117.596 9.33149 114.619 9.57049C112.647 9.72949 110.838 10.7575 108.879 11.0325C106.556 11.3575 104.1 10.5385 102.438 8.88248C102.225 8.67048 101.234 8.01749 101.234 8.01749C101.234 7.86349 101.379 6.53848 101.902 6.05548C105.789 2.46048 112.793 1.45748 117.927 2.74948C123.061 4.04148 127.874 7.66649 130.083 12.4775C132.293 17.2905 131.637 23.9825 130.42 28.8515Z" fill="#263238"/>
<path d="M96.0635 13.1805C96.0635 13.1805 120.413 5.34648 130.946 26.4135C130.946 26.4135 132.521 21.1415 132.521 18.3155C132.521 16.4285 131.392 5.18747 119.826 1.65147C119.826 1.65147 102.4 -4.99953 96.0635 13.1805Z" fill="#71BF44"/>
<path d="M116.985 13.7065C116.125 15.0965 114.589 16.0465 112.961 16.1945C111.333 16.3425 109.652 15.6855 108.555 14.4735C108.074 15.6735 106.783 16.4975 105.492 16.4305C104.201 16.3625 103.004 15.4085 102.651 14.1645C101.944 14.8505 101.208 15.5555 100.282 15.8945C99.3575 16.2335 98.1845 16.1055 97.5775 15.3295C96.9585 14.5395 97.1385 13.3355 97.7455 12.5365C98.3525 11.7375 99.2875 11.2615 100.214 10.8745C103.106 9.66646 106.295 9.06046 109.401 9.48146C112.507 9.90246 115.517 11.4085 117.458 13.8685" fill="#263238"/>
<g opacity="0.4">
<path d="M96.0635 13.1805C96.0635 13.1805 98.8345 9.88447 103.807 9.66447C110.989 9.34747 124.433 13.3855 130.946 26.4135C130.946 26.4135 132.521 21.1415 132.521 18.3155C132.521 16.4285 131.392 5.18747 119.826 1.65147C119.826 1.65147 102.4 -4.99953 96.0635 13.1805Z" fill="white"/>
</g>
<path d="M129.93 23.9465C126.319 18.4225 121.341 13.8555 115.744 10.3585C110.147 6.86147 100.891 3.40348 94.5125 1.71048C92.5975 1.20248 90.6015 0.757474 88.6485 1.09547C86.6965 1.43247 84.7855 2.73248 84.3005 4.65348C83.6935 7.05848 87.9615 10.7695 89.9675 12.2285C91.9735 13.6875 96.0645 15.8285 96.0645 15.8285C96.0645 15.8285 96.0095 11.3685 103.149 10.4485C112.858 9.19748 129.93 23.9465 129.93 23.9465Z" fill="#71BF44"/>
<path d="M109.959 5.75149C109.959 5.75149 106.45 3.81048 102.927 3.35848C103.651 2.82848 104.038 2.57349 104.839 2.21149C106.642 2.56949 108.468 3.02748 110.318 4.05448L109.959 5.75149Z" fill="#E0E0E0"/>
<path d="M128.536 29.2885C128.554 29.3535 128.036 29.6625 127.222 30.2755C126.204 31.0205 125.164 31.7815 124.025 32.6145C121.519 34.4365 119.451 35.8665 119.363 35.7515C119.277 35.6375 121.207 34.0205 123.719 32.1935C126.21 30.3515 128.43 29.0775 128.536 29.2885Z" fill="#EBEBEB"/>
<path d="M129.187 38.5435C129.296 38.6145 127.867 40.7535 125.461 42.7825C123.067 44.8255 120.725 45.8875 120.672 45.7685C120.596 45.6305 122.782 44.3855 125.124 42.3855C127.479 40.4005 129.064 38.4455 129.187 38.5435Z" fill="#EBEBEB"/>
<path d="M94.2895 35.4735C94.2895 35.4735 96.8015 36.1905 97.4615 36.1545C102.056 35.9065 103.673 34.3545 111.179 35.9565C112.39 36.2145 113.64 36.2485 114.865 36.0705C115.963 35.9105 117.522 35.7515 119.363 35.7515L120.808 45.7805C120.808 45.7805 111.901 53.5715 103.876 52.6985C93.5035 51.5685 92.2755 39.4655 94.2895 35.4735Z" fill="#FAFAFA"/>
<path d="M94.2894 35.4735C94.2894 35.4735 94.1964 35.7375 94.0164 36.2065C93.8624 36.6885 93.6894 37.4255 93.5864 38.3895C93.4384 40.2985 93.5544 43.2165 95.0354 46.3655C95.7964 47.9105 96.9484 49.4835 98.6094 50.6535C100.257 51.8375 102.397 52.5175 104.669 52.6355C106.949 52.7235 109.345 52.1955 111.645 51.2485C113.955 50.3135 116.215 49.0335 118.379 47.5135C119.195 46.9315 119.993 46.3335 120.738 45.7015L120.704 45.7945C120.199 42.2785 119.715 38.9065 119.264 35.7655L119.361 35.8495C117.511 35.8305 115.756 36.0435 114.054 36.2485C113.197 36.3065 112.354 36.2575 111.549 36.1165C110.745 35.9695 109.984 35.7875 109.225 35.6765C107.717 35.4265 106.281 35.2985 104.948 35.3205C103.614 35.3325 102.394 35.5325 101.291 35.7165C100.189 35.9085 99.1944 36.0635 98.3194 36.1385C97.8824 36.1565 97.4764 36.2325 97.0964 36.1705C96.7244 36.1165 96.3934 36.0405 96.0964 35.9715C94.9124 35.6845 94.2894 35.4735 94.2894 35.4735C94.2844 35.3055 96.8344 36.7595 101.271 35.5965C102.373 35.4045 103.6 35.1955 104.945 35.1755C106.289 35.1455 107.736 35.2675 109.252 35.5125C110.011 35.6195 110.788 35.8015 111.579 35.9435C112.371 36.0795 113.2 36.1245 114.042 36.0655C115.717 35.8585 117.509 35.6375 119.362 35.6535L119.447 35.6545L119.459 35.7375C119.913 38.8785 120.402 42.2495 120.91 45.7645L120.918 45.8215L120.875 45.8575C120.12 46.4995 119.321 47.0975 118.499 47.6835C116.324 49.2105 114.05 50.4975 111.72 51.4375C109.402 52.3885 106.977 52.9215 104.66 52.8265C102.353 52.7015 100.181 52.0045 98.5084 50.7935C96.8234 49.5965 95.6624 47.9945 94.9014 46.4285C93.4214 43.2365 93.3314 40.2995 93.5044 38.3805C93.6204 37.4105 93.8064 36.6755 93.9764 36.1885C94.1814 35.7085 94.2894 35.4735 94.2894 35.4735Z" fill="#263238"/>
<path d="M95.1245 41.3235C102.034 44.7655 110.62 44.6075 117.398 40.9125C116.012 42.5485 114.573 44.2275 112.662 45.1995C110.468 46.3155 107.905 46.3735 105.443 46.3695C103.482 46.3665 101.444 46.3215 99.6875 45.4495C97.8845 44.5545 96.5995 42.8995 95.3785 41.2995" fill="#E0E0E0"/>
<path d="M116.337 38.7945C116.352 38.8565 115.265 39.1935 113.462 39.5525C111.661 39.9125 109.137 40.2615 106.331 40.3635C103.524 40.4605 100.981 40.2905 99.1594 40.0585C97.3354 39.8275 96.2285 39.5685 96.2385 39.5055C96.2505 39.4265 97.3764 39.5565 99.1954 39.6925C101.014 39.8295 103.533 39.9395 106.312 39.8435C109.091 39.7435 111.595 39.4555 113.4 39.1905C115.206 38.9255 116.319 38.7165 116.337 38.7945Z" fill="#E0E0E0"/>
<path d="M118.06 42.9665C118.103 43.0035 117.449 43.8675 116.094 44.9615C114.751 46.0545 112.646 47.3245 110.07 48.0365C107.494 48.7505 105.036 48.7445 103.322 48.4975C101.597 48.2555 100.593 47.8505 100.611 47.7965C100.633 47.7125 101.665 47.9875 103.363 48.1305C105.054 48.2795 107.435 48.2265 109.932 47.5335C112.429 46.8435 114.498 45.6645 115.872 44.6675C117.255 43.6725 117.998 42.9055 118.06 42.9665Z" fill="#E0E0E0"/>
<path d="M118.215 40.6615C118.232 40.6935 117.947 40.8735 117.414 41.1745C116.886 41.4845 116.083 41.8635 115.063 42.2635C114.045 42.6715 112.79 43.0485 111.372 43.3575C109.949 43.6425 108.36 43.8455 106.683 43.8805C105.005 43.8985 103.41 43.7455 101.979 43.5065C100.551 43.2425 99.2854 42.9065 98.2555 42.5305C97.2235 42.1625 96.4085 41.8095 95.8715 41.5165C95.3295 41.2325 95.0394 41.0605 95.0554 41.0285C95.0964 40.9415 96.3064 41.5425 98.3704 42.1805C99.4004 42.5065 100.653 42.7995 102.058 43.0335C103.467 43.2425 105.031 43.3775 106.675 43.3605C108.319 43.3255 109.877 43.1405 111.279 42.8875C112.676 42.6095 113.92 42.2765 114.938 41.9185C116.981 41.2155 118.171 40.5765 118.215 40.6615Z" fill="#263238"/>
<path d="M110.762 40.6735C110.783 40.8045 108.124 41.2635 104.815 41.1215C101.504 40.9935 98.8935 40.3205 98.9245 40.1915C98.9535 40.0395 101.575 40.4755 104.836 40.6015C108.097 40.7415 110.746 40.5205 110.762 40.6735Z" fill="#263238"/>
<path d="M0.336426 165.347V84.2565H113.132V165.347L53.3524 165.851L0.336426 165.347Z" fill="#71BF44"/>
<g opacity="0.4">
<path d="M113.131 84.2565H0.336426V165.347H113.131V84.2565Z" fill="white"/>
</g>
<path d="M53.3524 165.851L0.336426 165.347V84.2565H53.1785L53.3524 165.851Z" fill="#71BF44"/>
<path d="M28.9185 84.2565H21.8845V98.3245H28.9185V84.2565Z" fill="#263238"/>
<path d="M18.1005 147.451H4.09949V161.452H18.1005V147.451Z" fill="#FAFAFA"/>
<path d="M18.1255 161.477H4.07349V147.426H18.1255V161.477ZM4.12451 161.427H18.0745V147.476H4.12451V161.427Z" fill="#263238"/>
<path d="M139.531 102.872L141.862 121.747L106.865 142.52L112.305 154.492L152.083 138.422C156.908 135.979 161.033 132.357 160.692 126.933L158.774 100.531L139.531 102.872Z" fill="#FFBE9D"/>
<path d="M149.384 65.8385C149.384 65.8385 154.363 69.5265 155.771 77.2065C157.112 84.5195 161.663 104.953 161.663 104.953L137.68 107.792C137.68 107.792 137.696 102.181 137.694 102.177C137.654 102.097 135.461 91.6405 135.461 91.6405L139.932 77.2065L149.384 65.8385Z" fill="#71BF44"/>
<path d="M160.712 105.043C160.716 105.079 160.133 105.183 159.073 105.341C157.924 105.5 156.409 105.708 154.581 105.961C150.786 106.462 145.539 107.117 139.74 107.81C139.045 107.893 138.359 107.974 137.712 108.051L137.443 108.083L137.423 107.812C137.024 102.462 136.582 97.7055 136.256 94.2885C136.099 92.6465 135.969 91.2915 135.87 90.2565C135.782 89.3085 135.749 88.7855 135.782 88.7805C135.815 88.7765 135.913 89.2915 136.06 90.2335C136.205 91.1755 136.393 92.5455 136.604 94.2505C137.023 97.6615 137.525 102.414 137.938 107.775L137.649 107.536C138.296 107.458 138.984 107.376 139.679 107.293C145.478 106.601 150.731 106.003 154.537 105.596C156.374 105.411 157.895 105.257 159.049 105.141C160.116 105.044 160.708 105.007 160.712 105.043Z" fill="#263238"/>
<path d="M147.423 67.1545C147.457 67.2375 146.552 67.6125 145.221 68.4305C143.89 69.2425 142.166 70.5675 140.627 72.3815C139.095 74.2025 138.077 76.1235 137.498 77.5715C136.914 79.0205 136.696 79.9745 136.608 79.9555C136.555 79.9475 136.646 78.9585 137.153 77.4425C137.654 75.9315 138.652 73.9195 140.229 72.0455C141.813 70.1785 143.63 68.8585 145.036 68.1125C146.446 67.3575 147.406 67.1035 147.423 67.1545Z" fill="#263238"/>
<path d="M106.321 141.464L101.182 143.819L98.9765 142.967L87.7605 142.266L80.7365 143.819L80.5355 144.22C80.5355 148.028 87.7515 146.525 89.9565 147.126C92.1615 147.727 90.1565 152.437 90.1565 152.437C90.1565 152.437 80.2345 165.365 78.5065 168.472C77.6425 170.025 77.9235 170.877 78.4215 171.341C78.9315 171.816 79.7275 171.813 80.2965 171.41L83.9595 168.817C83.9595 168.817 94.0365 169.403 94.7285 169.061C95.7255 168.568 97.1715 166.468 97.1715 166.468C102.329 161.645 107.632 157.634 113.131 154.696L106.321 141.464Z" fill="#FAFAFA"/>
<path d="M106.321 141.464C106.324 141.456 106.366 141.527 106.447 141.671C106.54 141.841 106.658 142.057 106.805 142.326C107.134 142.944 107.593 143.805 108.179 144.904C109.392 147.212 111.126 150.513 113.283 154.62L113.361 154.768L113.212 154.848C108.409 157.428 102.893 161.4 97.3334 166.641L97.3665 166.603C96.6975 167.511 96.0434 168.446 95.0204 169.175C94.8964 169.266 94.7114 169.327 94.5184 169.358L94.0634 169.394L93.1714 169.413C92.5764 169.418 91.9794 169.406 91.3774 169.392C88.9694 169.332 86.4874 169.213 83.9464 169.074L84.1085 169.028C83.3235 169.585 82.5304 170.146 81.7314 170.713L80.5275 171.566C80.1035 171.902 79.4705 172.068 78.9055 171.902C78.3275 171.746 77.8755 171.248 77.7435 170.673C77.6155 170.095 77.7514 169.534 77.9464 169.045C78.3604 168.053 78.9734 167.247 79.5344 166.386C83.0194 161.363 86.6024 156.691 89.9584 152.288L89.9274 152.342C90.2014 151.665 90.4314 150.956 90.5814 150.253C90.7214 149.556 90.8275 148.821 90.6555 148.194C90.5835 147.872 90.3914 147.638 90.1574 147.477C89.9074 147.347 89.5644 147.281 89.2224 147.255C88.5364 147.189 87.8314 147.195 87.1364 147.191C85.7464 147.185 84.3655 147.181 83.0275 146.904C82.3715 146.736 81.6894 146.551 81.1494 146.076C80.5964 145.614 80.3375 144.897 80.3195 144.222L80.3184 144.173L80.3425 144.125C80.4135 143.985 80.4785 143.855 80.5435 143.725L80.5894 143.633L80.6884 143.611C83.2054 143.064 85.5435 142.555 87.7175 142.083L87.7444 142.077L87.7704 142.079C92.2494 142.384 96.0104 142.64 98.9814 142.842L99.0024 142.843L99.0204 142.85C99.8834 143.192 100.577 143.466 101.218 143.719L101.134 143.722C102.802 142.986 104.098 142.415 105.01 142.013C105.421 141.836 105.746 141.697 105.994 141.591C106.215 141.498 106.324 141.455 106.321 141.464C106.318 141.473 106.202 141.534 105.98 141.644C105.732 141.765 105.408 141.923 104.996 142.123C104.109 142.545 102.849 143.145 101.227 143.918L101.187 143.937L101.143 143.92C100.499 143.677 99.8004 143.413 98.9324 143.086L98.9705 143.094C95.9965 142.924 92.2325 142.71 87.7515 142.455L87.8044 142.451C85.6334 142.939 83.2995 143.463 80.7855 144.028L80.9304 143.915C80.8654 144.045 80.8014 144.176 80.7314 144.316L80.7545 144.22C80.7825 144.801 80.9855 145.357 81.4395 145.738C81.8825 146.132 82.5124 146.308 83.1274 146.461C84.3944 146.717 85.7535 146.72 87.1425 146.719C87.8385 146.721 88.5444 146.71 89.2744 146.777C89.6374 146.809 90.0144 146.857 90.4064 147.059C90.7684 147.288 91.0394 147.667 91.1274 148.06C91.3364 148.846 91.2084 149.613 91.0674 150.354C90.9094 151.098 90.6804 151.816 90.3904 152.536L90.3795 152.563L90.3585 152.591C87.0185 156.996 83.4375 161.68 79.9705 166.678C79.4165 167.522 78.7964 168.358 78.4344 169.236C78.2554 169.674 78.1604 170.144 78.2534 170.553C78.3454 170.954 78.6604 171.299 79.0504 171.403C79.4494 171.513 79.8835 171.418 80.2335 171.143L81.4384 170.291C82.2384 169.726 83.0314 169.165 83.8174 168.61L83.8904 168.558L83.9794 168.563C86.5134 168.706 88.9955 168.83 91.3925 168.897C91.9915 168.912 92.5864 168.926 93.1724 168.923L94.0435 168.908L94.4605 168.877C94.5565 168.859 94.6525 168.848 94.7675 168.765C95.6445 168.152 96.3474 167.202 96.9824 166.337L97.0004 166.313L97.0164 166.298C102.621 161.057 108.197 157.096 113.055 154.548L112.984 154.776C110.915 150.671 109.252 147.372 108.089 145.064C107.528 143.935 107.088 143.05 106.773 142.415C106.634 142.128 106.523 141.899 106.434 141.717C106.356 141.558 106.318 141.472 106.321 141.464Z" fill="#263238"/>
<path d="M93.4584 160.093C93.5474 160.199 91.4374 162.164 88.8254 164.581C87.5164 165.787 86.3224 166.869 85.4444 167.638C84.5664 168.408 84.0044 168.862 83.9624 168.819C83.8454 168.703 85.8514 166.615 88.4734 164.198C91.0894 161.776 93.3634 159.979 93.4584 160.093Z" fill="#263238"/>
<path d="M96.5095 162.594C96.6295 162.688 95.3865 164.336 93.5965 166.114C91.8205 167.904 90.2464 169.213 90.1494 169.108C90.0504 169.002 91.4595 167.529 93.2265 165.747C95.0075 163.978 96.4025 162.51 96.5095 162.594Z" fill="#263238"/>
</svg>
