<svg width="62" height="109" viewBox="0 0 62 109" fill="none" xmlns="http://www.w3.org/2000/svg">
<path d="M55.4252 0.237C57.2651 0.856355 59.0029 1.57894 60.2295 3.33378C61.1495 4.57248 61.7628 6.01765 61.8651 7.56603C61.8651 7.87571 61.8651 8.28862 61.8651 8.59829C61.8651 39.2564 61.8651 69.8112 61.8651 100.469C61.8651 103.979 60.434 106.56 57.3674 108.108C56.3451 108.624 55.2207 108.831 53.9941 108.831C38.8654 108.831 23.839 108.831 8.71034 108.831C4.21264 108.831 0.941576 105.321 0.839355 100.779C0.941576 90.0435 0.941576 79.308 0.941576 68.5725C0.941576 48.7531 1.0438 29.037 0.941576 9.21765C0.941576 4.88216 3.19043 1.26926 7.4837 0.340225C7.4837 0.340225 7.4837 0.237 7.58592 0.237C23.4301 0.237 39.4787 0.237 55.4252 0.237ZM56.0385 48.7532C56.0385 37.3983 56.0385 26.0435 56.0385 14.6886C56.0385 13.7596 55.834 13.5531 54.9141 13.6564C39.2743 13.6564 23.5323 13.6564 7.89258 13.6564C6.97259 13.6564 6.76815 13.8628 6.76815 14.7918C6.76815 37.5015 6.76815 60.108 6.76815 82.8177C6.76815 83.6435 6.97259 83.9532 7.89258 83.9532C23.5323 83.9532 39.2743 83.9532 54.9141 83.9532C55.834 83.9532 56.0385 83.7467 55.9363 82.8177C56.0385 71.3596 56.0385 60.0048 56.0385 48.7532ZM31.6078 5.08861C28.03 5.08861 24.4523 5.08861 20.8746 5.08861C19.7502 5.08861 19.3413 5.70797 19.3413 6.94668C19.3413 8.18539 19.8524 8.80474 20.8746 8.80474C27.9278 8.80474 34.981 8.80474 42.0343 8.80474C43.1587 8.80474 43.6698 8.18539 43.5676 6.94668C43.5676 5.91442 43.2609 5.08861 42.0343 5.08861C38.5588 5.19184 35.0833 5.08861 31.6078 5.08861ZM31.4033 101.089C34.1633 101.089 36.4121 98.8177 36.4121 96.0306C36.4121 93.2435 34.1633 91.0757 31.5055 91.0757C28.7456 91.0757 26.4967 93.3467 26.4967 96.1338C26.4967 98.8177 28.7456 100.985 31.4033 101.089Z" fill="#83BC57"/>
<path d="M56.0385 48.7532C56.0385 60.108 56.0385 71.3596 56.0385 82.7145C56.0385 83.5403 55.834 83.85 55.0163 83.85C39.3765 83.85 23.6345 83.85 7.99479 83.85C7.0748 83.85 6.87036 83.6435 6.87036 82.7145C6.87036 60.0048 6.87036 37.3983 6.87036 14.6886C6.87036 13.7596 7.0748 13.5532 7.99479 13.5532C23.6345 13.5532 39.3765 13.5532 55.0163 13.5532C55.834 13.5532 56.1407 13.7596 56.1407 14.5854C56.0385 26.0435 56.0385 37.3983 56.0385 48.7532Z" fill="#FEFEFE"/>
<path d="M31.4033 101.089C28.7456 101.089 26.4968 98.8177 26.3945 96.1338C26.3945 93.3467 28.6434 91.0757 31.4033 91.0757C34.1633 91.0757 36.3099 93.2435 36.3099 96.0306C36.5144 98.7145 34.1633 101.089 31.4033 101.089Z" fill="#FEFEFE"/>
</svg>
