<svg width="178" height="222" viewBox="0 0 178 222" fill="none" xmlns="http://www.w3.org/2000/svg">
<g clip-path="url(#clip0_165_502)">
<path d="M37.3653 139.818C37.1644 140.348 36.9678 140.882 36.7544 141.408C35.905 143.548 35.4908 145.777 35.3235 148.064C35.2356 149.28 34.8172 149.667 33.6038 149.65C30.5704 149.612 27.5329 149.599 24.4994 149.469C23.2945 149.418 22.1564 148.939 21.0853 148.325C18.7297 146.979 17.9055 144.768 17.6084 142.24C17.6084 142.173 17.6084 142.106 17.6084 142.034C17.6168 139.927 18.1816 137.905 18.5247 135.844C18.6042 135.356 18.6377 134.86 18.6921 134.368C18.9222 134.326 19.1523 134.284 18.8971 133.981C18.8971 133.775 18.8971 133.565 18.8929 133.359C19.2151 133.317 19.2611 133.102 19.2151 132.829C19.5205 131.181 19.8301 129.536 20.1272 127.888C20.2108 127.43 20.2443 126.963 20.2987 126.496C20.6209 126.454 20.6669 126.24 20.6209 125.97C20.9096 124.423 21.1857 122.871 21.4912 121.328C22.3447 117.005 23.2024 112.678 24.081 108.359C24.5455 106.059 25.0685 103.775 25.5371 101.475C26.1354 98.5274 26.6919 95.5711 27.2902 92.6233C27.8257 89.995 28.4073 87.3794 28.9429 84.7512C29.5454 81.7991 30.1018 78.8345 30.7001 75.8824C31.1813 73.5191 31.7127 71.1642 32.2022 68.8009C32.9553 65.1634 33.6917 61.5217 34.4281 57.8801C34.5076 57.489 34.5076 57.0811 34.5411 56.6816C34.8632 56.6353 34.9134 56.4251 34.859 56.1517C35.0013 55.3065 35.1435 54.457 35.29 53.6118C35.5703 52.0096 35.859 50.4117 36.1435 48.8137C36.3736 48.7716 36.6079 48.7296 36.3485 48.4268C36.3485 48.2208 36.3485 48.0147 36.3485 47.8086C36.6707 47.7666 36.7209 47.5563 36.6707 47.283C37.0515 45.2729 37.3862 43.2544 37.8339 41.2612C38.1602 39.7978 38.4615 38.2923 39.0723 36.9425C40.6581 33.4437 43.386 31.2907 47.2018 30.6641C48.2144 30.5001 49.252 30.4496 50.2771 30.4328C52.3147 30.4034 54.3523 30.4412 56.3899 30.4328C57.3606 30.4328 57.5698 30.2352 57.6577 29.2848C57.779 27.9476 57.8208 26.6019 58.0049 25.2731C58.1472 24.2512 58.4275 23.2462 58.6869 22.2453C59.7664 18.0612 61.7036 14.327 64.4776 11.0301C64.9044 10.5213 65.26 9.94097 65.737 9.48261C69.5193 5.87036 73.8372 3.15381 78.8496 1.62312C80.8914 1.00075 82.9541 0.441464 85.1131 0.378387C85.3683 0.369976 85.6193 0.243821 85.8704 0.172333C86.1967 0.168128 86.5273 0.159717 86.8536 0.151307C87.9205 0.159717 88.9875 0.176538 90.0502 0.168128C90.1966 0.168128 90.3389 0.0503824 90.4811 -0.0126953C90.682 -0.0126953 90.8828 -0.0126953 91.0836 -0.0126953C91.3514 0.0503824 91.6192 0.109255 91.887 0.172333C92.1004 0.243821 92.3137 0.365771 92.5313 0.382592C98.8952 0.883009 104.648 3.01504 109.594 7.09406C115.02 11.5726 118.573 17.258 119.903 24.247C120.167 25.6263 120.221 27.0477 120.363 28.448C120.393 28.7129 120.363 28.9862 120.397 29.2554C120.506 30.1343 120.899 30.4623 121.782 30.4581C124.187 30.4496 126.597 30.3992 129.003 30.4454C134.43 30.5464 138.643 34.0072 139.831 39.3352C140.175 40.8659 140.396 42.426 140.672 43.9735C140.777 44.1501 140.882 44.3268 140.99 44.5034C141.296 46.1434 141.585 47.7834 141.915 49.4192C142.396 51.812 142.907 54.2005 143.392 56.5933C143.463 56.9507 143.455 57.325 143.484 57.695C143.589 57.8716 143.693 58.0483 143.802 58.2249C144.057 59.6252 144.317 61.0255 144.564 62.4301C144.748 63.4729 144.915 64.52 145.091 65.5629C145.195 65.7395 145.3 65.9162 145.409 66.0928C145.723 67.7538 146.045 69.4107 146.346 71.0717C146.488 71.8539 146.58 72.6444 146.697 73.4308C146.802 73.6074 146.907 73.7841 147.015 73.9607C147.325 75.6049 147.618 77.2533 147.948 78.8892C148.497 81.6141 149.07 84.3349 149.622 87.0598C149.693 87.4173 149.681 87.7915 149.71 88.1574C149.814 88.334 149.919 88.5106 150.028 88.6914C150.404 90.6763 150.789 92.6611 151.158 94.646C151.241 95.1001 151.266 95.5669 151.317 96.0253C151.421 96.2019 151.526 96.3785 151.635 96.5593C152.011 98.5442 152.396 100.529 152.764 102.518C152.848 102.972 152.873 103.435 152.923 103.897C153.028 104.074 153.132 104.251 153.241 104.431C153.555 106.092 153.877 107.749 154.174 109.415C154.316 110.197 154.413 110.983 154.53 111.769C154.634 111.946 154.739 112.123 154.848 112.304C155.157 113.948 155.475 115.592 155.772 117.24C155.856 117.699 155.881 118.17 155.936 118.632C156.04 118.809 156.145 118.986 156.254 119.166C156.567 120.827 156.894 122.484 157.195 124.15C157.337 124.932 157.429 125.718 157.542 126.504C157.647 126.681 157.752 126.858 157.856 127.038C158.174 128.754 158.484 130.47 158.814 132.181C159.27 134.553 159.781 136.921 160.195 139.301C160.467 140.861 160.526 142.442 160.124 144.006C159.325 147.106 156.664 149.355 153.471 149.519C151.639 149.612 149.798 149.57 147.965 149.591C146.764 149.604 145.559 149.616 144.359 149.646C143.384 149.671 143.191 149.566 142.831 148.725C142.84 148.699 142.861 148.674 142.856 148.653C142.848 148.607 142.823 148.561 142.806 148.519C142.635 146.096 142.212 143.725 141.304 141.462C139.221 136.265 135.781 132.324 130.702 129.906C124.836 127.114 118.84 126.689 112.882 129.372C107.385 131.853 103.272 135.861 101.071 141.635C100.268 143.746 99.8742 145.949 99.7445 148.203C99.6776 149.364 99.4307 149.587 98.2592 149.587C92.8451 149.582 87.431 149.574 82.0169 149.57C81.2178 149.57 80.4144 149.62 79.6153 149.582C78.7032 149.536 78.5275 149.364 78.381 148.451C78.1927 147.265 78.1049 146.059 77.8622 144.885C76.0631 136.231 69.2766 129.566 60.5237 127.985C58.6283 127.644 56.6912 127.501 54.7581 127.724C47.4152 128.578 41.9509 132.341 38.1267 138.628C37.9175 138.973 37.7209 139.322 37.5201 139.667C37.474 139.717 37.4238 139.772 37.3778 139.826L37.3653 139.818ZM58.2434 65.3695C58.3355 65.5503 58.4275 65.7311 58.5237 65.9077C58.5572 66.1727 58.574 66.4418 58.6325 66.7025C59.712 71.5511 62.2224 75.6428 65.419 79.3223C66.4273 80.4829 67.6198 81.5258 68.8708 82.4762C70.603 83.7924 72.4188 84.9572 74.3769 85.895C78.586 87.9093 83.0713 88.826 87.6821 89.1456C89.2762 89.2549 90.8828 89.154 92.4853 89.1456C92.6192 89.0867 92.7531 89.0321 92.8869 88.9732C93.4016 88.9143 93.9204 88.8765 94.4308 88.7966C95.322 88.6578 96.2132 88.4938 97.1002 88.3382C97.2258 88.2667 97.3555 88.191 97.481 88.1195C97.6149 88.1321 97.7655 88.1868 97.8743 88.1448C99.6943 87.4425 101.535 86.7949 103.313 86.0001C107.401 84.1751 110.849 81.4922 113.711 78.0271C116.61 74.52 118.518 70.5377 119.547 66.118C119.832 64.9027 120.342 63.9187 121.28 63.0566C123.225 61.2652 123.962 58.9944 123.355 56.3872C122.765 53.8641 121.196 52.1736 118.723 51.4125C116.288 50.6598 114.083 51.1938 112.209 52.8927C109.372 55.4663 109.184 59.5201 111.744 62.5815C112.297 63.2417 112.481 63.8682 112.255 64.6967C109.556 74.6293 102.037 79.7302 93.1464 81.2483C90.2468 81.7445 87.2595 81.6267 84.293 81.16C79.3684 80.382 75.2012 78.1574 71.5569 74.8438C70.8749 74.2214 70.3477 73.4224 69.7745 72.6865C67.9545 70.3568 66.6574 67.7622 65.8834 64.9027C65.6449 64.0154 65.7077 63.2248 66.3771 62.4721C67.7955 60.8741 68.3394 58.986 68.0131 56.8414C67.4566 53.1618 63.7998 50.5126 60.1681 51.1938C56.5196 51.8793 54.0636 55.2392 54.5824 58.9482C54.8376 60.7648 55.6368 62.3628 57.1137 63.4814C57.7874 63.9902 58.1848 64.5411 58.2392 65.3653L58.2434 65.3695ZM89.0586 30.4496C96.5814 30.4454 104.104 30.4454 111.627 30.4454C112.673 30.4454 113.02 30.0964 112.92 29.0367C112.832 28.1032 112.702 27.1696 112.539 26.2445C111.61 21.0889 109.154 16.8122 105.196 13.406C101.016 9.81061 96.0542 8.28834 90.6862 7.87623C88.4143 7.69961 86.1465 7.82577 83.8997 8.27993C78.5986 9.34804 73.992 11.6819 70.4105 15.8324C67.2139 19.5372 65.5989 23.9106 65.214 28.7592C65.0926 30.2941 65.2809 30.4496 66.7997 30.4496C74.2221 30.4496 81.6445 30.4496 89.067 30.4496H89.0586Z" fill="#71BF44"/>
<path d="M90.477 0C90.3347 0.0630777 90.1883 0.180823 90.046 0.180823C88.9791 0.189233 87.9122 0.172412 86.8494 0.164002C86.8578 0.109335 86.862 0.0546674 86.8703 0C88.067 0 89.272 0 90.477 0Z" fill="#71BF44"/>
<path d="M86.8662 -0.000189349C86.862 0.054478 86.8536 0.109145 86.8452 0.163813C86.5189 0.168018 86.1884 0.176428 85.862 0.180634C85.862 0.117556 85.862 0.0586832 85.862 -0.00439453H86.8662V-0.000189349Z" fill="black"/>
<path d="M91.8828 0.185028C91.615 0.12195 91.3472 0.0630777 91.0795 0C91.3472 0 91.615 0 91.8828 0C91.8828 0.0630777 91.8828 0.12195 91.8828 0.185028Z" fill="black"/>
<path d="M136.212 144.078C136.769 145.609 137.003 147.215 137.137 148.821C137.221 149.839 137.099 150.886 136.999 151.912C136.932 152.593 136.748 153.266 136.618 153.939C136.572 154.006 136.526 154.078 136.48 154.145C136.032 156.075 135.104 157.774 134.011 159.397C133.957 159.465 133.899 159.528 133.844 159.595C132.894 160.545 131.949 161.5 130.999 162.45C130.932 162.509 130.865 162.564 130.802 162.623C128.832 164.065 126.602 164.965 124.271 165.583C123.384 165.819 122.422 165.777 121.489 165.81C119.715 165.865 117.978 165.625 116.284 165.07C114.648 164.536 113.167 163.695 111.769 162.728C110.1 161.576 108.774 160.053 107.765 158.287C107.129 157.173 106.447 156.054 106.025 154.856C105.376 153.018 105.267 151.067 105.322 149.111C105.372 147.333 105.661 145.617 106.301 143.943C106.958 142.228 107.928 140.718 108.995 139.238C110.179 137.593 111.79 136.471 113.447 135.449C114.799 134.612 116.309 134.078 117.895 133.75C122.049 132.896 125.907 133.704 129.535 135.777C131.141 136.694 132.484 137.959 133.639 139.414C133.698 139.482 133.756 139.549 133.815 139.616C134.43 140.693 135.041 141.769 135.656 142.846C135.71 142.917 135.765 142.984 135.819 143.056C135.903 143.321 135.982 143.59 136.066 143.855C136.116 143.926 136.166 143.998 136.221 144.069L136.212 144.078ZM120.987 155.171C123.982 155.272 126.652 153.056 126.689 149.717C126.723 146.643 124.744 144.355 121.388 144.149C118.388 143.964 115.983 146.239 115.849 149.402C115.719 152.45 118.012 155.049 120.987 155.171Z" fill="black"/>
<path d="M40.9217 150.924C40.9217 149.818 40.884 148.708 40.9468 147.602C40.9844 146.963 41.1811 146.332 41.3233 145.701C41.6288 144.343 42.181 143.081 42.8338 141.858C43.8421 139.965 45.135 138.334 46.8127 136.992C48.8462 135.365 51.0721 134.187 53.6452 133.737C55.5071 133.409 57.3564 133.279 59.2601 133.679C60.8919 134.019 62.4567 134.469 63.9546 135.184C65.9002 136.118 67.5277 137.451 68.9252 139.095C70.7285 141.218 71.8205 143.691 72.3854 146.399C72.8456 148.594 72.9125 150.781 72.3435 153.001C72.1092 153.918 71.8665 154.835 71.5444 155.718C70.3687 158.91 68.285 161.37 65.465 163.216C63.6115 164.431 61.5655 165.205 59.4108 165.613C58.2853 165.827 57.1054 165.756 55.9506 165.789C54.1264 165.844 52.4151 165.318 50.7499 164.646C49.1056 163.981 47.6412 163.018 46.2939 161.845C44.5241 160.302 43.248 158.38 42.2271 156.315C41.6873 155.226 41.4781 153.964 41.1685 152.77C41.0304 152.236 41.0053 151.668 40.93 151.117C40.9468 151.054 40.9426 150.987 40.93 150.924H40.9217ZM56.687 155.18C59.8166 155.159 62.1555 153.014 62.1597 149.7C62.168 146.42 60.1723 144.292 56.8669 144.145C53.662 144.006 51.3315 146.845 51.3273 149.557C51.3273 152.509 53.8335 155.302 56.687 155.18Z" fill="black"/>
<path d="M19.2151 132.842C19.2611 133.115 19.2151 133.325 18.8929 133.371C19.0017 133.195 19.1063 133.018 19.2151 132.842Z" fill="#71BF44"/>
<path d="M157.835 127.038C157.731 126.862 157.626 126.685 157.521 126.504C157.844 126.551 157.898 126.761 157.835 127.038Z" fill="black"/>
<path d="M20.6209 125.983C20.6669 126.252 20.6209 126.467 20.2987 126.509L20.6209 125.983Z" fill="#71BF44"/>
<path d="M156.233 119.171C156.128 118.994 156.024 118.817 155.915 118.636C156.237 118.683 156.291 118.893 156.233 119.171Z" fill="black"/>
<path d="M154.827 112.308C154.722 112.131 154.618 111.955 154.509 111.774C154.831 111.82 154.885 112.03 154.827 112.308Z" fill="black"/>
<path d="M153.224 104.44C153.12 104.263 153.015 104.087 152.906 103.906C153.229 103.952 153.283 104.162 153.224 104.44Z" fill="black"/>
<path d="M151.618 96.5719C151.513 96.3953 151.409 96.2187 151.3 96.0378C151.622 96.0841 151.676 96.2944 151.618 96.5719Z" fill="black"/>
<path d="M140.986 44.5159C140.882 44.3393 140.777 44.1627 140.668 43.9861C140.99 44.0323 141.045 44.2426 140.986 44.5159Z" fill="black"/>
<path d="M18.897 133.99C19.1523 134.293 18.9221 134.335 18.692 134.377C18.759 134.246 18.8301 134.12 18.897 133.99Z" fill="#71BF44"/>
<path d="M150.011 88.704C149.907 88.5274 149.802 88.3507 149.693 88.1699C150.015 88.2162 150.07 88.4264 150.011 88.704Z" fill="black"/>
<path d="M147.003 73.9732C146.898 73.7966 146.794 73.62 146.685 73.4434C147.007 73.4896 147.061 73.6999 147.003 73.9732Z" fill="black"/>
<path d="M145.4 66.1011C145.296 65.9245 145.191 65.7479 145.082 65.5713C145.405 65.6175 145.459 65.8278 145.4 66.1011Z" fill="black"/>
<path d="M143.794 58.2332C143.689 58.0566 143.584 57.88 143.476 57.7034C143.798 57.7496 143.852 57.9599 143.794 58.2332Z" fill="black"/>
<path d="M34.859 56.1685C34.9134 56.4418 34.859 56.6521 34.541 56.6983C34.6456 56.5217 34.7544 56.3451 34.859 56.1685Z" fill="#71BF44"/>
<path d="M36.3485 48.4395C36.6079 48.7422 36.3736 48.7843 36.1435 48.8263C36.2104 48.696 36.2816 48.5656 36.3485 48.4395Z" fill="#71BF44"/>
<path d="M36.6665 47.2915C36.7209 47.5648 36.6665 47.7751 36.3444 47.8172C36.4531 47.6405 36.5577 47.4639 36.6665 47.2915Z" fill="#71BF44"/>
<path d="M142.785 148.514C142.802 148.561 142.827 148.603 142.836 148.649C142.84 148.67 142.819 148.695 142.81 148.72C142.739 148.666 142.672 148.611 142.601 148.556C142.664 148.544 142.727 148.527 142.785 148.514Z" fill="#71BF44"/>
<path d="M17.6084 142.042C17.6084 142.11 17.6084 142.177 17.6084 142.249C17.5289 142.215 17.4494 142.181 17.3741 142.148C17.4536 142.114 17.5331 142.08 17.6084 142.047V142.042Z" fill="black"/>
<path d="M130.802 162.623C130.869 162.564 130.936 162.509 130.999 162.45C130.932 162.509 130.865 162.564 130.802 162.623Z" fill="black"/>
<path d="M40.9216 150.924C40.9384 150.987 40.9384 151.05 40.9216 151.117C40.8714 151.096 40.8212 151.079 40.771 151.058C40.8212 151.012 40.8714 150.97 40.9216 150.924Z" fill="black"/>
<path d="M136.212 144.078C136.162 144.007 136.112 143.935 136.057 143.864C136.108 143.935 136.158 144.007 136.212 144.078Z" fill="black"/>
<path d="M92.4811 89.1455C90.8786 89.1497 89.272 89.2548 87.6779 89.1455C83.0671 88.8259 78.5818 87.9092 74.3727 85.8949C72.4146 84.9571 70.5988 83.7923 68.8666 82.4761C67.6156 81.5257 66.4273 80.487 65.4148 79.3222C62.2182 75.6427 59.7078 71.551 58.6283 66.7024C58.5698 66.4417 58.553 66.1726 58.5195 65.9077C58.5823 65.6469 58.553 65.4325 58.2392 65.3694C58.189 64.5452 57.7873 63.9943 57.1137 63.4855C55.6368 62.3669 54.8376 60.7689 54.5824 58.9523C54.0636 55.2475 56.5196 51.8834 60.168 51.1979C63.7998 50.5167 67.4566 53.166 68.013 56.8455C68.3352 58.9901 67.7955 60.8783 66.3771 62.4762C65.7077 63.2332 65.6407 64.0195 65.8834 64.9068C66.6574 67.7622 67.9545 70.361 69.7745 72.6906C70.3477 73.4265 70.8749 74.2255 71.5569 74.8479C75.2012 78.1616 79.3684 80.3903 84.293 81.1641C87.2553 81.6308 90.2468 81.7486 93.1463 81.2524C102.037 79.7343 109.552 74.6334 112.255 64.7008C112.481 63.8682 112.301 63.2458 111.744 62.5856C109.179 59.5242 109.368 55.4704 112.209 52.8968C114.083 51.1979 116.288 50.6639 118.723 51.4166C121.196 52.1777 122.765 53.864 123.355 56.3913C123.962 58.9986 123.225 61.2694 121.28 63.0608C120.342 63.9228 119.832 64.9068 119.547 66.1221C118.518 70.5418 116.61 74.5241 113.711 78.0312C110.845 81.4963 107.397 84.1792 103.313 86.0042C101.535 86.799 99.6901 87.4466 97.8743 88.1489C97.7613 88.1909 97.6107 88.1363 97.481 88.1236C97.1755 87.8797 97.1421 88.1237 97.1002 88.3423C96.209 88.4979 95.322 88.6619 94.4308 88.8007C93.9204 88.8806 93.4016 88.9184 92.8869 88.9773C92.5982 88.6745 92.5355 88.8932 92.4853 89.1497L92.4811 89.1455Z" fill="white"/>
<path d="M92.4811 89.1456C92.5313 88.8891 92.594 88.6704 92.8827 88.9732C92.7489 89.0321 92.615 89.0867 92.4811 89.1456Z" fill="black"/>
<path d="M97.0961 88.3382C97.1379 88.1153 97.1714 87.8756 97.4768 88.1195C97.3513 88.191 97.2216 88.2667 97.0961 88.3382Z" fill="black"/>
<path d="M58.2434 65.3694C58.5572 65.4325 58.5865 65.6469 58.5237 65.9076C58.4317 65.7268 58.3396 65.5502 58.2434 65.3694Z" fill="black"/>
<path d="M126.187 178.762C127.196 180.171 127.522 181.748 127.321 183.451C127.221 183.636 127.125 183.825 127.024 184.01C126.815 185.154 126.158 185.978 125.221 186.613C125.008 186.76 124.794 186.908 124.585 187.059C124.413 187.131 124.238 187.198 123.928 187.324C124.259 187.4 124.413 187.438 124.568 187.471C125.041 187.728 125.51 187.988 125.982 188.245C126.049 188.304 126.12 188.363 126.187 188.426C126.397 188.636 126.602 188.842 126.811 189.052C126.869 189.12 126.932 189.187 126.991 189.254C127.869 190.886 128.217 192.547 127.635 194.397C127.028 196.327 125.74 197.475 123.924 198.144C123.024 198.476 122.1 198.581 121.137 198.577C118.142 198.564 115.142 198.594 112.146 198.602C112.071 198.51 111.995 198.421 111.916 198.329C111.933 197.963 111.958 197.593 111.958 197.227C111.958 190.654 111.958 184.078 111.958 177.505C111.958 177.143 111.958 176.777 111.958 176.306H120.777C120.957 176.714 121.296 176.479 121.572 176.504C122.568 176.525 124.501 177.274 125.259 177.934C125.505 178.148 125.756 178.35 126.007 178.556C126.066 178.623 126.125 178.687 126.187 178.754V178.762ZM122.97 183.388C123.267 182.257 123.104 181.193 122.137 180.499C121.581 180.099 120.828 179.847 120.142 179.788C118.886 179.679 117.619 179.763 116.355 179.767C116.301 179.839 116.246 179.906 116.188 179.978V185.423C116.242 185.486 116.301 185.554 116.355 185.617C117.443 185.625 118.539 185.709 119.623 185.617C120.995 185.503 122.171 184.948 122.811 183.607C122.861 183.535 122.916 183.464 122.966 183.388H122.97ZM116.188 194.902C116.242 194.965 116.301 195.032 116.355 195.095C117.723 195.104 119.096 195.183 120.455 195.095C121.146 195.049 121.907 194.839 122.48 194.456C123.694 193.644 123.978 192.042 123.326 190.705C123.049 190.137 122.644 189.717 122.062 189.498C120.146 188.783 118.171 189.09 116.192 189.04V194.898L116.188 194.902Z" fill="black"/>
<path d="M174.136 176.504C174.529 176.588 174.927 176.668 175.32 176.752C175.391 176.807 175.462 176.862 175.534 176.916C175.835 177.034 176.136 177.152 176.475 177.286V181.374C176.416 181.344 176.366 181.353 176.32 181.399C175.923 181.248 175.529 181.1 175.132 180.949C175.065 180.894 174.994 180.84 174.927 180.785C173.303 180.28 171.688 179.742 169.948 179.767C168.149 179.793 166.496 180.318 165.09 181.395C163.881 182.316 163.233 183.703 162.919 185.171C162.622 186.542 162.613 187.951 162.86 189.359C163.053 190.453 163.446 191.424 164.124 192.29L164.299 192.501C165.86 194.519 168.027 195.087 170.421 194.986C171.4 194.944 172.37 194.717 173.4 194.565V189.254H169.408C169.358 188.014 169.37 186.866 169.408 185.655H177.5V196.71C174.985 198.48 172.136 199.019 169.111 198.855C168.479 198.821 167.839 198.825 167.216 198.737C166.617 198.653 166.002 198.539 165.45 198.308C164.028 197.702 162.71 196.899 161.488 195.953C161.136 195.68 160.898 195.251 160.622 194.881C160.178 194.279 159.634 193.72 159.333 193.052C158.739 191.744 158.212 190.398 158.279 188.905C158.316 188.068 158.258 187.227 158.287 186.386C158.358 184.149 159.069 182.147 160.417 180.343C162.007 178.216 164.111 177.005 166.634 176.323C168.069 175.936 169.492 175.861 170.939 175.936C171.814 175.983 172.676 176.201 173.546 176.344C173.747 176.403 173.948 176.462 174.144 176.517L174.136 176.504Z" fill="black"/>
<path d="M58.2057 186.231C57.7246 187.711 56.6326 188.644 55.3774 189.435C55.1807 189.557 54.9673 189.654 54.641 189.822C56.507 192.728 58.3522 195.596 60.2475 198.539H55.2769C53.6033 195.856 51.9423 193.19 50.2645 190.495H48.0888V198.497H43.8463V176.353C43.9927 176.336 44.2437 176.281 44.4948 176.281C46.5993 176.273 48.7039 176.277 50.8126 176.281C52.8251 176.281 54.6786 176.798 56.3522 177.963C57.1095 178.493 57.5321 179.242 57.9924 180.011C58.758 181.302 58.9045 182.681 58.7706 184.115C58.712 184.755 58.5112 185.377 58.3731 186.008C58.3187 186.079 58.2643 186.155 58.2099 186.226L58.2057 186.231ZM54.5698 183.611C54.5698 183.409 54.5698 183.203 54.5698 183.001C54.8627 182.719 54.8376 182.513 54.4276 182.396C54.3606 181.403 53.8418 180.739 52.9716 180.293C51.4109 179.49 49.7541 179.835 48.1014 179.759V187.055C49.3859 187 50.6369 187.076 51.8335 186.861C52.9506 186.66 54.0552 186.201 54.21 184.763C54.2309 184.578 54.3355 184.401 54.4025 184.221C54.8251 184.124 54.8753 183.922 54.574 183.615L54.5698 183.611Z" fill="black"/>
<path d="M81.4437 187.858C82.5985 191.382 83.7532 194.91 84.9499 198.569C83.5399 198.569 82.1968 198.573 80.8495 198.569C80.4228 198.569 80.3558 198.199 80.2554 197.892C79.8035 196.474 79.36 195.053 78.8789 193.531C78.4019 193.531 77.8747 193.531 77.3475 193.531C75.4103 193.531 73.4731 193.531 71.536 193.531C70.4648 193.531 70.4983 193.543 70.2138 194.557C69.8456 195.877 69.4189 197.185 69.0088 198.527H64.6826C64.8667 197.816 64.9964 197.152 65.2097 196.512C66.1972 193.569 67.2097 190.638 68.2097 187.698C69.4188 184.136 70.628 180.575 71.8205 177.009C71.9878 176.508 72.2347 176.252 72.8121 176.269C74.1468 176.311 75.4857 176.294 76.8203 176.273C77.3392 176.264 77.5107 176.445 77.6697 176.979C78.1174 178.497 78.7283 179.969 79.2387 181.47C79.9374 183.523 80.6069 185.583 81.2889 187.639C81.3391 187.711 81.3893 187.782 81.4353 187.854L81.4437 187.858ZM76.4229 185.242C76.3768 185.167 76.3308 185.091 76.289 185.015C76.2722 184.881 76.2513 184.746 76.2346 184.612L76.1007 184.41C76.0881 184.271 76.0756 184.136 76.0589 183.998C76.3308 183.691 76.0756 183.653 75.858 183.598C75.8497 183.468 75.8371 183.338 75.8287 183.207C75.7827 183.14 75.7409 183.068 75.6949 183.001C75.607 182.732 75.5191 182.463 75.4313 182.189C75.2304 181.567 75.0296 180.945 74.8288 180.322C74.7534 180.234 74.6781 180.146 74.6028 180.053C74.5443 180.226 74.4857 180.398 74.4271 180.575C74.4271 180.676 74.4438 180.785 74.4187 180.877C73.6112 183.581 72.7953 186.281 71.9878 188.985C71.8874 189.317 71.8414 189.666 71.7577 190.053H77.8036C77.3392 188.43 76.8831 186.832 76.4271 185.238L76.4229 185.242Z" fill="black"/>
<path d="M147.446 181.403C147.785 182.543 148.095 183.691 148.467 184.822C149.467 187.854 150.492 190.873 151.509 193.901L151.66 194.115C152.124 195.566 152.588 197.021 153.07 198.527H148.534C148.049 196.916 147.547 195.242 147.032 193.527C144.4 193.527 141.806 193.535 139.208 193.518C138.76 193.518 138.555 193.741 138.442 194.128C138.011 195.587 137.576 197.046 137.137 198.518H132.74C133.066 197.53 133.363 196.618 133.66 195.709C134.058 195.663 134.016 195.364 134.012 195.087C134.346 194.006 134.668 192.921 135.02 191.849C136.099 188.556 137.191 185.272 138.275 181.984C138.325 181.912 138.375 181.841 138.426 181.769C138.961 180.146 139.526 178.527 140.016 176.891C140.145 176.445 140.325 176.277 140.752 176.277C142.35 176.281 143.944 176.277 145.622 176.277C146.045 177.619 146.455 178.931 146.873 180.243C146.932 180.428 147.028 180.596 147.107 180.772C147.225 180.978 147.342 181.189 147.455 181.395L147.446 181.403ZM144.697 186.025C144.472 185.234 144.212 184.448 144.024 183.645C143.836 182.829 143.388 182.072 143.43 181.201C143.459 180.903 143.467 180.621 143.07 180.575C142.995 180.432 142.915 180.293 142.777 180.037C141.76 183.455 140.79 186.719 139.798 190.053H145.932C145.555 188.754 145.191 187.505 144.831 186.252C144.785 186.176 144.739 186.1 144.693 186.025H144.697Z" fill="black"/>
<path d="M95.1254 191.277C95.1128 193.266 95.1044 195.255 95.0919 197.244C95.0919 197.61 95.071 197.972 95.0584 198.338C95.004 198.401 94.9454 198.468 94.8911 198.531C93.6191 198.556 92.3514 198.586 91.0794 198.611C91.0041 198.518 90.9288 198.43 90.8493 198.338C90.866 197.972 90.8911 197.602 90.8911 197.236C90.8911 190.663 90.8911 184.086 90.8911 177.513C90.8911 177.152 90.8911 176.786 90.8911 176.311H98.711C98.8868 176.723 99.2299 176.483 99.5018 176.513C102.062 176.681 104.025 177.93 105.246 180.125C106.046 181.559 106.338 183.182 105.991 184.91C105.778 185.97 105.451 186.933 104.912 187.846L104.74 188.052C103.82 189.162 102.669 189.94 101.339 190.474C100.314 190.886 99.2759 191.113 98.1629 191.058C97.2048 191.012 96.2425 191.075 95.2843 191.092C95.2299 191.155 95.1714 191.222 95.117 191.285L95.1254 191.277ZM95.1254 179.978V187.627C95.7948 187.627 96.3596 187.648 96.9203 187.623C97.5102 187.593 98.096 187.488 98.6859 187.459C99.7905 187.4 100.606 186.723 101.201 185.957C101.87 185.1 102.071 183.968 101.857 182.837C101.573 181.332 100.565 180.205 99.2257 179.957C97.9286 179.717 96.6149 179.612 95.2969 179.772C95.2425 179.843 95.1881 179.91 95.1295 179.982L95.1254 179.978Z" fill="black"/>
<path d="M3.40368 194.67C4.79695 195.125 6.22369 195.289 7.67972 195.133C9.11065 194.982 10.1315 193.935 10.2403 192.593C10.3407 191.39 9.54997 190.781 8.68807 190.297C7.44124 189.595 6.14001 188.981 4.85134 188.354C3.62124 187.753 2.5334 186.975 1.60874 185.957C1.63803 185.655 1.55853 185.44 1.20707 185.423C0.374458 183.729 0.399562 181.971 0.82633 180.184C0.943482 180.032 1.05645 179.877 1.1736 179.725C1.80539 178.199 3.0313 177.354 4.4957 176.748C5.89316 176.172 7.33245 176.033 8.81777 176.151C9.08555 176.206 9.35751 176.264 9.62529 176.319C9.88888 176.382 10.1525 176.449 10.4161 176.513C10.6211 176.513 10.8261 176.513 11.0269 176.517C11.165 176.504 11.3031 176.496 11.4411 176.483C11.5165 176.862 11.7968 176.731 12.0311 176.723C12.5499 176.883 13.0687 177.038 13.575 177.194V181.092C12.5081 180.768 11.4662 180.453 10.4202 180.137C10.3617 179.797 10.1441 179.759 9.86377 179.839C8.91401 179.885 7.96842 179.923 7.01865 179.978C6.10236 180.028 5.5668 180.6 5.19861 181.382C5.14422 181.449 5.08983 181.521 5.03544 181.588C5.08983 182.11 5.16932 182.627 5.19861 183.148C5.2279 183.657 5.59609 183.939 5.94336 184.149C6.73414 184.624 7.57931 185.007 8.40356 185.428C8.47468 185.482 8.54581 185.537 8.61276 185.592C9.97256 186.226 11.3365 186.815 12.529 187.795C14.3867 189.317 14.8971 191.29 14.5373 193.493C14.0687 196.34 12.1566 197.934 9.45374 198.539C8.33243 198.792 7.13999 198.72 5.98939 198.859C4.93084 198.985 3.91412 198.724 2.92252 198.485C2.16103 198.3 1.47485 197.795 0.767754 197.408C0.684074 197.362 0.688258 197.164 0.646418 197.034V197.009V193.304C1.57527 193.741 2.37859 194.124 3.18192 194.502C3.25305 194.557 3.32 194.612 3.39112 194.666L3.40368 194.67Z" fill="black"/>
<path d="M29.8884 194.872C30.7462 194.906 31.5997 194.973 32.4574 194.965C33.9804 194.948 35.3904 194.498 36.6874 193.703C36.7376 193.674 36.8171 193.691 36.8841 193.686C37.0138 193.691 37.1477 193.699 37.2774 193.703V197.517C35.3276 198.707 33.1938 198.968 31.0098 198.838C30.3696 198.8 29.7462 198.951 29.0726 198.783C28.3738 198.611 27.7462 198.27 27.0642 198.119C25.5998 197.791 24.5789 196.739 23.4576 195.898C22.7798 195.39 22.4074 194.485 21.8342 193.817C20.9598 192.799 20.7715 191.496 20.3071 190.305C20.2359 190.129 20.2569 189.91 20.2569 189.708C20.2569 188.468 20.2401 187.223 20.2736 185.983C20.3196 184.237 20.9514 182.656 21.7924 181.163C22.1773 180.478 22.5999 179.755 23.1773 179.25C24.0769 178.459 25.0601 177.707 26.1228 177.177C28.4491 176.02 30.9679 175.793 33.5327 176.041C33.7879 176.13 34.0473 176.222 34.3026 176.311C35.3988 176.264 36.3193 176.777 37.2648 177.248C37.2648 178.506 37.2648 179.742 37.2648 180.983C37.2104 181.041 37.156 181.096 37.1058 181.155C36.9217 181.121 36.7251 181.117 36.5536 181.054C35.7753 180.76 35.0097 180.427 34.2273 180.146C33.9009 180.028 33.5411 179.999 33.1938 179.952C31.7294 179.759 30.2817 179.746 28.9178 180.448C28.5203 180.655 28.0935 180.814 27.7169 181.05C25.6835 182.316 24.8969 184.288 24.7128 186.563C24.6208 187.686 24.6501 188.808 24.9722 189.919C25.3655 191.256 25.968 192.429 27.081 193.3C27.1479 193.358 27.2149 193.421 27.2818 193.48C27.8801 193.825 28.4742 194.17 29.0726 194.515C29.1437 194.569 29.2148 194.624 29.2901 194.679C29.4198 194.691 29.5495 194.704 29.6751 194.717C29.7462 194.771 29.8173 194.826 29.8884 194.876V194.872Z" fill="black"/>
<path d="M14.6336 210.81C14.2361 210.898 13.8344 210.987 13.4369 211.075C13.3658 211.13 13.2905 211.184 13.2194 211.239C12.6336 212.16 12.939 212.896 14.0687 213.258C14.7131 213.464 15.3616 213.644 16.0017 213.859C17.7506 214.443 18.2318 215.57 17.4703 217.265C17.4034 217.416 17.3239 217.564 17.2528 217.711C17.1942 217.774 17.1356 217.841 17.077 217.904C17.0017 217.98 16.9222 218.056 16.8469 218.131C16.78 218.19 16.713 218.249 16.6461 218.308C14.2361 219.78 10.8805 219.178 9.60858 217.917C9.89728 217.492 10.186 217.063 10.4496 216.681C10.9475 216.908 11.3868 217.105 11.8219 217.303C11.893 217.358 11.9642 217.412 12.0353 217.467C12.3993 217.513 12.7633 217.614 13.1231 217.593C13.7758 217.555 14.4369 217.496 15.0729 217.353C15.5959 217.236 15.8595 216.895 15.8762 216.268C15.893 215.612 15.4578 215.503 15.0603 215.301C14.1942 214.86 13.1734 214.868 12.324 214.326C11.324 213.686 10.5583 212.072 11.1148 211.205C11.5751 210.486 12.1357 209.729 13.0395 209.439C14.6629 208.922 16.2821 208.884 17.8762 209.574C18.0812 209.662 18.2653 209.797 18.5331 209.952C18.3322 210.398 18.1439 210.81 17.964 211.21C17.236 211.071 16.5457 210.936 15.8553 210.806C15.4285 210.293 15.0645 210.293 14.6378 210.806L14.6336 210.81Z" fill="black"/>
<path d="M115.154 218.716C115.322 217.887 115.489 217.059 115.652 216.226C115.903 214.944 116.142 213.657 116.388 212.374C116.602 211.26 116.811 210.146 117.041 209.036C117.07 208.888 117.204 208.762 117.288 208.632H118.987C118.773 209.406 118.564 210.108 118.393 210.819C118.359 210.961 118.455 211.134 118.493 211.294C118.451 211.504 118.409 211.718 118.372 211.929C118.439 211.912 118.506 211.899 118.577 211.882C119.225 211.639 119.861 211.374 120.585 211.407C123.054 211.525 123.639 212.795 123.367 214.658C123.154 216.113 122.786 217.543 122.48 219.035H120.769C120.844 218.421 120.886 217.82 120.999 217.231C121.171 216.336 121.422 215.453 121.585 214.557C121.757 213.636 121.137 212.963 120.158 212.938C119.108 212.913 118.02 213.703 117.769 214.788C117.447 216.184 117.162 217.593 116.845 219.056H115.376C115.305 218.943 115.234 218.829 115.158 218.716H115.154Z" fill="black"/>
<path d="M105.355 212.055C105.113 213.384 104.878 214.712 104.627 216.037C104.443 217.008 104.242 217.971 104.033 219.01C103.431 218.993 102.757 219.41 102.184 218.733C102.129 218.665 101.807 218.775 101.644 218.863C100.757 219.33 99.7989 219.208 98.891 219.073C97.9538 218.934 96.9831 217.547 96.891 216.546C96.7697 215.183 96.9287 213.934 97.8408 212.807C98.983 211.399 101.636 210.894 102.979 212.013C103.046 212.067 103.171 212.059 103.267 212.076C103.393 212.084 103.518 212.093 103.644 212.101C103.703 211.916 103.761 211.731 103.836 211.495C104.33 211.495 104.816 211.483 105.301 211.512C105.355 211.512 105.397 211.744 105.443 211.87C105.414 211.929 105.389 211.992 105.359 212.051L105.355 212.055ZM98.6316 215.566C98.5856 217.135 99.3512 217.803 100.945 217.601C102.234 217.437 103.021 216.458 103.117 214.839C103.184 213.695 102.447 212.963 101.301 212.9C99.8449 212.816 98.6232 213.96 98.6316 215.57V215.566Z" fill="black"/>
<path d="M133.618 211.882C134.187 211.727 134.748 211.491 135.325 211.432C136.765 211.281 137.852 211.832 138.409 213.245C138.359 213.299 138.313 213.354 138.262 213.405C138.313 213.43 138.367 213.451 138.417 213.476L138.426 214.275C138.367 214.414 138.313 214.553 138.254 214.687C138.183 215.293 138.116 215.894 138.045 216.5C137.982 216.63 137.924 216.764 137.861 216.895C137.857 217.097 137.848 217.303 137.844 217.505C137.781 217.635 137.723 217.77 137.66 217.904C137.635 218.262 137.61 218.623 137.58 219.031H135.936C135.585 218.417 135.965 217.82 136.045 217.235C136.166 216.336 136.451 215.457 136.618 214.557C136.79 213.636 136.17 212.963 135.191 212.938C134.141 212.913 133.053 213.699 132.802 214.784C132.48 216.18 132.191 217.589 131.878 219.056H130.413L130.196 218.716C130.363 217.887 130.53 217.059 130.694 216.226C130.945 214.944 131.187 213.657 131.43 212.374C131.643 211.26 131.853 210.146 132.078 209.035C132.108 208.888 132.242 208.762 132.325 208.627H134.024C133.811 209.397 133.601 210.103 133.43 210.814C133.396 210.957 133.493 211.13 133.53 211.289C133.488 211.504 133.447 211.714 133.409 211.924C133.476 211.907 133.543 211.891 133.614 211.878L133.618 211.882Z" fill="black"/>
<path d="M23.2651 211.399C23.9806 211.487 24.717 211.487 25.4032 211.676C26.9973 212.118 27.947 214.241 27.1772 215.86H21.5413C21.4451 216.882 21.6836 217.269 22.5288 217.517C23.5748 217.828 24.5538 217.664 25.4659 217.071C25.5998 217.084 25.7295 217.101 25.8634 217.114C26.0224 217.467 26.1772 217.82 26.3278 218.161C24.9848 219.254 23.4953 219.321 22.0225 219.061C21.0225 218.884 20.2192 218.135 19.897 217.151C19.2234 215.103 20.0142 212.53 22.4534 211.626C22.7212 211.55 22.989 211.474 23.2568 211.399H23.2651ZM25.6417 214.477C25.763 214.052 25.65 213.733 25.3279 213.405C24.2191 212.273 22.2066 212.854 21.6961 214.477C21.7505 214.532 21.8049 214.59 21.8593 214.645C23.0601 214.645 24.2651 214.645 25.4659 214.645C25.5245 214.59 25.5789 214.532 25.6375 214.477H25.6417Z" fill="black"/>
<path d="M162.697 217.113C162.856 217.467 163.011 217.82 163.157 218.144C161.848 219.351 160.329 219.288 158.873 219.056C157.869 218.896 157.065 218.14 156.739 217.156C156.061 215.116 156.844 212.534 159.295 211.622C159.496 211.554 159.697 211.487 159.898 211.42C160.68 211.5 161.488 211.474 162.237 211.676C163.835 212.105 164.781 214.237 164.015 215.856H158.379C158.283 216.878 158.521 217.265 159.367 217.513C160.413 217.824 161.392 217.66 162.308 217.067C162.442 217.08 162.571 217.097 162.705 217.109L162.697 217.113ZM162.471 214.477C162.592 214.052 162.479 213.733 162.157 213.405C161.048 212.273 159.036 212.854 158.526 214.477C158.58 214.532 158.634 214.59 158.689 214.645C159.89 214.645 161.095 214.645 162.295 214.645C162.354 214.59 162.408 214.532 162.467 214.477H162.471Z" fill="black"/>
<path d="M140.647 214.279C140.856 213.951 141.112 213.64 141.262 213.287C141.953 211.685 144.388 211.1 145.789 211.512C147.852 212.122 148.526 213.287 148.187 215.84C147.225 215.844 146.237 215.852 145.25 215.852C144.283 215.852 143.317 215.852 142.354 215.852C142.262 216.878 142.823 217.48 143.974 217.639C144.685 217.74 145.053 217.639 146.593 216.941C146.81 217.29 147.036 217.648 147.279 218.035C146.58 218.892 145.597 219.027 144.63 219.128C144.041 219.191 143.405 219.212 142.84 219.061C142.087 218.859 141.476 218.342 141.032 217.681C140.693 217.177 140.564 216.596 140.593 215.978C140.61 215.608 140.601 215.242 140.605 214.872C140.618 214.67 140.635 214.473 140.647 214.271V214.279ZM142.639 214.641C143.907 214.641 145.179 214.641 146.446 214.641C146.505 214.586 146.563 214.527 146.622 214.473C146.639 213.771 146.367 213.287 145.664 213.056C144.258 212.597 143.262 212.812 142.467 214.469C142.522 214.523 142.58 214.582 142.635 214.637L142.639 214.641Z" fill="black"/>
<path d="M55.2727 219.149C53.8418 219.241 52.8628 218.493 52.3105 217.151C51.9297 216.226 51.959 215.192 52.2686 214.317C53.0887 212 55.1932 210.974 57.4275 211.596C57.8041 211.702 58.2141 211.718 58.5614 211.878C59.8835 212.484 60.281 214.263 60.1178 215.293C59.7078 217.929 57.6995 219.351 55.2727 219.149ZM56.3815 212.904C54.1723 212.925 53.415 215.398 54.1723 216.92C54.2644 217.105 54.482 217.252 54.6744 217.358C55.5447 217.841 56.3982 217.749 57.1848 217.168C58.0802 216.508 58.4735 215.57 58.3271 214.485C58.1806 213.413 57.4526 212.879 56.3857 212.9L56.3815 212.904Z" fill="black"/>
<path d="M46.9759 216.508C47.9005 215.02 48.8336 213.539 49.7457 212.042C49.9716 211.668 50.2268 211.433 50.6954 211.475C51.0176 211.504 51.344 211.479 51.8544 211.479C51.5113 212.08 51.2603 212.559 50.9758 213.014C49.4193 215.482 47.8712 217.959 46.2897 220.411C45.4738 221.676 43.8337 222.286 42.453 221.861C42.1643 221.773 41.9383 221.466 41.6831 221.256C41.8003 221.004 41.863 220.764 42.0011 220.587C42.2479 220.276 42.4781 220.045 42.9969 220.213C44.022 220.545 44.5115 220.293 45.114 219.469C45.3357 219.166 45.3525 218.905 45.2688 218.552C44.9299 217.126 44.6412 215.688 44.3148 214.258C44.2144 213.817 44.0303 213.396 43.9341 212.955C43.8379 212.501 43.8044 212.034 43.7374 211.525H45.4571C45.4989 211.828 45.5449 212.143 45.591 212.463C45.6328 212.538 45.6788 212.61 45.7207 212.686C46.0094 213.956 46.3022 215.221 46.5909 216.491C46.6328 216.554 46.6746 216.622 46.7123 216.685C46.796 216.626 46.8838 216.567 46.9675 216.508H46.9759Z" fill="black"/>
<path d="M67.2055 218.539C66.3604 219.056 65.4524 219.233 64.4692 219.14C63.3437 219.035 62.3981 218.186 62.3856 217.038C62.3772 216.159 62.4943 215.272 62.6324 214.397C62.783 213.438 63.0215 212.496 63.2307 211.521H64.9713C64.8123 212.307 64.6575 213.06 64.5152 213.813C64.3478 214.704 64.193 215.6 64.0341 216.491C64.0884 216.563 64.1428 216.634 64.193 216.701C64.2767 217.24 64.624 217.463 65.1303 217.542C66.6951 217.791 67.716 216.992 68.0256 215.259C68.2181 214.199 68.4063 213.135 68.6155 212.08C68.6532 211.891 68.7578 211.714 68.8457 211.508H70.3017C70.6992 212.139 70.2724 212.778 70.1762 213.392C69.9293 214.948 69.5611 216.483 69.2348 218.022C69.1636 218.367 69.059 218.703 68.9628 219.077C68.5402 219.077 68.1386 219.107 67.7453 219.061C67.6114 219.044 67.5026 218.829 67.3854 218.707C67.3269 218.648 67.2683 218.59 67.2055 218.535V218.539Z" fill="black"/>
<path d="M109.736 214.443C109.861 214.456 109.991 214.473 110.117 214.485C110.192 214.54 110.263 214.59 110.338 214.645C111.117 214.637 111.845 214.851 112.468 215.301C112.761 215.516 113.045 215.873 113.137 216.218C113.359 217.055 112.853 218.421 111.824 218.724C111.514 218.817 111.217 218.964 110.903 219.014C109.531 219.237 108.163 219.309 106.845 218.733C106.753 218.695 106.652 218.665 106.577 218.606C106.502 218.547 106.447 218.459 106.38 218.384C106.656 217.95 106.933 217.521 107.238 217.046C108.112 217.643 109.075 217.774 110.071 217.711C110.297 217.698 110.556 217.677 110.727 217.555C111.008 217.362 111.397 217.223 111.338 216.735C111.28 216.239 110.886 216.331 110.589 216.256C110.083 216.125 109.581 215.974 109.066 215.902C107.656 215.705 106.966 214.418 107.594 213.135C107.995 212.315 108.594 211.786 109.506 211.575C110.907 211.256 112.238 211.386 113.606 212.034C113.451 212.442 113.305 212.833 113.112 213.337C112.644 213.224 112.204 213.148 111.778 213.013C110.983 212.757 110.204 212.719 109.489 213.207C108.983 213.552 109.008 213.77 109.531 214.275C109.598 214.33 109.661 214.389 109.728 214.443H109.736Z" fill="black"/>
<path d="M88.0586 218.539C87.8494 218.972 87.4938 219.115 87.0252 219.12C86.1758 219.128 85.2846 219.347 84.6194 218.564C84.4855 218.409 84.3265 218.236 84.2763 218.047C83.9918 216.992 84.134 215.94 84.3725 214.893C84.5022 214.321 84.5859 213.737 84.6989 213.11C84.3683 213.064 84.0796 213.018 83.7031 212.963C83.7742 212.551 83.8411 212.143 83.9164 211.681C84.3307 211.638 84.7156 211.601 85.1507 211.559C85.2051 211.012 85.2553 210.482 85.3139 209.91H87.2218C87.1172 210.457 87.0168 210.978 86.8996 211.609H88.8996C88.7783 212.135 88.6862 212.543 88.5774 213.009H86.6821C86.4687 213.888 86.2637 214.738 86.0628 215.587C86.0043 215.839 85.975 216.1 85.9122 216.357C85.6863 217.29 86.1089 217.795 87.0503 217.677C87.2762 217.648 87.498 217.568 87.7741 217.5C87.8201 217.795 87.8578 218.051 87.8954 218.308C87.9498 218.384 88 218.459 88.0544 218.535L88.0586 218.539Z" fill="black"/>
<path d="M33.7377 218.909C33.9302 217.95 34.1143 216.992 34.3109 216.037C34.5243 214.998 34.7461 213.96 34.9595 212.917C35.2482 211.512 35.5369 210.108 35.8381 208.64H37.5786C36.9218 212.109 36.2691 215.545 35.5996 219.065C35.0222 219.065 34.4657 219.065 33.9093 219.065C33.8507 219.014 33.7921 218.96 33.7377 218.909Z" fill="black"/>
<path d="M28.9219 218.909C29.1144 217.95 29.2985 216.992 29.4951 216.037C29.7085 214.998 29.9303 213.96 30.1437 212.917C30.4324 211.512 30.7211 210.108 31.0223 208.64H32.7628C32.106 212.109 31.4533 215.545 30.7838 219.065C30.2064 219.065 29.65 219.065 29.0935 219.065C29.0349 219.014 28.9763 218.96 28.9219 218.909Z" fill="black"/>
<path d="M153.291 212.004C153.998 211.516 154.785 211.399 155.722 211.436C155.618 211.996 155.526 212.496 155.425 213.026C155.132 213.043 154.873 213.055 154.614 213.077C153.48 213.156 152.785 213.854 152.505 214.864C152.128 216.214 151.915 217.61 151.622 219.039H149.982C150.065 216.886 150.576 214.855 151.024 212.812C151.053 212.685 151.049 212.551 151.065 212.421C151.17 211.638 151.337 211.474 152.149 211.491C152.463 211.495 152.773 211.596 153.086 211.655C153.086 211.794 153.078 211.937 153.078 212.076C153.153 212.05 153.224 212.029 153.3 212.004H153.291Z" fill="black"/>
<path d="M90.1129 218.909C90.6192 216.479 91.1296 214.044 91.6526 211.538H93.2216C93.2677 211.697 93.3137 211.857 93.3723 212.067C94.1588 211.756 94.912 211.31 95.9287 211.521C95.8617 212.013 95.7948 212.509 95.7279 213.022C95.368 213.047 95.1044 213.047 94.845 213.085C93.7321 213.253 92.9162 214.103 92.7112 215.234C92.4811 216.487 92.2175 217.736 91.9497 219.069C91.4016 219.069 90.8451 219.069 90.2845 219.069C90.2259 219.019 90.1673 218.964 90.1129 218.913V218.909Z" fill="black"/>
<path d="M72.0548 218.909C72.5611 216.479 73.0715 214.044 73.5945 211.538H75.1635C75.2095 211.697 75.2556 211.857 75.3141 212.067C76.1007 211.756 76.8539 211.31 77.8706 211.521C77.8036 212.013 77.7367 212.509 77.6697 213.022C77.3099 213.047 77.0463 213.047 76.7869 213.085C75.674 213.253 74.8581 214.103 74.6531 215.234C74.423 216.487 74.1594 217.736 73.8916 219.069C73.3435 219.069 72.787 219.069 72.2263 219.069C72.1678 219.019 72.1092 218.964 72.0548 218.913V218.909Z" fill="black"/>
<path d="M111.916 198.337C111.991 198.43 112.066 198.518 112.146 198.611C112.045 198.779 111.941 198.951 111.84 199.12C111.686 198.981 111.43 198.863 111.401 198.703C111.33 198.308 111.673 198.363 111.92 198.342L111.916 198.337Z" fill="black"/>
<path d="M90.8493 198.337C90.9247 198.43 91 198.518 91.0795 198.611C90.979 198.779 90.8744 198.951 90.774 199.12C90.6192 198.981 90.364 198.863 90.3347 198.703C90.2636 198.308 90.6067 198.363 90.8535 198.342L90.8493 198.337Z" fill="black"/>
<path d="M14.6335 210.81C15.0603 210.297 15.4243 210.297 15.8511 210.81C15.4452 210.81 15.0394 210.81 14.6335 210.81Z" fill="black"/>
<path d="M23.2652 211.399C22.9974 211.474 22.7296 211.55 22.4619 211.626C22.4828 211.47 22.4577 211.277 22.5413 211.167C22.6418 211.033 22.8342 210.97 22.9849 210.877C23.0769 211.05 23.1731 211.226 23.2652 211.399Z" fill="black"/>
<path d="M121.572 176.508C121.296 176.483 120.957 176.719 120.777 176.311C121.116 176.08 121.418 175.983 121.572 176.508Z" fill="black"/>
<path d="M99.506 176.508C99.2341 176.479 98.891 176.719 98.7153 176.307C99.05 176.084 99.3596 175.987 99.506 176.508Z" fill="black"/>
<path d="M9.62947 176.315C9.3617 176.26 9.08974 176.201 8.82196 176.147C9.16086 175.865 9.45793 175.793 9.62947 176.315Z" fill="black"/>
<path d="M159.894 211.424C159.693 211.491 159.492 211.558 159.291 211.626C159.375 211.445 159.459 211.264 159.542 211.083C159.659 211.197 159.777 211.31 159.894 211.424Z" fill="black"/>
<path d="M174.136 176.504C173.935 176.445 173.734 176.391 173.538 176.332C173.843 176.025 174.044 176.079 174.136 176.504Z" fill="black"/>
<path d="M11.0353 176.513C10.8303 176.513 10.6253 176.513 10.4244 176.508C10.5123 176.395 10.596 176.281 10.6838 176.164C10.801 176.281 10.9223 176.395 11.0395 176.513H11.0353Z" fill="black"/>
<path d="M34.3026 176.311C34.0473 176.222 33.7879 176.13 33.5327 176.041C33.8591 175.932 34.1812 175.827 34.3026 176.311Z" fill="black"/>
<path d="M140.647 214.279C140.635 214.481 140.618 214.679 140.605 214.881C140.493 214.788 140.375 214.7 140.262 214.607C140.392 214.498 140.518 214.389 140.647 214.279Z" fill="black"/>
<path d="M12.0353 176.719C11.8052 176.727 11.5207 176.857 11.4454 176.479C11.7759 176.222 11.9558 176.353 12.0353 176.719Z" fill="black"/>
<path d="M134.007 195.091C134.016 195.369 134.053 195.667 133.656 195.713C133.773 195.507 133.89 195.297 134.007 195.091Z" fill="black"/>
<path d="M124.568 187.476C124.413 187.438 124.259 187.404 123.928 187.328C124.238 187.202 124.413 187.135 124.585 187.063C124.581 187.202 124.572 187.341 124.568 187.476Z" fill="black"/>
<path d="M1.2113 185.419C1.55858 185.436 1.64226 185.65 1.61297 185.953C1.47908 185.777 1.34519 185.596 1.2113 185.419Z" fill="black"/>
<path d="M147.446 181.403C147.329 181.197 147.212 180.987 147.099 180.781C147.492 180.831 147.459 181.126 147.446 181.403Z" fill="black"/>
<path d="M162.697 217.114C162.563 217.101 162.433 217.084 162.299 217.071C162.358 216.975 162.417 216.874 162.475 216.777C162.551 216.891 162.622 217 162.697 217.114Z" fill="black"/>
<path d="M130.204 218.716L130.422 219.056C130.292 219.027 130.158 218.998 130.028 218.968C130.087 218.884 130.15 218.8 130.208 218.716H130.204Z" fill="black"/>
<path d="M138.258 214.691C138.317 214.553 138.371 214.414 138.43 214.279C138.718 214.565 138.505 214.637 138.258 214.691Z" fill="black"/>
<path d="M115.154 218.716C115.225 218.829 115.296 218.943 115.372 219.056C115.242 219.027 115.108 218.998 114.978 218.968C115.037 218.884 115.1 218.8 115.158 218.716H115.154Z" fill="black"/>
<path d="M127.024 184.01C127.125 183.825 127.221 183.636 127.321 183.451C127.409 183.737 127.363 183.952 127.024 184.01Z" fill="black"/>
<path d="M137.865 216.899C137.928 216.769 137.986 216.634 138.049 216.504C138.334 216.798 138.112 216.857 137.865 216.899Z" fill="black"/>
<path d="M1.17783 179.721C1.06067 179.873 0.947707 180.028 0.830555 180.18C0.734323 179.864 0.943523 179.784 1.17783 179.721Z" fill="black"/>
<path d="M137.664 217.908C137.727 217.774 137.785 217.643 137.848 217.509C138.133 217.803 137.911 217.862 137.664 217.908Z" fill="black"/>
<path d="M9.87219 179.839C10.1525 179.759 10.3701 179.797 10.4287 180.137C10.2446 180.036 10.0563 179.94 9.87219 179.839Z" fill="black"/>
<path d="M25.8676 217.114C25.7337 217.101 25.604 217.084 25.4701 217.071C25.5287 216.975 25.5872 216.874 25.6458 216.777C25.7211 216.891 25.7923 217 25.8676 217.114Z" fill="black"/>
<path d="M133.618 211.882C133.551 211.899 133.484 211.916 133.413 211.929C133.455 211.718 133.497 211.504 133.535 211.294C133.56 211.491 133.589 211.685 133.614 211.882H133.618Z" fill="black"/>
<path d="M118.573 211.882C118.506 211.899 118.439 211.912 118.367 211.929C118.409 211.718 118.451 211.504 118.489 211.294C118.514 211.491 118.543 211.685 118.568 211.882H118.573Z" fill="black"/>
<path d="M46.9759 216.508C46.8922 216.567 46.8043 216.626 46.7206 216.685C46.6788 216.622 46.637 216.554 46.5993 216.491C46.7248 216.495 46.8503 216.504 46.98 216.508H46.9759Z" fill="black"/>
<path d="M37.2774 193.699C37.1477 193.695 37.0138 193.686 36.8841 193.682C36.9845 193.611 37.0891 193.535 37.1895 193.464C37.2188 193.544 37.2481 193.623 37.2774 193.703V193.699Z" fill="black"/>
<path d="M153.291 212.004C153.216 212.03 153.145 212.051 153.07 212.076C153.07 211.937 153.078 211.794 153.078 211.655C153.149 211.773 153.22 211.887 153.291 212.004Z" fill="black"/>
<path d="M90.1129 218.909C90.1715 218.96 90.2301 219.014 90.2845 219.065C90.2259 219.014 90.1673 218.96 90.1129 218.909Z" fill="black"/>
<path d="M0.658992 197.013V197.038C0.6046 197.042 0.554392 197.051 0.5 197.055C0.554392 197.042 0.6046 197.026 0.658992 197.013Z" fill="black"/>
<path d="M29.8884 194.872C29.8173 194.818 29.7462 194.763 29.675 194.713C29.7462 194.767 29.8173 194.822 29.8884 194.872Z" fill="black"/>
<path d="M29.2859 194.671C29.2148 194.616 29.1437 194.561 29.0684 194.507C29.1395 194.561 29.2106 194.616 29.2859 194.671Z" fill="black"/>
<path d="M164.304 192.492L164.128 192.282C164.187 192.353 164.245 192.421 164.304 192.492Z" fill="black"/>
<path d="M126.187 188.43C126.12 188.371 126.049 188.312 125.982 188.249C126.049 188.308 126.12 188.367 126.187 188.43Z" fill="black"/>
<path d="M81.4437 187.858C81.3935 187.787 81.3433 187.715 81.2972 187.644C81.3474 187.715 81.3977 187.787 81.4437 187.858Z" fill="black"/>
<path d="M8.62113 185.591C8.55 185.537 8.47887 185.482 8.41193 185.427C8.48305 185.482 8.55418 185.537 8.62113 185.591Z" fill="black"/>
<path d="M176.324 181.399C176.37 181.353 176.421 181.344 176.479 181.374C176.462 181.429 176.45 181.483 176.433 181.534L176.324 181.399Z" fill="black"/>
<path d="M37.1058 181.151C37.1602 181.092 37.2146 181.037 37.2648 180.979C37.2104 181.037 37.156 181.092 37.1058 181.151Z" fill="black"/>
<path d="M138.421 213.476C138.371 213.451 138.317 213.43 138.267 213.405C138.317 213.35 138.363 213.295 138.413 213.245C138.413 213.321 138.421 213.4 138.421 213.476Z" fill="black"/>
<path d="M64.1889 216.71C64.1345 216.639 64.0801 216.567 64.0299 216.5C64.0843 216.571 64.1387 216.643 64.1889 216.71Z" fill="black"/>
<path d="M126.187 178.762C126.129 178.695 126.07 178.632 126.008 178.565C126.066 178.632 126.125 178.695 126.187 178.762Z" fill="black"/>
<path d="M67.2056 218.539C67.2641 218.598 67.3227 218.657 67.3855 218.711C67.3269 218.653 67.2683 218.594 67.2056 218.539Z" fill="black"/>
<path d="M28.9219 218.909C28.9805 218.96 29.0391 219.014 29.0935 219.065C29.0349 219.014 28.9763 218.96 28.9219 218.909Z" fill="black"/>
<path d="M33.7377 218.909C33.7963 218.96 33.8549 219.014 33.9093 219.065C33.8507 219.014 33.7921 218.96 33.7377 218.909Z" fill="black"/>
<path d="M72.0548 218.909C72.1134 218.96 72.172 219.014 72.2263 219.065C72.1678 219.014 72.1092 218.96 72.0548 218.909Z" fill="black"/>
<path d="M122.815 183.607C122.865 183.535 122.92 183.464 122.97 183.388C122.92 183.459 122.865 183.531 122.815 183.607Z" fill="black"/>
<path d="M116.355 179.767C116.301 179.839 116.246 179.906 116.188 179.978C116.242 179.906 116.296 179.839 116.355 179.767Z" fill="black"/>
<path d="M54.5699 183.001C54.5238 182.799 54.4736 182.597 54.4276 182.396C54.8376 182.513 54.8627 182.719 54.5699 183.001Z" fill="black"/>
<path d="M54.3983 184.212C54.4569 184.01 54.5113 183.809 54.5699 183.607C54.8711 183.914 54.8209 184.116 54.3983 184.212Z" fill="black"/>
<path d="M74.8288 180.327C74.6949 180.411 74.561 180.495 74.4271 180.579C74.4857 180.407 74.5443 180.234 74.6029 180.058C74.6782 180.146 74.7535 180.234 74.8288 180.327Z" fill="black"/>
<path d="M76.0589 184.002C75.9919 183.867 75.925 183.737 75.858 183.603C76.0756 183.657 76.335 183.695 76.0589 184.002Z" fill="black"/>
<path d="M76.4229 185.242C76.3769 185.167 76.3308 185.091 76.289 185.015C76.335 185.091 76.3811 185.167 76.4229 185.242Z" fill="black"/>
<path d="M143.434 181.201L143.074 180.575C143.472 180.621 143.467 180.907 143.434 181.201Z" fill="black"/>
<path d="M95.2886 179.767C95.2342 179.839 95.1798 179.906 95.1212 179.978C95.1756 179.906 95.23 179.839 95.2886 179.767Z" fill="black"/>
<path d="M142.472 214.477L142.639 214.645C142.585 214.591 142.526 214.532 142.472 214.477Z" fill="black"/>
</g>
<defs>
<clipPath id="clip0_165_502">
<rect width="177" height="222" fill="white" transform="translate(0.5)"/>
</clipPath>
</defs>
</svg>
