<svg width="314" height="261" viewBox="0 0 314 261" fill="none" xmlns="http://www.w3.org/2000/svg">
<circle cx="255" cy="202" r="56.05" fill="white" stroke="#49971C" stroke-width="5.9"/>
<path d="M286.208 170.533C282.552 253.393 231.97 231.754 231.97 231.754C231.97 231.754 204.283 184.273 286.208 170.533Z" fill="#71BF44"/>
<path d="M286.208 170.533L231.97 231.754C231.97 231.754 282.552 253.393 286.208 170.533Z" fill="#49971C"/>
<path d="M168.826 126.84C168.826 129.613 168.279 131.96 167.186 133.88C166.119 135.773 164.639 137.213 162.746 138.2C160.879 139.187 158.759 139.68 156.386 139.68C154.012 139.68 151.892 139.187 150.026 138.2C148.159 137.213 146.692 135.773 145.626 133.88C144.559 131.96 144.026 129.613 144.026 126.84C144.026 124.067 144.572 121.733 145.666 119.84C146.759 117.92 148.239 116.48 150.106 115.52C151.972 114.533 154.066 114.04 156.386 114.04C158.732 114.04 160.839 114.533 162.706 115.52C164.599 116.48 166.092 117.92 167.186 119.84C168.279 121.733 168.826 124.067 168.826 126.84ZM162.546 126.84C162.546 124.28 161.986 122.333 160.866 121C159.772 119.667 158.279 119 156.386 119C154.572 119 153.106 119.667 151.986 121C150.866 122.307 150.306 124.253 150.306 126.84C150.306 129.453 150.852 131.427 151.946 132.76C153.066 134.067 154.559 134.72 156.426 134.72C158.292 134.72 159.772 134.067 160.866 132.76C161.986 131.427 162.546 129.453 162.546 126.84ZM179.314 126.12H181.914C183.247 126.12 184.314 125.827 185.114 125.24C185.94 124.627 186.354 123.733 186.354 122.56C186.354 121.413 185.967 120.547 185.194 119.96C184.42 119.347 183.234 119.04 181.634 119.04C181.18 119.04 180.767 119.053 180.394 119.08C180.02 119.107 179.66 119.16 179.314 119.24V126.12ZM182.474 130.84H173.274V116.88C173.274 116.373 173.42 115.973 173.714 115.68C174.007 115.387 174.394 115.16 174.874 115C175.754 114.68 176.78 114.453 177.954 114.32C179.154 114.187 180.394 114.12 181.674 114.12C185.274 114.12 187.98 114.88 189.794 116.4C191.607 117.893 192.514 119.933 192.514 122.52C192.514 124.12 192.074 125.56 191.194 126.84C190.34 128.093 189.154 129.08 187.634 129.8C186.14 130.493 184.42 130.84 182.474 130.84ZM181.354 129.4L186.794 128.12C187.407 128.973 188.034 129.813 188.674 130.64C189.34 131.467 189.967 132.267 190.554 133.04C191.167 133.813 191.714 134.533 192.194 135.2C192.674 135.84 193.06 136.387 193.354 136.84C193.114 137.64 192.687 138.267 192.074 138.72C191.46 139.147 190.767 139.36 189.994 139.36C189.007 139.36 188.247 139.147 187.714 138.72C187.207 138.267 186.727 137.68 186.274 136.96L181.354 129.4ZM173.274 128.56H179.354V138.96C179.114 139.04 178.727 139.107 178.194 139.16C177.66 139.24 177.114 139.28 176.554 139.28C175.354 139.28 174.5 139.067 173.994 138.64C173.514 138.213 173.274 137.467 173.274 136.4V128.56Z" fill="white"/>
<path d="M118.984 53.9727C123.567 54.247 127.488 54.3117 129.893 54.3277C132.41 52.2781 133.04 49.5347 132.894 46.9853C128.118 49.2444 123.438 51.5842 118.984 53.9727Z" fill="#F4C198"/>
<path d="M102.217 64.091C109.818 65.4306 117.16 66.1241 122.147 66.4955C122.163 66.4955 122.163 66.4955 122.163 66.4955C126.682 65.2852 128.57 60.6535 128.392 55.3283C128.715 55.1511 129.038 54.9574 129.312 54.7638C126.892 54.9898 123.035 55.1346 117.693 54.6831H117.677C112.077 57.7328 106.849 60.8795 102.217 64.091Z" fill="#F4C198"/>
<path d="M83.8204 71.8695C90.1626 76.6625 106.3 78.728 113.416 79.4379C120.711 78.486 120.323 71.5304 119.048 67.2054C114.481 67.1083 109.204 66.479 101.523 64.5749C98.4086 66.7698 95.568 68.9965 93.0993 71.2238C92.1957 69.8682 91.3723 68.6256 90.5977 67.4637C89.9038 67.9964 89.2098 68.5126 88.5323 69.0453C86.1601 67.2377 83.0776 63.978 80.1245 60.6216C79.4306 61.1055 78.7207 61.5735 77.962 62.0255C77.962 62.0255 77.962 62.0255 77.9456 62.0414C77.9456 62.0574 77.9296 62.0574 77.9296 62.0574C77.72 62.4287 75.9936 65.9469 83.8204 71.8695Z" fill="#F4C198"/>
<path d="M23.7078 39.9973V89.007L44.0732 88.8133C44.0732 88.8133 50.3343 90.6209 64.0513 92.6381C74.0242 94.1067 83.6586 92.2672 92.373 91.5409C83.11 89.1364 77.4458 81.5197 78.1074 77.8562C78.8173 73.9025 83.0776 73.8219 83.4002 73.8219C83.2066 73.9025 79.9628 75.2422 79.2529 77.5819C78.3329 84.4564 89.2422 89.572 93.8575 91.4279C97.9464 93.2109 100.095 93.419 102.615 93.2109C112.215 92.4179 110.867 82.4551 108.656 79.3731C104.299 78.8245 99.1344 78.1788 95.5844 77.7109C88.3227 76.775 80.4636 72.2727 78.1721 68.093C76.0578 64.2682 77.6558 62.3481 77.9301 62.0573C70.1681 66.705 59.5819 69.1095 46.0909 63.9939C31.9383 58.6199 31.4056 49.2603 34.9884 40.7072C28.7427 41.3534 23.7078 39.9973 23.7078 39.9973Z" fill="#F4C198"/>
<path d="M117.693 54.6826C123.034 55.1346 126.891 54.9893 129.312 54.7633C129.522 54.6179 129.715 54.4725 129.893 54.3277C127.488 54.3112 123.567 54.247 118.984 53.9727C118.548 54.1987 118.129 54.4407 117.693 54.6826Z" fill="#E5AE89"/>
<path d="M119.048 67.2053C119 67.0764 118.951 66.947 118.919 66.818C120.13 66.8827 121.178 66.7857 122.147 66.4954C117.16 66.1241 109.818 65.4306 102.217 64.0909H102.201C101.959 64.2522 101.749 64.4135 101.523 64.5753C109.204 66.4795 114.482 67.1087 119.048 67.2053Z" fill="#E5AE89"/>
<path d="M78.1721 68.093C80.4636 72.2727 88.3227 76.775 95.5845 77.7109C99.135 78.1789 104.299 78.8245 108.656 79.3731C108.64 79.3572 108.64 79.3408 108.623 79.3249C110.512 79.5992 112.093 79.6156 113.417 79.4379C106.3 78.728 90.1622 76.6625 83.8204 71.8694C75.9937 65.9469 77.7206 62.4292 77.9302 62.0579C77.6559 62.3481 76.0584 64.2687 78.1721 68.093Z" fill="#E5AE89"/>
<path d="M92.373 91.5409C92.373 91.5409 92.373 91.5409 92.3889 91.5409C92.8892 91.4926 93.3731 91.4603 93.8575 91.4279C89.2422 89.572 78.3334 84.4564 79.2528 77.582C79.9627 75.2422 83.2066 73.9025 83.4002 73.8219C83.0776 73.8219 78.8172 73.9025 78.1073 77.8563C77.4457 81.5197 83.11 89.1364 92.373 91.5409Z" fill="#E5AE89"/>
<path d="M80.1246 60.6216C83.0777 63.9779 86.1602 67.2382 88.5324 69.0453C89.2099 68.5126 89.9039 67.9964 90.5978 67.4637C92.4861 66.0434 94.4385 64.6395 96.4717 63.2516C96.5687 63.171 96.6653 63.1063 96.7624 63.0415C101.345 59.9107 106.235 56.8611 111.318 53.9399C111.593 53.7626 111.867 53.6008 112.158 53.4555C118.58 49.7601 125.294 46.258 132.071 42.9664C165.396 26.7319 196.132 17.2187 196.132 17.2187C196.132 17.2187 190.21 8.87568 177.3 0C170.845 1.06533 160.554 6.76964 135.896 18.1145C133.379 19.2764 130.861 20.4384 128.344 21.6162C129.522 21.6162 130.813 21.9552 132.233 22.8105C138.688 26.6835 131.216 34.5422 129.602 35.9625C129.376 36.1561 128.909 36.0422 128.845 36.2841C124.794 38.0429 121.163 40.1422 117.386 41.8204C111.335 43.4826 103.476 44.5962 93.9059 43.8216C93.3896 45.6611 90.1294 51.8903 84.1102 57.3933C84.0938 57.4097 84.0938 57.4097 84.0938 57.4097C82.8841 58.5233 81.5609 59.6046 80.1246 60.6216Z" fill="#2A9A51"/>
<path d="M189.579 14.8335C189.579 14.8335 158.845 24.3491 125.519 40.5831C118.742 43.8733 112.028 47.3774 105.607 51.0722C105.313 51.2147 105.043 51.3789 104.767 51.5571C99.6845 54.4783 94.7934 57.529 90.209 60.6593C90.1109 60.7216 90.0177 60.7882 89.9197 60.8684C87.9189 62.2336 85.9935 63.6162 84.1347 65.0124C82.8139 63.652 81.44 62.1399 80.0927 60.6105C81.5289 59.592 82.854 58.5117 84.0633 57.3957C84.0633 57.3957 84.0633 57.3957 84.0811 57.3822C90.0974 51.8773 93.3567 45.648 93.8768 43.8071C103.445 44.5851 111.303 43.4691 117.354 41.8064C121.129 40.1301 124.762 38.0313 128.813 36.2706C128.879 36.0306 129.346 36.146 129.573 35.9504C131.182 34.5321 138.657 26.6705 132.201 22.7979C130.782 21.9441 129.488 21.6061 128.31 21.6061C130.831 20.4277 133.348 19.2629 135.864 18.1025C157.621 8.09769 168.19 2.4774 174.811 0.561157C184.906 8.25319 189.579 14.8335 189.579 14.8335Z" fill="#71BF44"/>
<path d="M90.5983 67.4637C91.3729 68.6256 92.1958 69.8681 93.0998 71.2237C95.569 68.9965 98.4091 66.7697 101.523 64.5748C101.749 64.4135 101.959 64.2522 102.202 64.0904H102.217C106.849 60.879 112.077 57.7322 117.677 54.6821H117.693C118.129 54.4401 118.549 54.1977 118.984 53.9722C123.438 51.5836 128.118 49.2439 132.895 46.9847C169.075 29.9433 195.24 22.9505 195.24 22.9505L191.69 18.6259C183.782 21.111 165.396 26.7323 132.072 42.9668C125.294 46.2589 118.581 49.7606 112.158 53.4559C111.867 53.6013 111.593 53.7626 111.319 53.9403C106.235 56.861 101.346 59.9112 96.7628 63.042C96.6662 63.1067 96.5692 63.1709 96.4721 63.2521C94.439 64.6395 92.486 66.0434 90.5983 67.4637Z" fill="#23944E"/>
<path d="M46.0904 63.9939C59.5814 69.1095 70.1676 66.705 77.9297 62.0574C77.9297 62.0574 77.9456 62.0574 77.9456 62.0414C77.962 62.0255 77.9621 62.0255 77.9621 62.0255C78.7202 61.5735 79.4306 61.1055 80.1246 60.6216C81.5608 59.6051 82.884 58.5238 84.0942 57.4102C84.0942 57.4102 84.0942 57.4102 84.1107 57.3937C90.1298 51.8908 93.3896 45.6615 93.9063 43.8221C103.476 44.5967 111.335 43.4831 117.387 41.8208C121.163 40.1427 123.938 38.9001 127.989 37.1408C128.054 36.8989 129.377 36.1561 129.603 35.9625C131.217 34.5422 138.688 26.6835 132.234 22.8105C130.813 21.9552 129.523 21.6162 128.345 21.6162H128.329C127.957 21.6162 127.602 21.6486 127.247 21.7133C125.182 22.0847 123.471 23.4238 122.003 24.5534C121.987 24.5693 121.971 24.5693 121.971 24.5857C121.051 25.2956 120.211 25.9413 119.421 26.1997C119.308 26.232 119.211 26.2644 119.114 26.2803C118.824 26.345 118.501 26.3774 118.113 26.3774C114.515 26.587 107.108 25.2802 102.17 25.4738C96.7314 25.6675 92.8907 24.8605 87.2424 23.0534C81.5941 21.2299 56.581 30.1056 46.4951 36.7704C42.751 39.2396 38.6683 40.3209 34.9889 40.7082C31.4056 49.2603 31.9378 58.6204 46.0904 63.9939Z" fill="#F4C198"/>
<path d="M119.42 26.2001C120.097 27.378 121.566 28.7819 123.18 29.3792C125.665 30.3316 129.958 26.2325 129.958 24.9416C129.215 22.7791 128.102 21.9885 127.246 21.7142C125.181 22.0856 123.47 23.4248 122.002 24.5543C121.986 24.5703 121.97 24.5703 121.97 24.5867C121.05 25.2961 120.21 25.9418 119.42 26.2001Z" fill="#FFF4E3"/>
<path opacity="0.5" d="M129.957 24.9411C129.957 26.2354 125.664 30.3306 123.182 29.3792C121.564 28.7852 120.096 27.3799 119.42 26.2016C119.69 26.1098 119.97 25.9794 120.255 25.8056C121.018 26.6459 122.061 27.4427 123.182 27.858C125.278 28.6597 128.658 25.8684 129.667 24.2023C129.769 24.4292 129.865 24.6755 129.957 24.9411Z" fill="#EADECE"/>
<path d="M93.9062 43.8221C93.9062 43.8221 84.9277 68.05 56.3593 67.7163C60.8055 65.6484 78.7626 66.7267 93.9062 43.8221Z" fill="#E5AE89"/>
<path d="M84.2425 75.2224C83.7934 75.1403 83.3365 75.2953 83.0289 75.6328C82.0408 76.7155 80.055 79.2635 81.1624 81.2232C82.6073 83.7798 85.5942 84.4467 86.5948 83.4466C87.5954 82.446 89.5315 79.278 88.9293 77.4993C88.472 76.1472 85.5971 75.4696 84.2425 75.2224Z" fill="#FFF4E3"/>
<path opacity="0.5" d="M89.0317 78.6554C88.8317 80.4162 87.4129 82.6396 86.6083 83.4489C85.6034 84.4452 82.6199 83.7778 81.1749 81.2256C80.6727 80.3365 80.806 79.3272 81.1972 78.3889C81.1527 78.9046 81.2416 79.416 81.5082 79.8917C82.9531 82.444 85.9414 83.1109 86.9372 82.1151C87.5553 81.4965 88.5159 80.0738 89.0317 78.6554Z" fill="#EADECE"/>
<path d="M80.7615 61.3407C80.7615 61.3407 78.4802 63.6032 78.9249 64.826C79.3697 66.0487 81.569 69.168 83.971 67.7197C85.6081 66.4703 85.6081 66.4703 85.6081 66.4703L80.7615 61.3407Z" fill="#FFF4E3"/>
<path opacity="0.5" d="M85.6091 66.4703C85.6091 66.4703 85.6091 66.4703 83.973 67.7197C81.5719 69.1694 79.3707 66.0478 78.9264 64.825C78.8288 64.5628 78.8597 64.2513 78.9665 63.9224C79.5001 65.2118 81.6433 68.1108 83.9735 66.7017C84.467 66.3284 84.8094 66.0656 85.0494 65.8792L85.6091 66.4703Z" fill="#EADECE"/>
<path opacity="0.3" d="M147.748 18.7283C147.748 26.772 141.229 33.2905 133.186 33.2905C132.812 33.2905 132.443 33.2769 132.078 33.246C134.435 30.2089 136.8 25.5004 132.252 22.7748C130.833 21.921 129.539 21.5834 128.361 21.5834C130.882 20.4051 133.399 19.2402 135.915 18.0793C139.833 16.2785 143.39 14.6201 146.622 13.0994C147.347 14.8287 147.748 16.7319 147.748 18.7283Z" fill="#2FA754"/>
<path d="M25.6366 93.1916H18.0083V36.5541H25.6366C27.1535 36.5541 28.3835 37.7841 28.3835 39.301V90.4447C28.3835 91.9616 27.1539 93.1916 25.6366 93.1916Z" fill="#FCECD2"/>
<path d="M17.225 96.1369H0V33.4416H17.225C18.2671 33.4416 19.1123 34.2867 19.1123 35.3289V94.2501C19.1118 95.2918 18.2671 96.1369 17.225 96.1369Z" fill="#3C3C3B"/>
</svg>
