<svg width="120" height="270" viewBox="0 0 165 310" fill="none" xmlns="http://www.w3.org/2000/svg">
<rect x="5" y="5" width="155" height="300" rx="25" fill="white" stroke="#232323" stroke-width="10"/>



<svg width="79" height="98" x="43" y="31" viewBox="0 0 79 98" fill="none" xmlns="http://www.w3.org/2000/svg">

<g id="Layer_1" clip-path="url(#clip0_146_1332)">
<g id="Group">
<path id="Vector" d="M16.454 61.7271C16.3644 61.961 16.2766 62.1967 16.1814 62.4288C15.8023 63.3737 15.6174 64.3575 15.5427 65.3674C15.5035 65.9039 15.3168 66.0746 14.7752 66.0672C13.4213 66.0505 12.0655 66.0449 10.7117 65.9874C10.1738 65.9651 9.66589 65.7535 9.18783 65.4825C8.13646 64.8884 7.76857 63.912 7.63599 62.7963C7.63599 62.7666 7.63599 62.7369 7.63599 62.7054C7.63972 61.7753 7.89183 60.8825 8.04496 59.9728C8.08044 59.7575 8.09538 59.5385 8.11965 59.3213C8.22236 59.3027 8.32507 59.2841 8.21116 59.1505C8.21116 59.0595 8.21116 58.9667 8.20929 58.8757C8.35308 58.8572 8.37362 58.7625 8.35308 58.6418C8.4894 57.9142 8.62759 57.1883 8.76018 56.4606C8.79753 56.2583 8.81247 56.0522 8.83675 55.8462C8.98054 55.8276 9.00108 55.733 8.98054 55.6141C9.10939 54.931 9.23264 54.246 9.36897 53.5647C9.74992 51.6564 10.1327 49.7463 10.5249 47.8398C10.7322 46.8244 10.9656 45.8164 11.1748 44.801C11.4418 43.4997 11.6902 42.1947 11.9572 40.8934C12.1963 39.7331 12.4558 38.5785 12.6949 37.4183C12.9638 36.1151 13.2121 34.8064 13.4792 33.5033C13.6939 32.46 13.9311 31.4204 14.1496 30.3772C14.4857 28.7714 14.8144 27.1639 15.1431 25.5563C15.1786 25.3836 15.1786 25.2036 15.1935 25.0272C15.3373 25.0068 15.3597 24.914 15.3354 24.7933C15.3989 24.4202 15.4624 24.0452 15.5278 23.6721C15.6529 22.9648 15.7817 22.2594 15.9087 21.554C16.0114 21.5354 16.116 21.5169 16.0002 21.3832C16.0002 21.2922 16.0002 21.2013 16.0002 21.1103C16.144 21.0918 16.1664 20.9989 16.144 20.8783C16.314 19.9909 16.4634 19.0999 16.6632 18.22C16.8088 17.574 16.9433 16.9094 17.2159 16.3135C17.9237 14.7691 19.1413 13.8186 20.8444 13.542C21.2963 13.4696 21.7594 13.4473 22.2169 13.4399C23.1264 13.4269 24.0358 13.4436 24.9452 13.4399C25.3785 13.4399 25.4719 13.3527 25.5111 12.9331C25.5652 12.3428 25.5839 11.7488 25.6661 11.1622C25.7296 10.7111 25.8547 10.2674 25.9705 9.82562C26.4523 7.97856 27.3169 6.33013 28.555 4.87475C28.7455 4.65014 28.9042 4.39396 29.1171 4.19162C30.8053 2.59702 32.7325 1.39783 34.9696 0.722117C35.881 0.447378 36.8016 0.200485 37.7652 0.17264C37.8791 0.168927 37.9912 0.113237 38.1032 0.081679C38.2489 0.0798227 38.3964 0.07611 38.542 0.0723973C39.0182 0.07611 39.4944 0.0835354 39.9688 0.0798227C40.0341 0.0798227 40.0976 0.0278451 40.1611 0C40.2508 0 40.3404 0 40.43 0C40.5495 0.0278451 40.6691 0.0538339 40.7886 0.081679C40.8838 0.113237 40.9791 0.167071 41.0762 0.174496C43.9165 0.395401 46.4842 1.33657 48.6916 3.13722C51.1136 5.11422 52.6991 7.624 53.2929 10.7092C53.4106 11.3181 53.4348 11.9456 53.4983 12.5637C53.5114 12.6807 53.4983 12.8013 53.5133 12.9201C53.5618 13.3081 53.7374 13.4529 54.1314 13.4511C55.2052 13.4473 56.2808 13.4251 57.3546 13.4455C59.7767 13.49 61.6572 15.0178 62.1875 17.3698C62.3406 18.0455 62.4396 18.7342 62.5629 19.4173C62.6096 19.4953 62.6562 19.5733 62.7048 19.6512C62.8411 20.3752 62.97 21.0992 63.1175 21.8213C63.3323 22.8776 63.5601 23.932 63.7767 24.9882C63.8085 25.146 63.8047 25.3112 63.8178 25.4746C63.8645 25.5525 63.9112 25.6305 63.9597 25.7085C64.0736 26.3266 64.1894 26.9448 64.2996 27.5648C64.3818 28.0252 64.4565 28.4874 64.5349 28.9478C64.5816 29.0258 64.6283 29.1037 64.6768 29.1817C64.8169 29.9149 64.9607 30.6463 65.0951 31.3796C65.1586 31.7249 65.1997 32.0739 65.252 32.421C65.2987 32.499 65.3453 32.5769 65.3939 32.6549C65.5321 33.3807 65.6628 34.1084 65.8103 34.8305C66.055 36.0335 66.3108 37.2345 66.5573 38.4374C66.5891 38.5952 66.5835 38.7604 66.5965 38.9219C66.6432 38.9999 66.6899 39.0779 66.7385 39.1577C66.9065 40.0339 67.0783 40.9101 67.2427 41.7863C67.28 41.9867 67.2912 42.1928 67.3136 42.3951C67.3603 42.4731 67.407 42.5511 67.4556 42.6309C67.6236 43.5071 67.7954 44.3833 67.9598 45.2613C67.9971 45.4618 68.0083 45.666 68.0307 45.8702C68.0774 45.9482 68.1241 46.0261 68.1726 46.106C68.3127 46.8392 68.4565 47.5706 68.5891 48.3057C68.6526 48.651 68.6955 48.9981 68.7478 49.3453C68.7945 49.4232 68.8412 49.5012 68.8897 49.581C69.0279 50.3069 69.1699 51.0327 69.3024 51.7604C69.3398 51.9627 69.351 52.1706 69.3753 52.3748C69.422 52.4528 69.4687 52.5308 69.5172 52.6106C69.6573 53.3438 69.8029 54.0752 69.9374 54.8104C70.0009 55.1556 70.042 55.5028 70.0924 55.8499C70.1391 55.9279 70.1857 56.0058 70.2324 56.0857C70.3744 56.843 70.5125 57.6004 70.6601 58.356C70.8636 59.4029 71.0914 60.4481 71.2763 61.4988C71.3977 62.1875 71.4239 62.8854 71.2446 63.576C70.8879 64.9441 69.7002 65.9373 68.2754 66.0097C67.4574 66.0505 66.6357 66.0319 65.8178 66.0412C65.2819 66.0468 64.744 66.0524 64.2081 66.0654C63.773 66.0765 63.6871 66.0301 63.5265 65.6588C63.5302 65.6477 63.5395 65.6365 63.5377 65.6273C63.5339 65.6068 63.5227 65.5864 63.5153 65.5679C63.4387 64.4986 63.2501 63.4516 62.8449 62.4529C61.9149 60.1585 60.3798 58.4191 58.1128 57.3517C55.4946 56.1191 52.8186 55.9316 50.1594 57.1159C47.7056 58.2112 45.8699 59.9803 44.8876 62.529C44.529 63.4609 44.3535 64.4336 44.2956 65.4286C44.2657 65.941 44.1556 66.0394 43.6327 66.0394C41.2162 66.0375 38.7998 66.0338 36.3833 66.0319C36.0266 66.0319 35.6681 66.0542 35.3114 66.0375C34.9043 66.0171 34.8258 65.941 34.7605 65.5381C34.6765 65.0147 34.6372 64.4819 34.5289 63.964C33.7259 60.1436 30.697 57.2013 26.7903 56.5033C25.9443 56.353 25.0797 56.2899 24.2169 56.3882C20.9396 56.7651 18.5007 58.4265 16.7939 61.2017C16.7005 61.354 16.6128 61.508 16.5231 61.6603C16.5026 61.6825 16.4802 61.7067 16.4596 61.7308L16.454 61.7271ZM25.7725 28.8624C25.8136 28.9422 25.8547 29.022 25.8976 29.1C25.9126 29.217 25.92 29.3358 25.9462 29.4509C26.428 31.5912 27.5485 33.3974 28.9752 35.0217C29.4252 35.5341 29.9574 35.9945 30.5158 36.414C31.2889 36.995 32.0994 37.5092 32.9734 37.9232C34.852 38.8124 36.8539 39.2171 38.9118 39.3582C39.6233 39.4064 40.3404 39.3619 41.0556 39.3582C41.1154 39.3322 41.1751 39.308 41.2349 39.2821C41.4646 39.2561 41.6961 39.2394 41.924 39.2041C42.3217 39.1428 42.7195 39.0704 43.1154 39.0017C43.1714 38.9702 43.2293 38.9368 43.2853 38.9052C43.3451 38.9108 43.4123 38.9349 43.4609 38.9164C44.2732 38.6063 45.0949 38.3205 45.8885 37.9696C47.713 37.164 49.2518 35.9796 50.5291 34.45C51.8232 32.9018 52.6748 31.1438 53.1342 29.1928C53.2612 28.6563 53.489 28.222 53.9073 27.8414C54.7757 27.0506 55.1043 26.0482 54.8336 24.8973C54.5702 23.7835 53.87 23.0372 52.7663 22.7012C51.6795 22.3689 50.6953 22.6047 49.8587 23.3546C48.5926 24.4907 48.5086 26.2802 49.6514 27.6317C49.8979 27.9231 49.9801 28.1997 49.8792 28.5654C48.6748 32.9501 45.319 35.2018 41.3507 35.872C40.0565 36.091 38.7232 36.039 37.3992 35.833C35.2012 35.4895 33.3412 34.5075 31.7147 33.0447C31.4103 32.77 31.175 32.4173 30.9192 32.0924C30.1068 31.064 29.5279 29.9187 29.1825 28.6563C29.076 28.2647 29.104 27.9157 29.4028 27.5834C30.0359 26.878 30.2786 26.0445 30.133 25.0977C29.8846 23.4734 28.2525 22.3039 26.6315 22.6047C25.0031 22.9073 23.907 24.3905 24.1385 26.0278C24.2524 26.8297 24.6091 27.5351 25.2683 28.0289C25.569 28.2535 25.7464 28.4967 25.7707 28.8605L25.7725 28.8624ZM39.5262 13.4473C42.8838 13.4455 46.2415 13.4455 49.5991 13.4455C50.066 13.4455 50.221 13.2914 50.1762 12.8236C50.137 12.4115 50.0791 11.9994 50.0062 11.591C49.5917 9.31512 48.4955 7.42722 46.7289 5.92359C44.8633 4.33641 42.6485 3.66442 40.2526 3.4825C39.2386 3.40453 38.2265 3.46022 37.2236 3.66071C34.8576 4.13222 32.8015 5.16249 31.203 6.9947C29.7763 8.63013 29.0555 10.5607 28.8837 12.7011C28.8295 13.3787 28.9135 13.4473 29.5914 13.4473C32.9043 13.4473 36.2171 13.4473 39.5299 13.4473H39.5262Z" fill="#71BF44"/>
<path id="Vector_2" d="M40.1593 0.0055542C40.0959 0.0333993 40.0305 0.0853769 39.967 0.0853769C39.4908 0.0890896 39.0146 0.0816642 38.5403 0.0779515C38.544 0.0538191 38.5459 0.0296866 38.5496 0.0055542C39.0837 0.0055542 39.6215 0.0055542 40.1593 0.0055542Z" fill="#71BF44"/>
<path id="Vector_3" d="M38.5478 0.00557949C38.5459 0.0297119 38.5422 0.0538444 38.5385 0.0779768C38.3928 0.0798332 38.2453 0.0835458 38.0996 0.0854022C38.0996 0.0575571 38.0996 0.0315683 38.0996 0.00372314H38.5478V0.00557949Z" fill="black"/>
<path id="Vector_4" d="M40.7868 0.0872332C40.6673 0.0593881 40.5477 0.0333993 40.4282 0.0055542C40.5477 0.0055542 40.6673 0.0055542 40.7868 0.0055542C40.7868 0.0333993 40.7868 0.0593881 40.7868 0.0872332Z" fill="black"/>
<path id="Vector_5" d="M60.5723 63.6076C60.8206 64.2833 60.9252 64.9924 60.985 65.7015C61.0223 66.1507 60.9682 66.613 60.9233 67.0659C60.8935 67.3666 60.8113 67.6637 60.7534 67.9607C60.7329 67.9904 60.7123 68.0219 60.6918 68.0516C60.492 68.9037 60.0774 69.6537 59.59 70.3702C59.5657 70.3999 59.5396 70.4278 59.5153 70.4575C59.0914 70.877 58.6694 71.2984 58.2454 71.7179C58.2156 71.7439 58.1857 71.768 58.1577 71.794C57.2781 72.4307 56.2828 72.828 55.2426 73.1009C54.8467 73.2048 54.4172 73.1863 54.0008 73.2011C53.209 73.2253 52.434 73.1195 51.6777 72.8744C50.9475 72.6387 50.2864 72.2674 49.6627 71.8404C48.9176 71.3318 48.3256 70.6598 47.8756 69.8801C47.5917 69.3882 47.2873 68.8944 47.0987 68.3654C46.8093 67.5541 46.7607 66.6928 46.785 65.8296C46.8074 65.0444 46.9363 64.287 47.222 63.5482C47.5152 62.7908 47.9484 62.1243 48.4246 61.4709C48.9531 60.7451 49.6721 60.2494 50.4116 59.7983C51.0147 59.4289 51.6889 59.1932 52.3966 59.0484C54.251 58.6715 55.9728 59.028 57.5918 59.9431C58.3089 60.3478 58.9084 60.9066 59.4238 61.5489C59.4499 61.5786 59.4761 61.6083 59.5022 61.638C59.7767 62.1132 60.0494 62.5884 60.3239 63.0636C60.3482 63.0952 60.3725 63.1249 60.3967 63.1565C60.4341 63.2734 60.4696 63.3922 60.5069 63.5092C60.5293 63.5407 60.5517 63.5723 60.576 63.6038L60.5723 63.6076ZM53.7767 68.5046C55.1138 68.5491 56.3052 67.5708 56.322 66.0969C56.3369 64.7399 55.4536 63.7301 53.9559 63.6391C52.617 63.5574 51.5432 64.5617 51.4835 65.9577C51.4256 67.3035 52.4489 68.4508 53.7767 68.5046Z" fill="black"/>
<path id="Vector_6" d="M18.0414 66.6297C18.0414 66.1415 18.0246 65.6514 18.0526 65.1632C18.0694 64.881 18.1572 64.6026 18.2207 64.3241C18.357 63.7245 18.6035 63.1676 18.8948 62.6274C19.3448 61.7921 19.9219 61.0718 20.6707 60.4796C21.5783 59.7612 22.5718 59.2415 23.7202 59.0428C24.5513 58.898 25.3767 58.8405 26.2263 59.0168C26.9546 59.1672 27.6531 59.3658 28.3216 59.6814C29.19 60.0935 29.9164 60.682 30.5401 61.4078C31.345 62.3453 31.8324 63.4368 32.0845 64.6323C32.2899 65.6013 32.3198 66.5666 32.0658 67.5467C31.9612 67.9514 31.8529 68.3561 31.7091 68.7459C31.1844 70.1549 30.2544 71.2409 28.9958 72.0558C28.1685 72.5923 27.2553 72.9338 26.2936 73.1139C25.7912 73.2086 25.2646 73.177 24.7492 73.1919C23.935 73.216 23.1712 72.984 22.428 72.6869C21.6941 72.3936 21.0405 71.9685 20.4392 71.4506C19.6492 70.7693 19.0797 69.921 18.624 69.0095C18.3831 68.5287 18.2897 67.9718 18.1516 67.4446C18.0899 67.2089 18.0787 66.9583 18.0451 66.7151C18.0526 66.6872 18.0507 66.6575 18.0451 66.6297H18.0414ZM25.0779 68.5083C26.4747 68.499 27.5186 67.5523 27.5205 66.0895C27.5242 64.6416 26.6334 63.7022 25.1582 63.6373C23.7277 63.576 22.6876 64.829 22.6857 66.0264C22.6857 67.3295 23.8043 68.5622 25.0779 68.5083Z" fill="black"/>
<path id="Vector_7" d="M8.35327 58.6474C8.37381 58.7681 8.35327 58.8609 8.20947 58.8813C8.25803 58.8033 8.30471 58.7254 8.35327 58.6474Z" fill="#71BF44"/>
<path id="Vector_8" d="M70.2231 56.0857C70.1764 56.0077 70.1297 55.9297 70.083 55.8499C70.2268 55.8703 70.2511 55.9632 70.2231 56.0857Z" fill="black"/>
<path id="Vector_9" d="M8.98071 55.6197C9.00125 55.7385 8.98071 55.8332 8.83691 55.8517L8.98071 55.6197Z" fill="#71BF44"/>
<path id="Vector_10" d="M69.5079 52.6125C69.4612 52.5345 69.4145 52.4565 69.366 52.3767C69.5098 52.3971 69.534 52.4899 69.5079 52.6125Z" fill="black"/>
<path id="Vector_11" d="M68.8805 49.5829C68.8338 49.5049 68.7871 49.4269 68.7385 49.3471C68.8823 49.3675 68.9066 49.4603 68.8805 49.5829Z" fill="black"/>
<path id="Vector_12" d="M68.1654 46.1097C68.1187 46.0317 68.072 45.9537 68.0234 45.8739C68.1672 45.8943 68.1915 45.9871 68.1654 46.1097Z" fill="black"/>
<path id="Vector_13" d="M67.4481 42.6364C67.4014 42.5585 67.3547 42.4805 67.3062 42.4007C67.4499 42.4211 67.4742 42.5139 67.4481 42.6364Z" fill="black"/>
<path id="Vector_14" d="M62.703 19.6568C62.6563 19.5788 62.6096 19.5009 62.561 19.4229C62.7048 19.4433 62.7291 19.5361 62.703 19.6568Z" fill="black"/>
<path id="Vector_15" d="M8.21113 59.1542C8.32505 59.2878 8.22234 59.3064 8.11963 59.325C8.14951 59.2674 8.18125 59.2117 8.21113 59.1542Z" fill="#71BF44"/>
<path id="Vector_16" d="M66.731 39.1632C66.6844 39.0853 66.6377 39.0073 66.5891 38.9275C66.7329 38.9479 66.7572 39.0407 66.731 39.1632Z" fill="black"/>
<path id="Vector_17" d="M65.3885 32.6605C65.3418 32.5825 65.2951 32.5045 65.2466 32.4266C65.3904 32.447 65.4146 32.5398 65.3885 32.6605Z" fill="black"/>
<path id="Vector_18" d="M64.6732 29.1854C64.6265 29.1075 64.5798 29.0295 64.5312 28.9515C64.675 28.972 64.6993 29.0648 64.6732 29.1854Z" fill="black"/>
<path id="Vector_19" d="M63.9561 25.7122C63.9095 25.6342 63.8628 25.5562 63.8142 25.4783C63.958 25.4987 63.9823 25.5915 63.9561 25.7122Z" fill="black"/>
<path id="Vector_20" d="M15.3355 24.8007C15.3598 24.9214 15.3355 25.0142 15.1936 25.0346C15.2403 24.9567 15.2888 24.8787 15.3355 24.8007Z" fill="#71BF44"/>
<path id="Vector_21" d="M16.0002 21.3888C16.116 21.5225 16.0114 21.541 15.9087 21.5596C15.9386 21.502 15.9703 21.4445 16.0002 21.3888Z" fill="#71BF44"/>
<path id="Vector_22" d="M16.1423 20.882C16.1666 21.0027 16.1423 21.0955 15.9985 21.1141C16.0471 21.0361 16.0938 20.9581 16.1423 20.882Z" fill="#71BF44"/>
<path id="Vector_23" d="M63.506 65.566C63.5135 65.5864 63.5247 65.605 63.5284 65.6254C63.5303 65.6347 63.5209 65.6458 63.5172 65.6569C63.4855 65.6328 63.4556 65.6087 63.4238 65.5845C63.4518 65.579 63.4799 65.5715 63.506 65.566Z" fill="#71BF44"/>
<path id="Vector_24" d="M7.63607 62.7091C7.63607 62.7388 7.63607 62.7685 7.63607 62.8001C7.60059 62.7852 7.56511 62.7704 7.53149 62.7555C7.56698 62.7407 7.60246 62.7258 7.63607 62.711V62.7091Z" fill="black"/>
<path id="Vector_25" d="M58.1577 71.794C58.1876 71.768 58.2175 71.7439 58.2455 71.7179C58.2156 71.7439 58.1857 71.768 58.1577 71.794Z" fill="black"/>
<path id="Vector_26" d="M18.0413 66.6297C18.0488 66.6575 18.0488 66.6854 18.0413 66.7151C18.0189 66.7058 17.9965 66.6984 17.9741 66.6891C17.9965 66.6687 18.0189 66.6501 18.0413 66.6297Z" fill="black"/>
<path id="Vector_27" d="M60.5723 63.6076C60.5499 63.576 60.5275 63.5444 60.5032 63.5129C60.5256 63.5444 60.548 63.576 60.5723 63.6076Z" fill="black"/>
<path id="Vector_28" d="M41.0537 39.3582C40.3385 39.36 39.6214 39.4064 38.9099 39.3582C36.852 39.2171 34.8501 38.8124 32.9715 37.9232C32.0975 37.5092 31.287 36.995 30.5139 36.414C29.9556 35.9945 29.4252 35.536 28.9733 35.0218C27.5466 33.3975 26.4261 31.5912 25.9443 29.4509C25.9182 29.3358 25.9107 29.217 25.8958 29.1C25.9238 28.9849 25.9107 28.8903 25.7706 28.8624C25.7482 28.4986 25.569 28.2554 25.2683 28.0308C24.6091 27.537 24.2524 26.8316 24.1385 26.0296C23.9069 24.3942 25.0031 22.9091 26.6315 22.6065C28.2525 22.3058 29.8846 23.4753 30.133 25.0996C30.2768 26.0463 30.0359 26.8798 29.4028 27.5852C29.104 27.9194 29.0741 28.2665 29.1824 28.6582C29.5279 29.9187 30.1068 31.0659 30.9192 32.0943C31.175 32.4192 31.4103 32.7719 31.7147 33.0466C33.3412 34.5094 35.2012 35.4933 37.3992 35.8348C38.7213 36.0409 40.0565 36.0929 41.3507 35.8738C45.319 35.2037 48.6729 32.9519 49.8792 28.5673C49.9801 28.1997 49.8998 27.925 49.6514 27.6335C48.5067 26.2821 48.5907 24.4926 49.8587 23.3565C50.6953 22.6065 51.6794 22.3708 52.7663 22.7031C53.8699 23.0391 54.5702 23.7835 54.8335 24.8991C55.1043 26.0501 54.7757 27.0525 53.9073 27.8433C53.489 28.2238 53.2612 28.6582 53.1342 29.1947C52.6748 31.1457 51.8232 32.9037 50.5291 34.4519C49.2499 35.9815 47.7111 37.1658 45.8885 37.9715C45.0949 38.3223 44.2713 38.6082 43.4609 38.9182C43.4104 38.9368 43.3432 38.9126 43.2853 38.9071C43.149 38.7994 43.1341 38.9071 43.1154 39.0036C42.7176 39.0723 42.3217 39.1447 41.924 39.2059C41.6961 39.2412 41.4646 39.2579 41.2349 39.2839C41.106 39.1503 41.078 39.2468 41.0556 39.36L41.0537 39.3582Z" fill="white"/>
<path id="Vector_29" d="M41.0537 39.3582C41.0761 39.2449 41.1041 39.1484 41.233 39.2821C41.1732 39.3081 41.1135 39.3322 41.0537 39.3582Z" fill="black"/>
<path id="Vector_30" d="M43.1135 39.0017C43.1322 38.9034 43.1471 38.7975 43.2835 38.9052C43.2274 38.9368 43.1695 38.9702 43.1135 39.0017Z" fill="black"/>
<path id="Vector_31" d="M25.7727 28.8624C25.9128 28.8903 25.9258 28.9849 25.8978 29.1C25.8567 29.0202 25.8157 28.9422 25.7727 28.8624Z" fill="black"/>
</g>
<g id="Group_2">
<path id="Vector_32" d="M56.0978 78.9187C56.5479 79.5406 56.6936 80.2367 56.6039 80.9885C56.5591 81.0702 56.5162 81.1537 56.4713 81.2354C56.378 81.7403 56.0848 82.1042 55.6665 82.3845C55.5712 82.4495 55.476 82.5144 55.3826 82.5813C55.3061 82.6128 55.2276 82.6425 55.0894 82.6982C55.237 82.7316 55.3061 82.7483 55.3752 82.7632C55.5862 82.8764 55.7953 82.9915 56.0063 83.1047C56.0362 83.1307 56.068 83.1567 56.0978 83.1846C56.1912 83.2774 56.2827 83.3683 56.3761 83.4612C56.4022 83.4909 56.4303 83.5206 56.4564 83.5503C56.8486 84.2705 57.0036 85.0038 56.744 85.8206C56.4732 86.6726 55.898 87.1794 55.0876 87.4746C54.6861 87.6212 54.2734 87.6676 53.8439 87.6658C52.5068 87.6602 51.1678 87.6732 49.8307 87.6769C49.7971 87.6361 49.7635 87.5971 49.728 87.5563C49.7355 87.3948 49.7467 87.2314 49.7467 87.0699C49.7467 84.1684 49.7467 81.2651 49.7467 78.3636C49.7467 78.204 49.7467 78.0425 49.7467 77.8346H53.6833C53.7636 78.0147 53.9148 77.9107 54.0381 77.9218C54.4825 77.9311 55.3453 78.2616 55.6833 78.553C55.7935 78.6477 55.9055 78.7368 56.0175 78.8277C56.0437 78.8574 56.0698 78.8853 56.0978 78.915V78.9187ZM54.6618 80.9607C54.7944 80.4613 54.7215 79.9917 54.2902 79.6854C54.0418 79.509 53.7057 79.3976 53.3994 79.3716C52.8392 79.3234 52.2733 79.3605 51.7094 79.3624C51.6851 79.3939 51.6608 79.4236 51.6347 79.4552V81.8591C51.659 81.887 51.6851 81.9167 51.7094 81.9445C52.1949 81.9482 52.6842 81.9854 53.1678 81.9445C53.7804 81.8944 54.3051 81.6494 54.5908 81.0572C54.6132 81.0256 54.6375 80.9941 54.6599 80.9607H54.6618ZM51.6347 86.0433C51.659 86.0712 51.6851 86.1009 51.7094 86.1287C52.32 86.1324 52.9325 86.1677 53.5395 86.1287C53.8476 86.1083 54.1875 86.0155 54.4433 85.8466C54.9849 85.4883 55.1118 84.781 54.8205 84.1907C54.6973 83.9401 54.5161 83.7545 54.2566 83.6579C53.4013 83.3424 52.5198 83.4779 51.6365 83.4556V86.0415L51.6347 86.0433Z" fill="black"/>
<path id="Vector_33" d="M77.4986 77.9218C77.6741 77.9589 77.8515 77.9942 78.0271 78.0313C78.0588 78.0555 78.0906 78.0796 78.1223 78.1037C78.2568 78.1557 78.3912 78.2077 78.5425 78.2671V80.0715C78.5164 80.0585 78.4939 80.0622 78.4734 80.0826C78.296 80.0158 78.1205 79.9508 77.9431 79.884C77.9132 79.8598 77.8814 79.8357 77.8516 79.8116C77.127 79.5888 76.4062 79.3512 75.6293 79.3623C74.8263 79.3735 74.0887 79.6055 73.4612 80.0807C72.9215 80.4873 72.6321 81.0999 72.492 81.7477C72.3594 82.3529 72.3557 82.9748 72.4659 83.5966C72.5518 84.0793 72.7273 84.5081 73.0298 84.8905L73.1083 84.9833C73.8048 85.8744 74.7721 86.125 75.8403 86.0804C76.2773 86.0619 76.7105 85.9616 77.1699 85.8948V83.5502H75.3884C75.366 83.0026 75.3716 82.4958 75.3884 81.9612H79V86.8415C77.8777 87.6231 76.606 87.8607 75.2558 87.7883C74.9738 87.7734 74.6881 87.7753 74.4099 87.7363C74.1428 87.6992 73.8683 87.649 73.6218 87.5469C72.9869 87.2796 72.3986 86.9251 71.8533 86.5074C71.6965 86.3867 71.59 86.1974 71.4668 86.034C71.2688 85.7686 71.0261 85.5217 70.8916 85.2265C70.6264 84.6492 70.3911 84.0552 70.421 83.3962C70.4378 83.0268 70.4117 82.6555 70.4248 82.2842C70.4565 81.2966 70.774 80.413 71.3753 79.6167C72.0849 78.6773 73.0242 78.1427 74.1503 77.842C74.7908 77.6712 75.4257 77.6378 76.0719 77.6712C76.4622 77.6916 76.8469 77.7882 77.2353 77.8513C77.3249 77.8773 77.4146 77.9033 77.5023 77.9274L77.4986 77.9218Z" fill="black"/>
<path id="Vector_34" d="M25.7557 82.2155C25.541 82.869 25.0536 83.2811 24.4933 83.6301C24.4056 83.6839 24.3103 83.7266 24.1647 83.8009C24.9975 85.0836 25.8211 86.3496 26.667 87.649H24.4485C23.7015 86.4647 22.9602 85.2878 22.2113 84.0979H21.2403V87.6305H19.3467V77.855C19.412 77.8476 19.5241 77.8234 19.6361 77.8234C20.5755 77.8197 21.5148 77.8216 22.456 77.8234C23.3542 77.8234 24.1815 78.0518 24.9284 78.566C25.2665 78.7999 25.4551 79.1303 25.6605 79.47C26.0022 80.0399 26.0676 80.6488 26.0078 81.2818C25.9817 81.564 25.892 81.8387 25.8304 82.1171C25.8061 82.1487 25.7819 82.1821 25.7576 82.2137L25.7557 82.2155ZM24.1329 81.059C24.1329 80.9699 24.1329 80.879 24.1329 80.7899C24.2636 80.6655 24.2524 80.5745 24.0694 80.5225C24.0395 80.0845 23.808 79.7912 23.4196 79.5944C22.723 79.2398 21.9835 79.392 21.2459 79.3586V82.5794C21.8192 82.5552 22.3775 82.5887 22.9116 82.494C23.4102 82.4049 23.9032 82.2025 23.9723 81.5677C23.9817 81.486 24.0283 81.408 24.0582 81.3282C24.2468 81.2855 24.2692 81.1964 24.1348 81.0609L24.1329 81.059Z" fill="black"/>
<path id="Vector_35" d="M36.1274 82.9339C36.6428 84.4895 37.1583 86.047 37.6923 87.662C37.063 87.662 36.4636 87.6639 35.8623 87.662C35.6718 87.662 35.6419 87.4987 35.5971 87.3632C35.3954 86.7376 35.1975 86.1101 34.9827 85.4381C34.7698 85.4381 34.5345 85.4381 34.2992 85.4381C33.4346 85.4381 32.57 85.4381 31.7053 85.4381C31.2273 85.4381 31.2422 85.4437 31.1152 85.8911C30.9509 86.474 30.7604 87.0513 30.5774 87.6435H28.6465C28.7287 87.3297 28.7865 87.0364 28.8818 86.7543C29.3225 85.4548 29.7744 84.161 30.2207 82.8634C30.7604 81.2911 31.3001 79.7187 31.8323 78.1446C31.907 77.9237 32.0172 77.8104 32.2749 77.8178C32.8706 77.8364 33.4682 77.829 34.0639 77.8197C34.2955 77.816 34.372 77.8958 34.443 78.1316C34.6428 78.8017 34.9155 79.4514 35.1433 80.1141C35.4552 81.02 35.7539 81.9296 36.0583 82.8374C36.0807 82.869 36.1032 82.9005 36.1237 82.9321L36.1274 82.9339ZM33.8865 81.7793C33.866 81.7459 33.8454 81.7125 33.8268 81.679C33.8193 81.6196 33.8099 81.5602 33.8025 81.5008L33.7427 81.4117C33.7371 81.3505 33.7315 81.2911 33.724 81.2298C33.8454 81.0943 33.7315 81.0776 33.6344 81.0535C33.6307 80.9959 33.6251 80.9384 33.6213 80.8808C33.6008 80.8511 33.5821 80.8195 33.5616 80.7898C33.5224 80.671 33.4831 80.5522 33.4439 80.4316C33.3543 80.1568 33.2647 79.8821 33.175 79.6074C33.1414 79.5684 33.1078 79.5294 33.0742 79.4886C33.048 79.5647 33.0219 79.6408 32.9957 79.7187C32.9957 79.7633 33.0032 79.8116 32.992 79.8524C32.6316 81.046 32.2674 82.2378 31.907 83.4314C31.8622 83.5781 31.8417 83.7322 31.8043 83.9029H34.5028C34.2955 83.1864 34.0919 82.481 33.8884 81.7774L33.8865 81.7793Z" fill="black"/>
<path id="Vector_36" d="M65.5863 80.0845C65.7375 80.5875 65.8757 81.0943 66.0419 81.5937C66.4882 82.9321 66.9457 84.265 67.3995 85.6015L67.4668 85.6962C67.674 86.3366 67.8813 86.9789 68.0961 87.6435H66.0718C65.8552 86.9325 65.6311 86.1937 65.4014 85.4363C64.2268 85.4363 63.0689 85.44 61.9093 85.4326C61.7095 85.4326 61.618 85.531 61.5675 85.7018C61.3752 86.3459 61.181 86.9901 60.9849 87.6398H59.0222C59.1679 87.2035 59.3005 86.8007 59.4331 86.3997C59.6105 86.3793 59.5918 86.2475 59.5899 86.125C59.7393 85.6479 59.8831 85.169 60.04 84.6956C60.5218 83.2421 61.0092 81.7923 61.4928 80.3407C61.5152 80.3091 61.5377 80.2775 61.5601 80.246C61.7991 79.5294 62.0512 78.8147 62.2697 78.0926C62.3276 77.8958 62.4079 77.8216 62.5984 77.8216C63.3117 77.8235 64.0232 77.8216 64.7721 77.8216C64.9607 78.4138 65.1437 78.9929 65.3304 79.5721C65.3566 79.6538 65.3995 79.7281 65.435 79.806C65.4873 79.897 65.5396 79.9898 65.59 80.0808L65.5863 80.0845ZM64.3594 82.1246C64.2585 81.7756 64.1427 81.4285 64.0587 81.0739C63.9747 80.7138 63.7748 80.3796 63.7935 79.9954C63.8066 79.8636 63.8103 79.7392 63.6329 79.7188C63.5993 79.6557 63.5638 79.5944 63.5022 79.4812C63.0484 80.9904 62.6152 82.4309 62.1726 83.903H64.9102C64.7422 83.3294 64.5797 82.778 64.4191 82.2248C64.3986 82.1914 64.378 82.158 64.3575 82.1246H64.3594Z" fill="black"/>
<path id="Vector_37" d="M42.234 84.4431C42.2284 85.3212 42.2246 86.1992 42.219 87.0773C42.219 87.2388 42.2097 87.3984 42.2041 87.5599C42.1798 87.5878 42.1537 87.6175 42.1294 87.6453C41.5617 87.6565 40.9958 87.6695 40.4281 87.6806C40.3945 87.6398 40.3609 87.6008 40.3254 87.5599C40.3329 87.3984 40.3441 87.2351 40.3441 87.0736C40.3441 84.1721 40.3441 81.2688 40.3441 78.3673C40.3441 78.2077 40.3441 78.0462 40.3441 77.8364H43.8343C43.9128 78.0183 44.0659 77.9125 44.1873 77.9255C45.3302 77.9998 46.206 78.5511 46.7513 79.5201C47.108 80.1531 47.2387 80.8697 47.0837 81.6326C46.9885 82.1004 46.8428 82.5255 46.6019 82.9284L46.5253 83.0193C46.1145 83.5094 45.6009 83.8528 45.0071 84.0886C44.5496 84.2705 44.0865 84.3708 43.5897 84.3466C43.1621 84.3262 42.7326 84.354 42.3049 84.3615C42.2806 84.3893 42.2545 84.419 42.2302 84.4469L42.234 84.4431ZM42.234 79.4552V82.8318C42.5327 82.8318 42.7849 82.8411 43.0351 82.83C43.2984 82.817 43.5598 82.7706 43.8231 82.7576C44.3161 82.7316 44.6803 82.4327 44.9455 82.0949C45.2443 81.7162 45.3339 81.2168 45.2387 80.7175C45.1117 80.0529 44.6616 79.5554 44.064 79.4459C43.4851 79.3401 42.8988 79.2937 42.3105 79.3642C42.2862 79.3958 42.262 79.4255 42.2358 79.457L42.234 79.4552Z" fill="black"/>
<path id="Vector_38" d="M1.29606 85.9412C1.91792 86.1417 2.55471 86.2141 3.20458 86.1454C3.84324 86.0786 4.2989 85.6163 4.34745 85.0242C4.39227 84.4933 4.03932 84.2241 3.65463 84.0106C3.09814 83.7006 2.51736 83.4296 1.94219 83.153C1.39317 82.8875 0.907634 82.5441 0.494931 82.0949C0.508003 81.9612 0.472522 81.8665 0.315657 81.8591C-0.0559627 81.111 -0.0447581 80.335 0.14572 79.5461C0.198008 79.4793 0.248429 79.4106 0.300717 79.3438C0.5827 78.6699 1.12986 78.2968 1.78346 78.0295C2.40718 77.7751 3.04958 77.7139 3.71252 77.7659C3.83204 77.79 3.95342 77.816 4.07294 77.8401C4.19059 77.868 4.30823 77.8977 4.42588 77.9255C4.51739 77.9255 4.60889 77.9255 4.69853 77.9274C4.76015 77.9218 4.82178 77.9181 4.8834 77.9125C4.91702 78.0796 5.04214 78.022 5.14671 78.0183C5.37827 78.0889 5.60984 78.1576 5.8358 78.2262V79.9471C5.3596 79.8041 4.89461 79.6649 4.42775 79.5257C4.40161 79.3753 4.3045 79.3586 4.17938 79.3939C3.75547 79.4143 3.33343 79.431 2.90952 79.4551C2.50056 79.4774 2.26152 79.7299 2.09719 80.0752C2.07291 80.1049 2.04864 80.1364 2.02436 80.1661C2.04864 80.3963 2.08412 80.6246 2.09719 80.8548C2.11026 81.0794 2.2746 81.2038 2.42959 81.2966C2.78254 81.5064 3.15976 81.6753 3.52765 81.861C3.55939 81.8851 3.59114 81.9092 3.62102 81.9334C4.22793 82.2137 4.83672 82.4735 5.36894 82.9061C6.19808 83.5781 6.42591 84.4487 6.26531 85.4214C6.05615 86.6782 5.20274 87.3817 3.99637 87.649C3.4959 87.7604 2.96368 87.7289 2.45014 87.7901C1.97767 87.8458 1.52389 87.7307 1.08131 87.6249C0.741432 87.5432 0.435173 87.3205 0.119576 87.1497C0.0822275 87.1293 0.0840949 87.042 0.0654206 86.9845V86.9733V85.3379C0.479991 85.5309 0.838539 85.6999 1.19709 85.8669C1.22883 85.8911 1.25871 85.9152 1.29046 85.9393L1.29606 85.9412Z" fill="black"/>
<path id="Vector_39" d="M13.1169 86.0303C13.4997 86.0451 13.8806 86.0748 14.2635 86.0711C14.9432 86.0637 15.5725 85.8651 16.1514 85.5142C16.1739 85.5012 16.2093 85.5087 16.2392 85.5068C16.2971 85.5087 16.3569 85.5124 16.4148 85.5142V87.1979C15.5445 87.7233 14.5921 87.8384 13.6173 87.7808C13.3316 87.7641 13.0534 87.8309 12.7527 87.7567C12.4409 87.6806 12.1607 87.5302 11.8563 87.4634C11.2027 87.3186 10.7471 86.8545 10.2466 86.4832C9.94409 86.2586 9.77789 85.8595 9.52205 85.5644C9.13176 85.1151 9.04772 84.5396 8.84044 84.0143C8.80869 83.9363 8.81803 83.8398 8.81803 83.7507C8.81803 83.2031 8.81056 82.6536 8.8255 82.106C8.84604 81.3356 9.12802 80.6376 9.50338 79.9786C9.67518 79.676 9.86379 79.3567 10.1215 79.134C10.523 78.785 10.9618 78.4527 11.4362 78.2188C12.4745 77.7083 13.5987 77.6081 14.7434 77.7176C14.8573 77.7566 14.9731 77.7974 15.087 77.8364C15.5763 77.816 15.9871 78.0425 16.4092 78.2504C16.4092 78.8054 16.4092 79.3512 16.4092 79.8988C16.3849 79.9248 16.3606 79.9489 16.3382 79.9749C16.256 79.9601 16.1683 79.9582 16.0917 79.9304C15.7443 79.8004 15.4026 79.6538 15.0534 79.5294C14.9077 79.4774 14.7471 79.4644 14.5921 79.444C13.9385 79.3586 13.2924 79.353 12.6836 79.663C12.5062 79.754 12.3157 79.8245 12.1477 79.9285C11.2401 80.4873 10.889 81.3579 10.8068 82.3622C10.7658 82.8578 10.7788 83.3534 10.9226 83.8435C11.0982 84.4338 11.3671 84.9518 11.8638 85.336C11.8937 85.362 11.9236 85.3899 11.9535 85.4158C12.2205 85.5681 12.4857 85.7203 12.7527 85.8725C12.7845 85.8966 12.8162 85.9208 12.8498 85.9449C12.9077 85.9505 12.9656 85.956 13.0216 85.9616C13.0534 85.9857 13.0851 86.0099 13.1169 86.0322V86.0303Z" fill="black"/>
<path id="Vector_40" d="M6.30822 93.0659C6.13081 93.1048 5.95154 93.1438 5.77413 93.1828C5.74239 93.2069 5.70877 93.2311 5.67703 93.2552C5.41559 93.6617 5.55191 93.9866 6.05612 94.1463C6.3437 94.2372 6.63315 94.317 6.91887 94.4117C7.69946 94.6697 7.91421 95.1672 7.57434 95.9153C7.54446 95.9822 7.50898 96.0471 7.47723 96.1121C7.45109 96.14 7.42495 96.1697 7.3988 96.1975C7.36519 96.2309 7.32971 96.2643 7.29609 96.2977C7.26621 96.3237 7.23634 96.3497 7.20646 96.3757C6.13081 97.0254 4.63313 96.76 4.06543 96.2031C4.19428 96.0156 4.32314 95.8262 4.44078 95.6573C4.66301 95.7576 4.85909 95.8448 5.0533 95.9321C5.08505 95.9562 5.1168 95.9803 5.14854 96.0045C5.31101 96.0249 5.47348 96.0694 5.63408 96.0601C5.9254 96.0434 6.22045 96.0174 6.5043 95.9543C6.73773 95.9024 6.85538 95.752 6.86285 95.4754C6.87032 95.1858 6.6761 95.1375 6.4987 95.0484C6.11214 94.8535 5.65648 94.8572 5.2774 94.6178C4.83108 94.3356 4.48934 93.6228 4.73771 93.2404C4.94312 92.9229 5.19336 92.5888 5.59673 92.4607C6.32129 92.2324 7.04399 92.2157 7.75548 92.5201C7.84699 92.5591 7.92915 92.6185 8.04867 92.6872C7.95903 92.8839 7.875 93.0659 7.7947 93.2422C7.46977 93.181 7.16164 93.1215 6.85351 93.064C6.66303 92.8375 6.50057 92.8375 6.31009 93.064L6.30822 93.0659Z" fill="black"/>
<path id="Vector_41" d="M51.1733 96.5558C51.248 96.1901 51.3227 95.8244 51.3956 95.4568C51.5076 94.8906 51.6141 94.3226 51.7242 93.7564C51.8195 93.2645 51.9128 92.7725 52.0156 92.2825C52.0286 92.2175 52.0884 92.1618 52.1257 92.1042H52.8839C52.7887 92.4458 52.6953 92.7558 52.6187 93.0695C52.6038 93.1327 52.6467 93.2088 52.6636 93.2793C52.6449 93.3721 52.6262 93.4668 52.6094 93.5596C52.6393 93.5522 52.6692 93.5466 52.7009 93.5392C52.9904 93.4315 53.2742 93.3146 53.5973 93.3294C54.6991 93.3814 54.9605 93.942 54.8391 94.7644C54.7439 95.4067 54.5795 96.0378 54.4432 96.6968H53.6794C53.7131 96.4258 53.7317 96.1604 53.7821 95.9005C53.8587 95.5051 53.9708 95.1152 54.0436 94.7198C54.1202 94.3133 53.8438 94.0163 53.4068 94.0051C52.9381 93.994 52.4525 94.343 52.3405 94.8219C52.1967 95.4382 52.0697 96.0601 51.9278 96.7061H51.2723C51.2406 96.656 51.2088 96.6059 51.1752 96.5558H51.1733Z" fill="black"/>
<path id="Vector_42" d="M46.7998 93.6153C46.6915 94.2019 46.5869 94.7885 46.4749 95.3733C46.3927 95.8021 46.3031 96.2272 46.2097 96.6857C45.9408 96.6783 45.6401 96.862 45.3843 96.5632C45.36 96.5335 45.2162 96.5817 45.1434 96.6207C44.7475 96.8268 44.3198 96.7729 43.9146 96.7135C43.4963 96.6523 43.0631 96.0397 43.022 95.5979C42.9678 94.9964 43.0388 94.4451 43.4459 93.9476C43.9557 93.3257 45.1396 93.103 45.7391 93.5967C45.769 93.6209 45.825 93.6172 45.8679 93.6246C45.924 93.6283 45.98 93.632 46.036 93.6357C46.0622 93.554 46.0883 93.4724 46.1219 93.3684C46.3423 93.3684 46.5589 93.3628 46.7755 93.3758C46.7998 93.3758 46.8185 93.4779 46.839 93.5336C46.8259 93.5596 46.8147 93.5875 46.8017 93.6134L46.7998 93.6153ZM43.7988 95.1653C43.7783 95.8578 44.12 96.1529 44.8315 96.0638C45.4067 95.9914 45.7578 95.5589 45.8007 94.8442C45.8306 94.3393 45.5019 94.0163 44.9903 93.9884C44.3404 93.9513 43.7951 94.4562 43.7988 95.1672V95.1653Z" fill="black"/>
<path id="Vector_43" d="M59.4143 93.5392C59.6683 93.4705 59.9185 93.3666 60.1762 93.3406C60.8186 93.2738 61.3041 93.517 61.5525 94.1407C61.5301 94.1648 61.5095 94.1889 61.4871 94.2112C61.5095 94.2224 61.5338 94.2316 61.5562 94.2428L61.56 94.5955C61.5338 94.6567 61.5095 94.718 61.4834 94.7774C61.4516 95.0447 61.4218 95.3102 61.39 95.5775C61.362 95.635 61.3359 95.6944 61.3079 95.752C61.306 95.8411 61.3023 95.932 61.3004 96.0212C61.2724 96.0787 61.2462 96.1381 61.2182 96.1975C61.207 96.3553 61.1958 96.5149 61.1827 96.695H60.4488C60.292 96.424 60.4619 96.1604 60.4974 95.9024C60.5515 95.5051 60.6785 95.1171 60.7532 94.7199C60.8298 94.3133 60.5534 94.0163 60.1164 94.0052C59.6477 93.994 59.1622 94.3412 59.0501 94.8201C58.9063 95.4364 58.7775 96.0583 58.6374 96.7061H57.9838L57.8867 96.5558C57.9614 96.1901 58.0361 95.8244 58.1089 95.4568C58.221 94.8906 58.3293 94.3226 58.4376 93.7564C58.5328 93.2645 58.6262 92.7726 58.7271 92.2825C58.7401 92.2175 58.7999 92.1618 58.8372 92.1024H59.5954C59.5002 92.4421 59.4068 92.754 59.3302 93.0677C59.3153 93.1308 59.3583 93.2069 59.3751 93.2775C59.3564 93.3722 59.3377 93.465 59.3209 93.5578C59.3508 93.5504 59.3807 93.5429 59.4124 93.5374L59.4143 93.5392Z" fill="black"/>
<path id="Vector_44" d="M10.1607 93.3257C10.4801 93.3647 10.8087 93.3647 11.115 93.4483C11.8265 93.6432 12.2504 94.5806 11.9068 95.2953H9.39134C9.34839 95.7464 9.45483 95.9172 9.83205 96.0267C10.2989 96.1641 10.7359 96.0917 11.143 95.83C11.2027 95.8355 11.2606 95.8429 11.3204 95.8485C11.3914 96.0044 11.4605 96.1604 11.5277 96.3107C10.9282 96.7934 10.2634 96.8231 9.60609 96.708C9.15978 96.63 8.80123 96.2996 8.65744 95.8652C8.35678 94.9612 8.70972 93.8251 9.79844 93.426C9.91795 93.3926 10.0375 93.3592 10.157 93.3257H10.1607ZM11.2214 94.6846C11.2756 94.4971 11.2252 94.356 11.0814 94.2112C10.5865 93.7119 9.68826 93.968 9.46043 94.6846C9.48471 94.7087 9.50899 94.7347 9.53326 94.7588C10.0692 94.7588 10.607 94.7588 11.143 94.7588C11.1691 94.7347 11.1934 94.7087 11.2196 94.6846H11.2214Z" fill="black"/>
<path id="Vector_45" d="M72.393 95.8485C72.464 96.0044 72.5331 96.1604 72.5985 96.3033C72.014 96.8361 71.3361 96.8082 70.6862 96.7061C70.238 96.6356 69.8795 96.3015 69.7338 95.8671C69.4313 94.9667 69.7805 93.8269 70.8748 93.4241C70.9645 93.3944 71.0541 93.3647 71.1437 93.335C71.4929 93.3703 71.8534 93.3592 72.1876 93.4483C72.901 93.6376 73.323 94.5788 72.9813 95.2935H70.4659C70.4229 95.7446 70.5293 95.9153 70.9066 96.0249C71.3734 96.1622 71.8104 96.0898 72.2194 95.8281C72.2791 95.8337 72.337 95.8411 72.3968 95.8466L72.393 95.8485ZM72.2922 94.6846C72.3464 94.4971 72.2959 94.356 72.1521 94.2112C71.6573 93.7119 70.759 93.968 70.5312 94.6846C70.5555 94.7087 70.5798 94.7347 70.604 94.7588C71.14 94.7588 71.6778 94.7588 72.2138 94.7588C72.2399 94.7347 72.2642 94.7087 72.2903 94.6846H72.2922Z" fill="black"/>
<path id="Vector_46" d="M62.5517 94.5973C62.6451 94.4525 62.759 94.3152 62.8262 94.1592C63.1343 93.452 64.2212 93.1939 64.8468 93.3759C65.7674 93.645 66.0681 94.1592 65.9168 95.286C65.4873 95.2879 65.0466 95.2916 64.6059 95.2916C64.1745 95.2916 63.7431 95.2916 63.3136 95.2916C63.2725 95.7445 63.5228 96.01 64.0363 96.0805C64.3538 96.1251 64.5181 96.0805 65.2053 95.7724C65.3024 95.9265 65.4033 96.0843 65.5116 96.255C65.1997 96.6337 64.7609 96.6931 64.3295 96.7377C64.0662 96.7655 63.7823 96.7748 63.5302 96.708C63.1941 96.6189 62.9215 96.3906 62.7235 96.0991C62.5722 95.8764 62.5144 95.6202 62.5274 95.3473C62.5349 95.1839 62.5312 95.0224 62.533 94.8591C62.5386 94.77 62.5461 94.6827 62.5517 94.5936V94.5973ZM63.4406 94.757C64.0064 94.757 64.5741 94.757 65.14 94.757C65.1661 94.7328 65.1923 94.7068 65.2184 94.6827C65.2259 94.3727 65.1045 94.1592 64.7908 94.0571C64.1633 93.8548 63.7188 93.9495 63.364 94.6809C63.3883 94.705 63.4145 94.731 63.4387 94.7551L63.4406 94.757Z" fill="black"/>
<path id="Vector_47" d="M24.4466 96.747C23.8079 96.7878 23.3709 96.4574 23.1244 95.8652C22.9545 95.4568 22.9675 95.0002 23.1057 94.6141C23.4717 93.5912 24.4111 93.1383 25.4083 93.413C25.5763 93.4594 25.7594 93.4668 25.9144 93.5374C26.5045 93.8047 26.6819 94.5899 26.609 95.0447C26.426 96.2087 25.5297 96.8361 24.4466 96.747ZM24.9414 93.9903C23.9554 93.9996 23.6174 95.0911 23.9554 95.7631C23.9965 95.8448 24.0936 95.9098 24.1795 95.9562C24.5679 96.1697 24.9489 96.1288 25.3 95.8727C25.6996 95.5812 25.8751 95.1672 25.8098 94.6883C25.7444 94.2149 25.4195 93.9792 24.9433 93.9885L24.9414 93.9903Z" fill="black"/>
<path id="Vector_48" d="M20.7434 95.5812C21.1561 94.924 21.5726 94.2706 21.9797 93.6097C22.0805 93.4445 22.1944 93.3406 22.4036 93.3591C22.5474 93.3721 22.693 93.361 22.9208 93.361C22.7677 93.6264 22.6557 93.8381 22.5287 94.0385C21.834 95.1282 21.143 96.2216 20.4372 97.3039C20.073 97.8626 19.341 98.1318 18.7247 97.9443C18.5959 97.9053 18.495 97.7698 18.3811 97.677C18.4334 97.5656 18.4614 97.4598 18.523 97.3818C18.6332 97.2445 18.7359 97.1424 18.9675 97.2166C19.425 97.3633 19.6435 97.2519 19.9124 96.888C20.0114 96.7544 20.0188 96.6393 19.9815 96.4833C19.8302 95.854 19.7014 95.2192 19.5557 94.588C19.5109 94.3931 19.4287 94.2075 19.3858 94.0126C19.3428 93.8121 19.3279 93.606 19.298 93.3814H20.0655C20.0842 93.5151 20.1047 93.6543 20.1253 93.7954C20.144 93.8288 20.1645 93.8603 20.1832 93.8938C20.312 94.4544 20.4428 95.0131 20.5716 95.5737C20.5903 95.6016 20.609 95.6313 20.6258 95.6591C20.6631 95.6332 20.7023 95.6072 20.7397 95.5812H20.7434Z" fill="black"/>
<path id="Vector_49" d="M29.7726 96.4778C29.3953 96.7062 28.9901 96.7841 28.5513 96.7433C28.0489 96.6969 27.6269 96.3219 27.6213 95.8151C27.6175 95.4271 27.6698 95.0354 27.7315 94.6493C27.7987 94.2261 27.9051 93.8103 27.9985 93.3796H28.7754C28.7044 93.7267 28.6353 94.059 28.5718 94.3913C28.4971 94.7848 28.428 95.1802 28.3571 95.5738C28.3813 95.6053 28.4056 95.6369 28.428 95.6666C28.4654 95.9042 28.6204 96.0026 28.8463 96.0379C29.5447 96.1474 30.0004 95.7947 30.1386 95.0299C30.2245 94.5621 30.3085 94.0924 30.4019 93.6265C30.4187 93.5429 30.4654 93.465 30.5046 93.374H31.1545C31.3319 93.6525 31.1414 93.9346 31.0984 94.2057C30.9883 94.8925 30.8239 95.5701 30.6783 96.2495C30.6465 96.4017 30.5998 96.5502 30.5569 96.7154C30.3683 96.7154 30.189 96.7284 30.0135 96.708C29.9537 96.7006 29.9052 96.6059 29.8529 96.5521C29.8267 96.5261 29.8006 96.5001 29.7726 96.476V96.4778Z" fill="black"/>
<path id="Vector_50" d="M48.755 94.6697C48.811 94.6753 48.8689 94.6827 48.9249 94.6883C48.9586 94.7124 48.9903 94.7347 49.0239 94.7588C49.3713 94.7551 49.6962 94.8498 49.9744 95.0484C50.1052 95.1431 50.2321 95.3009 50.2732 95.4531C50.3722 95.8225 50.1462 96.4258 49.6869 96.5595C49.5487 96.6003 49.4161 96.6653 49.276 96.6876C48.6635 96.786 48.0529 96.8175 47.4646 96.5632C47.4235 96.5465 47.3787 96.5335 47.3451 96.5075C47.3115 96.4815 47.2872 96.4425 47.2573 96.4091C47.3806 96.2179 47.5038 96.0286 47.6401 95.8188C48.0304 96.0824 48.46 96.14 48.9044 96.1121C49.0052 96.1065 49.121 96.0973 49.1976 96.0434C49.3227 95.958 49.4964 95.8968 49.4702 95.6814C49.4441 95.4624 49.2686 95.5032 49.136 95.4698C48.91 95.4123 48.6859 95.3454 48.4562 95.3139C47.8269 95.2266 47.5188 94.6586 47.7989 94.0924C47.9782 93.7304 48.2452 93.4965 48.6523 93.4037C49.2779 93.2626 49.8717 93.3202 50.4824 93.6061C50.4133 93.7861 50.3479 93.9588 50.262 94.1815C50.0529 94.1314 49.8568 94.098 49.6663 94.0386C49.3115 93.9253 48.9642 93.9086 48.6448 94.124C48.4189 94.2762 48.4301 94.3727 48.6635 94.5955C48.6934 94.6196 48.7214 94.6456 48.7513 94.6697H48.755Z" fill="black"/>
<path id="Vector_51" d="M39.0797 96.4778C38.9864 96.669 38.8276 96.7321 38.6185 96.734C38.2394 96.7377 37.8416 96.8342 37.5447 96.4889C37.485 96.4202 37.414 96.3441 37.3916 96.2606C37.2646 95.7947 37.3281 95.3306 37.4345 94.8683C37.4924 94.6159 37.5298 94.3578 37.5802 94.0813C37.4327 94.0608 37.3038 94.0404 37.1357 94.0163C37.1675 93.8344 37.1974 93.6543 37.231 93.4501C37.4159 93.4315 37.5877 93.4148 37.7819 93.3963C37.8062 93.1549 37.8286 92.921 37.8547 92.6686H38.7063C38.6596 92.9099 38.6148 93.1401 38.5625 93.4185H39.4551C39.4009 93.6506 39.3599 93.8306 39.3113 94.0367H38.4654C38.3701 94.4247 38.2786 94.7997 38.189 95.1746C38.1628 95.286 38.1498 95.4011 38.1217 95.5143C38.0209 95.9265 38.2095 96.1492 38.6297 96.0972C38.7305 96.0842 38.8295 96.049 38.9528 96.0193C38.9733 96.1492 38.9901 96.2625 39.0069 96.3757C39.0312 96.4091 39.0536 96.4425 39.0779 96.4759L39.0797 96.4778Z" fill="black"/>
<path id="Vector_52" d="M14.835 96.6412C14.9209 96.2179 15.003 95.7947 15.0908 95.3733C15.186 94.9148 15.285 94.4562 15.3803 93.9959C15.5091 93.3759 15.638 92.7558 15.7724 92.108H16.5493C16.2561 93.6395 15.9648 95.1561 15.666 96.7098C15.4083 96.7098 15.1599 96.7098 14.9115 96.7098C14.8854 96.6876 14.8592 96.6634 14.835 96.6412Z" fill="black"/>
<path id="Vector_53" d="M12.6855 96.6412C12.7714 96.2179 12.8536 95.7947 12.9414 95.3733C13.0366 94.9148 13.1356 94.4562 13.2308 93.9959C13.3597 93.3759 13.4885 92.7558 13.623 92.108H14.3999C14.1067 93.6395 13.8153 95.1561 13.5166 96.7098C13.2588 96.7098 13.0105 96.7098 12.7621 96.7098C12.736 96.6876 12.7098 96.6634 12.6855 96.6412Z" fill="black"/>
<path id="Vector_54" d="M68.1949 93.593C68.5105 93.3777 68.8616 93.3257 69.2799 93.3424C69.2332 93.5893 69.1921 93.8102 69.1473 94.0441C69.0166 94.0516 68.9008 94.0571 68.785 94.0664C68.279 94.1017 67.969 94.4098 67.8438 94.8554C67.6758 95.4512 67.5805 96.0675 67.4498 96.6987H66.7178C66.7551 95.7483 66.983 94.8516 67.1828 93.9495C67.1958 93.8938 67.194 93.8344 67.2014 93.7768C67.2481 93.4315 67.3228 93.3591 67.6851 93.3666C67.8252 93.3684 67.9634 93.413 68.1034 93.439C68.1034 93.5002 68.0997 93.5633 68.0997 93.6246C68.1333 93.6135 68.165 93.6042 68.1987 93.593H68.1949Z" fill="black"/>
<path id="Vector_55" d="M39.9968 96.6412C40.2228 95.5682 40.4506 94.4934 40.684 93.387H41.3843C41.4049 93.4576 41.4254 93.5281 41.4516 93.6209C41.8026 93.4836 42.1388 93.2868 42.5926 93.3796C42.5627 93.5968 42.5328 93.8158 42.5029 94.0423C42.3423 94.0535 42.2247 94.0535 42.1089 94.0702C41.6122 94.1444 41.248 94.5194 41.1565 95.0187C41.0538 95.5719 40.9361 96.1233 40.8166 96.7117C40.572 96.7117 40.3236 96.7117 40.0734 96.7117C40.0472 96.6895 40.0211 96.6653 39.9968 96.6431V96.6412Z" fill="black"/>
<path id="Vector_56" d="M31.9368 96.6412C32.1627 95.5682 32.3906 94.4934 32.624 93.387H33.3243C33.3448 93.4576 33.3654 93.5281 33.3915 93.6209C33.7426 93.4836 34.0787 93.2868 34.5325 93.3796C34.5026 93.5968 34.4727 93.8158 34.4429 94.0423C34.2823 94.0535 34.1646 94.0535 34.0488 94.0702C33.5521 94.1444 33.1879 94.5194 33.0964 95.0187C32.9937 95.5719 32.8761 96.1233 32.7566 96.7117C32.5119 96.7117 32.2636 96.7117 32.0133 96.7117C31.9872 96.6895 31.961 96.6653 31.9368 96.6431V96.6412Z" fill="black"/>
<path id="Vector_57" d="M49.7278 87.5599C49.7615 87.6008 49.7951 87.6398 49.8305 87.6806C49.7857 87.7549 49.739 87.831 49.6942 87.9052C49.6251 87.844 49.5112 87.792 49.4981 87.7214C49.4664 87.5469 49.6195 87.5711 49.7297 87.5618L49.7278 87.5599Z" fill="black"/>
<path id="Vector_58" d="M40.3255 87.5599C40.3591 87.6008 40.3927 87.6398 40.4282 87.6806C40.3834 87.7549 40.3367 87.831 40.2919 87.9052C40.2228 87.844 40.1089 87.792 40.0958 87.7214C40.0641 87.5469 40.2172 87.5711 40.3274 87.5618L40.3255 87.5599Z" fill="black"/>
<path id="Vector_59" d="M6.30811 93.0659C6.49858 92.8394 6.66105 92.8394 6.85153 93.0659C6.67039 93.0659 6.48925 93.0659 6.30811 93.0659Z" fill="black"/>
<path id="Vector_60" d="M10.1608 93.3258C10.0413 93.3592 9.92176 93.3926 9.80225 93.426C9.81158 93.3573 9.80038 93.2719 9.83773 93.2237C9.88255 93.1643 9.96845 93.1364 10.0357 93.0956C10.0768 93.1717 10.1197 93.2497 10.1608 93.3258Z" fill="black"/>
<path id="Vector_61" d="M54.0379 77.9236C53.9147 77.9125 53.7634 78.0165 53.6831 77.8364C53.8344 77.7343 53.9688 77.6916 54.0379 77.9236Z" fill="black"/>
<path id="Vector_62" d="M44.1891 77.9237C44.0677 77.9107 43.9146 78.0165 43.8362 77.8346C43.9856 77.7362 44.1238 77.6935 44.1891 77.9237Z" fill="black"/>
<path id="Vector_63" d="M4.07477 77.8383C3.95525 77.8142 3.83387 77.7882 3.71436 77.764C3.86562 77.6397 3.99821 77.6081 4.07477 77.8383Z" fill="black"/>
<path id="Vector_64" d="M71.1417 93.3369C71.0521 93.3666 70.9624 93.3963 70.8728 93.426C70.9102 93.3462 70.9475 93.2663 70.9849 93.1865C71.0371 93.2366 71.0894 93.2868 71.1417 93.3369Z" fill="black"/>
<path id="Vector_65" d="M77.4985 77.9218C77.4089 77.8958 77.3192 77.8717 77.2314 77.8457C77.3678 77.7102 77.4574 77.7343 77.4985 77.9218Z" fill="black"/>
<path id="Vector_66" d="M4.70209 77.9255C4.61058 77.9255 4.51908 77.9255 4.42944 77.9236C4.46866 77.8735 4.50601 77.8234 4.54522 77.7714C4.59751 77.8234 4.65167 77.8735 4.70396 77.9255H4.70209Z" fill="black"/>
<path id="Vector_67" d="M15.087 77.8364C14.9731 77.7974 14.8573 77.7566 14.7434 77.7176C14.8891 77.6693 15.0329 77.6229 15.087 77.8364Z" fill="black"/>
<path id="Vector_68" d="M62.5517 94.5974C62.5461 94.6865 62.5386 94.7737 62.533 94.8628C62.4826 94.822 62.4303 94.783 62.3799 94.7421C62.4378 94.6939 62.4938 94.6456 62.5517 94.5974Z" fill="black"/>
<path id="Vector_69" d="M5.14856 78.0165C5.04585 78.0202 4.91887 78.0778 4.88525 77.9107C5.03278 77.7975 5.11308 77.855 5.14856 78.0165Z" fill="black"/>
<path id="Vector_70" d="M59.588 86.1268C59.5918 86.2493 59.6086 86.3812 59.4312 86.4016C59.4834 86.3106 59.5357 86.2178 59.588 86.1268Z" fill="black"/>
<path id="Vector_71" d="M55.3751 82.765C55.306 82.7483 55.2369 82.7334 55.0894 82.7C55.2275 82.6443 55.306 82.6146 55.3825 82.5831C55.3807 82.6443 55.3769 82.7056 55.3751 82.765Z" fill="black"/>
<path id="Vector_72" d="M0.317383 81.8572C0.47238 81.8647 0.509729 81.9593 0.496657 82.093C0.436899 82.015 0.377141 81.9352 0.317383 81.8572Z" fill="black"/>
<path id="Vector_73" d="M65.5861 80.0844C65.5339 79.9935 65.4816 79.9007 65.4312 79.8097C65.6067 79.832 65.5917 79.9619 65.5861 80.0844Z" fill="black"/>
<path id="Vector_74" d="M72.393 95.8485C72.3332 95.8429 72.2753 95.8355 72.2156 95.83C72.2417 95.7873 72.2679 95.7427 72.294 95.7C72.3276 95.7501 72.3594 95.7984 72.393 95.8485Z" fill="black"/>
<path id="Vector_75" d="M57.8904 96.5558L57.9876 96.7061C57.9297 96.6932 57.8699 96.6802 57.812 96.6672C57.8382 96.63 57.8662 96.5929 57.8923 96.5558H57.8904Z" fill="black"/>
<path id="Vector_76" d="M61.4854 94.7793C61.5115 94.718 61.5358 94.6568 61.5619 94.5974C61.6908 94.7236 61.5955 94.7551 61.4854 94.7793Z" fill="black"/>
<path id="Vector_77" d="M51.1734 96.5558C51.2052 96.6059 51.2369 96.656 51.2705 96.7061C51.2126 96.6932 51.1529 96.6802 51.095 96.6672C51.1211 96.63 51.1491 96.5929 51.1753 96.5558H51.1734Z" fill="black"/>
<path id="Vector_78" d="M56.4712 81.2354C56.516 81.1537 56.559 81.0701 56.6038 80.9885C56.643 81.1147 56.6225 81.2094 56.4712 81.2354Z" fill="black"/>
<path id="Vector_79" d="M61.3098 95.7538C61.3378 95.6963 61.364 95.6369 61.392 95.5793C61.519 95.7093 61.42 95.7353 61.3098 95.7538Z" fill="black"/>
<path id="Vector_80" d="M0.302417 79.3419C0.250129 79.4087 0.199708 79.4774 0.14742 79.5443C0.104469 79.405 0.19784 79.3698 0.302417 79.3419Z" fill="black"/>
<path id="Vector_81" d="M61.2202 96.1994C61.2482 96.14 61.2744 96.0824 61.3024 96.023C61.4294 96.153 61.3304 96.1789 61.2202 96.1994Z" fill="black"/>
<path id="Vector_82" d="M4.18311 79.3939C4.30822 79.3586 4.40533 79.3753 4.43147 79.5257C4.34931 79.4812 4.26527 79.4385 4.18311 79.3939Z" fill="black"/>
<path id="Vector_83" d="M11.3222 95.8485C11.2624 95.8429 11.2045 95.8355 11.1448 95.83C11.1709 95.7873 11.1971 95.7427 11.2232 95.7C11.2568 95.7501 11.2886 95.7984 11.3222 95.8485Z" fill="black"/>
<path id="Vector_84" d="M59.4143 93.5392C59.3844 93.5467 59.3545 93.5541 59.3228 93.5597C59.3414 93.4669 59.3601 93.3722 59.3769 93.2794C59.3881 93.3666 59.4012 93.452 59.4124 93.5392H59.4143Z" fill="black"/>
<path id="Vector_85" d="M52.6989 93.5392C52.6691 93.5467 52.6392 93.5522 52.6074 93.5597C52.6261 93.4669 52.6448 93.3722 52.6616 93.2794C52.6728 93.3666 52.6859 93.452 52.6971 93.5392H52.6989Z" fill="black"/>
<path id="Vector_86" d="M20.7435 95.5812C20.7062 95.6072 20.6669 95.6332 20.6296 95.6592C20.6109 95.6313 20.5922 95.6016 20.5754 95.5738C20.6315 95.5756 20.6875 95.5794 20.7454 95.5812H20.7435Z" fill="black"/>
<path id="Vector_87" d="M16.4148 85.5124C16.3569 85.5105 16.2971 85.5068 16.2393 85.505C16.2841 85.4734 16.3308 85.44 16.3756 85.4084C16.3887 85.4437 16.4017 85.479 16.4148 85.5143V85.5124Z" fill="black"/>
<path id="Vector_88" d="M68.1949 93.593C68.1613 93.6042 68.1296 93.6135 68.0959 93.6246C68.0959 93.5633 68.0997 93.5002 68.0997 93.439C68.1314 93.4909 68.1632 93.5411 68.1949 93.593Z" fill="black"/>
<path id="Vector_89" d="M39.9968 96.6412C40.023 96.6635 40.0491 96.6876 40.0734 96.7099C40.0472 96.6876 40.0211 96.6635 39.9968 96.6412Z" fill="black"/>
<path id="Vector_90" d="M0.0709625 86.9752V86.9864C0.0466859 86.9882 0.0242767 86.9919 0 86.9938C0.0242767 86.9882 0.0466859 86.9808 0.0709625 86.9752Z" fill="black"/>
<path id="Vector_91" d="M13.117 86.0303C13.0852 86.0062 13.0535 85.9821 13.0217 85.9598C13.0535 85.9839 13.0852 86.008 13.117 86.0303Z" fill="black"/>
<path id="Vector_92" d="M12.8478 85.9412C12.8161 85.9171 12.7843 85.893 12.7507 85.8688C12.7825 85.893 12.8142 85.9171 12.8478 85.9412Z" fill="black"/>
<path id="Vector_93" d="M73.1102 84.9796L73.0317 84.8868C73.0579 84.9183 73.084 84.948 73.1102 84.9796Z" fill="black"/>
<path id="Vector_94" d="M56.0979 83.1864C56.068 83.1604 56.0362 83.1344 56.0063 83.1066C56.0362 83.1326 56.068 83.1585 56.0979 83.1864Z" fill="black"/>
<path id="Vector_95" d="M36.1274 82.934C36.105 82.9024 36.0826 82.8709 36.062 82.8393C36.0844 82.8709 36.1068 82.9024 36.1274 82.934Z" fill="black"/>
<path id="Vector_96" d="M3.62462 81.9334C3.59288 81.9092 3.56113 81.8851 3.53125 81.861C3.563 81.8851 3.59474 81.9092 3.62462 81.9334Z" fill="black"/>
<path id="Vector_97" d="M78.4753 80.0826C78.4959 80.0622 78.5183 80.0585 78.5444 80.0715C78.537 80.0956 78.5314 80.1197 78.5239 80.142L78.4753 80.0826Z" fill="black"/>
<path id="Vector_98" d="M16.3381 79.9731C16.3624 79.9471 16.3867 79.923 16.4091 79.897C16.3848 79.923 16.3605 79.9471 16.3381 79.9731Z" fill="black"/>
<path id="Vector_99" d="M61.5581 94.2428C61.5357 94.2316 61.5114 94.2224 61.489 94.2112C61.5114 94.1871 61.532 94.163 61.5544 94.1407C61.5544 94.1741 61.5581 94.2094 61.5581 94.2428Z" fill="black"/>
<path id="Vector_100" d="M28.4262 95.6703C28.4019 95.6388 28.3776 95.6072 28.3552 95.5775C28.3795 95.6091 28.4038 95.6406 28.4262 95.6703Z" fill="black"/>
<path id="Vector_101" d="M56.0979 78.9187C56.0717 78.889 56.0456 78.8611 56.0176 78.8314C56.0437 78.8611 56.0699 78.889 56.0979 78.9187Z" fill="black"/>
<path id="Vector_102" d="M29.7725 96.4778C29.7986 96.5038 29.8248 96.5298 29.8528 96.5539C29.8266 96.5279 29.8005 96.5019 29.7725 96.4778Z" fill="black"/>
<path id="Vector_103" d="M12.6855 96.6412C12.7117 96.6635 12.7378 96.6876 12.7621 96.7099C12.736 96.6876 12.7098 96.6635 12.6855 96.6412Z" fill="black"/>
<path id="Vector_104" d="M14.835 96.6412C14.8611 96.6635 14.8872 96.6876 14.9115 96.7099C14.8854 96.6876 14.8592 96.6635 14.835 96.6412Z" fill="black"/>
<path id="Vector_105" d="M31.9368 96.6412C31.9629 96.6635 31.9891 96.6876 32.0133 96.7099C31.9872 96.6876 31.961 96.6635 31.9368 96.6412Z" fill="black"/>
<path id="Vector_106" d="M54.5925 81.0572C54.6149 81.0256 54.6392 80.994 54.6616 80.9606C54.6392 80.9922 54.6149 81.0237 54.5925 81.0572Z" fill="black"/>
<path id="Vector_107" d="M51.7092 79.3623C51.6849 79.3939 51.6607 79.4236 51.6345 79.4551C51.6588 79.4236 51.6831 79.3939 51.7092 79.3623Z" fill="black"/>
<path id="Vector_108" d="M24.1328 80.7898C24.1123 80.7007 24.0899 80.6116 24.0693 80.5225C24.2523 80.5745 24.2635 80.6655 24.1328 80.7898Z" fill="black"/>
<path id="Vector_109" d="M24.0564 81.3245C24.0825 81.2354 24.1068 81.1463 24.133 81.0572C24.2674 81.1927 24.245 81.2818 24.0564 81.3245Z" fill="black"/>
<path id="Vector_110" d="M33.1749 79.6092C33.1151 79.6464 33.0554 79.6835 32.9956 79.7206C33.0217 79.6445 33.0479 79.5684 33.074 79.4904C33.1077 79.5294 33.1413 79.5684 33.1749 79.6092Z" fill="black"/>
<path id="Vector_111" d="M33.7239 81.2317C33.694 81.1722 33.6642 81.1147 33.6343 81.0553C33.7314 81.0794 33.8472 81.0961 33.7239 81.2317Z" fill="black"/>
<path id="Vector_112" d="M33.8864 81.7793C33.8659 81.7459 33.8453 81.7125 33.8267 81.6791C33.8472 81.7125 33.8677 81.7459 33.8864 81.7793Z" fill="black"/>
<path id="Vector_113" d="M63.7954 79.9953L63.6348 79.7188C63.8122 79.7392 63.8103 79.8654 63.7954 79.9953Z" fill="black"/>
<path id="Vector_114" d="M42.3069 79.3623C42.2826 79.3939 42.2583 79.4236 42.2322 79.4551C42.2565 79.4236 42.2807 79.3939 42.3069 79.3623Z" fill="black"/>
<path id="Vector_115" d="M63.3657 94.6846L63.4404 94.7588C63.4161 94.7347 63.39 94.7087 63.3657 94.6846Z" fill="black"/>
</g>
</g>
<defs>
<clipPath id="clip0_146_1332">
<rect width="79" height="98" fill="white"/>
</clipPath>
</defs>
</svg>




<svg width="38" height="38" x="63" y="157" viewBox="0 0 38 38" fill="none" xmlns="http://www.w3.org/2000/svg">
<rect width="38" height="38" fill="white"/>
<g id="Desktop - 1" clip-path="url(#clip0_0_1)">
<rect width="1440" height="10931" transform="translate(-249 -2271)" fill="white"/>
<rect id="Rectangle 208" x="-249" y="-534" width="1440" height="1119" fill="white"/>

<g id="Group 240">
<rect id="Rectangle 201" x="-196" y="-241" width="418" height="468" rx="45" fill="white"/>
<g id="Group 238">
<rect id="Rectangle 207" x="-58" y="-152" width="155" height="300" rx="25" fill="white" />
<g id="Group 237">
<g id="Group 236">
<g id="new_releases">
<mask id="mask0_0_1" style="mask-type:alpha" maskUnits="userSpaceOnUse" x="0" y="0" width="38" height="38">
<rect id="Bounding box" width="38" height="38" fill="#71BF44"/>
</mask>
<g mask="url(#mask0_0_1)">
<path id="new_releases_2" d="M17.3375 20.1083L15.0417 17.8521C14.7514 17.5618 14.3885 17.4167 13.9531 17.4167C13.5177 17.4167 13.1417 17.575 12.825 17.8917C12.5347 18.1819 12.3896 18.5514 12.3896 19C12.3896 19.4486 12.5347 19.8181 12.825 20.1083L16.2292 23.5125C16.5458 23.8292 16.9153 23.9875 17.3375 23.9875C17.7597 23.9875 18.1292 23.8292 18.4458 23.5125L25.175 16.7833C25.4917 16.4667 25.6434 16.0972 25.6302 15.675C25.617 15.2528 25.4653 14.8833 25.175 14.5667C24.8583 14.25 24.4823 14.0851 24.0469 14.0719C23.6114 14.0587 23.2354 14.2104 22.9187 14.5271L17.3375 20.1083ZM12.9042 34.4375L10.6083 30.5583L6.25415 29.6083C5.85832 29.5292 5.54165 29.3247 5.30415 28.9948C5.06665 28.6649 4.97429 28.3021 5.02707 27.9063L5.46248 23.4333L2.49373 20.0292C2.22984 19.7389 2.0979 19.3958 2.0979 19C2.0979 18.6042 2.22984 18.2611 2.49373 17.9708L5.46248 14.5667L5.02707 10.0938C4.97429 9.69792 5.06665 9.33507 5.30415 9.00521C5.54165 8.67535 5.85832 8.47084 6.25415 8.39167L10.6083 7.44167L12.9042 3.5625C13.1153 3.21945 13.4055 2.98855 13.775 2.8698C14.1444 2.75105 14.5139 2.77084 14.8833 2.92917L19 4.67084L23.1167 2.92917C23.4861 2.77084 23.8555 2.75105 24.225 2.8698C24.5944 2.98855 24.8847 3.21945 25.0958 3.5625L27.3917 7.44167L31.7458 8.39167C32.1417 8.47084 32.4583 8.67535 32.6958 9.00521C32.9333 9.33507 33.0257 9.69792 32.9729 10.0938L32.5375 14.5667L35.5062 17.9708C35.7701 18.2611 35.9021 18.6042 35.9021 19C35.9021 19.3958 35.7701 19.7389 35.5062 20.0292L32.5375 23.4333L32.9729 27.9063C33.0257 28.3021 32.9333 28.6649 32.6958 28.9948C32.4583 29.3247 32.1417 29.5292 31.7458 29.6083L27.3917 30.5583L25.0958 34.4375C24.8847 34.7806 24.5944 35.0115 24.225 35.1302C23.8555 35.249 23.4861 35.2292 23.1167 35.0708L19 33.3292L14.8833 35.0708C14.5139 35.2292 14.1444 35.249 13.775 35.1302C13.4055 35.0115 13.1153 34.7806 12.9042 34.4375Z" fill="#71BF44"/>
</g>
</g>
</g>
</g>
</g>
</g>
</g>
<defs>
<clipPath id="clip0_0_1">
<rect width="1440" height="10931" fill="white" transform="translate(-249 -2271)"/>
</clipPath>
</defs>
</svg>






<svg width="50" height="16" x="58" y="195" viewBox="0 0 50 16" fill="none" xmlns="http://www.w3.org/2000/svg">
<path d="M9.58227 12.76V15H1.28227V12.76H4.08227V5.41C4.08227 5.22333 4.0856 5.03667 4.09227 4.85C4.09893 4.65667 4.10893 4.46333 4.12227 4.27L2.46227 5.65C2.3156 5.76333 2.16893 5.83333 2.02227 5.86C1.88227 5.88 1.74893 5.88 1.62227 5.86C1.4956 5.83333 1.38227 5.79 1.28227 5.73C1.18227 5.66333 1.10893 5.59667 1.06227 5.53L0.0822657 4.23L4.62227 0.419999H7.18227V12.76H9.58227ZM15.1138 5.56C15.3872 5.50667 15.6505 5.47 15.9038 5.45C16.1572 5.43 16.4038 5.42 16.6438 5.42C17.4105 5.42 18.0872 5.53667 18.6738 5.77C19.2605 6.00333 19.7538 6.32333 20.1538 6.73C20.5538 7.13 20.8538 7.60333 21.0538 8.15C21.2605 8.69 21.3638 9.27 21.3638 9.89C21.3638 10.67 21.2238 11.3833 20.9438 12.03C20.6705 12.67 20.2872 13.2233 19.7938 13.69C19.3005 14.1567 18.7105 14.52 18.0238 14.78C17.3438 15.0333 16.5972 15.16 15.7838 15.16C15.3105 15.16 14.8572 15.11 14.4238 15.01C13.9972 14.91 13.5938 14.7767 13.2138 14.61C12.8405 14.4367 12.4938 14.24 12.1738 14.02C11.8538 13.7933 11.5638 13.5533 11.3038 13.3L12.2638 12.02C12.3638 11.8867 12.4805 11.7867 12.6138 11.72C12.7472 11.6467 12.8905 11.61 13.0438 11.61C13.2438 11.61 13.4305 11.6667 13.6038 11.78C13.7838 11.8867 13.9772 12.0067 14.1838 12.14C14.3972 12.2667 14.6438 12.3833 14.9238 12.49C15.2038 12.5967 15.5505 12.65 15.9638 12.65C16.3772 12.65 16.7305 12.5833 17.0238 12.45C17.3172 12.31 17.5538 12.1233 17.7338 11.89C17.9205 11.65 18.0538 11.3733 18.1338 11.06C18.2205 10.74 18.2638 10.4 18.2638 10.04C18.2638 9.33333 18.0638 8.79667 17.6638 8.43C17.2638 8.05667 16.6972 7.87 15.9638 7.87C15.3105 7.87 14.6705 7.99333 14.0438 8.24L12.1238 7.72L13.3638 0.43H20.8238V1.71C20.8238 1.92333 20.7905 2.11667 20.7238 2.29C20.6572 2.46333 20.5505 2.61667 20.4038 2.75C20.2638 2.87667 20.0772 2.97667 19.8438 3.05C19.6105 3.11667 19.3305 3.15 19.0038 3.15H15.5238L15.1138 5.56ZM33.4754 7.71C33.4754 8.98333 33.3387 10.0867 33.0654 11.02C32.7921 11.9533 32.4121 12.7267 31.9254 13.34C31.4454 13.9533 30.8721 14.41 30.2054 14.71C29.5454 15.01 28.8287 15.16 28.0554 15.16C27.2821 15.16 26.5654 15.01 25.9054 14.71C25.2521 14.41 24.6854 13.9533 24.2054 13.34C23.7254 12.7267 23.3487 11.9533 23.0754 11.02C22.8087 10.0867 22.6754 8.98333 22.6754 7.71C22.6754 6.43667 22.8087 5.33333 23.0754 4.4C23.3487 3.46667 23.7254 2.69333 24.2054 2.08C24.6854 1.46667 25.2521 1.01333 25.9054 0.719999C26.5654 0.419999 27.2821 0.27 28.0554 0.27C28.8287 0.27 29.5454 0.419999 30.2054 0.719999C30.8721 1.01333 31.4454 1.46667 31.9254 2.08C32.4121 2.69333 32.7921 3.46667 33.0654 4.4C33.3387 5.33333 33.4754 6.43667 33.4754 7.71ZM30.2754 7.71C30.2754 6.70333 30.2121 5.88 30.0854 5.24C29.9587 4.59333 29.7887 4.08667 29.5754 3.72C29.3687 3.35333 29.1321 3.10333 28.8654 2.97C28.5987 2.83 28.3287 2.76 28.0554 2.76C27.7821 2.76 27.5121 2.83 27.2454 2.97C26.9854 3.10333 26.7521 3.35333 26.5454 3.72C26.3454 4.08667 26.1821 4.59333 26.0554 5.24C25.9354 5.88 25.8754 6.70333 25.8754 7.71C25.8754 8.72333 25.9354 9.55 26.0554 10.19C26.1821 10.83 26.3454 11.3367 26.5454 11.71C26.7521 12.0767 26.9854 12.33 27.2454 12.47C27.5121 12.6033 27.7821 12.67 28.0554 12.67C28.3287 12.67 28.5987 12.6033 28.8654 12.47C29.1321 12.33 29.3687 12.0767 29.5754 11.71C29.7887 11.3367 29.9587 10.83 30.0854 10.19C30.2121 9.55 30.2754 8.72333 30.2754 7.71ZM37.327 14.88C37.2536 15.06 37.157 15.22 37.037 15.36C36.9236 15.5 36.7936 15.6167 36.647 15.71C36.507 15.8033 36.3536 15.8733 36.187 15.92C36.027 15.9667 35.867 15.99 35.707 15.99H34.387L40.067 1.08C40.2003 0.739999 40.4036 0.479999 40.677 0.3C40.9503 0.119999 41.267 0.029999 41.627 0.029999H42.947L37.327 14.88ZM44.4873 7.67H49.8873V10.17H44.4873V7.67Z" fill="black"/>
</svg>






<svg width="93" height="27" x="36" y="245" viewBox="0 0 93 27" fill="none" xmlns="http://www.w3.org/2000/svg">
<rect width="93" height="27" rx="10" fill="#71BF44"/>
<path d="M11.0038 15.27V10.258C11.0038 10.0807 11.0551 9.94067 11.1578 9.838C11.2604 9.73533 11.3958 9.656 11.5638 9.6C11.8718 9.488 12.2404 9.40867 12.6698 9.362C13.0991 9.31533 13.4864 9.292 13.8318 9.292C15.0918 9.292 16.0438 9.56267 16.6878 10.104C17.3411 10.636 17.6678 11.364 17.6678 12.288C17.6678 12.8853 17.5231 13.408 17.2338 13.856C16.9538 14.304 16.5478 14.654 16.0158 14.906C15.4838 15.1487 14.8444 15.27 14.0978 15.27H11.0038ZM12.1518 18.098C11.7318 18.098 11.4331 18.0233 11.2558 17.874C11.0878 17.7247 11.0038 17.4633 11.0038 17.09V14.332H13.1318V17.986C13.0478 18.014 12.9124 18.0373 12.7258 18.056C12.5391 18.084 12.3478 18.098 12.1518 18.098ZM13.1178 13.59H13.9578C14.4338 13.59 14.8071 13.478 15.0778 13.254C15.3578 13.03 15.4978 12.708 15.4978 12.288C15.4978 11.868 15.3671 11.5507 15.1058 11.336C14.8444 11.1213 14.4664 11.014 13.9718 11.014C13.8038 11.014 13.6498 11.0187 13.5098 11.028C13.3791 11.0373 13.2484 11.0513 13.1178 11.07V13.59ZM18.9855 14.304L21.0715 14.346V17.986C20.9782 18.014 20.8475 18.0373 20.6795 18.056C20.5115 18.084 20.3295 18.098 20.1335 18.098C19.7415 18.098 19.4522 18.028 19.2655 17.888C19.0788 17.748 18.9855 17.496 18.9855 17.132V14.304ZM21.0715 15.424L18.9855 15.382V8.886C19.0788 8.858 19.2095 8.83 19.3775 8.802C19.5455 8.774 19.7275 8.76 19.9235 8.76C20.3248 8.76 20.6142 8.83 20.7915 8.97C20.9782 9.11 21.0715 9.36667 21.0715 9.74V15.424ZM25.529 18.224C24.577 18.224 23.8163 18.0373 23.247 17.664C22.687 17.2907 22.407 16.7353 22.407 15.998C22.407 15.3633 22.603 14.878 22.995 14.542C23.387 14.1967 23.9703 13.9867 24.745 13.912L26.607 13.716V13.548C26.607 13.2307 26.481 13.002 26.229 12.862C25.9863 12.722 25.6363 12.652 25.179 12.652C24.8243 12.652 24.4743 12.694 24.129 12.778C23.793 12.862 23.4897 12.96 23.219 13.072C23.107 12.9973 23.009 12.8853 22.925 12.736C22.8503 12.5773 22.813 12.414 22.813 12.246C22.813 11.854 23.0277 11.5693 23.457 11.392C23.7277 11.28 24.0403 11.2007 24.395 11.154C24.759 11.098 25.109 11.07 25.445 11.07C26.4157 11.07 27.1903 11.2753 27.769 11.686C28.3477 12.0873 28.637 12.7127 28.637 13.562V16.74C28.637 16.9733 28.5763 17.1647 28.455 17.314C28.3337 17.454 28.1797 17.5753 27.993 17.678C27.713 17.846 27.363 17.9767 26.943 18.07C26.5323 18.1727 26.061 18.224 25.529 18.224ZM25.529 16.67C25.7437 16.67 25.9537 16.6513 26.159 16.614C26.3737 16.5673 26.5277 16.516 26.621 16.46V15.116L25.445 15.228C25.1277 15.2467 24.8757 15.312 24.689 15.424C24.5023 15.536 24.409 15.704 24.409 15.928C24.409 16.152 24.4977 16.334 24.675 16.474C24.8523 16.6047 25.137 16.67 25.529 16.67ZM33.8618 12.722C33.3578 12.722 32.9238 12.89 32.5598 13.226C32.2052 13.5527 32.0278 14.0333 32.0278 14.668C32.0278 15.2933 32.2005 15.7647 32.5458 16.082C32.8912 16.3993 33.3252 16.558 33.8478 16.558C34.1558 16.558 34.4218 16.5207 34.6458 16.446C34.8792 16.362 35.0798 16.2733 35.2478 16.18C35.4065 16.292 35.5278 16.418 35.6118 16.558C35.6958 16.6887 35.7378 16.852 35.7378 17.048C35.7378 17.3933 35.5512 17.6733 35.1778 17.888C34.8045 18.1027 34.2865 18.21 33.6238 18.21C32.8865 18.21 32.2378 18.0793 31.6778 17.818C31.1178 17.5473 30.6838 17.146 30.3758 16.614C30.0678 16.082 29.9138 15.4333 29.9138 14.668C29.9138 13.856 30.0818 13.1887 30.4178 12.666C30.7538 12.134 31.1972 11.7373 31.7478 11.476C32.3078 11.2053 32.9145 11.07 33.5678 11.07C34.2118 11.07 34.7158 11.1867 35.0798 11.42C35.4532 11.6533 35.6398 11.9427 35.6398 12.288C35.6398 12.456 35.5978 12.61 35.5138 12.75C35.4392 12.8807 35.3505 12.9973 35.2478 13.1C35.0705 13.0067 34.8652 12.9227 34.6318 12.848C34.4078 12.764 34.1512 12.722 33.8618 12.722ZM37.819 15.62L37.735 14.22L41.207 13.674C41.1883 13.4127 41.0763 13.17 40.871 12.946C40.6657 12.722 40.3623 12.61 39.961 12.61C39.541 12.61 39.191 12.7547 38.911 13.044C38.631 13.324 38.4817 13.7253 38.463 14.248L38.533 15.214C38.617 15.7273 38.8363 16.096 39.191 16.32C39.5457 16.5347 39.9657 16.642 40.451 16.642C40.843 16.642 41.2117 16.586 41.557 16.474C41.9023 16.362 42.1823 16.2453 42.397 16.124C42.537 16.208 42.649 16.3247 42.733 16.474C42.8263 16.6233 42.873 16.782 42.873 16.95C42.873 17.23 42.761 17.4633 42.537 17.65C42.3223 17.8367 42.019 17.9767 41.627 18.07C41.2443 18.1633 40.8057 18.21 40.311 18.21C39.5923 18.21 38.9437 18.0747 38.365 17.804C37.7957 17.5333 37.3477 17.1273 37.021 16.586C36.6943 16.0447 36.531 15.368 36.531 14.556C36.531 13.9587 36.6243 13.4407 36.811 13.002C37.007 12.5633 37.2637 12.204 37.581 11.924C37.9077 11.6347 38.2717 11.42 38.673 11.28C39.0837 11.14 39.5083 11.07 39.947 11.07C40.591 11.07 41.151 11.2007 41.627 11.462C42.1123 11.714 42.4903 12.0593 42.761 12.498C43.0317 12.9367 43.167 13.4453 43.167 14.024C43.167 14.3133 43.0877 14.5327 42.929 14.682C42.7703 14.8313 42.551 14.9247 42.271 14.962L37.819 15.62ZM55.6716 13.744C55.6716 14.7147 55.4803 15.536 55.0976 16.208C54.7243 16.8707 54.2063 17.3747 53.5436 17.72C52.8903 18.0653 52.1483 18.238 51.3176 18.238C50.487 18.238 49.745 18.0653 49.0916 17.72C48.4383 17.3747 47.925 16.8707 47.5516 16.208C47.1783 15.536 46.9916 14.7147 46.9916 13.744C46.9916 12.7733 47.183 11.9567 47.5656 11.294C47.9483 10.622 48.4663 10.118 49.1196 9.782C49.773 9.43667 50.5056 9.264 51.3176 9.264C52.139 9.264 52.8763 9.43667 53.5296 9.782C54.1923 10.118 54.715 10.622 55.0976 11.294C55.4803 11.9567 55.6716 12.7733 55.6716 13.744ZM53.4736 13.744C53.4736 12.848 53.2776 12.1667 52.8856 11.7C52.503 11.2333 51.9803 11 51.3176 11C50.683 11 50.1696 11.2333 49.7776 11.7C49.3856 12.1573 49.1896 12.8387 49.1896 13.744C49.1896 14.6587 49.381 15.3493 49.7636 15.816C50.1556 16.2733 50.6783 16.502 51.3316 16.502C51.985 16.502 52.503 16.2733 52.8856 15.816C53.2776 15.3493 53.4736 14.6587 53.4736 13.744ZM59.1184 13.086V14.836H57.0464V12.834C57.0464 12.5727 57.107 12.3533 57.2284 12.176C57.359 11.9893 57.5364 11.826 57.7604 11.686C58.0684 11.4993 58.437 11.3547 58.8664 11.252C59.305 11.14 59.7624 11.084 60.2384 11.084C61.1904 11.084 61.6664 11.4013 61.6664 12.036C61.6664 12.1853 61.643 12.3253 61.5964 12.456C61.559 12.5867 61.5124 12.6987 61.4564 12.792C61.363 12.7733 61.2464 12.7593 61.1064 12.75C60.9757 12.7313 60.831 12.722 60.6724 12.722C60.3924 12.722 60.1124 12.7547 59.8324 12.82C59.5524 12.8853 59.3144 12.974 59.1184 13.086ZM57.0464 14.304L59.1184 14.346V17.986C59.025 18.014 58.8944 18.0373 58.7264 18.056C58.5584 18.084 58.3764 18.098 58.1804 18.098C57.7884 18.098 57.499 18.028 57.3124 17.888C57.135 17.748 57.0464 17.496 57.0464 17.132V14.304ZM66.8281 16.334V12.12H68.9001V16.6C68.9001 16.824 68.8534 17.0153 68.7601 17.174C68.6668 17.3233 68.5174 17.4587 68.3121 17.58C68.0601 17.748 67.7288 17.8927 67.3181 18.014C66.9168 18.1447 66.4501 18.21 65.9181 18.21C65.1434 18.21 64.4714 18.0793 63.9021 17.818C63.3421 17.5567 62.9081 17.1647 62.6001 16.642C62.3014 16.11 62.1521 15.452 62.1521 14.668C62.1521 13.8467 62.3061 13.1747 62.6141 12.652C62.9314 12.12 63.3561 11.7233 63.8881 11.462C64.4201 11.2007 65.0081 11.07 65.6521 11.07C65.9881 11.07 66.2868 11.1073 66.5481 11.182C66.8094 11.2567 67.0241 11.3453 67.1921 11.448V13.156C67.0614 13.044 66.8888 12.9413 66.6741 12.848C66.4594 12.7547 66.2121 12.708 65.9321 12.708C65.6054 12.708 65.3161 12.778 65.0641 12.918C64.8121 13.058 64.6161 13.2727 64.4761 13.562C64.3361 13.8513 64.2661 14.22 64.2661 14.668C64.2661 15.3213 64.4108 15.802 64.7001 16.11C64.9988 16.418 65.4001 16.572 65.9041 16.572C66.1094 16.572 66.2914 16.5487 66.4501 16.502C66.6088 16.446 66.7348 16.39 66.8281 16.334ZM68.9001 12.526L66.8281 12.54V8.886C66.9121 8.858 67.0381 8.83 67.2061 8.802C67.3741 8.774 67.5561 8.76 67.7521 8.76C68.1628 8.76 68.4568 8.83 68.6341 8.97C68.8114 9.11 68.9001 9.36667 68.9001 9.74V12.526ZM71.5202 15.62L71.4362 14.22L74.9082 13.674C74.8895 13.4127 74.7775 13.17 74.5722 12.946C74.3669 12.722 74.0635 12.61 73.6622 12.61C73.2422 12.61 72.8922 12.7547 72.6122 13.044C72.3322 13.324 72.1829 13.7253 72.1642 14.248L72.2342 15.214C72.3182 15.7273 72.5375 16.096 72.8922 16.32C73.2469 16.5347 73.6669 16.642 74.1522 16.642C74.5442 16.642 74.9129 16.586 75.2582 16.474C75.6035 16.362 75.8835 16.2453 76.0982 16.124C76.2382 16.208 76.3502 16.3247 76.4342 16.474C76.5275 16.6233 76.5742 16.782 76.5742 16.95C76.5742 17.23 76.4622 17.4633 76.2382 17.65C76.0235 17.8367 75.7202 17.9767 75.3282 18.07C74.9455 18.1633 74.5069 18.21 74.0122 18.21C73.2935 18.21 72.6449 18.0747 72.0662 17.804C71.4969 17.5333 71.0489 17.1273 70.7222 16.586C70.3955 16.0447 70.2322 15.368 70.2322 14.556C70.2322 13.9587 70.3255 13.4407 70.5122 13.002C70.7082 12.5633 70.9649 12.204 71.2822 11.924C71.6089 11.6347 71.9729 11.42 72.3742 11.28C72.7849 11.14 73.2095 11.07 73.6482 11.07C74.2922 11.07 74.8522 11.2007 75.3282 11.462C75.8135 11.714 76.1915 12.0593 76.4622 12.498C76.7329 12.9367 76.8682 13.4453 76.8682 14.024C76.8682 14.3133 76.7889 14.5327 76.6302 14.682C76.4715 14.8313 76.2522 14.9247 75.9722 14.962L71.5202 15.62ZM80.2141 13.086V14.836H78.1421V12.834C78.1421 12.5727 78.2027 12.3533 78.3241 12.176C78.4547 11.9893 78.6321 11.826 78.8561 11.686C79.1641 11.4993 79.5327 11.3547 79.9621 11.252C80.4007 11.14 80.8581 11.084 81.3341 11.084C82.2861 11.084 82.7621 11.4013 82.7621 12.036C82.7621 12.1853 82.7387 12.3253 82.6921 12.456C82.6547 12.5867 82.6081 12.6987 82.5521 12.792C82.4587 12.7733 82.3421 12.7593 82.2021 12.75C82.0714 12.7313 81.9267 12.722 81.7681 12.722C81.4881 12.722 81.2081 12.7547 80.9281 12.82C80.6481 12.8853 80.4101 12.974 80.2141 13.086ZM78.1421 14.304L80.2141 14.346V17.986C80.1207 18.014 79.9901 18.0373 79.8221 18.056C79.6541 18.084 79.4721 18.098 79.2761 18.098C78.8841 18.098 78.5947 18.028 78.4081 17.888C78.2307 17.748 78.1421 17.496 78.1421 17.132V14.304Z" fill="white"/>
</svg>







</svg>
