<svg width="141" height="119" viewBox="0 0 141 119" fill="none" xmlns="http://www.w3.org/2000/svg">
<g clip-path="url(#clip0_183_5192)">
<path d="M56.0164 44.9371C61.4672 36.0606 68.3525 28.2937 69.7869 17.7529C70.3607 13.3147 70.0738 8.87647 69.2131 4.43824C68.9263 3.0513 68.6394 1.38696 70.3607 0.554792C72.3689 -0.554765 74.664 0.554792 75.2377 3.0513C77.5328 13.0373 76.6722 22.4685 71.7951 31.345C68.6394 37.1702 64.9099 42.718 61.1804 48.5431C60.0328 50.2075 60.3197 51.317 61.4672 52.704C63.1885 54.9231 64.9099 57.4196 66.9181 59.9161C72.9426 50.4849 82.123 43.5501 88.7213 34.9511C93.0246 29.4033 94.459 22.7459 95.0328 16.0886C95.3197 13.5921 94.7459 10.5408 98.4754 9.98603C101.344 9.70864 102.205 12.2051 101.918 16.6434C101.631 30.7902 93.5984 41.0536 83.8443 50.4849C79.2541 54.9231 75.2377 59.6387 71.7951 64.9091C70.9345 66.296 70.3607 67.683 71.2213 69.3473C75.8115 80.9977 75.8115 93.2028 74.9508 105.408C74.664 108.737 74.0902 111.788 73.8033 115.117C73.5164 117.336 72.9426 119.277 70.0738 119C67.2049 118.723 66.9181 116.781 67.2049 114.284C68.6394 104.576 69.5 94.5898 68.0656 84.8811C66.9181 74.8951 63.4754 66.0187 57.4508 57.9744C54.2951 53.8135 51.1394 49.6527 48.2705 45.4919C41.6722 35.7832 39.9508 24.965 41.6722 13.5921C41.959 11.6504 43.1066 9.98603 45.4017 10.2634C47.6967 10.5408 48.5574 12.2051 48.2705 14.4243C47.4099 21.0816 47.123 28.0163 49.7049 34.3963C50.8525 38.0023 52.8607 41.6084 56.0164 44.9371Z" fill="#49971C"/>
<path d="M42.8197 71.289C39.6639 66.8508 35.6476 63.2448 31.918 59.6387C23.3115 51.0396 18.7213 40.7762 18.4344 28.8485C18.4344 26.6294 18.7213 24.1329 21.8771 24.1329C24.459 24.1329 25.3197 26.0746 25.0328 28.2937C24.459 40.4988 30.7705 49.6527 39.0902 57.9744C46.2623 65.1865 53.1476 72.676 57.7377 81.5525C63.4754 93.2028 62.041 104.853 57.4508 116.503C56.5902 118.445 54.8689 119.277 52.8607 118.445C50.5656 117.613 50.8525 115.394 51.4262 113.73C54.0082 107.904 55.4426 102.079 55.1558 95.6993C55.1558 91.5385 54.0082 87.655 52 84.049C47.4098 76.0047 31.6312 73.7855 25.0328 82.662C24.459 83.4942 23.8853 84.3263 23.3115 85.1585C21.8771 87.655 20.4426 88.7646 18.1476 87.3776C15.8525 85.9907 16.4262 84.049 17.2869 82.1072C18.7213 79.6107 20.7295 77.669 23.0246 75.4499C17 74.3403 12.123 71.5664 8.10657 67.683C5.5246 65.1865 3.80329 62.1352 2.08198 59.3613C0.934441 57.4196 1.22133 55.7553 3.22952 54.6457C5.23772 53.5361 6.95903 54.6457 7.81969 56.31C12.6967 66.296 21.3033 69.9021 32.2049 70.4569C35.6476 70.7343 39.0902 71.0117 42.8197 71.289Z" fill="#49971C"/>
<path d="M99.0492 71.289C105.934 70.4569 112.82 70.7342 119.418 68.7925C126.016 66.8508 130.32 62.4126 133.189 56.5874C134.049 54.9231 135.484 53.2587 137.779 54.3683C140.074 55.4778 139.787 57.4196 139.213 59.3613C136.057 67.1282 130.033 71.5664 122.287 74.3403C121.426 74.6177 120.279 74.6177 119.418 75.7272C121.426 77.9464 123.434 80.1655 124.869 82.9394C125.73 84.8811 125.73 86.5454 123.721 87.655C121.713 88.4872 120.279 87.655 119.418 85.9906C113.107 77.1142 105.074 74.6177 95.6066 79.0559C90.1558 81.8298 88.1476 87.1002 87.2869 92.9254C86.4263 99.5827 87 106.24 89.8689 112.343C90.7295 114.284 92.7377 117.058 89.2951 118.445C85.8525 119.832 84.9918 117.058 83.8443 114.562C80.1148 104.576 79.2541 94.5897 82.6968 84.6037C82.9836 83.4941 83.2705 82.662 83.8443 81.8298C91.0164 73.2307 95.3197 62.9673 101.057 53.5361C106.508 44.937 114.254 39.6666 123.721 36.338C126.016 35.5058 128.025 35.2284 129.172 38.0023C130.033 40.2214 128.312 41.331 126.59 42.1631C124.295 43.2727 121.713 44.1049 119.418 45.2144C110.238 49.6527 105.361 57.9743 101.057 66.296C100.197 67.683 99.0492 69.0699 99.0492 71.289Z" fill="#49971C"/>
<path d="M15.8525 49.9301C12.123 49.9301 7.5328 46.324 6.67215 42.7179C6.09838 40.4988 6.95903 39.944 8.96723 40.2214C13.2705 40.7762 16.7131 43.8275 17.8607 47.9883C18.1476 49.93 17 49.9301 15.8525 49.9301Z" fill="#49971C"/>
<path d="M83.5574 13.3147C83.2705 9.43121 84.9918 6.93471 87.2869 4.7156C88.7213 3.32865 89.582 3.60604 90.4426 5.54776C91.5902 8.87644 89.8689 14.1468 87 16.3659C86.4263 16.6433 85.5656 17.4755 84.7049 16.9207C83.2705 15.8112 83.8443 14.1468 83.5574 13.3147Z" fill="#49971C"/>
<path d="M85.5656 60.1934C84.4181 59.9161 82.9836 60.4708 82.4099 59.3613C81.8361 58.2517 82.9836 57.1422 83.8443 56.31C86.4262 53.5361 89.582 52.4265 93.3115 52.7039C95.6066 52.9813 95.8935 54.0909 94.7459 55.7552C92.7377 58.8065 89.2951 59.9161 85.5656 60.1934Z" fill="#49971C"/>
<path d="M114.541 17.4755C114.541 21.0816 110.812 25.5198 107.082 26.352C105.934 26.6294 105.074 26.352 105.074 24.965C104.787 21.359 108.516 16.0886 112.533 15.5338C114.254 15.2564 114.541 15.5338 114.541 17.4755Z" fill="#49971C"/>
<path d="M79.8279 31.6224C78.9672 31.6224 77.5328 31.6224 76.959 30.7902C76.0984 29.6807 77.5328 28.5711 78.1066 27.739C80.1148 24.9651 85.8525 23.0233 88.1476 23.8555C89.8689 24.4103 89.8689 25.2424 89.0082 26.6294C86.7131 30.2355 83.5574 31.345 79.8279 31.6224Z" fill="#49971C"/>
<path d="M42.2459 45.7692C42.2459 47.711 41.959 50.4848 39.9508 50.7622C38.2295 51.0396 37.082 48.5431 36.2213 46.6014C35.3607 44.6597 34.7869 42.4406 35.6476 40.2214C35.9344 39.1119 35.9344 37.4476 37.3689 37.1702C38.5164 37.1702 39.3771 38.2797 39.9508 39.1119C41.3853 41.331 42.2459 43.2727 42.2459 45.7692Z" fill="#49971C"/>
<path d="M47.9836 59.0839C48.2705 57.9744 47.6967 56.8648 48.8443 56.31C49.7049 56.0327 50.8525 56.5874 51.4263 57.1422C54.582 59.3613 56.3033 62.4126 56.3033 66.0187C56.3033 68.2378 55.4426 69.07 53.1476 67.683C49.9918 65.7413 47.9836 62.69 47.9836 59.0839Z" fill="#49971C"/>
<path d="M34.7869 89.5967C33.6394 89.5967 31.6312 89.8741 31.0574 88.2098C30.4836 86.5454 32.2049 85.7133 33.3525 84.6037C35.9345 82.3846 39.0902 81.8298 42.5328 82.3846C43.9672 82.662 44.2541 83.2168 43.6804 84.6037C42.2459 88.7646 38.8033 89.3193 34.7869 89.5967Z" fill="#49971C"/>
<path d="M64.0492 12.7599C64.0492 13.3147 64.0492 14.4242 63.4754 14.7016C62.6148 15.2564 61.4672 14.4242 60.6066 13.8694C57.164 12.2051 56.3033 8.87644 54.8689 6.10255C54.2951 5.27038 54.8689 4.16082 55.7295 3.32865C56.5902 2.49649 57.4508 3.05126 58.3115 3.60604C61.7541 5.54777 63.7623 8.32166 64.0492 12.7599Z" fill="#49971C"/>
<path d="M52.8607 24.4103C52.8607 22.4685 53.1476 19.6946 54.8689 19.4172C56.8771 18.8625 57.7377 21.6364 58.5984 23.3007C59.7459 25.7972 60.0328 28.5711 58.5984 31.345C57.7377 33.0093 56.5902 33.0093 55.4427 31.8998C53.7213 29.6807 52.8607 27.1842 52.8607 24.4103Z" fill="#49971C"/>
<path d="M7.53281 80.9976C4.95084 80.4429 0.934448 80.7202 0.934448 77.9463C0.934448 75.4498 4.95084 74.8951 7.53281 74.6177C8.68035 74.6177 9.82789 74.8951 10.9754 74.8951C12.6967 75.1725 14.7049 75.1725 14.4181 77.3916C14.4181 79.3333 12.4099 79.6107 10.9754 80.1655C9.82789 80.4429 8.68035 80.7202 7.53281 80.9976Z" fill="#49971C"/>
<path d="M103.639 38.5571C106.221 38.2797 106.221 39.6666 105.361 41.6084C103.352 45.7692 99.3361 46.8788 95.3197 47.7109C93.3115 47.9883 93.8853 46.324 94.1722 45.2144C95.0328 41.6084 99.3361 38.5571 103.639 38.5571Z" fill="#49971C"/>
<path d="M134.623 80.9976C130.893 80.9976 126.303 78.7785 127.164 77.669C128.598 75.1725 131.467 74.6177 134.336 74.6177C137.205 74.6177 140.934 75.1725 141.221 77.669C140.934 80.7202 136.631 80.1655 134.623 80.9976Z" fill="#49971C"/>
<path d="M113.68 35.5058C111.959 35.2284 109.09 35.5058 108.803 33.5641C108.23 31.6224 110.812 30.7902 112.533 29.958C115.115 28.5711 117.984 28.8485 120.566 29.4033C122.861 29.958 123.148 31.0676 121.426 32.7319C118.844 34.6737 116.262 35.2284 113.68 35.5058Z" fill="#49971C"/>
<path d="M109.951 63.2447C110.238 59.9161 111.098 57.1422 113.967 55.2005C114.828 54.6457 115.689 53.5361 116.836 54.0909C117.984 54.6457 117.697 55.7552 117.984 56.8648C118.271 59.9161 117.123 62.69 114.541 64.9091C113.68 65.7412 112.533 66.8508 111.098 66.296C109.377 65.7412 110.238 64.0769 109.951 63.2447Z" fill="#49971C"/>
<path d="M107.082 89.5968C103.352 89.3194 100.484 88.2098 98.4754 85.4359C97.041 83.7716 97.3279 82.9394 99.623 82.3846C103.066 81.8299 106.221 82.662 108.803 84.8811C109.664 85.7133 111.385 86.8229 110.811 88.2098C109.951 89.5968 108.23 89.3194 107.082 89.5968Z" fill="#49971C"/>
<path d="M35.3607 23.0233C35.6476 26.0746 34.5 28.2937 32.4918 30.5128C31.0574 31.8998 30.1967 31.0676 29.623 29.6807C28.4754 26.352 28.4754 23.0233 30.4836 20.2494C31.3443 19.1399 31.9181 18.0303 33.6394 18.3077C35.3607 18.5851 35.0738 20.2494 35.3607 21.359C35.3607 21.9138 35.3607 22.4685 35.3607 23.0233Z" fill="#49971C"/>
<path d="M24.1722 63.7995C20.1558 64.0769 17.5738 62.69 15.2787 59.9161C13.8443 58.2517 14.1312 57.1422 16.4262 56.8648C19.8689 56.5874 23.0246 56.8648 25.6066 59.3613C26.4672 60.4708 28.1885 61.303 27.6148 62.69C27.3279 64.0769 25.3197 63.5221 24.1722 63.7995Z" fill="#49971C"/>
<path d="M85.8525 65.1865C87.5738 65.1865 88.1476 65.7413 87.5738 67.4056C86.1394 71.0117 82.123 74.063 78.1066 74.063C76.0984 74.063 75.5246 73.5082 76.0984 71.5665C77.5328 68.2378 81.8361 64.9091 85.8525 65.1865Z" fill="#49971C"/>
<path d="M70.0738 47.1562C69.2131 47.1562 68.3525 47.1562 68.0656 45.7693C67.4918 42.1632 74.3771 36.338 78.1066 37.4476C78.9672 37.725 78.9672 38.2797 78.9672 38.8345C78.6803 42.4406 73.5164 47.1562 70.0738 47.1562Z" fill="#49971C"/>
<path d="M132.328 47.9884C132.041 51.8718 129.746 54.6457 126.016 56.31C124.295 57.1422 123.434 56.5874 123.434 54.6457C123.434 50.4849 125.73 47.711 129.172 45.7693C130.033 45.2145 130.893 44.6597 131.754 45.2145C132.902 45.7693 132.328 46.8788 132.328 47.9884Z" fill="#49971C"/>
</g>
<defs>
<clipPath id="clip0_183_5192">
<rect width="140" height="119" fill="white" transform="translate(0.934448)"/>
</clipPath>
</defs>
</svg>
