<svg width="150" height="100" viewBox="0 0 194 149" fill="none" xmlns="http://www.w3.org/2000/svg">
<g clip-path="url(#clip0_29_2451)">
<path d="M98.2234 38.4224H93.178V137.82H98.2234V38.4224Z" fill="#49971C"/>
<path d="M120.914 149H70.8301V147.256C70.8301 141.429 77.3634 136.705 85.4213 136.705H106.325C114.383 136.705 120.916 141.429 120.916 147.256V149H120.914Z" fill="#49971C"/>
<path d="M124.612 149H67.1345V148.505C67.1345 146.347 68.896 144.598 71.0692 144.598H120.675C122.848 144.598 124.61 146.347 124.61 148.505V149H124.612Z" fill="#71BF44"/>
<path d="M154.383 13.3644L39.9522 58.7643C38.5374 59.3236 37.0687 58.9732 36.6706 57.9759L36.6562 57.9398C36.259 56.9447 37.0788 55.6822 38.4928 55.1207L152.924 9.72087C154.338 9.16155 155.807 9.51201 156.205 10.5093L156.22 10.5453C156.617 11.5405 155.797 12.803 154.383 13.3644Z" fill="#71BF44"/>
<path d="M42.5122 55.9264C41.7195 53.9305 39.2596 53.0274 37.0178 53.9091C34.7759 54.7909 33.6012 57.1236 34.3938 59.1195C35.1865 61.1154 37.6465 62.0185 39.8883 61.1368C42.1301 60.255 43.3049 57.9222 42.5122 55.9264Z" fill="#71BF44"/>
<path d="M39.2286 58.1595C46.1597 73.3649 53.0909 88.5704 60.0243 103.776C61.8755 107.835 63.7244 111.895 65.5756 115.954C66.0264 116.94 64.642 117.719 64.1958 116.735C57.2647 101.529 50.3336 86.3238 43.4002 71.1184C41.5489 67.059 39.7 62.9996 37.8488 58.9403C37.3981 57.954 38.7825 57.1754 39.2286 58.1595Z" fill="#71BF44"/>
<path d="M39.2654 58.1595C32.2768 73.3398 25.2905 88.5202 18.3018 103.701C16.4368 107.753 14.5718 111.806 12.7068 115.858C12.2538 116.844 13.6336 117.625 14.0843 116.643C21.0729 101.463 28.0592 86.2827 35.0479 71.1024C36.9129 67.0499 38.7779 62.9974 40.6429 58.9448C41.0959 57.9585 39.7161 57.1777 39.2654 58.1595Z" fill="#71BF44"/>
<path d="M38.4697 59.5864C38.4375 76.6663 38.4076 93.7462 38.3754 110.828C38.3731 112.372 38.3708 113.915 38.3662 115.459C38.3662 116.575 39.8978 116.577 39.9001 115.461C39.9323 98.3809 39.9622 81.301 39.9944 64.2211C39.9967 62.6777 39.999 61.1343 40.0036 59.591C40.0036 58.4745 38.472 58.4722 38.4697 59.5887V59.5864Z" fill="#71BF44"/>
<path d="M158.683 10.0082C157.891 8.01225 155.431 7.10866 153.189 7.99003C150.947 8.8714 149.772 11.204 150.564 13.2C151.357 15.196 153.817 16.0995 156.058 15.2182C158.3 14.3368 159.476 12.0042 158.683 10.0082Z" fill="#71BF44"/>
<path d="M153.675 11.6508C160.606 26.8563 167.537 42.0618 174.47 57.2673C176.322 61.3266 178.17 65.386 180.022 69.4454C180.472 70.4317 179.088 71.2102 178.642 70.2262C171.711 55.0207 164.78 39.8152 157.846 24.6097C155.995 20.5504 154.146 16.491 152.295 12.4317C151.844 11.4454 153.229 10.6668 153.675 11.6508Z" fill="#71BF44"/>
<path d="M153.711 11.6508C146.723 26.8312 139.737 42.0116 132.748 57.1919C130.883 61.2444 129.018 65.297 127.153 69.3495C126.7 70.3358 128.08 71.1166 128.53 70.1348C135.519 54.9545 142.505 39.7741 149.494 24.5938C151.359 20.5412 153.224 16.4887 155.089 12.4362C155.542 11.4499 154.162 10.6691 153.711 11.6508Z" fill="#71BF44"/>
<path d="M152.916 13.0778C152.884 30.1577 152.854 47.2376 152.821 64.3198C152.819 65.8632 152.817 67.4065 152.812 68.9499C152.812 70.0664 154.344 70.0686 154.346 68.9522C154.378 51.8723 154.408 34.7924 154.44 17.7125C154.443 16.1691 154.445 14.6257 154.45 13.0823C154.45 11.9659 152.918 11.9636 152.916 13.0801V13.0778Z" fill="#71BF44"/>
<path d="M100.942 34.5799C100.944 32.726 99.9735 31.1027 98.5132 30.1895C98.4236 30.1324 98.3661 30.0365 98.3661 29.9292L98.3431 2.56164C98.3431 2.46575 98.3362 2.34703 98.3201 2.21461C97.9958 -0.787677 93.4908 -0.716901 93.3114 2.29451C93.3091 2.34474 93.3069 2.39269 93.3069 2.43607L93.2563 29.9201C93.2563 30.0274 93.1988 30.1233 93.1091 30.1804C91.6465 31.0868 90.6692 32.7078 90.6646 34.5616C90.6623 36.4155 91.6327 38.0388 93.093 38.952C93.1827 39.0091 93.2402 39.105 93.2402 39.2123L93.231 44.1393C93.231 44.7808 95.0776 50.0594 95.7744 50.0594C96.3838 50.0594 98.3385 44.7215 98.3408 43.9749L98.35 39.2215C98.35 39.1141 98.4075 39.0183 98.4972 38.9612C99.9597 38.0548 100.937 36.4338 100.942 34.5799Z" fill="#71BF44"/>
<path d="M97.7726 34.2192C97.9819 35.589 96.8068 36.7511 95.427 36.5388C94.5669 36.4064 93.8655 35.7077 93.7345 34.8539C93.5252 33.484 94.7003 32.3219 96.0801 32.5342C96.9402 32.6667 97.6416 33.3653 97.7726 34.2192Z" fill="#FFC010"/>
<path d="M123.736 70.4339H186.086L186.033 70.6234C184.444 76.1896 180.652 79.8152 176.453 79.7832L133.169 79.459C129.071 79.4293 125.378 75.9179 123.763 70.523L123.736 70.4339Z" fill="#FFC010"/>
<path d="M186.875 71.9316H122.947C122.239 71.9316 121.666 71.2672 121.666 70.4499V70.4202C121.666 69.6029 122.239 68.9385 122.947 68.9385H186.875C187.583 68.9385 188.156 69.6029 188.156 70.4202V70.4499C188.156 71.2695 187.583 71.9316 186.875 71.9316Z" fill="#FFC010"/>
<path d="M7.76245 116.687H70.1127L70.0598 116.876C68.4708 122.443 64.6787 126.068 60.4795 126.036L17.1956 125.712C13.0976 125.682 9.4044 122.171 7.79005 116.776L7.76245 116.687Z" fill="#FFC010"/>
<path d="M70.9016 118.182H6.97377C6.26548 118.182 5.69287 117.518 5.69287 116.701V116.671C5.69287 115.851 6.26548 115.189 6.97377 115.189H70.9016C71.6099 115.189 72.1825 115.854 72.1825 116.671V116.701C72.1825 117.52 71.6099 118.182 70.9016 118.182Z" fill="#FFC010"/>
<g style="mix-blend-mode:multiply" opacity="0.08">
<path d="M69.593 118.228C69.593 118.228 67.4268 124.774 61.6018 125.991L24.29 125.723C24.29 125.723 53.1115 125.267 58.3248 122.984C63.5381 120.701 66.8335 118.342 66.8335 118.342L69.593 118.228Z" fill="#272525"/>
</g>
<g style="mix-blend-mode:multiply" opacity="0.08">
<path d="M185.69 72.0229C185.69 72.0229 183.524 78.5686 177.699 79.7855L140.387 79.5184C140.387 79.5184 169.209 79.0618 174.422 76.7787C179.635 74.4955 182.931 72.1371 182.931 72.1371L185.69 72.0229Z" fill="#272525"/>
</g>
</g>
<defs>
<clipPath id="clip0_29_2451">
<rect width="193" height="149" fill="white" transform="translate(0.5)"/>
</clipPath>
</defs>
</svg>
