<svg width="105" height="108" viewBox="0 0 105 108" fill="none" xmlns="http://www.w3.org/2000/svg">
<g clip-path="url(#clip0_115_20259)">
<path d="M0.766597 15.2898C2.77993 17.1069 4.66744 19.0451 6.55494 20.8622C7.56161 21.8313 8.56828 22.8004 9.57495 23.6484C13.8533 27.0403 20.145 26.6769 23.92 22.9216C27.695 19.0451 27.695 13.1093 23.6683 9.35401C21.1516 6.93124 18.5091 4.38732 15.8666 1.96455C15.7408 1.84341 15.4891 1.60113 15.3633 1.35885C19.1383 0.389743 22.9133 0.510882 26.5625 1.47999C36.1258 4.14505 42.1659 12.7459 41.1592 22.1947C41.0334 22.8004 41.0334 23.5273 40.7817 24.1329C40.6558 24.7386 40.7817 25.1021 41.1592 25.5866C59.5309 42.9095 77.7768 60.1112 95.8968 77.3129C97.6585 78.8877 99.2943 80.5836 101.056 82.1584C104.076 85.0658 104.957 88.5788 103.698 92.4552C102.44 96.2105 99.546 98.6333 95.3935 99.239C91.7443 99.8447 88.5985 98.8756 85.956 96.3317C73.1209 84.2178 60.4117 72.225 47.5767 60.1112C40.4042 53.3274 33.2317 46.5436 26.0592 39.7598C25.6817 39.3964 25.43 39.3964 24.9266 39.5176C13.8533 41.6981 3.0316 35.1566 0.51493 24.4964C-0.114239 21.589 -0.114239 18.5606 0.640763 15.6532C0.640763 15.5321 0.766597 15.411 0.766597 15.2898ZM93.506 85.308C91.1151 85.308 89.2276 87.1251 89.2276 89.3056C89.2276 91.4861 91.1151 93.3032 93.3801 93.3032C95.771 93.3032 97.6585 91.4861 97.6585 89.3056C97.7843 87.1251 95.8968 85.308 93.506 85.308Z" fill="white"/>
<path d="M43.9275 107.961C41.1592 107.961 38.5167 107.961 35.7483 107.961C35.245 107.961 34.9933 107.84 34.8675 107.476C32.0992 102.994 29.4567 98.5121 26.6883 94.03C26.4367 93.6665 26.4367 93.4243 26.6883 93.0608C29.4567 88.5787 32.0992 84.0966 34.8675 79.6144C35.1192 79.251 35.3708 79.1299 35.7483 79.1299C41.1592 79.1299 46.6959 79.1299 52.1067 79.1299C52.4842 79.1299 52.7359 79.251 52.9875 79.6144C55.7559 84.0966 58.3984 88.5787 61.1667 93.0608C61.4184 93.4243 61.4184 93.6665 61.1667 94.03C58.3984 98.5121 55.63 102.994 52.9875 107.476C52.7359 107.84 52.4842 107.961 52.1067 107.961C49.3384 107.961 46.6959 107.961 43.9275 107.961ZM35.3708 93.5454C35.3708 98.0275 39.1459 101.662 43.9275 101.662C48.5834 101.662 52.4842 98.0275 52.4842 93.5454C52.4842 89.0633 48.7092 85.5502 43.9275 85.4291C39.2717 85.5502 35.3708 89.0633 35.3708 93.5454Z" fill="#486B32"/>
<path d="M13.6016 66.0469C13.6016 64.1087 13.6016 62.2916 13.6016 60.3534C13.6016 59.8689 13.7275 59.6266 14.105 59.3843C17.6283 57.4461 21.1516 55.5079 24.675 53.5696C25.0525 53.3274 25.3041 53.3274 25.6817 53.5696C29.205 55.5079 32.7283 57.4461 36.3775 59.3843C36.755 59.6266 36.8808 59.7477 36.8808 60.1111C36.8808 63.9876 36.8808 67.864 36.8808 71.7405C36.8808 72.1039 36.755 72.3462 36.3775 72.4673C32.8542 74.4055 29.205 76.3437 25.6817 78.282C25.3041 78.5242 25.0525 78.5242 24.675 78.282C21.1516 76.3437 17.6283 74.4055 14.105 72.4673C13.7275 72.225 13.6016 71.9827 13.6016 71.6193C13.6016 69.8022 13.6016 67.9852 13.6016 66.0469ZM25.1783 60.5957C21.9066 60.5957 19.39 63.0185 19.39 66.0469C19.39 69.0754 22.0325 71.4982 25.1783 71.4982C28.3242 71.4982 30.9667 69.0754 30.9667 66.0469C30.9667 63.0185 28.3242 60.5957 25.1783 60.5957Z" fill="#486B32"/>
<path d="M9.70078 89.5478C9.70078 92.6974 9.70078 95.9682 9.70078 99.1178C9.70078 99.6024 9.57495 99.7235 9.07162 99.7235C3.78661 98.8755 0.0115967 94.5145 0.0115967 89.5478C0.0115967 84.5811 3.91244 80.2202 9.07162 79.3722C9.57495 79.251 9.70078 79.4933 9.70078 79.9779C9.70078 83.1275 9.70078 86.3982 9.70078 89.5478Z" fill="#FDFCFC"/>
<path d="M12.2175 89.5479C12.2175 86.3982 12.2175 83.1275 12.2175 79.9779C12.2175 79.4933 12.3433 79.3722 12.8466 79.3722C18.0058 80.2202 22.0325 84.7023 21.9067 89.669C21.7808 94.7568 17.88 99.1178 12.595 99.8446C11.9658 99.9658 12.0916 99.6024 12.0916 99.3601C12.2175 95.9682 12.2175 92.8186 12.2175 89.5479Z" fill="#FDFCFC"/>
<path d="M93.506 85.308C95.8968 85.308 97.7843 87.1251 97.7843 89.4267C97.7843 91.6072 95.771 93.4243 93.506 93.4243C91.241 93.4243 89.3535 91.6072 89.3535 89.4267C89.2276 87.0039 91.1151 85.308 93.506 85.308Z" fill="#FBFBFB"/>
<path d="M35.3708 93.5454C35.3708 89.0633 39.1459 85.5502 43.9275 85.5502C48.5834 85.5502 52.3584 89.1844 52.4842 93.6665C52.4842 98.0275 48.7092 101.783 43.9275 101.783C39.2717 101.662 35.3708 98.0275 35.3708 93.5454Z" fill="#FDFCFC"/>
<path d="M25.1783 60.5957C28.3242 60.5957 30.9667 63.0185 30.9667 66.0469C30.9667 69.0754 28.3242 71.4982 25.1783 71.4982C22.0325 71.4982 19.39 69.0754 19.39 66.0469C19.39 63.0185 21.9066 60.5957 25.1783 60.5957Z" fill="#FBFBFB"/>
</g>
<defs>
<clipPath id="clip0_115_20259">
<rect width="104.19" height="107.208" fill="white" transform="translate(0.0115967 0.753113)"/>
</clipPath>
</defs>
</svg>
